<?xml version="1.0" encoding="UTF-8"?>
<svg id="Layer_2" data-name="Layer 2" style="fill: #000;" xmlns="http://www.w3.org/2000/svg" viewBox="0 0 78.1 27.08">
  <defs>
    
  </defs>
  <g id="Layer_1-2" data-name="Layer 1">
    <g>
      <path class="cls-1" d="m7.45,24.73c0-1.35,1.02-2.34,2.4-2.34.65,0,1.24.21,1.64.64l-.21.22c-.4-.39-.88-.55-1.42-.55-1.18,0-2.07.87-2.07,2.03s.89,2.03,2.07,2.03c.54,0,1.02-.16,1.42-.55l.21.22c-.4.43-.99.65-1.64.65-1.37,0-2.4-1-2.4-2.34"/>
      <path class="cls-1" d="m13.4,24.73c0-1.34,1.02-2.34,2.4-2.34s2.4,1,2.4,2.34-1.03,2.34-2.4,2.34-2.4-1-2.4-2.34m4.46,0c0-1.17-.89-2.03-2.06-2.03s-2.07.86-2.07,2.03.88,2.03,2.07,2.03,2.06-.86,2.06-2.03"/>
      <polygon class="cls-1" points="24.46 22.42 24.46 27.04 24.18 27.04 21.03 23.03 21.03 27.04 20.7 27.04 20.7 22.42 20.98 22.42 24.12 26.43 24.12 22.42 24.46 22.42"/>
      <path class="cls-1" d="m26.92,26.45l.15-.25c.32.33.9.58,1.53.58.92,0,1.33-.4,1.33-.91,0-1.39-2.89-.55-2.89-2.26,0-.65.5-1.23,1.64-1.23.51,0,1.04.16,1.39.42l-.13.27c-.38-.26-.85-.39-1.27-.39-.9,0-1.3.42-1.3.92,0,1.39,2.89.57,2.89,2.25,0,.65-.52,1.22-1.66,1.22-.69,0-1.35-.26-1.68-.63"/>
      <path class="cls-1" d="m32.69,25.08v-2.66h.34v2.65c0,1.16.55,1.7,1.52,1.7s1.51-.54,1.51-1.7v-2.65h.34v2.66c0,1.32-.71,1.99-1.86,1.99s-1.85-.67-1.85-1.99"/>
      <polygon class="cls-1" points="39.29 22.42 39.63 22.42 39.63 26.74 42.29 26.74 42.29 27.04 39.29 27.04 39.29 22.42"/>
      <polygon class="cls-1" points="44.93 22.72 43.27 22.72 43.27 22.42 46.93 22.42 46.93 22.72 45.27 22.72 45.27 27.04 44.93 27.04 44.93 22.72"/>
      <rect class="cls-1" x="49.09" y="22.42" width=".34" height="4.62"/>
      <polygon class="cls-1" points="56.12 22.42 56.12 27.04 55.84 27.04 52.69 23.03 52.69 27.04 52.36 27.04 52.36 22.42 52.64 22.42 55.78 26.43 55.78 22.42 56.12 22.42"/>
      <path class="cls-1" d="m62.35,24.75h.32v1.73c-.42.4-1.02.6-1.65.6-1.39,0-2.42-1-2.42-2.35s1.02-2.34,2.42-2.34c.67,0,1.26.21,1.66.63l-.21.22c-.4-.4-.88-.55-1.45-.55-1.2,0-2.09.87-2.09,2.03s.89,2.03,2.09,2.03c.49,0,.94-.12,1.31-.42v-1.59Z"/>
      <path class="cls-1" d="m17.45,15.29c-1.33-2.81-2.97-6.25-3.66-7.77-.52-1.15-1.03-2.29-1.56-3.44-.4-.87-1.11-1.32-2.06-1.32-.94,0-1.63.46-2.04,1.32-.24.52-.48,1.04-.72,1.57-.76,1.67-2.01,4.37-3.19,6.93-.76,1.65-2.41,2.71-4.23,2.71.21-.47.43-.94.64-1.42,1.15-2.53,3.81-8.28,4.96-10.81.65-1.42,1.7-2.4,3.2-2.83,2.4-.69,4.83.44,5.88,2.75,1.28,2.79,3.97,8.44,5.78,12.32"/>
      <polygon class="cls-1" points="10.21 11.02 12.2 15.29 8.27 15.29 10.21 11.02"/>
      <path class="cls-1" d="m40.71,11.01c-1.46,2.77-3.78,4.22-6.92,4.27-2.3.04-4.6,0-6.9,0-.13,0-.27,0-.39-.04-.62-.14-1.05-.67-1.05-1.31,0-.99,0-1.97,0-2.96,0-.45,0-1.18,0-1.96,0-1.5,1.21-2.72,2.71-2.72,0,1.5,0,4.56,0,6.06v.19h.14c1.85,0,3.7,0,5.55,0,.38,0,.77-.04,1.14-.12,3.19-.72,4.81-4.4,3.16-7.22-.95-1.64-2.41-2.47-4.31-2.49-2.26-.02-6.14,0-8.4,0V0c2.26,0,6.15,0,8.42,0,.33,0,.66.02.98.06,1.1.13,2.13.48,3.07,1.08,2.02,1.29,3.21,3.13,3.54,5.51.21,1.52,0,3-.73,4.36"/>
      <rect class="cls-1" x="75.38" y="5.42" width="2.72" height="9.87"/>
      <path class="cls-1" d="m78.1,2.69h0c0-1.48-1.2-2.69-2.69-2.69h-.04v2.69h2.72Z"/>
      <path class="cls-1" d="m66.93,15.27h-3.73c-1.67-1.81-3.88-4.21-4.52-4.91-1.9,0-3.79,0-5.69,0h-.16v.16c0,1.11,0,2.22,0,3.33h0v1.4h-1.05c-.18.04-.37.04-.56,0h-1.1v-2.18c0-1.34,0-2.68,0-4.02h0v-2.76h2.84v1.33c1.14,0,2.27,0,3.41,0,1.53,0,3.05,0,4.58,0,.85,0,1.55-.34,2.05-1.03.74-1.02.56-2.45-.41-3.27-.48-.4-1.04-.6-1.67-.6-.99,0-1.98,0-2.98,0h0s-1.64,0-1.64,0c-1.59,0-3.17,0-4.76,0h-1.4C50.16,1.23,51.38,0,52.88,0h8.06c1.35,0,2.53.44,3.53,1.34,1.06.97,1.66,2.18,1.7,3.62.06,2-.8,3.54-2.47,4.63-.45.29-.92.49-1.42.61h.03c.18.21.35.4.53.59.36.39,3.04,3.31,4.11,4.47"/>
    </g>
  </g>
</svg>