<?xml version="1.0" encoding="UTF-8"?>
<svg id="Layer_2" data-name="Layer 2" xmlns="http://www.w3.org/2000/svg" viewBox="0 0 138.5 20.39">
  <defs>
    <style>
      .cls-1 {
        fill: #000;
      }
       .cls-1:hover {
    fill: #000; /* Change the fill color to black on hover */
  }
    </style>
  </defs>
  <g id="Layer_1-2" data-name="Layer 1">
    <g>
      <path class="cls-1" d="m79.99,14.02c.63-1.62,1.25-3.2,1.87-4.77.32-.82.66-1.62.96-2.45.1-.28.26-.39.55-.36.42.04.91-.17,1.23.11.29.25.27.74.44,1.09.94,1.94,1.62,3.99,2.48,5.96.2.46.06.54-.37.52-1.34-.05-1.05.26-1.53-1.07-.19-.52-.43-.72-.99-.68-.61.05-1.23.03-1.85,0-.36-.01-.57.1-.66.45l-.08.25c-.4,1.07-.4,1.06-1.55,1.05-.66,0-1.32-.01-1.98,0-.32,0-.51-.11-.69-.38-.48-.74-.99-1.45-1.49-2.17-.32-.45-.75-.65-1.31-.66-.33,0-.43.13-.43.44.01.75-.01,1.51.01,2.26.01.35-.08.52-.46.51-1.38-.03-1.12.15-1.13-1.09-.01-2.02,0-4.03-.01-6.05,0-.42.12-.55.54-.54,1.27.04,2.54-.05,3.8.07,1.11.1,1.81.74,1.95,1.73.15,1.15-.31,1.97-1.39,2.35-.41.15-.43.22-.09.5.75.61,1.15,1.49,1.67,2.28.14.21.24.46.5.66m-4.17-6.25q-1.24-.01-1.24,1.22c0,.11,0,.21,0,.31-.01.26.11.38.38.38.61-.02,1.23,0,1.84-.04.58-.04.9-.4.9-.95,0-.55-.32-.88-.93-.92-.31-.02-.63,0-.95,0m8.03.68h-.13c-.29.78-.58,1.56-.85,2.34-.08.23.08.26.25.26.46,0,.91,0,1.37,0,.14,0,.33,0,.25-.22-.29-.79-.59-1.58-.88-2.38"/>
      <path class="cls-1" d="m57.53,10.23c0-1.11.01-2.21,0-3.31,0-.37.12-.5.49-.49,1.3.03,1.09-.17,1.1,1.07,0,.54,0,1.09,0,1.63,0,.13-.06.3.11.37.17.07.24-.1.33-.19.67-.72,1.38-1.4,2-2.17.46-.57.97-.83,1.68-.71.32.05.78-.18.92.11.1.2-.36.46-.57.68-.58.61-1.16,1.23-1.77,1.8-.33.31-.32.52-.07.88.8,1.17,1.56,2.37,2.35,3.56.1.15.16.41.39.37.2-.03.19-.27.26-.43.85-2.15,1.69-4.3,2.52-6.46.15-.38.34-.54.77-.52,1.35.05,1.01-.17,1.49,1,.84,2.06,1.68,4.12,2.52,6.18.14.34.15.52-.31.5-1.48-.06-1.09.28-1.64-1.14-.17-.45-.38-.64-.88-.61-.65.04-1.3.02-1.96,0-.32,0-.56.06-.62.42-.02.1-.08.19-.12.29q-.41,1.04-1.5,1.03c-.7,0-1.41-.01-2.11,0-.32,0-.51-.1-.67-.38-.53-.93-1.09-1.84-1.62-2.77-.19-.33-.3-.32-.62-.09-.87.62-.95,1.47-.89,2.41.02.26.17.65-.14.77-.4.15-.87.11-1.3.01-.21-.05-.14-.29-.14-.46,0-1.12,0-2.24,0-3.37m10.76.83c.18,0,.35-.01.53,0,.42.04.53-.07.35-.5-.26-.6-.46-1.24-.69-1.86-.03-.1-.04-.23-.17-.23-.13,0-.15.12-.19.22-.17.46-.32.92-.49,1.38-.36.98-.37.98.67.98"/>
      <path class="cls-1" d="m16.36,20.39c-5.28,0-10.57,0-15.85,0-.61,0-.61,0-.31-.55.34-.61.7-1.22,1.01-1.85.17-.35.39-.45.78-.45,5.97.01,11.94,0,17.91,0,3.65,0,7.29,0,10.94-.01.42,0,.63.13.8.5.27.61.6,1.19.91,1.78q.29.57-.38.57h-15.8Zm1.37-1.57c.15.33.07.56.08.78,0,.18.05.31.26.3.19,0,.22-.14.22-.29,0-.44,0-.88,0-1.31,0-.17-.02-.33-.24-.32-.2.01-.43-.1-.56.16-.08.16.01.45-.26.46-.27,0-.2-.28-.27-.44-.13-.3-.39-.16-.6-.18-.24-.02-.22.17-.22.33,0,.42,0,.84,0,1.26,0,.16-.02.33.22.33.28,0,.24-.19.24-.36,0-.22,0-.43,0-.69.25.12.18.33.25.47.1.2-.01.56.34.57.37.01.28-.33.36-.54.05-.14.09-.29.16-.54m4.09.06c0,.27,0,.5,0,.72-.01.23.08.32.31.31.2,0,.28-.08.29-.28,0-.16-.11-.42.1-.46.22-.05.25.25.35.39l.11.18c.14.22.4.22.56.13.24-.13,0-.31-.08-.42-.16-.24-.27-.41,0-.69.24-.25.07-.65-.28-.74-.41-.1-.88-.16-1.24,0-.29.13-.05.58-.12.84m-9.24.24c.34.14.39.4.51.6.15.26.4.26.6.15.2-.11,0-.29-.07-.4-.15-.24-.28-.41-.01-.7.21-.22.13-.57-.18-.7-.41-.18-.87-.08-1.3-.07-.13,0-.15.13-.15.24,0,.47,0,.94,0,1.42,0,.21.12.26.3.26.19,0,.3-.07.29-.28,0-.15.01-.31.02-.52m-4.32-.49c-.02-.14-.04-.19-.04-.24,0-.21.04-.43-.3-.42-.34.01-.28.25-.28.45,0,.35,0,.7,0,1.05,0,.18-.08.41.22.44.28.03.38-.1.37-.36,0-.15.1-.28.23-.32.19-.06.22.15.26.26.16.44.46.5.9.36-.2-.33-.38-.63-.56-.93-.28-.48.42-.52.4-.89-.59-.27-.83.24-1.21.6m17.5.31c0-.62-.36-.98-.98-.99-.62,0-.99.35-.99.97-.01.64.37,1.03,1,1.02.6,0,.97-.39.97-1m-5.13-.99c-.73,0-1.08.31-1.12.88-.06.87.67,1.34,1.53,1.02.46-.17.45-.51.38-.85-.07-.35-.41-.14-.62-.18-.1-.02-.22,0-.26.13-.04.14.02.24.17.26.08.01.19.02.16.14-.02.1-.12.12-.2.14-.21.05-.4.01-.51-.18-.14-.26-.15-.55.04-.79.16-.2.36-.2.56-.05.21.16.48.13.55-.04.1-.23-.16-.35-.36-.42-.13-.04-.28-.04-.32-.05m-8.96,1.74c-.16-.44-.35-.93-.52-1.42-.07-.21-.2-.29-.43-.3-.25,0-.37.09-.45.33-.13.41-.31.81-.45,1.22-.04.11-.2.26,0,.35.14.07.33.08.44-.05.3-.37.59-.37.89,0,.12.14.29.09.44.08.07,0,.12-.07.08-.21m-7.03-.03c-.15-.42-.33-.9-.5-1.38-.08-.24-.23-.31-.47-.32-.25,0-.34.13-.41.32-.15.41-.31.82-.46,1.23-.04.12-.17.28.02.36.14.06.32.06.44-.08.29-.33.58-.33.87,0,.12.14.28.12.44.08.08-.02.1-.09.08-.22m11.2.01c-.16-.43-.35-.92-.52-1.42-.08-.22-.22-.28-.44-.28-.23,0-.35.09-.43.3-.14.41-.31.82-.45,1.23-.04.11-.2.27-.03.37.15.09.33.09.48-.06.29-.32.58-.33.86.01.12.14.29.1.44.08.07,0,.11-.08.08-.22m12.07-.95c0-.14,0-.28,0-.42,0-.21-.05-.33-.29-.33-.25,0-.29.13-.28.33,0,.26,0,.53,0,.79,0,.23-.1.38-.33.38-.24,0-.34-.16-.35-.38,0-.28,0-.56,0-.84,0-.19-.08-.28-.28-.28-.2,0-.29.08-.29.28,0,.33-.01.66.02.99.04.4.29.62.69.68.79.12,1.12-.23,1.12-1.21m.4.19c0,.24,0,.49,0,.73,0,.22.13.26.31.26.16,0,.31-.04.28-.22-.07-.45.19-.5.54-.53.34-.03.52-.28.5-.63-.02-.36-.25-.51-.59-.55-1.02-.12-1.04-.1-1.04.94m-22.79-.1c0-.23,0-.37,0-.51,0-.2-.05-.33-.29-.33-.24,0-.31.1-.3.32,0,.17,0,.35,0,.52q0,1.16,1.15,1.1h.05c.18.01.31-.04.3-.25,0-.2-.14-.24-.28-.21-.62.11-.73-.22-.64-.63m1.49.6c.12-.03.33.05.34-.19,0-.32-.26-.2-.42-.22-.15-.01-.35-.03-.33.2.02.27.24.17.42.2"/>
      <path class="cls-1" d="m26.64,14.69c.02.28-.1.3-.35.25-1.21-.22-2.41-.45-3.64-.58-1.29-.14-2.59-.27-3.89-.28-1.78-.02-3.56-.05-5.34.02-1.8.07-3.61.2-5.4.49-.3.05-.5.17-.7.4-.57.67-1.22,1.26-1.94,1.78-.3.22-.62.31-1.11.23.58-.55,1.09-1.07,1.52-1.66,1-1.36,1.88-2.79,2.72-4.24.11-.19.18-.55.48-.47.33.09.64.3.87.56.11.12-.01.27-.07.39-.31.63-.77,1.17-1.18,1.74-.08.11-.24.21-.15.36.08.14.23.03.34,0,2.97-.65,5.98-.79,9.01-.75.81.01,1.12-.45.9-1.24-.3-1.05-.95-1.83-1.83-2.43-1.28-.87-2.58-1.69-3.89-2.52-.57-.36-1.15-.15-1.38.5-.24.68-.45,1.37-.68,2.04-.06.18-.08.38-.24.52v-.02s-.38,0-.38,0h0c-.03-.11-.12-.11-.22-.1h0c-.03-.12-.12-.11-.22-.11h0c-.03-.11-.12-.11-.22-.1h0s-.11-.11-.11-.11h.01c-.04-.09-.13-.11-.22-.1h0c.39-1.24.8-2.49,1.16-3.75.31-1.09.1-1.49-.99-1.99,1.02-.36,1.96-.69,2.91-1.02-.23.53-.54.97-.58,1.55-.04.6-.04,1.18.04,1.78.03.24.15.31.35.24,1.6-.56,3.09-1.29,3.96-2.85.17-.31.36-.43.7-.39.44.05.88.07,1.31.11.14.01.37-.08.41.12.03.15-.16.26-.28.35-.67.48-1.39.89-2.12,1.28-.47.24-.94.47-1.39.75-.49.3-.49.42-.04.74,1.16.83,2.34,1.61,3.47,2.47.82.62,1.39,1.42,1.53,2.48.08.53-.06,1.03-.29,1.47-.26.5.03.52.36.54.76.05,1.5.18,2.24.29,1.42.21,2.82.57,4.22.87h-.03c0,.14.05.23.21.22h0c-.02.1,0,.18.11.21h0Z"/>
      <path class="cls-1" d="m10.73,9.76v.02c-.06.35.25.27.4.32,1.89.53,3.78.56,5.67-.03.17-.05.36-.23.53-.03.15.17.36.36.36.56.01.24-.31.24-.5.29-3.3.87-6.46.72-9.29-1.43-.34-.26-.48-.17-.66.17-1.07,2.04-2.2,4.04-3.78,5.74-.65.7-1.33,1.39-2.26,1.75-.04.02-.1,0-.22-.01,1.07-.97,1.85-2.09,2.59-3.24,1.11-1.74,1.96-3.6,2.75-5.5.1-.24.14-.46,0-.7-1.13-2.14-.23-4.22,1.21-5.45C9.61.45,12.05-.17,14.69.04c2.21.17,4.25.86,5.86,2.46,2.18,2.15,1.69,4.89-.35,6.75-.17.15-.36.29-.5,0-.12-.25-.65-.39-.23-.81.52-.53.97-1.11,1.15-1.86.35-1.43-.1-2.63-1.12-3.64-1.3-1.28-2.91-1.88-4.7-2.02-2.21-.18-4.29.22-6.06,1.64-2.43,1.95-2.1,4.94.57,6.66h.1s0,0,0,0c.03.11.08.2.22.11h-.01c-.04.11.04.1.11.1h0c.03.11.11.14.22.11h0c.03.11.1.15.22.11h0c.03.12.12.13.22.1h0c.13.13.26.27.39,0"/>
      <path class="cls-1" d="m94.36,8.75c-.35.83-.45,1.61-.66,2.36-.24.84-.43,1.7-.64,2.55-.07.29-.2.44-.54.45-1.05.02-1.07.04-1.33-.96-.32-1.22-.61-2.45-.91-3.67-.05-.22-.07-.45-.27-.65-.13.14-.08.29-.08.44,0,1.44-.01,2.88.02,4.31,0,.43-.14.54-.55.53-1.09-.03-.91.09-.92-.93,0-2.07,0-4.14-.01-6.21,0-.41.1-.57.53-.54.47.03.95.02,1.43,0,.3,0,.43.1.5.4.36,1.43.75,2.85,1.13,4.27.02.08.01.18.19.25.21-.77.41-1.53.61-2.3.19-.73.39-1.46.56-2.19.07-.31.21-.44.54-.43.51.02,1.02.02,1.53,0,.28,0,.42.07.42.38,0,2.32,0,4.63,0,6.94,0,.25-.1.33-.34.35-1.13.1-1.13.1-1.13-1.04,0-1.37,0-2.74,0-4.1,0-.03-.02-.06-.09-.22"/>
      <path class="cls-1" d="m108.75,10.27c0-1.12,0-2.24,0-3.36,0-.29.04-.47.39-.47,1.34.03,2.68-.06,4.01.07,1.08.1,1.81.79,1.94,1.82.13,1.01-.4,1.91-1.4,2.26-.45.16-.43.22-.08.52.86.75,1.31,1.81,1.95,2.72.14.2,0,.28-.2.28-.42,0-.85,0-1.27,0-.26,0-.37-.17-.49-.34-.5-.74-1-1.48-1.51-2.21-.3-.43-.72-.64-1.26-.64-.36,0-.51.09-.49.47.02.75-.01,1.51.02,2.26.01.38-.12.48-.48.47-1.34-.03-1.1.15-1.11-1.12-.01-.91,0-1.82,0-2.73h0Zm2.86-2.5q-1.26-.02-1.26,1.25c0,.1,0,.21,0,.31-.01.24.09.35.34.35.63-.01,1.26,0,1.89-.04.57-.04.9-.44.89-.97-.01-.51-.34-.85-.91-.89-.31-.03-.63,0-.95,0"/>
      <path class="cls-1" d="m105.71,9.99c.4,0,.81.01,1.21,0,.32-.01.45.1.44.42-.01.79,0,1.58,0,2.37,0,.16-.03.31-.17.42-1.51,1.24-4.47,1.45-5.87.08-1.34-1.31-1.58-3.9-.45-5.48,1.06-1.48,3.32-1.96,5.04-1.07.62.32,1.02.84,1.26,1.49.1.27.02.4-.25.44-.31.06-.62.11-.93.18-.23.05-.32-.09-.4-.25-.41-.78-1.09-1-1.91-.91-.85.09-1.46.53-1.72,1.34-.29.89-.28,1.8.11,2.67.66,1.49,2.43,1.43,3.52.66.3-.21.2-.59.14-.89-.05-.29-.35-.14-.54-.17-.14-.02-.28,0-.42,0-.78,0-.76,0-.79-.76-.02-.45.13-.6.57-.57.39.03.78,0,1.16,0"/>
      <path class="cls-1" d="m119.91,14.2c-2.13,0-3.49-1.2-3.69-3.31-.14-1.47.11-2.83,1.34-3.85,2.06-1.71,5.52-.49,6.01,2.13.17.88.16,1.75-.09,2.6-.48,1.61-1.72,2.44-3.57,2.44m2.17-3.94c-.05-.35-.07-.7-.15-1.04-.21-.95-.94-1.55-1.91-1.57-1.01-.03-1.81.52-2.06,1.46-.21.77-.21,1.56.02,2.33.26.87,1.01,1.42,1.93,1.44.9.02,1.63-.47,1.95-1.33.15-.41.19-.85.23-1.29"/>
      <path class="cls-1" d="m42.69,6.45c.66-.19.91.18,1.12.71.86,2.18,1.74,4.35,2.63,6.52.15.37.02.41-.3.42-1.25.05-1.28.06-1.66-1.11-.17-.52-.43-.68-.95-.64-.63.04-1.27.02-1.9,0-.33-.01-.54.09-.62.42-.02.1-.07.2-.11.29-.43,1.13-.44,1.13-1.66,1.03-.32-.03-.34-.14-.24-.4.91-2.31,1.82-4.62,2.71-6.94.21-.53.65-.25.98-.32m-.05,4.6c.21,0,.42-.01.63,0,.39.03.41-.14.29-.44-.25-.63-.49-1.27-.73-1.91-.03-.08-.03-.19-.13-.2-.13-.02-.17.1-.21.2-.17.47-.34.95-.51,1.43q-.33.92.65.92"/>
      <path class="cls-1" d="m130.95,9.42c0,.84.04,1.68,0,2.52-.08,1.33-.93,2.16-2.27,2.25-.49.03-.99.03-1.48,0-1.29-.1-2.16-.93-2.26-2.21-.14-1.71-.03-3.43-.07-5.15,0-.27.11-.36.37-.38,1.21-.09,1.2-.09,1.21,1.08,0,1.33,0,2.66.04,3.99.04,1.19,1.33,1.83,2.35,1.19.38-.24.53-.59.53-1.02,0-1.58.04-3.15.02-4.73,0-.41.13-.52.51-.51,1.3.03,1.06-.14,1.08,1.04,0,.65,0,1.3,0,1.94h-.04Z"/>
      <path class="cls-1" d="m132.6,10.25c0-1.09.02-2.17,0-3.26,0-.4.09-.57.53-.56,1.14.04,2.29-.04,3.43.07,1.1.1,1.88.9,1.95,1.99.09,1.38-.54,2.36-1.68,2.61-.71.16-1.44.14-2.16.12-.36,0-.5.08-.48.47.04.66,0,1.33.02,2,0,.29-.09.4-.39.41-1.21.06-1.2.07-1.21-1.13v-2.74m1.58-1.38c0,.24,0,.49,0,.73,0,.19.08.3.27.29.54-.01,1.09,0,1.62-.06.49-.06.83-.53.83-1.01,0-.46-.32-.87-.8-.98-.25-.06-.52-.08-.78-.08-1.15-.03-1.15-.03-1.15,1.11"/>
      <path class="cls-1" d="m26.97,1.58c.85,5.43,2.08,10.58,4.99,15.19-4.31-2.96-6.86-10.73-4.99-15.19"/>
      <path class="cls-1" d="m47.42,10.29c0-1.09.02-2.17,0-3.26-.01-.43.14-.54.55-.53,1.06.02,1.06,0,1.06,1.06,0,1.56.01,3.12,0,4.68,0,.43.12.58.57.57.93-.03,1.87,0,2.8-.02.36,0,.54.09.49.47-.02.14-.01.28,0,.42.02.28-.07.42-.38.41-1.55,0-3.1-.01-4.65,0-.34,0-.41-.14-.41-.44.01-1.12,0-2.24,0-3.37"/>
      <path class="cls-1" d="m26.35,14.27c.06-.28-.18-.44-.3-.63-.89-1.39-1.66-2.85-2.35-4.35-.43-.92-.63-1.89-.7-2.9-.1-1.58.06-3.14.42-4.71.89,5.58,2.29,10.95,5.95,15.58-.4-.07-.61-.26-.83-.45-.62-.53-1.11-1.17-1.59-1.82-.09-.12-.11-.3-.32-.31h0c.07-.11,0-.17-.11-.2h0c-.02-.12-.02-.26-.22-.22h.03Z"/>
      <path class="cls-1" d="m55.21,12.07h-.47c-1.02,0-1.15-.16-.98-1.19.04-.25.18-.31.4-.31.72,0,1.44,0,2.17,0,.24,0,.36.1.35.34v.05q.08,1.11-1.04,1.11h-.42"/>
      <path class="cls-1" d="m22.42,18.57c0-.17.1-.2.23-.2.13,0,.27.02.29.16.02.18-.13.22-.28.24-.14.01-.24-.03-.25-.19"/>
      <path class="cls-1" d="m12.57,18.58c0-.16.09-.21.23-.21.12,0,.27,0,.29.16.03.18-.13.23-.27.24-.13.01-.24-.03-.25-.19"/>
      <path class="cls-1" d="m25.18,18.93c-.01.28-.05.56-.42.54-.33-.01-.38-.26-.38-.52,0-.29.06-.56.41-.55.32,0,.38.26.39.53"/>
      <path class="cls-1" d="m10.71,18.65c.1.17.27.32.11.5h-.18c-.19-.19.02-.33.08-.5"/>
      <path class="cls-1" d="m3.7,18.56c.11.25.25.4.13.59h-.23c-.12-.2.01-.34.1-.59"/>
      <path class="cls-1" d="m14.89,18.65c.1.17.28.32.11.51h-.23c-.14-.21.07-.34.12-.51"/>
      <path class="cls-1" d="m29.38,18.56c0,.15-.09.21-.22.24-.12.02-.21-.03-.22-.16-.01-.12,0-.26.17-.26.13,0,.24.04.28.18"/>
    </g>
  </g>
</svg>