<?xml version="1.0" encoding="UTF-8"?>
<svg id="Layer_2" data-name="Layer 2" xmlns="http://www.w3.org/2000/svg" viewBox="0 0 66.84 27">
  <defs>
    <style>
      .cls-1 {
        fill: #000;
      }
       .cls-1:hover {
    fill: #000; /* Change the fill color to black on hover */
  }
    </style>
  </defs>
  <g id="Layer_1-2" data-name="Layer 1">
    <g>
      <path class="cls-1" d="m13.03,12.92V0h2.65v10.29h3.92c.24-1.94.44-3.81.72-5.67.04-.3.37-.71.65-.8,1.74-.54,3.51-.75,5.3-.2,1.61.49,2.42,1.43,2.58,3.12.08.86.1,1.73.1,2.59,0,.69.31,1.02,1.01,1.01.83-.01,1.66,0,2.49,0,.13,0,.27-.03.4-.05-.09-.74-.25-1.45-.26-2.16-.04-3.28,2.19-5.22,5.43-4.78,2.29.31,2.62.82,2.04,3.23-.65-.21-1.29-.45-1.95-.61-1.22-.29-2.2.08-2.61.94-.41.85-.14,2.68.52,3.22.19.15.5.2.76.2,1.07.02,2.15.04,3.22,0,.67-.03.97.19.9.88-.04.34.08.73-.03,1.03-.1.27-.43.64-.65.64-3.66-.01-7.33-.1-10.99-.12-1.4,0-2.81.14-4.21.14-3.95.02-7.9,0-11.98,0m13.07-2.62c0-.95.05-1.85-.01-2.74-.09-1.38-2.11-2.33-3.25-1.55-.12.08-.22.27-.22.42-.02,1.28-.01,2.57-.01,3.88h3.5Z"/>
      <path class="cls-1" d="m54.64,10.3h4.05V.03h2.71v12.81c-.34.02-.7.07-1.06.08-1.6,0-3.19.03-4.78,0-.68-.02-1.08.07-1.16.89-.06.63-.34,1.27-.64,1.85-.52,1.02-1.41,1.7-2.54,1.74-1.26.05-2.53-.14-3.81-.22v-2.58c.93.1,1.78.22,2.63.27,1.33.08,1.74-.41,1.61-1.94-.67,0-1.36.02-2.04,0-2.2-.06-3.65-1.47-3.68-3.67-.02-1.1.02-2.22.22-3.3.3-1.65,1.32-2.61,2.98-2.69,1.54-.07,3.1.12,4.65.21.7.04.89.45.88,1.12-.04,1.87-.01,3.73-.01,5.72m-2.92.04v-4.61c-.94.12-1.99-.4-2.61.59-.66,1.05-.77,2.27-.12,3.37.62,1.03,1.71.6,2.73.66"/>
      <path class="cls-1" d="m10.51,8.85c0,1.18,0,2.35,0,3.53,0,2.76-1.21,4.29-3.91,4.96-2.22.54-4.93-.36-6.12-2.13C.2,14.78,0,14.19,0,13.68c.02-1.62.18-3.24.23-4.86.03-.98.45-1.28,1.42-1.21,1.44.11,1.4.04,1.19,1.43-.17,1.12-.28,2.27-.33,3.41-.06,1.46.98,2.39,2.61,2.42,1.58.03,2.62-.84,2.64-2.28.03-2.7.05-5.4-.01-8.1-.02-.86.27-1.12,1.07-1.03.31.04.62.03.93,0,.6-.05.79.24.78.8-.02,1.52,0,3.05,0,4.57"/>
      <path class="cls-1" d="m41.08,26.92c-.26-1.15-.5-2.21-.73-3.27h-.16c-.23,1.09-.46,2.18-.69,3.29h-2.14c-.39-1.99-.78-3.98-1.2-6.13.55-.04,1-.07,1.59-.12.2,1.34.39,2.62.58,3.9l.21.05c.23-1,.53-1.99.68-3,.1-.68.35-.92,1.05-.94.74-.02.96.34,1.07.95.2,1.04.42,2.09.79,3.12.15-.9.31-1.8.43-2.71.19-1.42.17-1.42,1.79-1.23-.37,2.02-.74,4.03-1.12,6.09h-2.14Z"/>
      <path class="cls-1" d="m66.84,12.88q-2.44.17-2.44-2.2V.03h2.44v12.85Z"/>
      <path class="cls-1" d="m17.5,22.08c-3.55-.04-3.58-.01-3.43,2.46.06,1.02.41,1.26,1.59,1.08-.11-.68-.23-1.36-.34-2.04.57-.05,1.14-.11,1.81-.17v3.54c-1.05,0-2.16.12-3.22-.05-.45-.07-.93-.7-1.17-1.18-.24-.5-.28-1.14-.29-1.72-.05-3.57,1.7-3.63,4.27-3.2.27.04.44.7.78,1.28"/>
      <path class="cls-1" d="m36.22,26.93h-1.52c-.1-.72-.52-1.17-1.3-.94-.43.13-.8.47-1.2.71l.12.24h-1.46c.44-2,.84-3.94,1.34-5.86.05-.2.69-.33,1.05-.34,1.83-.02,1.57-.18,1.92,1.5.33,1.54.69,3.07,1.05,4.68m-2.58-4.8l-.22.02c-.15.78-.3,1.56-.47,2.46.47-.03.78-.05,1.2-.08-.18-.88-.34-1.64-.5-2.4"/>
      <path class="cls-1" d="m49.67,26.92h-1.49c-.11-.76-.56-1.16-1.32-.93-.43.13-.8.45-1.19.69l.11.26h-1.5c.48-2.01.93-3.94,1.42-5.86.04-.15.35-.3.54-.33,1.89-.28,2.03-.14,2.42,1.77.3,1.45.66,2.89,1.01,4.41m-2.54-4.65c-.09,0-.18,0-.28.01-.16.74-.31,1.48-.48,2.26h1.19c-.15-.8-.3-1.54-.44-2.28"/>
      <path class="cls-1" d="m30.48,20.73v1.38h-2.44c-.42,1.11.27,1.06.86,1.01.93-.08,1.43.18,1.08,1.34-.61.03-1.28.06-2.02.09-.02.34-.04.64-.07,1.09.58,0,1.08.04,1.58,0,.97-.09,1.26.32.96,1.28h-4.11c0-1.9-.01-3.79.02-5.68,0-.17.31-.47.49-.48,1.2-.04,2.4-.02,3.65-.02"/>
      <path class="cls-1" d="m20.37,20.85c1.07-.27,1.7-.19,1.85,1.01.14,1.19.5,2.36.77,3.54,0,.02.06.02.15.05.26-1.2.62-2.38.76-3.58.14-1.21.78-1.28,1.85-.99-.46,1.99-.92,3.99-1.4,6.05h-2.59c-.45-1.96-.92-3.97-1.4-6.06"/>
      <path class="cls-1" d="m30.16,15.57c.1-.39.26-.77.27-1.16.04-.96.65-.96,1.36-.95.9.02.61.68.62,1.13.03,1.1.01,2.2.01,3.27q-1.1.23-1.29-1.23c-.3.32-.69.74-1.08,1.15-.39-.45-.77-.89-1.14-1.31,0,.16.08.53-.02.83-.1.28-.39.48-.6.72-.2-.24-.56-.48-.58-.73-.07-1.03-.07-2.07,0-3.11.02-.25.38-.64.62-.68.45-.06,1.09-.3,1.26.48.12.52.23,1.04.35,1.57h.22Z"/>
      <path class="cls-1" d="m36.57,16.5c-.39.45-.71,1.16-1.12,1.22-1.12.18-.61-1.08-1.15-1.56-.03.6-.06,1.17-.09,1.8-.34.02-.64.04-1.07.07,0-1.4-.02-2.74.03-4.08,0-.17.43-.49.6-.46.41.08.94.23,1.13.53.28.44.3,1.04.59,1.57.08-.36.2-.71.24-1.08.1-.85.52-1.15,1.39-1.08.96.08.63.74.65,1.22.04.86.05,1.73-.02,2.59-.02.27-.3.67-.54.74-.59.16-.66-.3-.64-.76.01-.27,0-.54,0-.73"/>
      <path class="cls-1" d="m44.49,15.36c.52-.65-.54-2.15,1.33-1.83v4.32q-1.44.4-2.42-1.79c0,.37.08.77-.02,1.11-.09.31-.32.76-.57.82-.69.16-.64-.4-.64-.86,0-.94-.04-1.88.03-2.8.02-.3.33-.77.57-.82.49-.1,1.14-.26,1.33.55.1.43.26.84.4,1.3"/>
      <path class="cls-1" d="m49.2,20.89c1.91-.7,1.91.92,2.56,1.85.67-.93.67-2.63,2.54-1.86-.67,1.93-2.35,3.62-1.59,6.02h-1.78c.7-2.34-.99-4.05-1.73-6.01"/>
      <path class="cls-1" d="m14.85,18.13c-.32-.18-.72-.3-.95-.57-.48-.55-.85-.45-1.33-.02-.29.26-.69.39-1.05.58l-.21-.26c.29-1.3.55-2.62.91-3.9.07-.24.61-.48.93-.47.37,0,1,.19,1.07.43.37,1.28.6,2.6.89,3.91l-.25.29Z"/>
      <path class="cls-1" d="m22,15.8c-.01,1.65-.57,2.24-2.01,2.24-1.01,0-1.55-.52-1.7-1.45-.08-.47-.08-.97-.03-1.45.12-1.19.8-1.74,2.03-1.69.99.04,1.65.74,1.71,1.83,0,.17,0,.34,0,.52m-1.23.02c-.02-.28.03-.59-.08-.81-.1-.2-.37-.4-.59-.43-.17-.02-.52.2-.54.34-.06.57-.05,1.16.01,1.73.02.14.38.35.54.32.22-.04.47-.24.59-.44.11-.19.05-.47.07-.71"/>
      <path class="cls-1" d="m27.14,18.12c-.33-.17-.74-.28-.99-.54-.48-.49-.83-.54-1.32,0-.25.27-.69.37-1.05.54l-.18-.26c.28-1.31.51-2.63.88-3.91.07-.24.71-.44,1.08-.44.32,0,.87.25.94.5.36,1.25.59,2.54.86,3.82-.08.1-.16.2-.23.3"/>
      <path class="cls-1" d="m41.52,18.15c-.3-.2-.63-.35-.88-.59-.49-.49-.88-.52-1.35.04-.21.25-.59.37-.89.55-.11-.07-.21-.15-.32-.22.3-1.39.56-2.8.96-4.16.06-.21.85-.25,1.3-.27.21,0,.57.19.61.36.34,1.33.61,2.67.91,4.01-.12.1-.23.19-.35.29"/>
      <path class="cls-1" d="m19.69,20.88v6.03h-1.45c0-1.9-.04-3.79.05-5.67.01-.25.75-.45,1.16-.68.08.1.16.21.24.31"/>
      <path class="cls-1" d="m6.51,2.69c.25.91-.19,1.23-1.25,1.16-1.32-.09-1.25-.03-1.35-1.46-.08-1.09.33-1.36,1.34-1.29,1.26.08,1.26.02,1.26,1.59"/>
      <path class="cls-1" d="m15.51,18.03c0-1.43-.02-2.73.03-4.03,0-.18.37-.51.55-.49.2.02.51.34.53.54.06.89.02,1.78.02,2.79.36.02.7-.02,1.01.08.2.07.51.34.48.48-.04.23-.28.58-.47.6-.64.08-1.3.03-2.14.03"/>
    </g>
  </g>
</svg>