<?xml version="1.0" encoding="UTF-8"?>
<svg id="Layer_2" data-name="Layer 2" xmlns="http://www.w3.org/2000/svg" viewBox="0 0 121.14 41.26">
  <defs>
    <style>
      .cls-1 {
        fill: #000;
      }
       .cls-1:hover {
    fill: #000; /* Change the fill color to black on hover */
  }
    </style>
  </defs>
  <g id="Layer_1-2" data-name="Layer 1">
    <g>
      <path class="cls-1" d="m59.68,30.83c.07-1.78.14-1.88,1.68-2.18,1.88-.37,3.47-1.18,4.56-2.88-1.56.57-3.1,1.17-4.77.58.18-1.57.47-1.91,1.9-2.21,1.5-.32,2.85-.94,3.93-2.04.2-.2.36-.44.41-.82-.67.23-1.33.54-2.02.66-.7.11-1.44.02-2.44.02.55-1.04.97-1.93,1.49-2.76.11-.18.55-.21.85-.23.93-.06,1.79-.24,2.46-1.21h-2.53c.62-1.07,1.12-1.94,1.62-2.8l-.19-.17c-1.2,1.39-2.39,2.79-3.64,4.24-.96-.77-1.26-1.79-1.34-2.95-.65,1.05-.73,2.19-.3,3.24.45,1.07.2,1.85-.52,2.62-.23.25-.42.54-.7.92-1.02-1.05-1.39-2.26-1.32-3.64l-.27-.05c-.15.41-.43.82-.42,1.23.02,1.17.03,2.37.3,3.49.2.82.16,1.44-.28,2.14-.55.87-1.02,1.81-1.64,2.93-.96-1.88-1.36-3.66-1.14-5.56.34-2.98,1.88-5.36,3.87-7.49,2.79-2.99,6.23-5.14,9.68-7.25.43-.27.87-.52,1.41-.85,0,2.48.09,4.8-.02,7.12-.18,3.74-.72,7.43-2.63,10.76-1.75,3.04-4.37,4.79-7.99,5.14"/>
      <path class="cls-1" d="m53.92,0c.94,1.11,1.84,2.03,2.56,3.06,1.74,2.48,3.4,5.01,5.06,7.54.17.26.28.85.13,1-1.36,1.33-2.77,2.59-4.23,3.93-.46-.83-.58-1.4.2-2.07.55-.48.82-1.28,1.22-1.94l-.23-.15c-.56.43-1.13.86-1.92,1.46-.36-1.95-.66-3.6-.96-5.25l-.19.02v7.76c-.96-.48-1.76-.88-2.63-1.32.24,1.28,1.12,2.02,2.11,2.57.91.51.78.95.38,1.75-.72,1.45-1.26,2.98-1.9,4.56-1.56-1.33-2.31-3.15-2.62-5.18-.63-4.02.27-7.91,1.18-11.78.39-1.66.92-3.28,1.4-4.92.08-.28.23-.55.45-1.04"/>
      <path class="cls-1" d="m76.13,34.17c.41,1.25.83,2.52,1.32,4.05.45-1.35.78-2.45,1.2-3.5.1-.26.51-.56.77-.56.27,0,.67.3.77.57.41,1.03.73,2.09,1.32,3.18.26-.87.51-1.73.77-2.6q.36-1.24,1.84-1.12c-.45,1.43-.88,2.84-1.32,4.25-.19.6-.38,1.19-.57,1.79q-.33,1.03-1.5.91c-.43-1.29-.87-2.59-1.41-4.21-.47,1.38-.8,2.49-1.24,3.57-.12.3-.53.66-.8.66-.27,0-.7-.37-.8-.66-.7-2.07-1.34-4.17-2.02-6.33h1.67Z"/>
      <path class="cls-1" d="m48,41.21c-.77,0-1.54,0-2.3,0-.8,0-1.26-.38-1.27-1.19-.02-1.57-.02-3.14,0-4.71.01-.8.47-1.2,1.28-1.19,1.54,0,3.07,0,4.61,0,.84,0,1.32.39,1.32,1.26,0,1.54,0,3.07,0,4.61,0,.82-.43,1.22-1.23,1.23-.8,0-1.61,0-2.41,0m-1.93-1.51h3.9v-4.11h-3.9v4.11Z"/>
      <path class="cls-1" d="m89.37,34.12h2.2c.84,0,1.33.38,1.33,1.25.01,1.54,0,3.07,0,4.61,0,.82-.42,1.23-1.23,1.23-1.57,0-3.14,0-4.71,0-.8,0-1.27-.37-1.28-1.19-.02-1.57-.02-3.14,0-4.71.01-.8.46-1.2,1.27-1.2.8,0,1.61,0,2.41,0m-2.1,5.6h3.97v-4.07h-3.97v4.07Z"/>
      <path class="cls-1" d="m98.89,41.21c-.8,0-1.61.02-2.41,0-.69-.02-1.14-.37-1.15-1.09-.02-1.64-.03-3.28,0-4.92.01-.71.46-1.07,1.16-1.08,1.61-.01,3.21-.02,4.82,0,.8,0,1.21.46,1.22,1.26,0,1.54,0,3.07,0,4.61,0,.82-.44,1.21-1.24,1.22-.8,0-1.61,0-2.41,0m-1.95-1.52h3.95v-4.08h-3.95v4.08Z"/>
      <path class="cls-1" d="m29.65,39.27c.34.17.68.45,1.03.48.9.07,1.81.02,2.8.02v-1.49c-1.09,0-2.19,0-3.29,0-1.23-.01-1.54-.32-1.58-1.53-.09-2.44.08-2.63,2.5-2.63.77,0,1.53,0,2.3,0,.76-.01,1.36.14,1.52,1.05.17.99-.5,1.07-1.24,1.22-.11-.25-.22-.51-.36-.83h-3.21c-.02.41-.04.77-.07,1.28,1.2,0,2.34.03,3.47,0,1.01-.03,1.47.43,1.5,1.42.1,3.34-.24,2.97-2.78,2.96-.87,0-1.74.03-2.61-.01-.89-.04-1.46-.73-1.17-1.56.13-.36.72-.56,1.1-.83.03.15.06.31.09.46"/>
      <path class="cls-1" d="m115.72,39.24c.37.18.74.47,1.12.51.89.08,1.79.02,2.75.02v-1.49c-1.09,0-2.18,0-3.28,0-1.28,0-1.58-.32-1.62-1.61,0-.24,0-.49,0-.73.03-1.55.3-1.82,1.85-1.82,1.01,0,2.02,0,3.03,0,.79-.01,1.34.23,1.45,1.13.13,1.02-.62.97-1.29,1.16-.1-.28-.18-.53-.27-.8h-3.27c-.02.38-.04.72-.06,1.23,1.14,0,2.24,0,3.34,0,1.3,0,1.59.3,1.64,1.59.1,2.68,0,2.78-2.64,2.78-.8,0-1.6-.02-2.4,0-.83.02-1.41-.2-1.56-1.14-.17-1.05.6-.97,1.2-1.13,0,.1,0,.2.01.29"/>
      <path class="cls-1" d="m105.32,34.14c1.51,0,2.97-.1,4.41.02,1.82.15,2.69,1.43,2.66,3.59-.03,2.1-.99,3.31-2.85,3.44-1.07.08-2.16.02-3.24.02-.31,0-.62,0-.99,0v-7.08Zm1.56,5.64c1.35-.11,2.85.45,3.57-.96.35-.67.3-1.89-.09-2.53-.8-1.3-2.24-.56-3.48-.75v4.24Z"/>
      <path class="cls-1" d="m24.2,34.16h1.6c0,2.04.05,4.08-.05,6.12-.02.33-.73.86-1.15.89-1.39.11-2.79.05-4.18.04-.73,0-1.21-.36-1.22-1.13-.02-1.95,0-3.89,0-5.9h1.57v5.52h3.45v-5.54Z"/>
      <path class="cls-1" d="m54.17,34.16h1.55v5.55h3.45v-5.53h1.64c0,1.98.02,3.96-.01,5.94-.01.7-.47,1.08-1.16,1.09-1.43.02-2.86.02-4.29,0-.68,0-1.16-.35-1.17-1.07-.03-1.98,0-3.96,0-5.98"/>
      <path class="cls-1" d="m0,41.19c1.08-2.34,2.05-4.57,3.18-6.71.18-.35,1.06-.34,1.6-.49,1.16,2.48,2.24,4.77,3.35,7.15-1.07.12-1.99.31-2.34-.98-.05-.19-.46-.37-.72-.4-.55-.06-1.12.02-1.67-.03-.75-.08-1.24.11-1.49.91-.31.99-1.12.46-1.91.55m3.99-5.18c-.37.85-.66,1.52-.97,2.22h1.96c-.33-.75-.62-1.4-.99-2.22"/>
      <polygon class="cls-1" points="36.37 35.58 36.37 34.18 43.03 34.18 43.03 35.55 40.53 35.55 40.53 41.16 38.93 41.16 38.93 35.58 36.37 35.58"/>
      <polygon class="cls-1" points="9.77 41.14 9.77 34.19 11.33 34.19 11.33 39.75 15.54 39.75 15.54 41.14 9.77 41.14"/>
      <polygon class="cls-1" points="63.57 41.14 63.57 40.02 63.57 34.2 65.15 34.2 65.15 39.75 69.36 39.75 69.36 41.14 63.57 41.14"/>
      <path class="cls-1" d="m14.85,37.98c.28-.6.51-1.1.74-1.61-1.1-.46-.53-1.35-.63-2.17.62,0,1.18,0,1.75,0,.54,1.99-.35,3.91-1.87,3.78"/>
    </g>
  </g>
</svg>