<?xml version="1.0" encoding="UTF-8"?>
<svg id="Layer_2" data-name="Layer 2" xmlns="http://www.w3.org/2000/svg" viewBox="0 0 69.72 27.84">
  <defs>
    <style>
      .cls-1 {
        fill: #000;
      }
       .cls-1:hover {
    fill: #000; /* Change the fill color to black on hover */
  }
    </style>
  </defs>
  <g id="Layer_1-2" data-name="Layer 1">
    <g>
      <path class="cls-1" d="m5.1.17c1.79,0,3.53-.04,5.27.04.32.02.8.46.89.8,1.06,3.91,2.05,7.83,3.06,11.75.49,1.91,1.01,3.82,1.42,5.75.1.45-.27,1.43-.36,1.42-.92-.07-2.19.77-2.66-.72-.6-1.93-1.12-3.89-1.62-5.84-.79-3.05-1.52-6.11-2.33-9.15-.1-.39-.48-.7-.73-1.05-.26.35-.65.66-.75,1.04-1.08,4.09-2.12,8.19-3.17,12.29-.22.86-.45,1.73-.68,2.59-.24.9-1.54,1.34-2.82.94-1.06-.33-.49-1.03-.34-1.61C1.66,13.07,3.03,7.74,4.42,2.41c.19-.73.44-1.44.68-2.24"/>
      <path class="cls-1" d="m58.75.16c1.81,0,3.51-.06,5.19.05.38.03.93.57,1.05.99.79,2.66,1.5,5.34,2.2,8.03.82,3.14,1.54,6.3,2.42,9.42.31,1.09,0,1.35-1,1.39-2.02.08-2.01.1-2.52-1.91-1.18-4.6-2.36-9.2-3.57-13.78-.11-.43-.52-.78-.79-1.16-.27.4-.69.77-.8,1.21-1.2,4.64-2.37,9.29-3.52,13.94-.37,1.51-1.77,2.29-3.12,1.58-.25-.13-.4-.8-.32-1.16.66-2.79,1.39-5.56,2.11-8.34.87-3.36,1.76-6.72,2.68-10.25"/>
      <path class="cls-1" d="m37.06,17.03c2.05,0,3.88.01,5.72,0,3.87-.02,4.92-.77,5.46-4.56.28-1.97.16-4.05-.13-6.04-.34-2.29-1.63-3.21-3.94-3.24-2.3-.03-4.6,0-6.96,0-.06-.36-.12-.58-.13-.8q-.11-2.23,2.17-2.23c1.84,0,3.68-.04,5.52.03,3.89.13,6.03,1.93,6.71,5.74.56,3.14.54,6.3-.35,9.39-.82,2.85-2.75,4.46-5.72,4.63-2.4.14-4.81.05-7.21.08-.82.01-1.23-.31-1.14-1.18.05-.51,0-1.02,0-1.8"/>
      <path class="cls-1" d="m33.52,19.98c-1.29,0-2.27.07-3.22-.04-.29-.03-.63-.49-.79-.83-.74-1.62-1.45-3.26-2.13-4.92-.36-.89-.88-1.31-1.91-1.25-1.5.09-3.02-.06-4.53,0-1.1.04-1.23-.54-1.19-1.4.04-.8-.15-1.64,1.14-1.6,1.89.06,3.77.03,5.66,0,2.32-.04,3.3-1.07,3.33-3.45.03-2.19-1.03-3.29-3.29-3.32-2.21-.03-4.41,0-6.73,0V0c3.28.19,6.57.21,9.8.63,1.78.23,2.93,1.7,3.34,3.48.75,3.21.4,6.12-2.82,8.18,1.07,2.47,2.14,4.93,3.34,7.69"/>
      <path class="cls-1" d="m37.56,23.55c1.54.58,1.06,2.21,1.86,3.09,1.08-.66.33-2.64,2.04-3.07v4.07c-.11,0-.21.02-.32.03-.05-.96-.1-1.92-.15-2.88l-.19-.05c-.39.97-.78,1.94-1.17,2.91-.13-.02-.25-.03-.38-.05-.36-.93-.72-1.85-1.08-2.78-.09,0-.19.02-.28.02v2.68c-.11,0-.22,0-.33.01v-4Z"/>
      <path class="cls-1" d="m20.34,23.81c.49,1.9.53,1.93,2.42,1.47.08-.5.16-1.01.24-1.53l.23.02v3.79l-.21.06c-.08-.53-.17-1.06-.27-1.67h-1.94c-.08.51-.17,1.04-.25,1.58h-.21s0-3.72,0-3.72Z"/>
      <path class="cls-1" d="m28.79,25.69c.01-1.62.44-2.13,1.73-2.11,1.49.02,1.56,1.1,1.58,2.15.02,1.1-.17,2.09-1.62,2.11-1.24.01-1.7-.56-1.69-2.15m.45-.09c.03.88-.08,1.85,1.2,1.83,1.03-.02,1.18-.81,1.17-1.6,0-.84,0-1.83-1.19-1.88-1.16-.05-1.17.85-1.19,1.65"/>
      <path class="cls-1" d="m47.07,27.68v-3.97h2.33l.02.14c-.61.06-1.21.11-1.88.17v1.35c.5.08.99.15,1.48.22l.02.19c-.46.05-.92.11-1.47.17v1.36c.63.06,1.22.12,1.81.17v.19s-2.3,0-2.3,0Z"/>
    </g>
  </g>
</svg>