<?xml version="1.0" encoding="UTF-8"?>
<svg id="Layer_2" data-name="Layer 2" xmlns="http://www.w3.org/2000/svg" viewBox="0 0 87.76 28.27">
  <defs>
    <style>
      .cls-1 {
        fill: #000;
      }
       .cls-1:hover {
    fill: #000; /* Change the fill color to black on hover */
  }
    </style>
  </defs>
  <g id="Layer_1-2" data-name="Layer 1">
    <g>
      <path class="cls-1" d="m86.39,14.16c0-.87-.07-1.63.03-2.37.05-.33.44-.61.68-.92.22.27.62.54.63.81.05,2.74.03,5.49.03,8.51-.56-.16-.94-.28-1.33-.37-.22-.05-.49-.15-.68-.08-1.77.73-3.2.5-4.13-.69-.98-1.26-.96-3.3.06-4.54.95-1.16,2.42-1.33,4.16-.5.09.04.19.05.56.15m-.11,2.62c-.04-1.15-.98-2.02-2.11-1.93-1.26.1-1.81.93-1.77,2.06.04,1.14.72,1.91,1.92,1.98,1.06.07,2-1.01,1.96-2.11"/>
      <path class="cls-1" d="m59.72,20.04h-1.49v-9.11h6.15c.31.9.18,1.43-.94,1.4-1.21-.04-2.43,0-3.72,0v2.72h4.45c.02.54.04.96.07,1.53h-4.52v3.48Z"/>
      <path class="cls-1" d="m71.58,18.93c-1.74,1.56-3.66,1.6-4.94.49-1.14-.99-1.46-2.99-.7-4.35.78-1.38,2.49-2.01,4.12-1.51,1.48.45,2.16,1.66,2.02,3.77h-4.87c.45,1.51,1.21,1.83,2.81,1.44.48-.11,1.03.09,1.55.15m-4.47-3.22c.07.11.15.22.22.32h3.29c.06-.18.11-.37.17-.55-.66-.27-1.33-.77-1.97-.74-.58.02-1.14.62-1.71.97"/>
      <path class="cls-1" d="m79.61,17.34h-4.68c.34,1.48,1.17,1.84,2.75,1.46.49-.12,1.04.03,1.96.08-1.8,1.58-3.95,1.68-5.24.61-1.18-.98-1.51-3.03-.71-4.48.77-1.4,2.66-2.02,4.28-1.4,1.4.53,1.99,1.81,1.65,3.73m-1.41-1.29c.09-.16.18-.31.27-.47-.58-.31-1.17-.86-1.75-.85-.65,0-1.29.53-1.94.83.06.16.12.33.18.5h3.23Z"/>
      <path class="cls-1" d="m14.81,1.57c-1.19-.23-2.4-.38-3.56-.71C7.31-.27,4.4,1.46,3.79,5.52c-.23,1.53-.32,3.2.02,4.68.41,1.77.1,3.19-.88,4.6-.29.42-.54.86-.84,1.27-1.52,2.08-1.5,2.05.5,3.55.28.21.45,1.14.27,1.29-1.37,1.2-.33,1.46.62,1.78.46.16.93.3,1.64.52-.41.3-.6.42-.77.57-.38.34-.76.69-1.13,1.04.42.22.89.37,1.24.67.35.31.73.73.81,1.15.09.52-.13,1.09-.41,1.61.04-.48.18-.99.09-1.45-.08-.39-.34-.81-.64-1.08-.45-.4-1.01-.68-1.53-1.02.38-.44.75-.88,1.2-1.41-.6-.3-1.57-.49-1.87-1.04-.26-.47.25-1.36.43-2.16-.76-.55-1.67-1.21-2.53-1.83,1.3-2.02,2.47-3.83,3.71-5.76-.73-.29-1.13-.46-1.8-.72.64-.11,1-.17,1.5-.25-.07-.53-.13-1.02-.21-1.51-.41-2.59-.28-5.08,1.14-7.39C5.53.72,7.57-.32,9.79.09c1.69.31,3.35.79,5.02,1.19v.29Z"/>
      <path class="cls-1" d="m17.41,15.67c.65.43,1.4,1.32,1.02,2.65-.39,1.34-1.56,1.68-2.78,1.75-1.31.07-2.62.02-4.01.02v-9.26c1.27,0,2.48-.03,3.69,0,1.18.03,2.41.32,2.62,1.62.15.9-.29,1.89-.54,3.22m-5.28,3.82c1.42,0,2.68.07,3.93-.02,1.04-.08,1.89-.57,1.9-1.78.01-1.15-.72-1.85-1.76-1.96-1.33-.15-2.69-.04-4.08-.04v3.8Zm.01-4.46c1.28,0,2.43.03,3.59-.01,1.07-.04,1.9-.5,1.94-1.7.04-1.15-.68-1.85-1.73-1.97-1.23-.14-2.49-.03-3.8-.03v3.72Z"/>
      <path class="cls-1" d="m26.03,17.1h-5.57c.42,2.58,2.23,3.2,4.99,1.86-.78,1.23-2.41,1.59-3.88.85-1.39-.7-2.07-2.5-1.52-4.06.6-1.7,2.17-2.61,3.83-2.22,1.66.39,2.39,1.53,2.14,3.56m-.33-.61c-.21-1.81-.82-2.44-2.34-2.52-1.67-.09-2.51.61-2.9,2.52h5.25Z"/>
      <path class="cls-1" d="m33.49,14.63c.12-.31.23-.61.35-.91l.22.03v6.2l-.19.05c-.12-.29-.24-.58-.35-.88-2.2,1.44-3.76,1.42-4.98-.05-1.1-1.33-1.03-3.37.17-4.59,1.29-1.32,2.86-1.27,4.79.17m-2.46-.61c-1.64-.03-2.76,1.08-2.79,2.74-.03,1.67,1.07,2.89,2.63,2.93,1.66.05,2.89-1.16,2.9-2.85.01-1.61-1.14-2.8-2.75-2.82"/>
      <path class="cls-1" d="m36.29,13.76c0,1.2-.03,2.39,0,3.59.05,1.53.8,2.29,2.23,2.34,1.33.04,2.35-.79,2.46-2.19.09-1.22.02-2.46.02-3.69.14,0,.27,0,.41,0v6.46c-.28-.5-.41-.72-.47-.83-.87.25-1.7.65-2.55.69-1.37.06-2.49-.96-2.59-2.3-.1-1.35-.02-2.72-.02-4.08.17,0,.34,0,.5,0"/>
      <path class="cls-1" d="m50.19,22.81c1.21-2.74-.21-5-1.18-7.33-.22-.54-.4-1.09-.6-1.64.12-.05.24-.1.36-.15.74,1.81,1.47,3.63,2.34,5.78.9-2.13,1.67-3.94,2.43-5.75.13.06.26.12.39.17-1.25,2.97-2.49,5.94-3.74,8.91"/>
      <path class="cls-1" d="m47.28,19.6c-1.91.93-2.88.46-2.94-1.14-.06-1.42-.01-2.84-.01-4.31-.54-.1-.95-.17-1.36-.24v-.21c.39-.1.8-.2,1.25-.3.07-.51.13-.98.2-1.45h.15c.04.46.08.9.13,1.46.68.08,1.35.16,2.02.24v.25c-.63.07-1.27.14-2.06.23,0,1.46-.07,2.88.02,4.29.09,1.41,1.21,1.37,2.61,1.19"/>
    </g>
  </g>
</svg>