<?xml version="1.0" encoding="UTF-8"?>
<svg id="Layer_2" data-name="Layer 2" xmlns="http://www.w3.org/2000/svg" viewBox="0 0 130.83 25.19">
  <defs>
    <style>
      .cls-1 {
        fill: #000;
      }
       .cls-1:hover {
    fill: #000; /* Change the fill color to black on hover */
  }
    </style>
  </defs>
  <g id="Layer_1-2" data-name="Layer 1">
    <g>
      <path class="cls-1" d="m101.87,12.7c.1-1.93.12-3.52.27-5.09.35-3.88,2.8-6.48,6.63-7.05,5-.73,10.01-.72,15.01-.08,3.91.51,6.31,2.95,6.74,6.87.4,3.64.44,7.28-.04,10.92-.42,3.16-2.25,5.21-5.29,5.87-5.84,1.27-11.75,1.52-17.61.08-3.02-.74-4.89-2.78-5.32-5.88-.27-1.97-.28-3.98-.39-5.62m7.7-.41c0,1.03-.04,2.07,0,3.1.12,2.51.55,2.99,3.06,3.12,2.75.14,5.5.1,8.24-.27,1.33-.18,2.14-.84,2.32-2.2.33-2.54.35-5.07,0-7.61-.2-1.41-.98-2.06-2.35-2.08-1.79-.02-3.58-.06-5.37-.03q-5.96.09-5.89,5.97"/>
      <path class="cls-1" d="m73.89.1c1.9.12,4.39.17,6.85.45,3.3.37,5.35,2.58,5.72,5.84.12,1.02-.1,1.55-1.29,1.47-1.3-.09-2.62-.06-3.93-.02-1.05.03-1.99.17-2.29-1.3-.16-.77-1.14-.98-1.9-.99-2.34-.03-4.69-.05-7.03.06-1.22.06-2.27.43-2.23,2.09.04,1.69,1.05,1.84,2.34,1.88,3.37.12,6.74.28,10.12.44,2.73.13,5.38.67,6.44,3.56,1.14,3.1,1.07,6.24-1.08,9.01-.94,1.22-2.34,1.69-3.81,1.86-5.22.61-10.45.55-15.65-.12-3.29-.42-5.24-2.78-5.43-6.04-.04-.8.16-.95.84-.95,1.79.02,3.59,0,5.38.03.33,0,.76-.09.92.29.87,2.1,2.73,1.76,4.42,1.8,1.79.04,3.59.02,5.38-.02,1.24-.03,2.33-.27,2.44-1.88.11-1.65-.79-2.22-2.23-2.31-3.51-.23-7.01-.49-10.52-.66-4.28-.21-6.51-2.5-6.55-6.82-.04-4.59,2.03-6.98,6.33-7.26,2.06-.14,4.13-.24,6.77-.39"/>
      <path class="cls-1" d="m14.93.21c2.36.11,4.85.11,7.31.37,3.96.42,6.36,3.18,6.66,7.17.1,1.28-.34,1.53-1.45,1.48-1.31-.07-2.62-.01-3.93-.02-1.11,0-2.35.38-2.54-1.47-.08-.74-1.02-1.02-1.84-1.03-3.03-.01-6.06-.03-9.1-.05-1.21,0-2,.52-2.13,1.76-.31,2.82-.23,5.64-.05,8.46.07,1.1.78,1.6,1.73,1.62,3.1.08,6.2.25,9.29-.07,1.31-.14,2.48-.53,2.57-2.13.05-.86.55-.96,1.25-.95,1.45.03,2.92.17,4.34-.03,2.05-.29,2.24.68,2.09,2.34-.37,3.88-2.64,6.28-6.48,6.89-5.36.85-10.71.54-16.05-.06-2.94-.33-5.77-3.15-6.19-6.11-.56-3.91-.52-7.84.03-11.74C.87,3.56,3.52,1.09,6.77.74c2.67-.29,5.36-.36,8.16-.53"/>
      <path class="cls-1" d="m44.81.39c.48,0,.96-.02,1.43-.06.96-.08,1.91-.07,2.79.4,1.72.9,2.55,2.92,3.19,4.64,2.21,5.94,4.89,11.71,7.43,17.53.49,1.13.29,1.47-.92,1.39-.96-.07-1.95-.13-2.89,0-2.51.35-4.23-.31-4.69-3.07-.16-.95-.82-1.24-1.82-1.22-2.82.05-5.65.03-8.47-.09-1.37-.06-2.27.26-2.51,1.72-.37,2.23-1.68,2.79-3.9,2.71-5.15-.19-5.12-.04-3.05-4.79,1.36-3.13,2.72-6.27,4.05-9.41.66-1.55,1.31-3.11,1.95-4.67.53-1.28.82-2.81,1.9-3.75,1.02-.87,2.41-1.18,3.74-1.26.58-.04,1.17-.04,1.76-.05m-3.76,13.61c-.22,1.05.2,1.17.75,1.17,2.06,0,4.12.01,6.19.01.54,0,1.04-.14.78-.82-1.05-2.75-2.1-5.51-3.23-8.23-.33-.79-1.14-.72-1.43-.04-1.13,2.72-2.13,5.49-3.06,7.91"/>
      <path class="cls-1" d="m90.55,12.46c0-3.44.04-6.89-.02-10.33-.02-1.08.29-1.46,1.39-1.39,1.91.12,4.38-.59,5.6.35,1.31,1.02.4,3.6.42,5.5.06,5.3-.07,10.6.06,15.9.04,1.72-.81,1.93-2.07,1.95-.47,0-.95-.14-1.42-.16q-3.95-.15-3.95-4.19v-7.64h-.01Z"/>
    </g>
  </g>
</svg>