<?xml version="1.0" encoding="UTF-8"?>
<svg id="Layer_2" data-name="Layer 2" xmlns="http://www.w3.org/2000/svg" viewBox="0 0 70.03 12.79">
  <defs>
    <style>
      .cls-1 {
        fill: #000;
      }
       .cls-1:hover {
    fill: #000; /* Change the fill color to black on hover */
  }
    </style>
  </defs>
  <g id="Layer_1-2" data-name="Layer 1">
    <g>
      <path class="cls-1" d="m2.73,6.54c0,.86-.14,1.73.13,2.59.28.9.82,1.43,1.79,1.43.9,0,1.81-.01,2.71-.05.51-.02.84.11.87.69.03.55.16,1.16-.6,1.3-1.69.32-3.4.49-5.05-.07C.69,11.78.19,10.12.08,8.36c-.11-1.73-.14-3.47.2-5.2C.59,1.56,1.59.57,3.22.22c1.42-.3,2.81-.08,4.21.12.65.09.9.51.84,1.16-.07.69-.59.76-1.08.78-.69.03-1.38-.04-2.06-.03-1.47.02-2.2.64-2.37,2.12-.08.71-.01,1.45-.01,2.17"/>
      <path class="cls-1" d="m10.32,6.4c-.02-1.31.12-2.58.59-3.82.5-1.31,1.44-2.04,2.76-2.34,1.15-.26,2.32-.22,3.45.1,1.16.34,2,1.02,2.4,2.28.7,2.2.78,4.45.3,6.64-.64,2.95-2.45,3.8-5.7,3.4-2.48-.31-3.64-1.92-3.79-4.96-.02-.43,0-.87,0-1.3m8.21.15c-.12-1.1-.1-2.12-.42-3.1-.43-1.33-1.34-1.91-2.93-1.89-1.59.02-2.53.62-2.87,1.97-.48,1.92-.5,3.86-.02,5.79.32,1.29,1.32,1.97,2.85,2.03,1.51.06,2.53-.54,2.96-1.8.35-1,.36-2.05.43-3"/>
      <path class="cls-1" d="m66.72,7.45c0,1.34-.05,2.68.02,4.02.05,1.02-.35,1.3-1.33,1.3-.95,0-1.26-.29-1.24-1.24.05-2.68-.01-5.36.04-8.04.02-.95-.28-1.36-1.24-1.23-.29.04-.58,0-.87,0-1.16,0-1.66-.73-1.25-1.8.13-.34.39-.38.69-.38,2.61,0,5.22.01,7.82,0,.86,0,.63.63.64,1.08,0,.46.2,1.1-.63,1.09h-.22q-2.43.1-2.43,2.59c0,.87,0,1.74,0,2.61"/>
      <path class="cls-1" d="m39.29,6.44c0,1.78-.03,3.55.02,5.33.02.74-.19.96-.96,1.01-1.14.07-1.72-.29-2.16-1.38-1.23-3.08-2.59-6.11-3.93-9.15-.14-.32-.17-.96-.66-.82-.44.12-.21.7-.22,1.07-.03.8-.03,1.6,0,2.39.02.5-.11.71-.66.72-.54,0-.58-.25-.58-.67.01-1.38.03-2.76,0-4.13-.01-.58.21-.73.76-.75,1.78-.07,1.78-.09,2.48,1.52.91,2.08,1.67,4.21,2.52,6.31.42,1.04.92,2.09,1.44,3.11.11.22.19.55.48.51.4-.06.29-.44.29-.71,0-3.01,0-6.02,0-9.03,0-.33,0-.65,0-.98.01-.35-.05-.73.53-.73.54,0,.67.22.67.71-.02,1.89,0,3.77,0,5.66h0Z"/>
      <path class="cls-1" d="m23.66,1.26c-.39.32-.23.74-.23,1.12-.01,3.15,0,6.31,0,9.46,0,.39.18.9-.56.91-.71,0-.73-.41-.73-.92,0-3.62.01-7.25,0-10.87,0-.63.18-.86.85-.93,1.23-.12,1.95.2,2.44,1.46,1.18,3.07,2.54,6.06,3.85,9.08.15.35.21.99.61.91.53-.11.25-.74.27-1.14.04-.9.02-1.81,0-2.72,0-.42.08-.69.58-.7.55-.01.66.25.65.74-.02,1.41-.04,2.83,0,4.24.02.68-.27.79-.89.86-1.2.14-1.77-.3-2.22-1.42-1.23-3.09-2.6-6.12-3.93-9.16-.15-.35-.2-.79-.66-.92"/>
      <path class="cls-1" d="m44.89.06c.98,0,1.96,0,2.94,0,.39,0,.85-.04.86.56.01.61-.43.56-.83.56-2.03,0-4.06.01-6.09,0-.28,0-.71.16-.73-.37-.02-.47.2-.75.71-.75,1.05,0,2.1,0,3.16,0h0Z"/>
      <path class="cls-1" d="m44.87,11.61c1.02,0,2.03,0,3.05,0,.38,0,.75,0,.76.53.02.5-.3.59-.71.59-2.07,0-4.14,0-6.2,0-.49,0-.76-.19-.74-.7.01-.62.49-.41.8-.41,1.02-.03,2.03,0,3.05,0"/>
      <path class="cls-1" d="m44.22,5.74c.83,0,1.67.02,2.5,0,.43-.01.77.14.77.56s-.34.55-.77.55c-1.67-.02-3.34-.01-5,0-.39,0-.7-.01-.7-.55,0-.55.32-.55.7-.55.83,0,1.67,0,2.5,0"/>
      <path class="cls-1" d="m58.67,11.7c.03.47-.16.75-.66.82-1.48.2-2.95.4-4.43-.02-1.07-.3-1.89-.89-2.26-1.99-.79-2.29-.79-4.61-.3-6.96.13-2.45,1.79-3.25,3.48-3.43,1.16-.13,2.32.02,3.47.21.53.09.77.38.68.91-.09.57-.53.48-.93.46-.72-.04-1.45-.11-2.17-.11-1.89,0-2.86.84-2.97,2.72-.09,1.48-.07,2.98,0,4.46.08,1.49,1.03,2.4,2.52,2.48.9.05,1.81-.03,2.71-.1.46-.03.8,0,.84.56"/>
    </g>
  </g>
</svg>