<?xml version="1.0" encoding="UTF-8"?>
<svg id="Layer_2" data-name="Layer 2" xmlns="http://www.w3.org/2000/svg" viewBox="0 0 48.63 44.54">
  <defs>
    <style>
      .cls-1 {
        fill: #000;
      }
       .cls-1:hover {
    fill: #000; /* Change the fill color to black on hover */
  }
    </style>
  </defs>
  <g id="Layer_1-2" data-name="Layer 1">
    <g>
      <path class="cls-1" d="m22.04,1.75c.53-.38,1.2-.41,1.85-.48,3.41-.39,6.55.38,9.34,2.37,3.22,2.3,5.12,5.44,5.63,9.38.44,3.37-.28,6.5-2.19,9.31-2.19,3.23-5.24,5.21-9.11,5.82-3.67.58-7.04-.25-10.04-2.45-2.51-1.84-4.2-4.29-5.03-7.3-.78-2.83-.67-5.64.35-8.39.27-.73.67-1.41,1.01-2.11l.13-.17c.1.08.18.13.26.19l.04-.14c.1.34.39.4.66.51.12.05.21.15.34.25.08-.11.19-.29.32-.46.72-.88,1.71-1.2,2.78-1.33,1.04-.13,2.07.01,3.1.18l.16.02h-.01c.04-.15.04-.28.09-.38m0,.59c-1.05-.32-2.11-.44-3.19-.32-.38.04-.76.12-1.13.24-1.6.53-2.36,1.87-2.07,3.61.24,1.48.95,2.75,1.82,3.94,1.58,2.17,3.57,3.9,5.82,5.34,2.02,1.29,4.16,2.31,6.52,2.81,1.27.27,2.54.37,3.82.03,1.36-.36,2.24-1.32,2.32-2.67.03-.54-.04-1.11-.17-1.63-.36-1.45-1.15-2.69-2.08-3.85-.32-.39-.61-.77-.57-1.31.01-.19-.04-.38-.08-.57-.33-1.73-1.16-3.15-2.64-4.17-1.13-.77-2.4-1.14-3.74-1.3-2.18-.26-4.35-.13-6.51.14-.29.04-.35.14-.35.41.01,2.1,0,4.19.01,6.29,0,.13.07.29.15.39.89,1.03,1.92,1.92,3.01,2.74.07.05.15.09.26.16v-2.67c0-1.51,0-3.02,0-4.52,0-.16-.02-.33.22-.33.82,0,1.64-.09,2.44.02,1.86.24,3.08,1.4,3.51,3.19.25,1.04.23,2.1,0,3.14-.31,1.45-1.06,2.56-2.44,3.21l-.12.08.12.07c1.11.5,2.25.91,3.45,1.1.12.02.29-.05.38-.13,1.36-1.24,2.04-2.82,2.29-4.61.06-.45.09-.9.14-1.42.25.35.48.64.68.95.62.93,1.14,1.91,1.31,3.04.19,1.22-.29,2.27-1.31,2.72-.45.2-.94.33-1.43.37-1.55.15-3.03-.23-4.47-.76-1.86-.68-3.57-1.63-5.18-2.78-1.84-1.32-3.49-2.84-4.76-4.74-.62-.93-1.12-1.92-1.28-3.05-.19-1.39.49-2.49,1.84-2.85.52-.14,1.07-.16,1.61-.2.59-.05,1.19-.06,1.78-.09m4.16,15.34v-.09c-2.31-1.02-4.4-2.41-6.38-4.09,0,1.33,0,2.58,0,3.82,0,.25.09.32.31.33,1.41.05,2.82.13,4.24.16.61.01,1.22-.08,1.83-.13m-6.68-14.77c-.73-.06-2.01.56-2.19,1.33.22-.04.46-.11.7-.14.41-.06.81-.1,1.22-.15.09-.01.18,0,.28,0v-1.04Z"/>
      <path class="cls-1" d="m14.79,4.51l-.19.17c-.48.55-1.01,1.08-1.43,1.67-2.67,3.73-3.52,7.86-2.49,12.32,1.34,5.78,6.01,10.15,11.88,11.17,3.2.55,6.28.08,9.18-1.4,2.9-1.48,5.1-3.72,6.6-6.57,2.6-4.9,2.6-9.9-.24-14.65C34.94,1.96,30.11-.41,23.96.06c-.74.05-1.46.27-2.19.43l-.24.05c-.21.04-.24.21-.22.34.02.1.17.23.27.24.19.02.4,0,.6-.05,2.74-.62,5.47-.56,8.08.48,5.51,2.2,8.62,6.31,9.13,12.22.37,4.35-1.09,8.15-4.29,11.13-4.2,3.92-9.16,4.99-14.53,2.96-5.34-2.02-8.3-6.1-9-11.76-.29-2.34.1-4.62,1.02-6.79,1.37-3.24,4.04-5.89,7.22-7.38,1.22-.57,2.51-.98,3.8-1.38-.49-.37-1.18-.26-1.77-.11-2.69.73-5,2.23-7.06,4.07"/>
      <path class="cls-1" d="m26.45,37c-.56,1.17-1.13,2.35-1.69,3.53-.16.34-.35.52-.77.48-.5-.05-1.01-.02-1.51,0-.22,0-.28-.07-.29-.28-.13-2.27-.26-4.53-.39-6.8-.01-.19.17-.35.44-.35.43-.01.86,0,1.34,0,.09,1.74.18,3.46.27,5.19h.06c.29-.59.57-1.19.86-1.79.48-1.01.97-2.02,1.44-3.04.12-.26.33-.35.58-.36.35-.01.7,0,1.05,0,.21,0,.28.06.29.28.06,1.42.14,2.84.21,4.26.01.21.03.42.05.72.08-.14.12-.22.16-.29.72-1.52,1.45-3.03,2.16-4.55.13-.28.34-.4.64-.4.4,0,.81,0,1.24,0-.04.1-.07.18-.1.25-1.07,2.25-2.14,4.49-3.21,6.74-.15.31-.32.48-.7.45-.51-.04-1.03-.02-1.54,0-.24,0-.29-.08-.3-.3-.06-1.19-.14-2.38-.21-3.58l-.02-.13h-.05Z"/>
      <path class="cls-1" d="m17.84,41c.15-.72.29-1.38.42-2.05.08-.43.02-.51-.42-.52-.6-.01-1.19,0-1.79-.01-.16,0-.22.06-.25.21-.11.58-.23,1.15-.37,1.72-.04.19-.13.37-.21.55l-.11.09c-.49,0-.99,0-1.53,0,.09-.44.17-.83.26-1.22.26-1.25.54-2.5.78-3.75.05-.27.24-.38.43-.4.44-.04.89-.01,1.38-.01-.08.43-.16.82-.24,1.23l.18.04c.65,0,1.31,0,1.96,0,.26,0,.41-.1.46-.36.06-.34.14-.68.21-1.02.05-.25-.05-.37-.29-.38-.25-.01-.5-.01-.74-.01-.94,0-1.88,0-2.81,0-.09,0-.18,0-.32-.02.1-.45.16-.88.3-1.29.04-.11.28-.21.43-.21,1.41-.01,2.81,0,4.22,0,.12,0,.24.02.36.04.62.09.85.35.75.98-.12.76-.26,1.53-.48,2.26-.14.45-.28.86-.3,1.36-.02.8-.28,1.59-.46,2.37-.06.25-.2.44-.53.41-.4-.03-.81,0-1.25,0"/>
      <path class="cls-1" d="m0,41c.12-.57.22-1.08.33-1.59.24-1.12.49-2.24.7-3.37.06-.3.25-.4.47-.42.43-.04.86-.01,1.35-.01-.27,1.28-.53,2.53-.79,3.8l.2.04c.63,0,1.27,0,1.9,0,.3,0,.44-.12.5-.41.23-1.14.48-2.28.72-3.42.09-.42,0-.51-.43-.52-1.12,0-2.24,0-3.36,0-.11,0-.21,0-.36-.02.1-.46.17-.88.29-1.29.03-.11.26-.21.4-.21,1.52,0,3.05,0,4.57.04.67.02.9.36.78,1.02-.27,1.43-.58,2.86-.87,4.29-.1.49-.2.97-.49,1.39-.24.36-.56.58-.99.62-.27.03-.55.05-.82.05-1.25,0-2.5,0-3.75,0h-.36Z"/>
      <path class="cls-1" d="m41.91,33.55c-.09.51-.11,1-.37,1.43-.04.06-.19.08-.29.08-1.11,0-2.22,0-3.33,0-.63,0-.65.01-.78.62-.15.69-.07.79.64.8.7,0,1.4,0,2.1,0,.86,0,1.29.47,1.16,1.32-.1.65-.23,1.3-.43,1.93-.22.72-.66,1.22-1.5,1.23-.9,0-1.8.02-2.7.03-.68,0-1.36,0-2.1,0,.1-.47.17-.92.31-1.33.04-.11.31-.2.48-.2,1.07-.02,2.15,0,3.22,0,.66,0,.67,0,.81-.66.16-.72.12-.77-.62-.77-.62,0-1.25.03-1.87-.01-.34-.02-.7-.13-1.01-.28-.36-.18-.5-.55-.42-.94.13-.69.29-1.38.47-2.07.19-.74.74-1.06,1.45-1.15.29-.04.59-.04.88-.04,1.18,0,2.35,0,3.53,0,.12,0,.23.01.39.02"/>
      <path class="cls-1" d="m41.12,41c.12-.59.23-1.12.35-1.66.37-1.78.75-3.56,1.11-5.34.06-.29.25-.4.45-.42.43-.04.88-.01,1.36-.01-.2.98-.39,1.92-.6,2.92h1.05c.4,0,.81,0,1.21,0,.2,0,.29-.06.33-.26.14-.74.31-1.47.44-2.21.05-.28.23-.41.44-.43.44-.04.89-.01,1.38-.01-.1.52-.2,1-.3,1.48-.37,1.81-.75,3.61-1.13,5.42-.09.45-.18.52-.63.52-.39,0-.78,0-1.21,0,.21-1.01.41-1.97.61-2.97-.21,0-.39,0-.57,0-.55,0-1.1.01-1.65,0-.23,0-.32.06-.36.29-.14.73-.29,1.46-.44,2.18-.09.42-.19.5-.62.5h-1.21"/>
      <path class="cls-1" d="m11.22,41c-.01-.3-.04-.57-.04-.85,0-.18-.07-.24-.25-.24-.61,0-1.21,0-1.82,0-.16,0-.25.06-.31.2-.11.25-.25.49-.39.73l-.17.14c-.5.01-1,0-1.55,0,.05-.13.07-.21.11-.29,1.08-2.26,2.17-4.52,3.25-6.78.12-.24.3-.35.55-.36.58,0,1.16,0,1.74,0,.17,0,.25.04.26.23.12,2.19.26,4.38.38,6.57.01.18-.07.37-.13.56l-.13.07c-.49,0-.99,0-1.51,0m-.24-5.21h-.07c-.41.84-.83,1.7-1.25,2.59h1.43c-.04-.88-.07-1.73-.11-2.59"/>
      <path class="cls-1" d="m34.94,33.58c-.1.49-.19.95-.29,1.4-.38,1.83-.76,3.67-1.14,5.5-.1.45-.18.52-.63.52h-1.2c.04-.23.08-.43.12-.62.44-2.13.9-4.26,1.33-6.39.06-.27.24-.38.43-.4.44-.04.89-.01,1.38-.01"/>
      <path class="cls-1" d="m37.78,44.52c-.22,0-.44.01-.66,0-.28-.02-.38-.12-.33-.39.11-.58.25-1.17.38-1.75.05-.21.19-.34.41-.34.48,0,.95-.02,1.43,0,.24,0,.34.17.29.4-.11.55-.22,1.1-.35,1.64-.08.35-.23.44-.59.45-.19,0-.39,0-.58,0h0Zm.11-.44c.12,0,.25.02.36,0l.21-.17c.1-.4.19-.8.27-1.21.03-.17-.05-.24-.21-.24-.19,0-.39,0-.58,0-.19,0-.29.08-.33.26-.05.27-.11.54-.17.81q-.12.56.45.55"/>
      <path class="cls-1" d="m40.18,42.96c-.11.52-.21,1.03-.32,1.55h-.46c.05-.28.1-.54.15-.79.1-.49.21-.99.31-1.48.03-.14.06-.25.24-.23.16.02.34-.06.41.2.13.45.29.89.44,1.33.02.06.05.11.1.23.13-.62.25-1.17.37-1.74h.47c-.05.23-.09.45-.14.68-.11.51-.21,1.02-.32,1.54-.03.13,0,.32-.24.29-.2-.02-.44.09-.52-.24-.08-.34-.21-.66-.32-.99-.04-.11-.08-.22-.12-.33h-.06Z"/>
      <path class="cls-1" d="m35.14,42.78c-.02.13-.03.25-.05.4.27,0,.53.03.78,0,.3-.04.25-.33.27-.53.03-.22-.17-.16-.3-.17-.36,0-.73,0-1.09,0-.04-.41-.01-.45.35-.45.4,0,.81,0,1.21,0,.36.02.45.12.38.47-.06.3-.2.58-.26.88-.05.25-.04.52-.08.77-.08.42-.09.42-.58.34.04-.19.06-.37.11-.56.06-.24-.04-.33-.26-.31h-.08c-.65.02-.53-.11-.68.55-.09.39-.09.39-.58.33.04-.18.07-.37.11-.55.06-.27.12-.54.17-.81q.1-.45.58-.36"/>
      <path class="cls-1" d="m47.62,42.01q-.04.44-.41.44c-.32,0-.64,0-.96,0-.2,0-.39.31-.29.48l.23.1c.24.01.48,0,.72,0,.34,0,.48.15.42.49-.18,1.06-.25.99-1.12.99-.36,0-.73,0-1.09,0-.01-.43,0-.44.36-.44.32,0,.64,0,.96,0,.23,0,.42-.28.32-.49l-.19-.1c-.25-.01-.5,0-.74-.01-.37-.02-.49-.18-.43-.54.17-.92.19-.94,1.14-.94h1.09"/>
      <path class="cls-1" d="m45.29,42.02q-.02.45-.41.45c-.3,0-.61,0-.91,0-.2,0-.31.08-.35.27-.07.36-.15.72-.22,1.08-.04.19.03.28.22.27.41,0,.82,0,1.23,0q-.03.44-.4.44c-.4,0-.81,0-1.21,0-.38,0-.48-.13-.41-.49.1-.5.2-1.01.32-1.51.09-.38.19-.48.58-.5.52-.02,1.04,0,1.56,0"/>
      <path class="cls-1" d="m32.39,42.03q-.01.43-.41.44c-.31,0-.62.01-.94,0-.18,0-.27.08-.31.24-.08.38-.16.75-.24,1.13-.04.2.07.25.23.25.31,0,.62,0,.94,0h.3q-.02.44-.4.44c-.4,0-.81,0-1.21,0-.39,0-.48-.12-.41-.49.1-.51.21-1.02.33-1.54.08-.35.19-.46.54-.47.53-.01,1.06,0,1.59,0"/>
      <path class="cls-1" d="m32.58,42.43c0-.1,0-.16.02-.22l.06-.19h1.82c-.03.15-.06.28-.09.41-.1,0-.18.01-.26.01-.5,0-.4-.06-.51.43-.12.53-.23,1.08-.35,1.63h-.52c.14-.69.28-1.35.42-2.05-.21-.01-.39-.02-.6-.03"/>
      <path class="cls-1" d="m24.35,44.09h1.3q-.02.43-.39.43h-1.57c.12-.59.22-1.14.37-1.67.03-.09.3-.1.49-.16v.35h.6c.02.41,0,.44-.28.45-.5,0-.5.01-.52.6"/>
      <path class="cls-1" d="m27.65,44.53c.12-.59.22-1.12.36-1.64.07-.28.31-.1.5-.14,0,.11,0,.19.01.31h.62c-.04.22.03.46-.32.44-.49-.01-.5,0-.52.6h1.3c0,.43,0,.44-.38.44h-1.58"/>
      <path class="cls-1" d="m25.9,44.53c.18-.82.33-1.6.51-2.38.07-.28.32-.09.53-.15-.15.71-.28,1.37-.43,2.08h.89c.01.43,0,.45-.37.45-.37,0-.73,0-1.15,0"/>
      <path class="cls-1" d="m41.81,44.49c.11-.55.23-1.09.34-1.64.03-.14.06-.29.09-.43q.09-.44.6-.38c-.06.31-.12.62-.18.93-.08.39-.17.77-.25,1.16q-.1.44-.59.36"/>
      <path class="cls-1" d="m26.09,42.05c.03.36-.12.44-.43.42-.49-.03-.99,0-1.48,0-.04-.39,0-.44.35-.44.43,0,.86,0,1.3,0,.09,0,.19.02.26.02"/>
      <path class="cls-1" d="m30.04,42.02c0,.43,0,.44-.39.45-.51,0-1.02,0-1.53,0q0-.44.38-.45c.51,0,1.02,0,1.53,0"/>
      <path class="cls-1" d="m21.65,6.97l1.12-2.85-.27-2.6s-1.7.59-1.8.63c-1.17.49-2.29,1.11-3.33,1.83-1.78,1.23-3.18,3.01-3.95,5.04-.16.43-.65,1.59.16,1.39.54-.14,1.13-.98,1.47-1.38.1-.13.06-.28.06-.28l.39-.22.72-.94,1.43-.66.99-.17.61-.05,1.16.11.55.06.55.07"/>
    </g>
  </g>
</svg>