<?xml version="1.0" encoding="UTF-8"?>
<svg id="Layer_2" data-name="Layer 2" xmlns="http://www.w3.org/2000/svg" viewBox="0 0 68.38 20.66">
  <defs>
    <style>
      .cls-1 {
        fill: #000;
      }
       .cls-1:hover {
    fill: #000; /* Change the fill color to black on hover */
  }
    </style>
  </defs>
  <g id="Layer_1-2" data-name="Layer 1">
    <g>
      <path class="cls-1" d="m24.31.01h-.88v13.07h3.05V2.18C26.48.98,25.51.01,24.31.01"/>
      <path class="cls-1" d="m41.66.01h-.88v13.07h3.05V2.18C43.82.98,42.86.01,41.66.01"/>
      <path class="cls-1" d="m57.02,1.4l-1.98,2.26h0s-1.34-1.26-3.86-1.35c-2.27-.08-4.19,1.96-4.25,4.23-.04-1.55.48-3.09,1.51-4.32,1.02-1.22,2.31-1.94,3.83-2.15.31-.04.63-.07.93-.07,1.4,0,2.69.47,3.83,1.4"/>
      <path class="cls-1" d="m53.9,13.05l.23-.03-.23.03c-.12.01-.25.02-.37.03.12,0,.25-.02.37-.03"/>
      <path class="cls-1" d="m.79.01h-.79v13.07h2.86V1.49C2.85.5,1.78.01.79.01"/>
      <rect class="cls-1" x="3.28" y="5.02" width="3.85" height="3.06"/>
      <rect class="cls-1" x="3.28" y="10.03" width="5.43" height="3.05"/>
      <path class="cls-1" d="m3.28.01h-1.29C2.7.01,3.28.59,3.28,1.31v1.76h5.44V.01H3.28Z"/>
      <rect class="cls-1" x="29.66" y=".01" width="8.46" height="2.88"/>
      <path class="cls-1" d="m31.17,3.23c-.83,0-1.51,1.08-1.51,1.92v7.94s3.06,0,3.06,0V3.23h-1.55Z"/>
      <rect class="cls-1" x="33.09" y="5.02" width="3.86" height="3.06"/>
      <path class="cls-1" d="m18.83,1.21c-.89-.71-1.87-1.11-2.93-1.18-.06,0-.65-.03-.81-.03h-3.99l-.16.16v1.52c0,.73.59,1.33,1.33,1.33h1.73s.43,0,.43,0h.18c.11,0,.21,0,.32,0s.2,0,.28,0c.09,0,.18,0,.26,0,.67.03,1.26.31,1.77.84.52.54.84,1.23.96,2.04l.02.14.16.14h2.75c.1,0,.17-.08.16-.18-.04-.47-.13-.94-.26-1.42-.38-1.39-1.12-2.52-2.19-3.38"/>
      <path class="cls-1" d="m12.24,3.47c-.72,0-1.31-.34-1.31-1.03v10.65h3.06V3.48h0s-1.75,0-1.75,0Z"/>
      <path class="cls-1" d="m18.21,6.05c0,.62-.1,1.75-.36,2.3-.34.7-.82,1.22-1.45,1.52-.33.16-.67.24-1.02.24-.16,0-.33,0-.49,0h-.56v2.97h.71c.45,0,.83-.03,1.18-.1,1.91-.36,3.34-1.4,4.26-3.09.57-1.05.82-2.67.81-3.83l-3.07-.03Z"/>
      <polygon class="cls-1" points="7.11 20.6 7.1 17.8 5.42 20.11 5 20.11 3.31 17.83 3.31 20.6 2.41 20.6 2.41 16.37 3.19 16.37 5.22 19.17 7.22 16.37 8 16.37 8.01 20.6 7.11 20.6"/>
      <polygon class="cls-1" points="14.69 19.94 14.69 20.6 10.85 20.6 10.85 16.37 14.59 16.37 14.59 17.03 11.8 17.03 11.8 18.13 14.28 18.13 14.28 18.77 11.8 18.77 11.8 19.94 14.69 19.94"/>
      <polygon class="cls-1" points="18.25 17.04 16.56 17.04 16.56 16.37 20.9 16.37 20.9 17.04 19.21 17.04 19.21 20.6 18.25 20.6 18.25 17.04"/>
      <path class="cls-1" d="m26.15,19.62h-2.56l-.51.98h-.98l2.3-4.22h.94l2.31,4.22h-1l-.51-.98Zm-.31-.62l-.96-1.85-.96,1.85h1.92Z"/>
      <polygon class="cls-1" points="34.18 16.37 31.95 20.59 31.01 20.59 28.77 16.37 29.8 16.37 31.51 19.63 33.23 16.37 34.18 16.37"/>
      <polygon class="cls-1" points="40.02 19.94 40.02 20.6 36.18 20.6 36.18 16.37 39.92 16.37 39.92 17.03 37.13 17.03 37.13 18.13 39.6 18.13 39.6 18.77 37.13 18.77 37.13 19.94 40.02 19.94"/>
      <path class="cls-1" d="m45.89,20.6l-1.05-1.24h-.2s-1.16,0-1.16,0v1.23h-.95v-4.22h2.11c1.35,0,2.18.57,2.18,1.5,0,.64-.39,1.11-1.09,1.33l1.18,1.39h-1.02Zm-1.29-3.56h-1.11v1.68h1.11c.83,0,1.27-.31,1.27-.84s-.43-.84-1.27-.84"/>
      <path class="cls-1" d="m48.92,20.15l.33-.61c.41.27,1.06.46,1.69.46.8,0,1.13-.24,1.13-.55,0-.91-3.04-.31-3.04-1.88,0-.68.66-1.26,2.06-1.26.61,0,1.26.13,1.7.37l-.3.61c-.46-.22-.96-.33-1.41-.33-.79,0-1.11.25-1.11.57,0,.9,3.04.31,3.04,1.86,0,.68-.67,1.26-2.07,1.26-.8,0-1.6-.21-2.02-.51"/>
      <path class="cls-1" d="m58.74,19.62h-2.56l-.51.98h-.98l2.3-4.22h.94l2.31,4.22h-1l-.51-.98Zm-.32-.62l-.96-1.85-.96,1.85h1.92Z"/>
      <polygon class="cls-1" points="62.35 16.37 63.31 16.37 63.31 19.93 65.98 19.93 65.98 20.59 62.35 20.59 62.35 16.37"/>
      <path class="cls-1" d="m53.12,10.14c-.61,0-1.21-.19-1.72-.54-.98-.68-1.48-1.65-1.48-2.88,0-1.15.47-2.09,1.38-2.78.52-.39,1.18-.61,1.85-.61.56,0,1.1.15,1.57.44.12.07.07.03.17.11,0,0-1.14-1.13-3.7-1.23-2.3-.08-4.24,1.74-4.25,4.04,0,1,.22,2,.68,2.94,1.07,2.15,3.18,3.48,5.52,3.48.24,0,.48-.01.73-.04,1.18-.14,2.25-.59,3.17-1.35l-1.98-2.26c-.55.44-1.22.68-1.92.68"/>
      <path class="cls-1" d="m60.45,0h-.79v13.07h2.86V1.47c-.01-.99-1.08-1.47-2.08-1.47"/>
      <rect class="cls-1" x="62.94" y="5" width="3.85" height="3.06"/>
      <polyline class="cls-1" points="68.38 10.02 62.94 10.02 62.94 13.07 68.38 13.07"/>
      <path class="cls-1" d="m68.38,0h-6.73c.71,0,1.29.58,1.29,1.29v1.76h5.44"/>
      <path class="cls-1" d="m29.66,2.89v1.29c0-.71.58-1.29,1.29-1.29h1.76V.35L29.66.01v2.88Z"/>
    </g>
  </g>
</svg>