<?xml version="1.0" encoding="UTF-8"?>
<svg id="Layer_2" data-name="Layer 2" xmlns="http://www.w3.org/2000/svg" viewBox="0 0 93.76 29.26">
  <defs>
    <style>
      .cls-1 {
        fill: #000;
      }

      .cls-2 {
        fill-rule: evenodd;
      }
    </style>
  </defs>
  <g id="Layer_1-2" data-name="Layer 1">
    <g>
      <path class="cls-1" d="m14.9,9.43c-1.66,1.38-3.36,2.74-4.96,4.16-2.64,2.33-5.19,4.71-6.71,7.57-2.07,3.9.2,5.56,5.23,5.92,6.21.45,12.22-.6,18.2-1.63,16.26-2.81,31.57-7.36,45.97-13.54.19-.08.4-.23.58-.22.59.03,1.18.13,1.77.2-.32.26-.58.61-.98.76-13.63,4.92-27.29,9.82-41.64,13.56-7.28,1.9-14.72,3.3-22.56,3.02-1.49-.05-3.02-.24-4.45-.57-4.56-1.04-6.38-3.63-4.8-6.93.6-1.24,1.48-2.43,2.47-3.54,3.11-3.49,7.26-6.28,11.88-8.75"/>
      <polygon class="cls-1" points="24.29 13.83 15.63 13.83 15.63 19.42 25.3 19.42 25.3 23.78 10.29 23.78 10.29 .24 24.81 .24 24.81 4.61 15.63 4.61 15.63 9.5 24.29 9.5 24.29 13.83"/>
      <path class="cls-1" d="m48.6,22.7c-1.64.56-4.75,1.33-7.86,1.33-4.3,0-7.4-1.08-9.57-3.18-2.17-2.03-3.35-5.1-3.32-8.56C27.89,4.47,33.58,0,41.3,0,44.34,0,46.68.59,47.83,1.15l-1.12,4.26c-1.29-.56-2.9-1.01-5.48-1.01-4.44,0-7.79,2.52-7.79,7.61s3.04,7.72,7.4,7.72c1.22,0,2.2-.14,2.62-.35v-4.92h-3.63v-4.16h8.77v12.4Z"/>
      <polygon class="cls-1" points="57.29 4.71 50.97 4.71 50.97 .24 69.06 .24 69.06 4.71 62.64 4.71 62.64 23.78 57.29 23.78 57.29 4.71"/>
      <path class="cls-2" d="m93.34,2.73c.2-.24.24-.44.31-.67.28-.92-.05-1.37-.41-1.11-.09.1-.18.2-.27.3-.24.03-.46.24-.67.58-.23.03-.43.17-.59.48-.21.01-.42.07-.69.34-.39.28-.6.23-.86.35l-.24.19c-.24.11-.57.2-.79.32-.12.07-.15.16-.27.23-.1.07-.27.07-.37.14-.11.07-.12.22-.24.27-.22.1-.44.2-.65.3-.22.12-.4.27-.61.4-.3.19-.67.29-.97.49-.53.36-1.07.7-1.58,1.11-.41.33-.8.74-1.23,1.04-.86-.71-1.68-1.41-2.51-2.04-.36-.27-.71-.59-1.08-.81-.47-.29-.96-.48-1.46-.66-2.73-.87-5.33-1.97-7.48-3.93-.11-.1-.1,0,.07.2-.54-.31-.19.02.48.59-.49-.23-.68-.29-.58-.17.1.12.61.47.77.58-.13-.03-.29-.06-.3.02,0,.05.13.16.53.4-.23.15.06.32.57.47-.1.22.16.32.62.36-.22.26-.06.39.5.41.13.25.32.48.89.6,0,.16.19.28.58.37.07.19.31.27.62.3-.04.18.06.29.29.35,0,.16.12.23.35.22.03.2.22.25.44.28-.11.14.07.2.29.25,0,.09.08.16.26.22.01.13.12.21.28.25.71.48,1.25,1.32,1.98,1.96.13.11.27.22.4.33.2.18.41.31.55.49.15.2.26.31.44.38-.49.2-.82.62-1.36.8-.28.09-.6.07-.93.06-1.75-.27-1.64.17-1.27.35-.47.24-.56.48-.09.71-.3.31-.22.47.24.47-.22.28-.03.37.42.33-.03.28.12.32.44.12-.02.27.58.14,1.01-.13-.04.26.12.19.71-.28.68-.62,1.18-.58,1.79-.51,1.67.33,3.1-.1,4.47-.76.44-.16.81-.42,1.15-.74.26-.03.55.04.75.05.07-.3-.06-.46-.55-.59-.22-.53-.87-.64-1.56-.63-.06-.06.02-.12.18-.34.69-.93,1.95-2.03,3.3-2.63.39-.17.85-.3,1.24-.5.84-.42,2.07-1.2,2.66-1.93"/>
    </g>
  </g>
</svg>