<?xml version="1.0" encoding="UTF-8"?>
<svg id="Layer_2" data-name="Layer 2" xmlns="http://www.w3.org/2000/svg" viewBox="0 0 76.35 28.78">
  <defs>
    <style>
      .cls-1 {
        fill: #000;
      }
       .cls-1:hover {
    fill: #000; /* Change the fill color to black on hover */
  }
    </style>
  </defs>
  <g id="Layer_1-2" data-name="Layer 1">
    <g>
      <path class="cls-1" d="m43.87,6.67c.1,0,.21.02.42.03-.2-.24-.36-.42-.52-.6l.06-.08c.13.07.26.13.39.22.1.07.17.2.28.22.16.04.34,0,.51,0-.04-.14-.05-.31-.14-.41-.26-.28-.56-.52-.92-.85.44-.04.55.28.75.44.22.17.42.36.63.54l.11-.1c-.21-.24-.41-.47-.62-.71l.11-.13c.22.17.43.34.65.52l.05-.04-.35-.62.06-.05.14.1c.19.54.71.66,1.14.89.26.14.4.02.39-.24-.01-.34,0-.7-.47-.82-.14-.04-.29-.21-.35-.35-.04-.11.06-.27.1-.41.1.06.21.11.28.19.35.43.7.84,1.38.9-.18-.54-.36-1.07-.52-1.6-.17-.56-.34-1.12-.45-1.69-.06-.29-.01-.61.05-.91.03-.14.21-.25.38-.44.04.05.19.12.2.22.03.22-.02.45-.01.67.01.28.01.57.08.85.08.32.23.61.44.91-.02-.28-.03-.56-.06-.84-.04-.39-.1-.77-.13-1.16-.01-.16.05-.33.08-.49h.11c.18.92.35,1.83.53,2.74l.14-.02c0-.16.02-.32.02-.48h.06c.1.33.19.66.29,1l.1-.02v-1.51l.04-.02c.04.16.09.32.13.46l.02-.09.08-.13c.03.14.1.29.09.42-.04.47-.12.93-.18,1.4l-.02.19c.39.38.12,1.02.57,1.37.08.06.12.17.19.26.48-.22.24-.72.46-1.02.22.09.59.09.45.48-.08.22-.3.4-.46.62.31.15.5.04.68-.18.07-.08.19-.13.29-.18l.11.13c-.06.11-.14.21-.23.3l-.17.09-.1.23.22.11c.12,0,.23-.06.34-.11.85-.4,1.69-.81,2.55-1.18.14-.06.35.03.53.05-.09.15-.14.39-.26.45-.36.16-.77.22-1.14.36-.38.14-.74.31-1.09.51-.54.31-.59.45-.44,1.11.35.08.77.11.72.7.37-.13.7-.25,1.04-.37l.05.14c-.24.15-.48.3-.74.46.4.33.44-.22.73-.19.06.38.33.48.71.43l.18.08c.52.48,1.16.55,1.83.54.19,0,.47.08.55.21.09.16.09.49-.02.61-.1.11-.44.13-.61.05-.34-.16-.64-.39-1.06-.23-.06.02-.16-.11-.25-.15-.11-.05-.22-.09-.34-.13l-.09.15,1,.82-.08.1c-.4-.25-.77-.59-1.2-.74-.39-.13-.8-.52-1.32-.18.22.28.43.54.64.81l-.16.14c-.15-.23-.3-.45-.47-.71-.16.23-.24.33-.33.46-.12-.09-.23-.17-.32-.24-.07.11-.14.28-.19.28-.12,0-.24-.1-.37-.17.04.1.08.21.15.4-.16-.09-.25-.14-.35-.2-.1.43-.32.06-.52.09-.03.09-.08.22-.13.35l-.17-.14c-.02-.11-.04-.21-.06-.33-.21.25-.41.48-.66.77.07.26.19.63-.28,1.01.03-.21.08-.33.06-.43-.03-.15-.11-.29-.16-.44-.13.09-.28.16-.37.28-.13.17-.03.54-.42.41v1.06l.11.08c.02-.11.04-.21.07-.32l.14.09c-.41,1.07-.06,2.09.15,3.12.04.21.15.28.36.28.43,0,.87-.02,1.28.07.84.18,1.08.98.46,1.58-.28.27-.65.45-1.03.7.24.32.52.67.86,1.11.78-.9,1.51-1.74,2.25-2.6-.58-.32-.7-.56-.55-.93.15-.36.63-.67.97-.58.48.12.4.48.32.87.5.05.98.11,1.45.15.15.01.3.01.44.04.34.05.52.24.46.61-.1.65-.22,1.29-.28,1.95-.04.36-.01.74.03,1.11.04.33.28.45.59.39.69-.14,1.32-.44,1.76-.99.2-.25.21-.65.33-.97.84-2.29,1.68-4.58,2.52-6.87l.05-.18c-.4-.25-.71-.01-1.05.14-.16.07-.34.1-.51.14.11-.16.18-.39.33-.48.43-.24.89-.41,1.34-.62.1-.05.2-.12.29-.2.46-.4.9-.8,1.37-1.19.15-.13.36-.2.54-.29l.13.1c-.16.48-.32.96-.49,1.48,1.49.11,2.97-.11,4.43.15l.03.14c-.22.08-.45.17-.67.24-1.23.42-2.51.43-3.79.4-.29,0-.41.09-.51.37-.68,1.95-1.41,3.88-2.07,5.83-.23.67-.34,1.4-.39,2.12-.05.67.34.87.93.52.38-.22.72-.51,1.09-.76.13-.08.27-.14.45-.22,0,.14.02.2,0,.22-.8.82-1.64,1.6-2.8,1.87-.95.22-1.45-.15-1.52-1.11,0-.1-.01-.2-.02-.27-.64.4-1.26.81-1.92,1.17-.45.25-.95.36-1.48.24-.52-.11-.84-.46-.85-.94-.01-.72.08-1.43.15-2.15.02-.23.09-.45.14-.67.12-.52.06-.62-.45-.71-.16-.03-.32-.05-.49-.07-.59,1.11-1.4,2.06-2.26,2.96-.64.66-1.81.72-2.46.06-.36-.37-.64-.82-.91-1.27-.14-.22-.26-.32-.53-.32-2.01,0-4.01,0-6.01-.01-.57,0-1.13-.03-1.69-.08-.3-.03-.46.08-.64.3-1.89,2.37-3.78,4.73-5.67,7.08-.25.31-.52.62-.83.88-.16.13-.42.12-.64.18.05-.21.03-.46.15-.62.78-1.03,1.58-2.04,2.38-3.05,1.19-1.51,2.38-3.02,3.57-4.53.06-.08.11-.17.24-.36-1.02,0-1.94,0-2.87,0-4.26,0-8.51,0-12.76-.04-1.35-.01-2.6-.41-3.51-1.52-.08-.09-.14-.2-.2-.3-.03-.05-.05-.12-.09-.24.53.07,1.01.17,1.5.2,1.18.07,2.37.15,3.55.15,5.13.02,10.26.01,15.39.03.3,0,.49-.08.67-.32,1.06-1.37,2.14-2.72,3.17-4.12-.17.15-.34.32-.53.46-.12.09-.27.14-.41.19l-.11-.13c.1-.11.2-.23.32-.32.42-.33.86-.63,1.25-1,.12-.12.08-.4.12-.62-.19-.02-.38-.03-.56-.05-.17-.03-.39.29-.52-.07-.16.06-.32.13-.48.19-.19.07-.34.4-.61.1-.02-.03-.19.07-.28.12-.34.17-.67.35-1.01.5-.1.04-.23.01-.35.01.07-.11.1-.28.2-.33.5-.27,1.02-.51,1.54-.76l.16-.14c-.38-.27-.76-.15-1.11-.03-.35.12-.66.32-1.01.49-.07-.17-.13-.3-.21-.49.26-.09.51-.18.75-.27.66-.23,1.32-.45,1.96-.71.1-.04.19-.27.17-.39-.02-.16-.13-.38-.26-.42-.18-.06-.41,0-.62.03l-.26.1c-.14,0-.28-.05-.4-.11v-.25c.11-.09.26-.18.38-.18.37,0,.51-.03.8-.34l-.19-.17c.44-.1.87-.2,1.3-.31l-.04-.15c-.1.04-.2.09-.3.11l-.26-.06.16-.23c.15-.08.34-.1.49-.18.09-.05.15-.16.27-.3.02,0,.14.02.26.04l.03-.09c-.26-.11-.51-.23-.77-.34l.06-.16c.23.05.47.1.74.15-.05-.11-.08-.18-.11-.25h0Z"/>
      <path class="cls-1" d="m1.59,14.39h4.94v1.54H0V7.32h6.52v1.59H1.63v1.92h4.9v1.61c-.16,0-.32.02-.48.02-1.35,0-2.69.01-4.04,0-.34,0-.44.11-.43.44.02.48,0,.96,0,1.5"/>
      <path class="cls-1" d="m37.03,13.22h-1.38v-1.62c.95,0,1.89,0,2.83.01l.18.24c.02,1.29.02,2.58,0,3.87,0,.09-.16.24-.26.24-.36.03-.78.13-1.08-.01-.53-.25-.98,0-1.46.03-2.18.12-3.83-1.33-4.34-2.89-.94-2.85.96-5.34,3.36-5.73,1.47-.24,2.68.21,3.76,1.19-.41.38-.78.74-1.17,1.11-.49-.44-1.11-.74-1.86-.73-1.12,0-2.08.62-2.5,1.65-.44,1.09-.25,2.09.56,2.93.8.84,1.8,1.02,2.89.64.55-.19.56-.23.47-.94"/>
      <path class="cls-1" d="m75.06,15.84c-.51-.45-1.17-.73-1.97-.71-1.42.05-2.53,1.22-2.57,2.68-.04,1.6,1.37,2.76,2.52,2.71.36-.01.73-.04,1.07-.14.58-.17.62-.27.51-.96h-1.36c0-.51,0-.97,0-1.44l.2-.18c.92-.01,1.85,0,2.8,0v4.36c-.55-.07-1.12.18-1.66-.14-.07-.04-.2.02-.31.04-1.6.33-3.03,0-4.18-1.2-1.22-1.28-1.55-2.82-.97-4.47.57-1.65,1.81-2.62,3.53-2.86,1.36-.18,2.57.24,3.56,1.22-.39.36-.76.7-1.18,1.08"/>
      <path class="cls-1" d="m16.46,12.15v-4.82h1.57v8.67c-1.66-1.64-3.26-3.21-4.92-4.86v4.82h-1.59V7.28c1.67,1.65,3.27,3.22,4.93,4.86"/>
      <path class="cls-1" d="m23.62,8.92h-3.83v-1.6h6.57c-1.3,2.35-2.58,4.67-3.9,7.05h3.87c0,.5,0,.97-.01,1.43l-.22.16c-2.09,0-4.17,0-6.26-.02l-.07-.06c1.26-2.29,2.53-4.58,3.84-6.96"/>
      <path class="cls-1" d="m67.21,22.15h-1.56c0-.17-.02-.31-.02-.46,0-2.55,0-5.11,0-7.66,0-.52,0-.52.54-.52.3,0,.59,0,.89,0l.15.03v8.6Z"/>
      <rect class="cls-1" x="8.25" y="7.32" width="1.54" height="8.62"/>
      <rect class="cls-1" x="28.05" y="7.32" width="1.52" height="8.62"/>
      <path class="cls-1" d="m61.47,27.81c-.89,0-1.74,0-2.59,0l-.16-.03c-.46-.37-.92-.08-1.39-.03-.86.08-1.74.06-2.61-.03-.62-.06-.96-.52-1-1.14-.03-.41,0-.83,0-1.27h.61c0,.35,0,.7,0,1.04,0,.56.27.86.83.87.63.02,1.27.03,1.9,0,.68-.02.89-.27.89-.94v-1.95h.65c0,.76,0,1.51,0,2.26,0,.52.06.6.56.62.56.02,1.13,0,1.74,0v-1.91h.57v2.5Z"/>
      <path class="cls-1" d="m66.24,25.3h.6c0,.36,0,.7,0,1.05,0,.58.27.86.86.87.44.01.88,0,1.36,0-.03-.66,0-1.28.58-1.69.47-.33.99-.25,1.53-.24v1.73c-.56.11-.57.1-.57-.42,0-.24,0-.48,0-.75-1.28.2-.82,1.2-.98,2.02-.85-.05-1.73-.05-2.59-.19-.47-.07-.76-.5-.79-1.01-.03-.44,0-.88,0-1.37"/>
      <path class="cls-1" d="m71.98,25.3h.59c0,.41,0,.8,0,1.2,0,.47.23.71.71.72.38,0,.75,0,1.18,0v-1.92h.58v2.43h-2.46c-.08.35-.31.68-.71.88-.48.25-.55.22-.69-.35l.17-.08c.48-.15.63-.33.63-.84,0-.67,0-1.34,0-2.06"/>
      <path class="cls-1" d="m61.65,28.13c.75-.28.8-.36.8-1.16,0-.55,0-1.09,0-1.66h.57c0,.78.03,1.54-.01,2.3-.02.39-.29.68-.64.87-.47.24-.56.2-.72-.35"/>
      <rect class="cls-1" x="75.81" y="24.34" width=".53" height="3.46"/>
      <rect class="cls-1" x="63.86" y="24.33" width=".53" height="3.45"/>
      <path class="cls-1" d="m50.91.01c0,.27.03.55,0,.82-.1.9-.2,1.8-.35,2.69-.03.2-.31.54-.41.52-.36-.08-.2-.39-.15-.63.22-1.02.43-2.04.65-3.05.03-.13.08-.24.13-.37h.14Z"/>
      <path class="cls-1" d="m56.81,7.69c-.98.36-2.08.12-3.04.63-.14.08-.37.01-.55.01l-.03-.12c.14-.09.26-.23.41-.26.54-.12,1.09-.22,1.64-.32.25-.04.5-.07.75-.11.38-.06.76-.12,1.15-.18l.03.14-.25.15-.11.05Z"/>
      <path class="cls-1" d="m49.78,3.07c-.03-.72-.08-1.45-.09-2.17,0-.26-.04-.69.3-.68.37.01.21.44.19.67-.07.74-.2,1.47-.3,2.21l-.1-.02Z"/>
      <path class="cls-1" d="m55.56,25.81c.16-.36.24-.68.43-.91.13-.15.43-.16.65-.23l.1.19c-.1.07-.2.14-.3.22l-.19.21.23.15h.24s.23.21.23.21l-.23.15c-.37.02-.75,0-1.17,0"/>
      <path class="cls-1" d="m52.81,2.56l-.07.19.17-.04v.08c-.25.38-.49.77-.76,1.14-.08.1-.25.13-.38.2.03-.13.04-.28.1-.4.1-.22.46-.28.35-.68-.04-.15.29-.4.46-.61l.13.12Z"/>
      <path class="cls-1" d="m53.55,13.45c-.42-.49-.84-.98-1.26-1.47l.13-.12c.73.22.77,1.05,1.24,1.5l-.11.09Z"/>
      <path class="cls-1" d="m50.66,11.94c.19.07.4.09.51.21.15.16.23.39.34.6-.12.05-.33.17-.35.14-.21-.27-.39-.56-.57-.85l.07-.09Z"/>
      <path class="cls-1" d="m50.66,4.19c.12-.63.24-1.26.36-1.89l.2.03c-.02.16-.04.31-.08.47-.06.23-.13.45-.19.68-.06.25-.11.5-.16.74l-.14-.04Z"/>
      <rect class="cls-1" x="60.12" y="24.35" width=".55" height=".55"/>
      <rect class="cls-1" x="72.03" y="24.35" width=".53" height=".55"/>
      <rect class="cls-1" x="74.51" y="24.34" width=".54" height=".55"/>
      <rect class="cls-1" x="60.94" y="24.34" width=".54" height=".55"/>
      <rect class="cls-1" x="68.25" y="28.2" width=".51" height=".55"/>
      <path class="cls-1" d="m69.12,28.76c-.08-.6-.07-.61.52-.56v.56h-.52Z"/>
      <path class="cls-1" d="m39.95,12.43c-.25.2-.49.42-.75.6-.06.04-.21-.04-.32-.07.07-.11.12-.27.22-.32.25-.12.52-.18.78-.26l.07.05Z"/>
      <path class="cls-1" d="m58.8,9.07c-.45.14-.89.3-1.32.09v-.2c.45.04.88.08,1.32.11"/>
      <path class="cls-1" d="m43.88,6.66c-.44-.11-.92-.1-1.22-.51.46.05.88.19,1.22.52h0Z"/>
      <path class="cls-1" d="m57.03,8.35c.35-.02.6-.03.91-.04-.29.4-.53.43-.91.04"/>
      <path class="cls-1" d="m56.81,7.69l.11-.05c.29-.05.58-.09.87-.14l.03.12c-.35.1-.7.21-1.14.34.08-.16.11-.22.13-.27"/>
    </g>
  </g>
</svg>