<?xml version="1.0" encoding="UTF-8"?>
<svg id="Layer_2" data-name="Layer 2" xmlns="http://www.w3.org/2000/svg" viewBox="0 0 46.07 47.7">
  <defs>
    <style>
      .cls-1 {
        fill: #000;
      }
       .cls-1:hover {
    fill: #000; /* Change the fill color to black on hover */
  }
    </style>
  </defs>
  <g id="Layer_1-2" data-name="Layer 1">
    <g>
      <path class="cls-1" d="m34.63,5.62c.72.83,1.27,1.77,1.75,2.75,1.18,2.4,1.65,4.94,1.44,7.58-.26,3.32-1.49,6.28-3.74,8.76-2.75,3.04-6.19,4.68-10.27,4.93-2.49.15-4.88-.34-7.14-1.41-2.88-1.36-5.08-3.45-6.62-6.22-1.48-2.66-2.07-5.52-1.79-8.56.28-3.05,1.41-5.75,3.35-8.11.74-.89,1.59-1.66,2.52-2.37,1.98-1.5,4.19-2.43,6.63-2.8,3.51-.53,6.8.13,9.86,1.92,1.52.89,2.83,2.03,3.92,3.42l.07.11c-.13.03-.15-.09-.21-.15-1.12-1.32-2.43-2.41-3.97-3.2-3.2-1.65-6.54-1.98-10-.93-2.21.67-4.11,1.85-5.7,3.52-1.03,1.09-1.86,2.33-2.46,3.71-.57,1.3-.93,2.65-1.08,4.06-.2,1.92.04,3.79.68,5.61.74,2.14,1.97,3.95,3.62,5.49,1.38,1.28,3.01,2.14,4.79,2.71,2.47.79,4.97.86,7.48.16,2.71-.76,4.96-2.22,6.75-4.4,1.39-1.7,2.28-3.64,2.7-5.79.3-1.54.31-3.09.06-4.64-.35-2.12-1.18-4.04-2.46-5.76-.08-.11-.23-.2-.2-.37"/>
      <path class="cls-1" d="m27.5,35.36c-.17.73-.32,1.42-.26,2.14.05.62.42,1.02.98,1.1.81.11,1.35-.14,1.57-.73.08-.23.1-.47.1-.71,0-1.17,0-2.34,0-3.5,0-.22.06-.3.28-.29.24,0,.48,0,.73,0,.21-.01.29.06.28.29-.01.87,0,1.75,0,2.62,0,.22.05.28.28.28,2.85,0,5.7,0,8.55,0,.23,0,.46,0,.68-.09.28-.11.45-.38.39-.67-.05-.25-.13-.49-.26-.7-.08-.12-.16-.16-.31-.15-2.21.13-4.42.03-6.62.06-.23,0-.44-.06-.61-.22-.27-.26-.27-.58,0-.83,1-.93,2.01-1.86,3-2.79.18-.17.26-.16.4.04.36.55.37.55-.11.99-.62.57-1.24,1.13-1.86,1.7.1.09.2.05.28.05,1.6,0,3.2,0,4.8,0,.43,0,.86,0,1.29-.08.15-.03.24,0,.33.11.46.52.81,1.11.86,1.82.05.67-.23,1.3-.93,1.6-.45.19-.91.23-1.39.23-2.8,0-5.6,0-8.4,0-.25,0-.38.03-.44.33-.22,1.05-.8,1.55-1.87,1.69-.29.04-.59.04-.88.04-1.45,0-2.32-.81-2.4-2.26-.03-.63.1-1.25.34-1.84.04-.11.09-.19.22-.18.32,0,.65,0,.99,0"/>
      <path class="cls-1" d="m20.35,36.53c.86,0,1.61,0,2.37,0,.12,0,.16-.03.15-.17-.08-.99-.02-1.98-.04-2.96,0-.17.04-.24.22-.26.26-.01.52-.05.78-.1.18-.03.21.03.22.2.01,1.33-.05,2.67.06,4.01.01.15-.08.17-.18.2-.37.11-.74.13-1.12.13-4.41,0-8.82,0-13.23,0-.24,0-.27-.06-.19-.28.27-.77.27-.78,1.07-.78h2.3c.12,0,.23,0,.35,0,.68-.05.93-.43.71-1.08-.05-.14-.11-.27-.18-.4-.07-.14-.17-.18-.35-.16-.97.1-1.93.11-2.88-.14-.21-.05-.28-.12-.18-.34.07-.16.13-.33.16-.51.03-.18.11-.22.28-.18,1.06.26,2.13.21,3.2.11.1-.01.2-.07.29.03.6.65,1.05,1.34.87,2.28-.08.39-.07.39.32.39.64,0,1.28,0,1.93,0,.42,0,.42,0,.27-.38-.3-.75-.6-1.5-1.07-2.17-.05-.07-.11-.12,0-.2,1.04-.7,2.16-1.12,3.42-.77,1.26.35,1.74,1.67,1.07,2.8-.14.24-.3.47-.61.71m-.29-1.46c.03-.7-.34-1.14-1.04-1.2-.38-.03-.73.08-1.07.23-.15.07-.07.14-.03.21.14.25.26.5.35.77.16.45.33.88.5,1.32.03.08.04.23.21.14.58-.33,1.06-.73,1.07-1.47"/>
      <path class="cls-1" d="m2.13,37.59c-.63,0-1.26,0-1.89,0-.23,0-.29-.06-.19-.27v-.03q.31-.76,1.15-.76c.79,0,1.58-.02,2.37,0,1.12.03,1.14-.71.78-1.42-.1-.2-.21-.25-.44-.23-.93.08-1.87.1-2.79-.13-.22-.05-.34-.11-.22-.38.1-.2.08-.51.23-.63.17-.15.43.06.65.08.92.09,1.85.12,2.77-.01.12-.02.22-.03.31.07.36.41.67.86.82,1.4.33,1.24-.34,2.2-1.62,2.27-.64.04-1.28,0-1.92,0h0Z"/>
      <path class="cls-1" d="m46.05,35.89c.02.85.02,1.66-.29,2.44-.38.94-1.07,1.42-2.06,1.51-.4.04-.8,0-1.19-.05-.18-.02-.21-.1-.17-.25l.03-.09c.08-.24.09-.56.25-.69.13-.1.45.03.68.05,1.01.08,1.37-.22,1.48-1.25.13-1.2.09-2.39-.1-3.58-.04-.24.02-.32.25-.33.24,0,.48-.03.72-.08.23-.05.29.05.31.26.06.69.12,1.38.08,2.05"/>
      <path class="cls-1" d="m6.98,34.32c0-.99,0-1.98,0-2.96,0-.2.04-.28.25-.29.29,0,.59-.05.88-.08.13-.01.2,0,.17.16-.1.6-.06,1.21-.06,1.82,0,1.44,0,2.88,0,4.32,0,.25-.07.33-.32.31-.23-.02-.46-.02-.69,0-.2.02-.24-.06-.24-.25,0-1.01,0-2.02,0-3.02"/>
      <path class="cls-1" d="m27.25,41.89c-.31.41-.57.75-.81,1.09-.11.16-.17.16-.29,0-.23-.34-.48-.66-.73-1-.1.08-.06.18-.06.26,0,.51,0,1.01,0,1.51,0,.12,0,.2-.17.19-.13,0-.19-.04-.19-.18,0-.76,0-1.52,0-2.27,0-.08-.02-.18.11-.18.12,0,.24-.02.33.11.22.33.47.64.7.97.12.18.19.17.31,0,.21-.31.46-.6.67-.91.11-.16.24-.21.4-.17.16.05.08.2.08.3,0,.7,0,1.39,0,2.08,0,.13,0,.24-.19.24-.21,0-.17-.13-.17-.25v-1.81"/>
      <path class="cls-1" d="m31.96,42.51c.11,0,.21,0,.32,0,.39,0,.42.04.33.41-.14.65-.62,1.03-1.27,1.04-.67,0-1.2-.39-1.36-1-.16-.61.13-1.24.7-1.53.55-.28,1.29-.15,1.67.31.05.06.24.13.07.26-.12.1-.22.15-.35-.03-.27-.36-.66-.43-1.08-.3-.39.13-.62.41-.67.83-.05.41.11.74.46.96.5.32,1.19.12,1.42-.39.07-.16.07-.23-.13-.23-.21,0-.42,0-.63,0-.11,0-.18-.01-.18-.15,0-.13.04-.2.18-.19.18,0,.36,0,.54,0"/>
      <path class="cls-1" d="m16.2,41.9c0,.66,0,1.23,0,1.81,0,.13.01.24-.18.24-.21,0-.17-.13-.17-.25,0-.7,0-1.41,0-2.11,0-.09-.06-.24.09-.26.14-.02.3-.05.42.12.35.54.72,1.06,1.08,1.58.06.08.12.16.24.31,0-.65,0-1.2,0-1.75,0-.12-.07-.28.17-.29.24,0,.17.16.17.28,0,.69,0,1.39,0,2.08,0,.09.06.24-.09.26-.14.02-.28.04-.39-.12-.39-.58-.79-1.16-1.19-1.74-.03-.04-.06-.08-.15-.18"/>
      <path class="cls-1" d="m12.79,42.61c0-.75.59-1.32,1.35-1.32.77,0,1.37.59,1.36,1.35,0,.75-.6,1.32-1.36,1.32-.78,0-1.36-.57-1.35-1.35m2.35.03c0-.56-.45-1.02-1.02-1.01-.52,0-1.02.46-.99.98.03.54.34.98,1,1.01.56.02,1.01-.43,1.02-.98"/>
      <path class="cls-1" d="m41.89,42.62c0,.75-.58,1.33-1.33,1.34-.78,0-1.38-.57-1.38-1.33,0-.74.59-1.33,1.34-1.34.78,0,1.37.56,1.37,1.33m-1.36,1c.56,0,1.02-.45,1.02-.99,0-.55-.47-1.02-1.03-1.01-.54,0-1,.48-.98,1.02.01.53.48.98,1,.98"/>
      <path class="cls-1" d="m27.39,46.69c-.22-.11-.4-.14-.62-.05.08-.25.22-.34.46-.27.18.05.37.08.55.13.06.02.17-.04.16.09,0,.1-.06.14-.17.13-.08,0-.17-.03-.23.07.04.11.14.06.21.07.33,0,.65,0,.98,0,.22.01.39,0,.47-.25l.04-.05c.11-.13.29-.31.4-.19.11.11.21.33.15.54-.05.16-.15.13-.27.08-.17-.06-.35-.18-.5.05l-.21.02c-.37,0-.74,0-1.1,0h-.12c-.31-.34-.6.07-.92.02-.32-.05-.68-.11-1.01.06h-.08c-.44-.32-.92.03-1.37-.08-.17-.04-.25.04-.32.21-.2.49-.46.54-.9.2.41.17.63-.06.83-.35-.42-.16-.49-.3-.31-.6.05-.08.09-.19.2-.18.12,0,.18.11.19.22.02.28.19.32.42.3.12-.01.23,0,.35,0,.22.01.43.03.54-.24.04-.11.2-.18.32-.18.17,0,.08.18.14.27l.14.15c.47,0,.94.08,1.41-.06l.18-.1Zm2.29.11c-.06-.15-.08-.27-.24-.23l-.1.1c.06.11.18.1.33.13m-6-.21l-.14.14c0,.1.1.12.18.12.07,0,.14,0,.11-.09-.02-.08-.05-.16-.15-.18"/>
      <path class="cls-1" d="m44.05,43.91c-.25.08-.4,0-.51-.22-.08-.18-.21-.34-.3-.51-.05-.1-.11-.14-.21-.15-.39-.04-.43-.01-.43.38,0,.13,0,.25,0,.38,0,.13-.05.16-.17.16-.12,0-.17-.04-.17-.16,0-.77,0-1.53,0-2.3,0-.09,0-.17.13-.17.33.02.67-.04,1,.04.34.08.56.3.62.63.07.33-.01.65-.31.83-.2.13-.16.24-.06.39.14.23.3.45.39.7m-1.45-1.75c0,.59.06.64.64.52.29-.06.43-.24.45-.53.01-.28-.14-.44-.46-.5-.58-.1-.62-.07-.63.5"/>
      <path class="cls-1" d="m10.7,42.65c0-.38,0-.76,0-1.14,0-.16.05-.22.21-.21.22.01.44,0,.66,0,.43.02.77.26.88.6.11.37,0,.68-.37.96-.11.08-.12.13-.05.24.12.18.23.37.33.57.04.08.2.17.06.24-.1.05-.27.07-.36-.08-.13-.22-.27-.43-.38-.65-.14-.27-.38-.14-.58-.14l-.06.15c0,.16,0,.32,0,.47,0,.11.07.26-.15.27-.22,0-.16-.14-.17-.25,0-.35,0-.69,0-1.04h0Zm.33-.49c0,.59.07.65.63.53.28-.06.44-.22.44-.53,0-.31-.16-.45-.45-.51-.58-.1-.62-.07-.62.5"/>
      <path class="cls-1" d="m.11,42.62c0-.36,0-.72,0-1.07,0-.17.04-.24.23-.24.39.01.78,0,1.17,0,.12,0,.2,0,.21.16,0,.17-.07.19-.21.19-.26,0-.53,0-.79,0-.17,0-.24.03-.24.22-.01.59-.02.59.56.59.17,0,.34,0,.51,0,.12,0,.17.03.17.16s-.03.19-.18.19c-.28-.01-.57,0-.85,0-.17,0-.21.05-.21.22-.01.59-.02.59.56.59.16,0,.32,0,.47,0,.14,0,.21.03.21.19,0,.16-.08.16-.2.16-.39,0-.78,0-1.17,0-.17,0-.24-.04-.24-.23.01-.37,0-.74,0-1.11h0Z"/>
      <path class="cls-1" d="m20.56,43.96c-.65,0-1.17-.42-1.32-1.05-.14-.57.16-1.2.71-1.48.54-.28,1.24-.15,1.64.31.06.07.22.13.07.26-.13.11-.21.14-.34-.03-.34-.42-.94-.46-1.36-.13-.38.3-.49.9-.23,1.31.28.45.86.6,1.33.35.12-.07.25-.14.3-.27.1-.23.24-.11.34-.04.15.11,0,.19-.07.27-.27.35-.64.5-1.07.5"/>
      <path class="cls-1" d="m3.95,42.65c0-.37,0-.74,0-1.1,0-.17.02-.25.22-.24.4.01.8.01,1.2,0,.15,0,.18.06.18.18s-.05.16-.17.16c-.28,0-.57,0-.85,0-.17,0-.21.05-.22.21-.02.59-.03.59.56.59.17,0,.34.01.51,0,.15,0,.17.06.17.19,0,.12-.05.16-.17.15-.28,0-.57,0-.85,0-.17,0-.21.05-.21.22-.01.59-.02.59.56.59.16,0,.32.01.47,0,.15-.01.2.03.2.19,0,.16-.08.16-.2.16-.39,0-.78-.01-1.17,0-.21.01-.24-.08-.23-.26.01-.35,0-.69,0-1.04h0Z"/>
      <path class="cls-1" d="m7.19,43.96c-.65-.01-1.15-.42-1.31-1.07-.13-.54.16-1.16.67-1.44.54-.29,1.24-.19,1.65.25.07.08.26.15.08.32-.15.13-.23.07-.34-.06-.36-.42-1.02-.44-1.4-.06-.43.43-.42,1.08.02,1.48.4.36,1.06.32,1.42-.1.07-.08.1-.25.28-.15.14.07.19.13.08.28-.29.38-.67.56-1.14.55"/>
      <path class="cls-1" d="m44.41,42.63c0-.37,0-.74,0-1.1,0-.16.04-.22.21-.22.4.01.8,0,1.2,0,.13,0,.18.03.19.18,0,.15-.06.17-.19.17-.28,0-.57,0-.85,0-.14,0-.17.05-.18.18-.05.63-.05.63.59.63.15,0,.29,0,.44,0,.12,0,.2,0,.2.16,0,.17-.07.19-.21.18-.27,0-.55,0-.82,0-.15,0-.19.05-.2.2-.03.61-.04.61.58.61.16,0,.32,0,.47,0,.14,0,.18.05.18.18,0,.15-.06.17-.19.17-.4,0-.8-.01-1.2,0-.18,0-.21-.06-.2-.22,0-.37,0-.74,0-1.1"/>
      <path class="cls-1" d="m28.06,42.62c0-.37,0-.73,0-1.1,0-.13,0-.22.18-.21.41.01.82,0,1.23,0,.13,0,.18.03.18.18,0,.15-.07.17-.19.17-.27,0-.55,0-.82,0-.2,0-.25.07-.25.25.02.67-.09.54.54.55.18,0,.36,0,.54,0,.13,0,.18.03.19.17,0,.15-.06.17-.19.17-.27,0-.55,0-.82,0-.18,0-.26.04-.25.24.02.7-.08.55.56.57.17,0,.34.01.5,0,.15-.01.2.05.2.2,0,.17-.09.15-.2.15-.4,0-.8,0-1.2,0-.15,0-.2-.04-.2-.19,0-.38,0-.76,0-1.13"/>
      <path class="cls-1" d="m34.9,43.94c-.2.04-.25-.1-.27-.23-.06-.31-.23-.42-.53-.37h-.25c-.33-.04-.6,0-.64.42-.02.2-.2.22-.33.18-.17-.06-.04-.2-.01-.28.25-.69.5-1.37.76-2.06.05-.13.07-.29.3-.29.24,0,.23.16.29.3.27.71.54,1.43.81,2.14.05.13.08.24-.12.2m-.99-2.14c-.12.45-.33.8-.4,1.21.24,0,.46,0,.67,0,.13,0,.17-.04.12-.16-.12-.33-.25-.66-.39-1.05"/>
      <path class="cls-1" d="m4.61,45.48c.04.39.08.77.13,1.15.01.11.02.23.19.23.4,0,.8,0,1.2-.01.13,0,.23-.08.35-.16-.21-.1-.4-.14-.62-.03.1-.26.24-.35.5-.27.18.06.37.08.55.12.06.01.14-.01.14.08,0,.07-.03.14-.13.14-.09,0-.19-.04-.27.09.14.08.28.03.41.04.15,0,.3.03.44,0,.34-.07.87.29.89-.44l.1.07c-.08.33.06.42.37.38.13-.02.27,0,.41,0,.42,0,.4,0,.33-.42-.04-.26-.19-.53-.01-.81.19.12.23.22.14.44-.07.15.02.37.03.55.02.36-.06.45-.41.45-.84,0-1.67,0-2.5,0-.13,0-.29.06-.33-.14l-.09-.02c-.38.3-.83.14-1.25.16-.65.02-.64,0-.68-.64-.01-.22-.03-.44-.05-.66-.01-.12,0-.23.14-.28"/>
      <path class="cls-1" d="m13.66,46.63c.24-.21.33-.44.24-.69-.05-.17.04-.25.12-.39.09.37.09.71.1,1.05,0,.2.08.29.29.26.1-.01.21,0,.32,0,.35-.03.79.18.95-.37.12.14-.08.29.08.37.27.14.24-.22.43-.28.08.07-.13.4.18.25.07-.04-.03-.24.15-.28-.06.3.11.34.35.32.2-.02.4-.01.6,0,.18.01.22-.06.19-.22-.04-.21-.06-.44-.11-.65-.04-.14-.01-.24.08-.35.17.1.24.19.14.41-.07.15.02.36.03.55.02.41-.02.46-.42.46-1,0-2.01,0-3.01,0-.27,0-.42-.04-.37-.35,0-.05,0-.11-.09-.16-.17.47-.54.66-1.1.7.22-.14.39-.24.55-.35.1-.07.24-.11.19-.28-.06-.18-.11-.38-.33-.45-.32-.1-.35-.17-.21-.51.35.21.57.51.65.95"/>
      <path class="cls-1" d="m36.29,41.29c.24,0,.46.07.64.23.05.04.21.09.08.21-.08.07-.16.21-.31.06-.19-.19-.42-.22-.67-.14-.14.05-.23.14-.25.3-.01.15.06.27.19.33.22.1.45.17.67.27.37.16.51.37.48.72-.02.31-.25.58-.59.66-.41.09-.79.03-1.11-.28-.07-.06-.17-.13-.04-.22.09-.06.16-.22.3-.05.18.21.41.29.68.25.23-.03.36-.19.4-.39.03-.18-.1-.31-.27-.38-.15-.07-.32-.12-.47-.17-.44-.16-.68-.45-.63-.76.07-.4.42-.64.89-.63"/>
      <path class="cls-1" d="m22.85,43.96c-.28,0-.54-.08-.75-.27-.07-.07-.24-.12-.08-.26.11-.09.2-.2.35-.02.19.23.45.28.74.18.18-.06.27-.2.28-.38,0-.16-.1-.28-.24-.34-.16-.07-.33-.13-.5-.18-.43-.15-.66-.43-.61-.76.06-.38.41-.62.86-.63.25,0,.48.07.67.23.06.05.2.11.06.21-.08.06-.15.21-.28.06-.15-.17-.36-.21-.58-.18-.18.02-.32.12-.35.31-.04.2.08.32.25.39.16.07.34.12.5.19.45.18.66.46.59.81-.08.42-.42.67-.9.66"/>
      <path class="cls-1" d="m9.21,42.78c0-.29,0-.59,0-.88,0-.18-.04-.28-.24-.25-.12.02-.25,0-.38,0-.12,0-.16-.05-.16-.17,0-.11.03-.17.16-.17.54,0,1.07,0,1.61,0,.12,0,.14.05.14.15,0,.09.02.2-.13.19h-.03c-.19.02-.46-.09-.57.05-.13.16-.04.42-.04.64,0,.46,0,.92,0,1.39,0,.13,0,.22-.18.22-.17,0-.18-.09-.18-.22,0-.32,0-.63,0-.95"/>
      <path class="cls-1" d="m38.1,42.81c0-.27-.02-.55,0-.82.02-.26-.04-.4-.33-.35-.1.02-.21,0-.31,0-.12,0-.16-.06-.16-.17,0-.12.04-.17.17-.17.52,0,1.05,0,1.57,0,.13,0,.16.05.16.16,0,.14-.05.17-.18.18-.58.03-.58.04-.58.62,0,.48,0,.97,0,1.45,0,.12,0,.22-.17.22-.2,0-.16-.12-.16-.23,0-.3,0-.61,0-.91"/>
      <path class="cls-1" d="m32.92,45.44c.03.39.06.74.08,1.09.01.22.09.34.34.33.66-.02,1.32,0,2.05,0-.16-.2-.28-.34-.47-.39-.13-.03-.22-.08-.22-.21,0-.13.01-.29.15-.36.24-.12.49-.23.75-.35.03.18-.05.24-.16.29-.14.05-.27.12-.41.16-.19.06-.18.13-.03.24.16.12.32.24.42.42.14.24.05.41-.23.42-.7,0-1.41,0-2.11,0-.15,0-.22-.03-.23-.2-.01-.38-.05-.76-.08-1.13,0-.11.02-.2.14-.29"/>
      <path class="cls-1" d="m20.03,46.01c.03.11.05.18.07.26q.1.59.69.59c.21,0,.42,0,.63,0,.24,0,.45.07.57-.3.12-.39.49-.37.72.02-.19-.07-.35-.16-.53-.07-.14.06-.14.11-.04.22.15.17.34.12.53.14.07,0,.22-.08.22.07,0,.15-.14.13-.24.13-.44,0-.88,0-1.32,0-.32,0-.63,0-.95,0-.14,0-.3.05-.34-.17-.02-.11-.07-.03-.13-.01-.17.06-.38.02-.44-.12-.07-.15.06-.35.23-.39.2-.05.22-.22.34-.36m-.41.59c.12.05.23.14.35.05l-.04-.16c-.13-.06-.21.06-.32.11"/>
      <path class="cls-1" d="m43.99,46.64c-.05-.3.16-.3.34-.25.28.07.48.34.79.36l.02.1-.13.11c-.82.14-1.64.13-2.47.1-.29-.01-.57,0-.86.05-.32.05-.33.02-.29-.33.16.2.36.15.55.1.13-.03.13-.12.1-.25-.04-.15-.13-.32.03-.46l.05.03q.11.67.78.67c.4,0,.8,0,1.2,0,.12,0,.25,0,.4-.12-.18-.07-.29-.28-.51-.1h0Z"/>
      <path class="cls-1" d="m2.11,42.63c0-.37,0-.74,0-1.1,0-.12-.02-.22.17-.22.19,0,.17.12.17.23,0,.6,0,1.2,0,1.8,0,.2.05.29.26.27.22-.02.44,0,.66,0,.14,0,.21.02.21.19,0,.15-.07.17-.19.16-.36,0-.71-.01-1.07,0-.18,0-.21-.06-.2-.22,0-.37,0-.73,0-1.1"/>
      <path class="cls-1" d="m29.15,34.28c0,.38-.21.59-.57.59-.36,0-.63-.24-.63-.6s.28-.61.63-.6c.35,0,.57.24.57.6"/>
      <path class="cls-1" d="m18.26,31.57c0-.37.22-.58.59-.58.37,0,.59.22.6.58,0,.36-.25.61-.61.61-.35,0-.57-.25-.57-.61"/>
      <path class="cls-1" d="m23.29,39.6c-.35,0-.59-.25-.59-.59,0-.37.25-.61.62-.6.34,0,.59.27.58.61,0,.35-.26.59-.61.58"/>
      <path class="cls-1" d="m37.75,46.47c.07.16-.01.26,0,.36.32.2.35-.15.5-.28.11.1-.15.26.06.31.28.08.04-.33.27-.29.08.47.06.47-.44.48-.58.01-1.17.03-1.75,0-.18-.01-.14.12-.18.19-.22.45-.48.51-.91.19.3.14.52.01.7-.19.13-.15.23-.31.06-.49v-.22c.1-.08.12.04.15.09.12.2.28.27.5.24h.13c.34-.03.76.16.91-.39"/>
      <path class="cls-1" d="m2.85,46.35c.1.11.14.21.15.33.03.33-.02.39-.35.39-.54,0-1.07,0-1.61,0-.14,0-.29.02-.31-.17-.02-.17-.07-.05-.12-.02-.16.07-.34.01-.43-.09-.12-.14.02-.29.13-.37.16-.11.34-.17.44-.37.03.2.07.4.08.6,0,.16.07.22.23.22.54,0,1.07,0,1.61,0,.2,0,.21-.07.13-.21-.06-.1-.06-.2.04-.3m-2.51.25c.11.06.22.14.33.07l-.02-.19c-.12-.06-.2.07-.31.12"/>
      <path class="cls-1" d="m18.49,42.65c0-.37,0-.74,0-1.11,0-.13,0-.24.19-.24.18,0,.17.1.17.22,0,.74,0,1.47,0,2.21,0,.14-.02.21-.19.21-.18,0-.18-.09-.17-.22,0-.36,0-.71,0-1.07h0Z"/>
      <path class="cls-1" d="m39.61,46.78c.12.58.6.69,1.14.33l-.11-.08c-.4-.07-.45-.15-.25-.51.11-.19.22-.39.46-.45.08-.02.21-.06.21.09,0,.08-.03.18-.17.13-.12-.04-.22.06-.3.14-.06.07-.16.14-.14.23.02.1.14.1.23.12.3.07.34.19.14.44-.19.24-.69.38-.98.29-.25-.08-.32-.27-.23-.74"/>
      <path class="cls-1" d="m11.55,46.87c.02.17-.07.38.14.47.23.11.45.03.65-.1.08-.06.13-.13.12-.24-.04-.33-.06-.67-.14-.99-.04-.16,0-.26.06-.37.2.1.18.22.14.43-.05.29.01.6.03.9.01.29-.14.47-.39.58-.21.09-.45.13-.62-.05-.17-.19-.11-.42.02-.63"/>
      <path class="cls-1" d="m32.27,46.84c.02-.16-.23-.33,0-.49.12.08.12.21.14.32.05.32-.03.41-.35.41-.29,0-.59.01-.88,0-.31,0-.43-.15-.39-.45.3.26.7.32,1.49.21"/>
      <path class="cls-1" d="m3.18,47.31c.31.15.53.02.72-.21.15-.17.23-.33,0-.49-.1-.07-.12-.17-.05-.24.11-.1.16.05.21.11.18.25.1.68-.15.91-.27.25-.49.08-.72-.08"/>
      <path class="cls-1" d="m10.32,45.54c.02.43.04.86.06,1.28l-.09.16c.01-.48-.27-.97.04-1.45"/>
      <path class="cls-1" d="m45.62,45.54c.04.48.1.97,0,1.45-.01-.48-.25-.96,0-1.45"/>
      <path class="cls-1" d="m18.31,46.95c0-.46-.26-.91-.03-1.37.02.46.18.91.03,1.37"/>
      <path class="cls-1" d="m2.65,47.56l-.22-.08v-.11c.07-.13.14-.01.2,0l.13-.05c.09.02.23.03.21.16-.01.11-.11.1-.19.04l-.14.02Z"/>
      <path class="cls-1" d="m38.28,46.22c-.08.15-.26-.1-.38.02-.02.02-.19-.03-.17-.17l.06-.07c.15.02.3.04.45.08.04,0,.07.05.03.14"/>
      <path class="cls-1" d="m.55,45.87c-.11-.06-.15.03-.21.02-.08-.02-.18-.04-.17-.14,0-.11.09-.13.18-.06h.14c.1-.08.17.02.24.07v.08c-.06.11-.13.07-.17.04"/>
      <path class="cls-1" d="m19.79,45.85l-.2.03c-.06-.01-.15-.04-.14-.14.02-.1.08-.11.16-.07h.14c.14-.07.25.03.25.13,0,.14-.12.09-.21.04"/>
      <path class="cls-1" d="m8.23,46.09l-.15.05c-.07-.03-.19-.03-.17-.14.01-.11.09-.13.18-.07h.14c.12-.05.24.03.24.11,0,.15-.12.12-.24.06"/>
      <path class="cls-1" d="m31.88,46.25l-.13.09c-.14-.11-.36.11-.45-.13l.11-.11c.14.13.38-.11.47.14"/>
      <path class="cls-1" d="m6.56,47.47l-.09.11c-.08-.01-.17-.03-.18-.14l.09-.11.19.13Z"/>
      <polygon class="cls-1" points="43.99 46.64 43.95 46.61 43.97 46.59 43.99 46.64 43.99 46.64"/>
      <path class="cls-1" d="m17.34,13.07c0-2.71,0-5.43,0-8.14,0-.3.1-.37.38-.37,2,.01,4,0,6,0,1.33,0,2.51.41,3.45,1.36,1.16,1.16,1.67,3.2.86,4.76-.68,1.3-1.71,2.03-3.07,2.4-.11.03-.26.02-.3.14-.04.15.12.2.2.29l.25.24c.29.35.63.54,1.12.5.38-.04.74.14,1.01.43.24.25.48.51.73.75.16.15.14.27,0,.42-.31.32-.31.33-.02.66.12.15.24.29.37.43.12.14.23.29.06.44-.15.13-.31.03-.44-.09-.18-.17-.35-.37-.56-.5-.41-.27-.45.26-.69.37-.14.06-.22.22-.05.38.18.17.35.36.52.55.12.14.18.31.03.45-.15.13-.32.07-.45-.06-.18-.18-.36-.36-.52-.55-.14-.16-.24-.14-.38,0-.35.34-.35.33-.68-.02-.19-.2-.37-.4-.57-.59-.31-.28-.38-.66-.37-1.04.02-.65-.32-1.09-.74-1.53-.91-.95-1.78-1.93-2.67-2.89-.07-.07-.19-.15-.13-.26.07-.15.21-.06.31-.05,1.21.14,2.42.15,3.6-.17.72-.19,1.37-.53,1.78-1.2.4-.65.39-1.34.14-2.03-.42-1.14-1.29-1.71-2.47-1.8-1.47-.12-2.94-.1-4.41-.09-.32,0-.41.08-.41.4.01,3.63,0,7.26,0,10.89,0,.64,0,1.28,0,1.92,0,.22.08.29.29.29,2.21,0,4.42,0,6.63,0,.65,0,1.13-.42,1.61-.77,1.46-1.08,1.69-2.59,1.08-4.18-.26-.67-.66-1.22-1.23-1.64-.15-.11-.18-.2-.04-.35.3-.3.58-.61.87-.92.1-.11.2-.19.35-.06.82.7,1.55,1.49,1.88,2.55.51,1.61.32,3.15-.52,4.61-.87,1.5-2.18,2.32-3.86,2.59-.13.02-.27.03-.41.03-2.71,0-5.43,0-8.14,0-.27,0-.36-.06-.36-.35.01-2.73,0-5.45,0-8.17h0Z"/>
      <path class="cls-1" d="m14,20.83c.44.34.77.78,1.2,1.14,2.44,2.04,5.22,3.01,8.4,2.73,3.11-.28,5.67-1.65,7.67-4.04,1.2-1.43,1.98-3.06,2.35-4.9.6-3.03.07-5.85-1.62-8.43-1.62-2.47-3.88-4.08-6.76-4.76-2.55-.61-5.04-.36-7.43.76-.16.08-.32.15-.55.25.64-.54,2.12-1.26,3.24-1.62,1.36-.44,2.76-.62,4.2-.57,2.37.08,4.57.74,6.54,2.09,2.43,1.66,4.13,3.89,5,6.73.44,1.42.64,2.87.54,4.35-.23,3.23-1.46,6.02-3.8,8.27-1.9,1.83-4.17,2.99-6.79,3.37-3.38.48-6.47-.24-9.23-2.29-1.1-.82-2.09-1.76-2.88-2.89l-.08-.17h0Z"/>
      <polygon class="cls-1" points="13.91 20.7 13.86 20.71 13.82 20.68 13.88 20.66 13.91 20.7"/>
      <polygon class="cls-1" points="13.99 20.84 13.95 20.81 13.98 20.79 14 20.83 13.99 20.84"/>
    </g>
  </g>
</svg>