<?xml version="1.0" encoding="UTF-8"?>
<svg id="Layer_2" data-name="Layer 2" xmlns="http://www.w3.org/2000/svg" viewBox="0 0 76.7 18.91">
  <defs>
    <style>
      .cls-1 {
        fill: #000;
      }
       .cls-1:hover {
    fill: #000; /* Change the fill color to black on hover */
  }
    </style>
  </defs>
  <g id="Layer_1-2" data-name="Layer 1">
    <g>
      <path class="cls-1" d="m57.99,15.67c.41-3.39.75-6.54,1.2-9.68.21-1.48,1.4-2.59,2.91-2.62,4.1-.08,8.21-.09,12.31-.02,1.5.02,2.41,1.1,2.26,2.56-.3,3-.69,6-1.1,8.99-.04.3-.52.71-.84.76-2.62.36-2.78.21-2.51-2.33.17-1.64.41-3.28.59-4.92.08-.76.24-1.58-.94-1.7-1.65-.17-2.2.12-2.38,1.42-.28,2.15-.58,4.31-.79,6.47-.08.83-.4,1.08-1.21,1.09-2.74.04-2.71.07-2.25-2.69.27-1.59.44-3.19.63-4.78.08-.71.07-1.39-.91-1.52-1.45-.2-2.24.1-2.4,1.12-.32,2.15-.59,4.3-.8,6.47-.1,1.04-.45,1.55-1.57,1.4-.66-.09-1.34-.02-2.21-.02"/>
      <path class="cls-1" d="m18.17,14.96c-1.81,1.06-3.71,1.06-5.61.28-.99-.4-1.45-1.26-1.32-2.35.31-2.48.59-4.96.96-7.42.18-1.21,1.06-1.91,2.24-2.04,1.75-.19,3.54-.44,5.15.76.91-1.42,2.31-.76,3.52-.83.11,0,.41.7.37,1.05-.3,2.8-.66,5.6-1.01,8.39-.02.2-.07.4-.1.6-.34,2.41-.67,2.67-3.11,2.27-.37-.06-.68-.43-1.1-.72m-1.28-2.62c1.58,0,1.96-.33,2.2-1.9.07-.43.13-.87.2-1.31.33-2.14-.1-2.58-2.26-2.41-.99.08-1.56.52-1.65,1.55-.06.72-.19,1.43-.27,2.15-.17,1.57.18,1.93,1.78,1.92"/>
      <path class="cls-1" d="m50.58,15.67c-.96,0-1.93.02-2.9,0-1.51-.05-2.44-.98-2.31-2.48.21-2.4.49-4.8.87-7.18.26-1.64,1.58-2.66,3.24-2.7,1.77-.04,3.54-.04,5.31,0,1.87.04,2.81,1.08,2.63,2.96-.2,2.08-.44,4.16-.76,6.23-.34,2.22-1.54,3.18-3.79,3.19-.77,0-1.53,0-2.29,0h0Zm.71-3.34c.13-.02.63,0,1.07-.16.87-.32,1.7-4.64.91-5.04-.75-.38-1.78-.42-2.64-.28-.42.07-.84.85-1.03,1.38-.24.67-.24,1.42-.35,2.13-.24,1.58.08,1.95,2.04,1.96"/>
      <path class="cls-1" d="m31.79,15.67c.3-2.41.61-4.63.81-6.86.06-.64-.13-1.85-.34-1.88-1.03-.14-2.12-.04-3.16.13-.22.04-.4.73-.46,1.15-.29,2.11-.56,4.23-.76,6.35-.08.87-.42,1.21-1.29,1.14-.75-.06-1.51-.01-2.44-.01.14-1.28.25-2.46.39-3.63.23-1.88.45-3.75.72-5.62.28-1.93,1.46-3.07,3.37-3.14,1.85-.06,3.7-.05,5.55.04,1.74.09,2.57,1.21,2.35,2.94-.35,2.79-.72,5.58-1.02,8.38-.08.75-.32,1.08-1.11,1.03-.79-.05-1.59-.01-2.61-.01"/>
      <path class="cls-1" d="m10.35,7.35c-.12,1.06-.15,1.95-.36,2.79-.07.28-.62.6-.96.62-1.24.08-2.49.07-3.74.02-.82-.03-1.17.29-1.23,1.1-.06.92-.21,1.84-.3,2.76-.07.72-.37,1.1-1.15,1.06-.83-.04-1.67-.01-2.61-.01C.54,11.38,1.03,7.24,1.61,3.11c.17-1.22,1.61-2.33,2.9-2.36,2.21-.05,4.43,0,6.64-.02.64,0,.83.24.81.87-.06,2.45-.15,2.55-2.59,2.54-1.09,0-2.18-.06-3.26.04-.39.04-.98.4-1.08.73-.2.7-.17,1.48-.12,2.22,0,.1.64.21.98.22,1.43.02,2.87.01,4.46.01"/>
      <path class="cls-1" d="m37.72,6.6c.12-.97.19-1.84.36-2.69.05-.23.41-.56.63-.56,1.08,0,1.2-.73,1.29-1.52q.2-1.8,1.96-1.8h1.75c-.06.73-.1,1.27-.14,1.82-.11,1.43-.06,1.47,1.42,1.48.27,0,.54,0,.99,0-.3,1.07-.51,2.03-.87,2.94-.1.24-.65.42-.99.42-.88,0-1.2.43-1.29,1.23-.25,2.2-.56,4.39-.79,6.58-.09.86-.39,1.32-1.36,1.2-.74-.09-1.5-.02-2.41-.02.31-2.49.54-4.8.92-7.09.19-1.17.2-2.03-1.45-1.99"/>
      <path class="cls-1" d="m57.7,3.04c-1.22-1.41-2.78-1.15-4.29-1.15-1.89,0-3.77.03-5.65-.03-.34-.01-.9-.38-.95-.65-.1-.57-.02-1.22.89-1.21,2.53.03,5.06-.04,7.58.03,1.72.05,2.71,1.25,2.42,3.01"/>
      <path class="cls-1" d="m55.91,17.09c.27,1.33-.03,1.86-1.29,1.82-2.41-.08-4.83,0-7.25-.03-1.61-.02-2.49-1.05-2.3-2.8,1.34,1.33,2.98,1.01,4.55,1.02,2.08,0,4.17,0,6.29,0"/>
    </g>
  </g>
</svg>