<?xml version="1.0" encoding="UTF-8"?>
<svg id="Layer_2" data-name="Layer 2" xmlns="http://www.w3.org/2000/svg" viewBox="0 0 92.45 19.3">
  <defs>
    <style>
      .cls-1 {
        fill: #000;
      }
       .cls-1:hover {
    fill: #000; /* Change the fill color to black on hover */
  }
    </style>
  </defs>
  <g id="Layer_1-2" data-name="Layer 1">
    <g>
      <path class="cls-1" d="m43.65,1.64c-.59,1.3-1.16,2.56-1.76,3.86-1.08-.71-2.23-1.14-3.47-1.3-.96-.12-1.93-.19-2.86.15-.4.14-.8.38-1.09.67-.59.6-.48,1.47.26,1.87.63.34,1.33.54,2.01.78.96.34,1.96.6,2.9.99,1.38.58,2.43,1.52,2.71,3.08.45,2.58-.72,5.03-3.01,6.33-1.24.71-2.59,1.06-4,1.16-2.75.19-5.38-.2-7.8-1.6-.52-.3-.52-.31-.26-.85.49-1.01.99-2.02,1.48-3.04.05-.1.12-.2.13-.22,1.08.45,2.11.96,3.19,1.32,1.29.42,2.63.56,3.97.21.38-.1.78-.28,1.08-.52.68-.55.62-1.52-.15-1.91-.74-.38-1.56-.61-2.35-.89-.71-.25-1.44-.45-2.14-.72-2.66-1.05-3.69-2.99-3.08-5.78.5-2.3,1.98-3.77,4.13-4.51,3.26-1.12,6.49-.91,9.61.61.1.05.18.1.27.16.06.04.12.08.24.16"/>
      <path class="cls-1" d="m8.12,8.46h8.52c-.29,1.43-.57,2.8-.85,4.22h-.54c-2.52,0-5.03,0-7.55,0-.33,0-.46.09-.53.43-.37,1.91-.76,3.83-1.14,5.74-.03.13-.06.26-.1.41h-3.44c.17-.87.33-1.7.5-2.54C4.07,11.33,5.16,5.95,6.23.57c.08-.42.23-.55.67-.55,4.01.02,8.01.01,12.02.01h.56c-.15.74-.28,1.42-.42,2.11-.11.56-.26,1.11-.34,1.68-.05.35-.2.43-.53.43-2.89-.01-5.78,0-8.68-.02-.46,0-.62.15-.69.58-.21,1.21-.47,2.41-.71,3.66"/>
      <path class="cls-1" d="m18.83,19.28c.19-.95.36-1.83.54-2.71.72-3.56,1.44-7.11,2.15-10.67.08-.42.21-.6.69-.58,1.07.04,2.14.01,3.21.01h.55c-.12.61-.22,1.17-.33,1.72-.78,3.9-1.57,7.79-2.34,11.69-.08.41-.22.56-.66.55-1.23-.04-2.46-.01-3.79-.01"/>
      <path class="cls-1" d="m21.86,4.22c.27-1.34.53-2.63.81-3.92.02-.11.17-.26.26-.27,1.34-.02,2.68-.01,4.09-.01-.07.41-.14.77-.21,1.12-.18.91-.37,1.82-.55,2.74-.04.21-.08.39-.38.39-1.27-.01-2.53,0-3.8-.01-.06,0-.12-.02-.23-.04"/>
      <path class="cls-1" d="m5.76.08c-.3,1.49-.6,2.94-.89,4.39-.94,4.7-1.89,9.41-2.83,14.11-.16.78-.18.8-1.05.62.3-1.48.59-2.97.89-4.45.96-4.75,1.91-9.5,2.87-14.25.11-.56.14-.57,1.01-.43"/>
      <path class="cls-1" d="m67.36,13.85q1-.1,1.36.72c.22.49.44.98.7,1.55.37-.42.69-.79,1.01-1.15.19-.22.41-.41.55-.65.36-.6.89-.54,1.5-.46-.2.91-.39,1.8-.58,2.69-.03.13-.06.26-.09.4q-.21.95-1.32.83c.13-.62.26-1.23.38-1.85l-.09-.05c-.36.42-.72.83-1.08,1.25-.4.46-.74.41-1-.14-.18-.38-.36-.75-.63-1.13-.11.47-.25.94-.31,1.41-.06.46-.28.61-.71.55-.16-.02-.32,0-.56,0,.3-1.36.58-2.66.87-3.97"/>
      <path class="cls-1" d="m52.89,9.7c.14-.64.27-1.16.36-1.69.06-.38.22-.56.62-.5.22.03.44,0,.72,0-.24,1.08-.46,2.09-.68,3.09l-.05.22c-.12.23.06.64-.36.68-.42.04-.84.11-1.12-.41-.31-.58-.72-1.1-1.15-1.76-.14.59-.25,1.06-.36,1.54-.18.78-.06.62-.8.64-.16,0-.33,0-.55,0,.24-1.09.46-2.12.69-3.16l.05-.22c.1-.21.19-.57.32-.59.38-.06.82-.17,1.1.33.33.6.75,1.14,1.2,1.81"/>
      <path class="cls-1" d="m87.08,11.52c.22-1,.42-1.95.63-2.9.24-1.1.24-1.11,1.38-1.1.48,0,.97-.01,1.44.07,1.4.23,1.98,1.47,1.27,2.71-.37.65-.95.98-1.66,1.13-.23.05-.48.08-.72.08-.76.01-1.53,0-2.35,0m1.44-.85c.51-.04.95-.03,1.36-.13.7-.16,1.12-.94.9-1.57-.16-.44-1.15-.77-1.66-.55l-.14.15c-.15.67-.29,1.33-.45,2.09"/>
      <path class="cls-1" d="m71.9,10.36c.22.37.44.73.69,1.16-.43,0-.83.1-1.13-.03-.26-.11-.44-.45-.61-.72-.14-.23-.31-.38-.58-.31-.12.03-.27.13-.3.24-.31.91-.3.91-1.42.77.29-1.31.57-2.62.86-3.92.8,0,1.55-.04,2.3.01.8.06,1.23.42,1.34.99.12.67-.18,1.27-.85,1.64-.09.05-.18.1-.31.17m-1.67-.75c.41-.03.78-.02,1.14-.08.31-.06.47-.31.45-.64-.02-.34-.27-.44-.55-.48-.74-.1-.79-.05-.94.68-.03.14-.05.29-.1.52"/>
      <path class="cls-1" d="m86.2,4.36c.23.38.44.73.7,1.16-.44,0-.84.09-1.16-.03-.23-.08-.39-.41-.55-.66-.14-.22-.27-.46-.58-.37-.13.04-.3.15-.33.26-.29.89-.33.92-1.41.74.28-1.29.57-2.59.85-3.88.86,0,1.7-.05,2.53.02.57.04,1.02.37,1.13,1,.1.57-.17,1.17-.7,1.5-.14.09-.29.16-.48.26m-1.67-.72c.45-.05.83-.05,1.18-.14.31-.07.51-.36.4-.65-.07-.18-.34-.38-.54-.42-.75-.13-.78-.08-.95.66-.03.14-.05.29-.1.54"/>
      <path class="cls-1" d="m63.72,16.94h2.15c.04.8-.03.87-.74.87-.93,0-1.86,0-2.89,0,.3-1.36.58-2.66.87-3.98h3.36c.06.74-.02.84-.74.84h-1.04q-.6,0-.65.68h1.82c.03.8,0,.84-.7.84-.27,0-.54,0-.81,0-.63,0-.64.02-.63.74"/>
      <path class="cls-1" d="m86.92,7.52c0,.81-.04.86-.73.86h-1.08q-.58,0-.62.7h1.82c.01.81,0,.83-.72.83-.41,0-.81,0-1.22,0l-.12.04c-.04.2-.09.41-.16.69h2.21c.04.81-.02.88-.72.88h-2.9c.14-.68.28-1.3.41-1.93.13-.59.25-1.17.4-1.75.03-.12.16-.3.25-.3,1.06-.02,2.13-.01,3.19-.01"/>
      <path class="cls-1" d="m63.31,7.58q-.05.8-.8.8c-.33,0-.67.03-.99,0-.49-.06-.69.14-.65.69h1.84q-.05.84-.79.84h-.68q-.66,0-.74.74h2.18c.03.81-.03.88-.76.88h-2.87c.09-.41.16-.78.24-1.15.18-.84.35-1.67.56-2.5.03-.13.2-.32.31-.33,1.01-.02,2.02-.01,3.02,0l.12.05Z"/>
      <path class="cls-1" d="m79.32,1.53c-.16.73-.3,1.38-.44,2.04-.15.67-.05.95.4,1.07.55.15,1.01-.1,1.17-.69.18-.65.33-1.31.45-1.97.06-.36.2-.49.56-.45.23.03.47,0,.8,0-.24.99-.39,1.93-.72,2.81-.47,1.25-2.38,1.71-3.46.91-.45-.33-.6-.79-.5-1.31.13-.72.29-1.44.47-2.15.02-.1.19-.23.3-.24.3-.03.6-.01.99-.01"/>
      <path class="cls-1" d="m68.83,1.53c-.16.73-.3,1.4-.44,2.07-.14.64-.04.91.38,1.04.53.15,1-.07,1.17-.63.19-.66.34-1.34.47-2.01.07-.36.2-.53.59-.47.22.03.45,0,.8,0-.28,1.04-.44,2.08-.85,3-.48,1.12-2.42,1.45-3.39.69-.47-.37-.56-.87-.46-1.42.13-.68.28-1.35.45-2.02.03-.1.18-.24.29-.25.31-.03.62-.01,1-.01"/>
      <path class="cls-1" d="m90.02,3.07h1.83c0,.81-.04.85-.78.85-.26,0-.51,0-.77,0-.6,0-.62.02-.62.74h2.24c-.06.26-.07.45-.15.62-.05.11-.19.24-.29.24-1.07.02-2.13.01-3.27.01.07-.35.13-.65.2-.95.19-.89.38-1.79.59-2.68.03-.14.19-.35.29-.35,1.05-.03,2.1-.02,3.15-.02.05.79-.02.87-.74.87-.36,0-.72,0-1.08,0q-.57,0-.59.66"/>
      <path class="cls-1" d="m67.99,9.51c-.11.49-.2.99-.34,1.48-.03.12-.2.22-.32.28-.8.37-1.64.41-2.46.13-1.01-.34-1.42-1.29-1.04-2.34.58-1.64,3.34-2.19,4.57-.87-.28.21-.55.41-.84.62-.48-.4-1.02-.54-1.61-.34-.26.09-.52.25-.71.45-.35.37-.38,1-.13,1.34.25.33.95.52,1.37.33.13-.06.23-.26.27-.41.22-.82.32-.89,1.26-.67"/>
      <path class="cls-1" d="m72.94,11.52c.94-1.34,1.8-2.58,2.7-3.8.3-.41.78-.16,1.18-.17.1,0,.25.28.3.46.29,1.02.55,2.05.82,3.08.03.12.05.25.08.38-1.05.15-1.09.13-1.42-.74-.54,0-1.09-.01-1.64,0-.11,0-.27.11-.31.2-.22.54-.64.65-1.16.58-.14-.02-.29,0-.54,0m2.4-1.64h1.11c-.09-.41-.18-.78-.29-1.27-.3.47-.54.83-.82,1.27"/>
      <path class="cls-1" d="m45.76,17.42c.15-.26.29-.51.45-.78.2.07.37.16.55.2.34.06.68.14,1.02.13.22-.01.43-.18.65-.28-.18-.13-.35-.29-.54-.37-.3-.13-.64-.17-.94-.3-.66-.28-.83-1-.39-1.56.1-.13.23-.24.36-.33.72-.48,2.26-.48,3.06.01-.13.24-.26.49-.4.74-.33-.08-.63-.19-.94-.21-.28-.02-.57.02-.84.08-.1.02-.21.18-.22.29-.01.07.13.2.23.23.31.11.64.17.95.27.44.14.87.31.92.86.05.5-.25.95-.78,1.21-.84.41-2.25.34-3.15-.17"/>
      <path class="cls-1" d="m72.33,17.47c.18-.32.33-.56.44-.76.53.1,1.01.2,1.49.27.14.02.31.01.44-.04.12-.05.22-.17.33-.26-.1-.1-.18-.24-.3-.28-.35-.13-.72-.2-1.08-.33-.35-.12-.66-.31-.72-.73-.07-.47.08-.87.48-1.14.78-.54,1.65-.48,2.52-.34.21.04.42.14.67.22-.16.3-.29.54-.43.79-.32-.08-.61-.18-.9-.21-.26-.03-.54,0-.8.05-.12.02-.21.18-.32.28.1.1.18.25.3.29.29.11.61.15.91.25.44.14.87.31.91.87.04.56-.25.96-.74,1.18-1.05.47-2.1.35-3.21-.1"/>
      <path class="cls-1" d="m54.02,17.46c.17-.3.32-.56.44-.77.52.1.99.2,1.46.28.16.03.34,0,.49-.05.12-.05.21-.18.32-.27-.09-.09-.16-.22-.27-.26-.28-.1-.58-.16-.87-.25-.47-.15-.93-.32-.98-.91-.05-.53.27-1.02.86-1.24.93-.35,1.85-.3,2.82.09-.15.29-.29.54-.4.76-.48-.07-.9-.15-1.33-.2-.14-.02-.31.02-.44.09-.11.05-.24.18-.25.28,0,.09.14.23.24.27.3.11.61.16.91.26.43.14.88.29.93.85.05.54-.22,1-.79,1.23-1.05.43-2.08.32-3.15-.14"/>
      <path class="cls-1" d="m90.82,14.51c-.34.23-.61.42-.89.62-.42-.42-.91-.54-1.45-.37-.18.06-.36.15-.51.27-.41.33-.58.96-.39,1.38.19.41.72.64,1.28.5.28-.07.55-.23.85-.36.07.06.18.14.28.22.12.11.24.22.39.36-.12.11-.2.21-.31.28-.79.59-2.31.61-3.12.05-.72-.5-.92-1.45-.48-2.34.64-1.28,2.76-1.82,3.94-.99.13.09.24.22.41.38"/>
      <path class="cls-1" d="m66.32,1.53c-.04.19-.07.31-.08.43-.03.35-.21.48-.57.45-.4-.03-.82.02-1.22-.02-.48-.04-.67.14-.61.66h2c.03.79-.07.89-.76.89h-.09c-.45.01-1.01-.14-1.32.08-.27.19-.24.79-.38,1.2-.04.12-.21.27-.34.29-.29.04-.6.01-.95.01.29-1.31.56-2.57.85-3.82l.22-.16c1.07-.01,2.13,0,3.25,0"/>
      <path class="cls-1" d="m4.25.09c-.26,1.32-.52,2.61-.78,3.9-.99,4.93-1.98,9.85-2.97,14.78-.05.24,0,.63-.5.45.39-1.92.77-3.83,1.15-5.74C2.03,9.14,2.9,4.8,3.77.46c.04-.22.02-.52.48-.38"/>
      <path class="cls-1" d="m51.04,17.81c.05-.27.06-.48.13-.67.2-.55.1-1.04-.16-1.54-.29-.55-.51-1.14-.79-1.79.4,0,.73-.02,1.05.01.11.01.25.14.31.26.2.4.37.82.59,1.32.31-.34.62-.61.82-.93.42-.67,1.02-.75,1.75-.61-.06.1-.11.2-.18.28-.4.47-.79.95-1.22,1.38-.55.55-.93,1.16-.99,1.95-.02.29-.17.38-.45.36-.26-.02-.53,0-.85,0"/>
      <path class="cls-1" d="m59.18,7.51c0,.88-.02.89-.81.89-.66,0-.66,0-.81.64-.15.69-.32,1.37-.45,2.07-.06.33-.21.45-.54.42-.25-.03-.5,0-.8,0,.23-1.06.44-2.04.67-3.11h-1.35c.06-.28.09-.48.16-.68.03-.09.15-.21.23-.21,1.23-.01,2.46-.01,3.68-.01"/>
      <path class="cls-1" d="m79.35,11.52c.23-1.07.45-2.06.67-3.1h-1.25c-.06-.8.03-.91.74-.91h3.24c.01.82-.05.89-.79.9-.74,0-.67-.13-.83.66-.15.7-.32,1.4-.46,2.1-.05.28-.17.38-.45.36-.27-.02-.54,0-.87,0"/>
      <path class="cls-1" d="m62.65,13.8c-.05.24-.09.41-.11.59-.03.25-.17.3-.4.31-1.03.03-1.03.04-1.25,1.03-.12.56-.27,1.11-.36,1.67-.06.34-.22.45-.55.41-.24-.02-.48,0-.79,0,.23-1.05.44-2.05.67-3.11h-1.32c.05-.27.06-.49.14-.7.03-.09.18-.2.28-.2,1.2-.01,2.4,0,3.68,0"/>
      <path class="cls-1" d="m72.64,2.44l-.03-.12q.1-.79.89-.79h3.18c0,.11,0,.18-.01.25-.11.64-.11.64-.75.64-.92.01-.7-.11-.9.74-.16.66-.31,1.31-.44,1.98-.06.3-.18.41-.48.39-.26-.02-.53,0-.85,0,.23-1.05.44-2.04.67-3.09h-1.27Z"/>
      <path class="cls-1" d="m83.73,16.93h2.01c.05.8-.03.9-.76.9-.84,0-1.69,0-2.53,0l-.14-.04c.05-.26.09-.54.15-.8.2-.94.42-1.87.62-2.81.05-.25.14-.37.41-.35.28.02.56,0,.91,0-.23,1.06-.44,2.05-.67,3.12"/>
      <path class="cls-1" d="m79.92,16.92h2.03c.01.09.03.14.02.18-.2.88-.03.71-.86.72-.86,0-1.71,0-2.64,0,.14-.64.26-1.24.39-1.83.13-.59.29-1.17.39-1.76.06-.34.2-.46.53-.42.24.02.48,0,.8,0-.22,1.05-.43,2.05-.66,3.11"/>
      <path class="cls-1" d="m47.16,11.52c.29-1.31.56-2.57.85-3.82.02-.08.17-.17.26-.17.31-.02.62,0,1,0-.08.4-.15.74-.23,1.09-.18.8-.37,1.6-.53,2.41-.07.36-.19.57-.6.5-.23-.03-.47,0-.76,0"/>
    </g>
  </g>
</svg>