<?xml version="1.0" encoding="UTF-8"?>
<svg id="Layer_2" data-name="Layer 2" xmlns="http://www.w3.org/2000/svg" viewBox="0 0 84.1 13.51">
  <defs>
    <style>
      .cls-1 {
        fill: #000;
      }
       .cls-1:hover {
    fill: #000; /* Change the fill color to black on hover */
  }
    </style>
  </defs>
  <g id="Layer_1-2" data-name="Layer 1">
    <g>
      <path class="cls-1" d="m16.57,6.73c0-3.62,2.9-6.54,6.49-6.54,3.36,0,6.22,3.05,6.24,6.65.02,3.43-2.91,6.51-6.22,6.54-3.65.03-6.51-2.89-6.51-6.65m9.43.01c-.02-1.68-1.49-3.15-3.14-3.16-1.53,0-3.07,1.65-3.04,3.27.02,1.67,1.5,3.13,3.15,3.13,1.61,0,3.05-1.54,3.03-3.25"/>
      <path class="cls-1" d="m84.05,10.03c-.04,1.7-1,2.67-2.73,3.07l-.04.07-.03-.06c-.32.05-.64.1-.96.14l-.22.03c-.38,0-.75.01-1.13.01-.08-.11-.16-.11-.25,0-.55,0-1.09-.01-1.63-.02-.72.04-1.44.05-2.16.11-.9.08-1.3-.2-1.3-1.2,0-1.07.54-1.14,1.37-1.11,1.49.05,2.99,0,4.48.03.89,0,1.36-.38,1.32-1.3-1.33-.05-2.66.11-3.98-.17-1.75-.07-3.02-1.17-3.12-2.93-.11-1.91-.02-3.83-.03-5.74,0-.43.15-.71.63-.69q2.53-.17,2.52,2.29c0,1.27-.05,2.54-.07,3.8.11.21.23.42.35.64.1.17.21.33.32.5q3.54.57,3.54-2.86c0-1,0-2.01-.09-3-.08-1.06.19-1.69,1.41-1.49.31.05.64.04.96.02.63-.06.92.17.91.84-.03,3.01.02,6.01-.05,9.02"/>
      <path class="cls-1" d="m69.74,5.83c-.46.83-.53,1.54.04,2.4.83,1.25,1.52,2.59,2.24,3.9.43.78.49,1.27-.73,1.3-1.27.03-2.07-.38-2.58-1.54-.39-.87-.94-1.67-1.37-2.52-.33-.67-.85-.93-1.56-.83-.84.12-.56.81-.59,1.3-.04.73-.07,1.47,0,2.19.13,1.27-.56,1.41-1.58,1.39-.95-.02-1.71,0-1.64-1.32.09-1.78.02-3.56.02-5.33s0-3.56,0-5.34c0-.71.08-1.33,1.02-1.2.82.12,2.08-.56,2.14,1.06.04,1.05.01,2.1.04,3.15,0,.42-.14.98.58,1.01.55.02,1.05.07,1.36-.61.52-1.16,1.15-2.28,1.75-3.4.63-1.19,2.09-1.73,3.31-1.29.66.24.23.58.09.84-.83,1.62-1.67,3.24-2.55,4.84"/>
      <path class="cls-1" d="m15.67,6.36c-.04,2-.04,4.01-.01,6.01,0,.66-.14,1.05-.9,1.01-2.77-.12-5.56.17-8.33-.22-1.06-.15-2.04-.44-2.88-1.1C.23,10.9-1.16,5.89,1.13,3.27c.7-.8,1.34-1.72,2.51-1.92,1.29-.83,2.8-.94,4.23-1.06,2.3-.18,4.63-.03,6.94-.07,1.35-.02.69,1.01.85,1.57.2.71-.35.77-.88.77-.86,0-1.73.02-2.59,0-2.64-.07-5.27-.08-7.64,1.35l-.02-.05h0c-.36.12-.12.22.02.32-.64,1.26-.62,2.58-.32,3.92.72,1.35,1.88,2.15,3.28,2.66l.32.11c.82.04,1.64.04,2.45.14,1.25.17,1.66-.3,1.59-1.56-.1-1.75-.02-1.7-1.78-1.78-.73-.03-1.94.63-1.87-1.07.04-.95.28-1.27,1.24-1.24,1.73.07,3.46.05,5.2,0,.78-.02,1.04.23,1.02,1.01"/>
      <path class="cls-1" d="m47.5,12.45c.01.7-.21.98-.93.97-1.92-.03-3.84.08-5.75-.06-1.81-.13-3.4-.93-4.59-2.34-2.13-2.52-1.42-5.83,1.52-7.32,1.3-.66,2.7-.76,4.12-.78.72-.01,1.01.28.93.98-.07.61.32,1.46-.81,1.53-1.15.09-2.3.22-2.8,1.52-.49,1.26-.1,2.24.8,3.21,1,1.08,2.2.88,3.38.7.45-.07.25-.71.25-1.09.02-2.78.05-5.57-.01-8.35-.02-.98.3-1.23,1.24-1.22,2.63.02,2.63-.02,2.63,2.55,0,1.32,0,2.64,0,3.97h.01c0,1.91-.03,3.83.01,5.75"/>
      <path class="cls-1" d="m34.06,2.88c.04,1.32,0,2.65,0,3.97h-.05c0,1.87-.03,3.74.01,5.61.01.71-.22.96-.94.95-3.5-.05-2.86.3-2.89-2.77-.04-3.1.02-6.2-.02-9.31,0-.82.24-1.13,1.09-1.11,3.41.07,2.71-.45,2.79,2.67"/>
      <path class="cls-1" d="m52.21,4.41c.33.89,1.2,1.12,2.13,1.13,1.09.01,2.21,0,3.27.22,2.04.43,3.26,1.78,3.34,3.46.07,1.64-1.19,3.42-3.11,3.85-2.91.66-5.9.4-8.86.3-1.01-.03-.56-.96-.64-1.52-.09-.65.24-.88.88-.87,1.92.03,3.83.02,5.75,0,1.51-.01,2.09-.45,2.04-1.58-.06-1.32-1.03-1.44-2.04-1.46-.77-.02-1.55-.02-2.33,0-2.39.06-4.13-2.01-4.21-3.48-.1-2,1.42-3.62,3.84-4.01,1.55-.5,3.15-.16,4.72-.23.95-.04,1.91.05,2.86,0,.89-.05,1.31.16,1.29,1.18-.02.99-.38,1.22-1.29,1.2-2.13-.04-4.27.02-6.4.03-.67.43-1.65.75-1.26,1.79"/>
      <polygon class="cls-1" points="4.54 3.92 4.53 3.86 4.53 3.85 4.54 3.92"/>
      <polygon class="cls-1" points="4.55 3.91 4.54 3.92 4.53 3.86 4.53 3.85 4.55 3.91"/>
      <polygon class="cls-1" points="80.29 13.26 80.19 13.33 80.07 13.29 80.29 13.26"/>
      <path class="cls-1" d="m77.05,7l.02.04-.02-.04Z"/>
      <path class="cls-1" d="m4.6,4.06l-.06.11c-.14-.1-.38-.2-.02-.32h0s.02.05.02.05l.05.16Z"/>
      <path class="cls-1" d="m78.94,13.3l-.13.05-.12-.05c.08-.11.17-.11.25,0"/>
    </g>
  </g>
</svg>