<?xml version="1.0" encoding="UTF-8"?>
<svg id="Layer_2" data-name="Layer 2" xmlns="http://www.w3.org/2000/svg" viewBox="0 0 55.82 52.28">
  <defs>
    <style>
      .cls-1 {
        fill: #000;
      }
       .cls-1:hover {
    fill: #000; /* Change the fill color to black on hover */
  }
    </style>
  </defs>
  <g id="Layer_1-2" data-name="Layer 1">
    <g>
      <path class="cls-1" d="m28.5.22l.19-.03c.2-.02.41-.02.6-.09h.25c.18-.03.36-.04.55-.06h.25c.18-.02.37-.02.55-.03h.24c.18.01.37.02.55.03l.24.03c.19.03.37.05.56.08l.25.05c.16.05.32.11.48.17.1.05.21.1.31.15l.03.04c.66.43.5,1.11.1,1.55l-.13.15-.26.19c-.18.09-.36.18-.54.27l-.25.09c-.18.02-.36.06-.55.05-.15-.08-.17-.18-.07-.31.11-.14.2-.28.26-.45.16-.43-.01-.79-.45-.98-.15-.15-.36-.16-.55-.21l-.25-.05c-.19.01-.36-.1-.55-.05h-.25c-.18-.01-.36-.01-.54.02l-.26.04c-.21,0-.4.08-.6.13l-.2.04c-.21,0-.41.08-.6.17-.09,0-.17.04-.25.08-.19.06-.39.1-.56.21l-.24.09c-.2.05-.38.13-.55.23l-.25.12c-.2.06-.38.16-.55.27-.1.02-.17.08-.25.14-.2.08-.37.2-.55.31-.1.07-.2.13-.3.2-.19.11-.38.22-.54.37-.1.04-.18.11-.25.19-.2.13-.39.26-.56.44-.12.06-.22.15-.31.25-.18.13-.35.28-.49.45-.1.07-.2.13-.25.24-.21.16-.39.36-.55.57-.1.08-.2.16-.25.28-.22.22-.44.45-.6.72-.11.08-.17.19-.24.3-.2.25-.4.51-.55.8-.1.12-.19.25-.26.39-.21.3-.41.61-.55.95-.11.14-.19.29-.25.45-.23.42-.44.85-.59,1.31-.11.15-.15.33-.21.49-.21.51-.38,1.03-.52,1.57-.04.16-.01.22.16.17.14-.04.28-.09.42-.14l.2-.06c.2-.06.41-.1.6-.2.12-.02.22-.07.32-.13.17-.04.33-.12.48-.22l.25-.13c.14-.07.27-.15.4-.22.15-.07.22-.19.19-.35.08-.32.17-.63.25-.95l.56-1.35c.08-.13.16-.27.24-.4.19-.28.39-.56.58-.84.11-.06.16-.17.23-.25.16-.16.32-.31.49-.47l.26-.22c.2-.13.4-.26.6-.39l.2-.09c.2-.07.4-.14.6-.21l.25-.05c.18-.02.36-.04.54-.06h.25c.19.02.37.08.55.14l.25.18c.29.31.44.68.45,1.1,0,.28-.18.52-.42.58-.24.06-.44-.03-.59-.22-.15-.19-.12-.44.09-.67.09-.11.08-.17-.01-.24-.1-.08-.2-.12-.32-.06l-.24.12c-.26.14-.45.35-.6.6-.09.06-.16.14-.2.24-.27.29-.49.61-.66.97-.1.08-.13.2-.19.3-.23.42-.46.84-.59,1.3-.12.2-.2.42-.25.65-.12.27-.18.57-.23.86-.11.55-.2,1.11-.02,1.66.06.18.12.36.33.43.04.09.13.1.21.11.26.09.44-.04.6-.21.11-.06.18-.15.26-.24.24-.24.45-.5.6-.8.1-.08.16-.18.2-.29.3-.41.51-.87.75-1.31.05-.1,0-.13-.07-.17-.2-.12-.32-.3-.4-.52-.19-.53-.06-1.01.27-1.44l.24-.16c.09-.01.18-.03.27-.04.52-.01.81.11.84.73.01.29-.03.58-.12.86-.07.21-.02.28.19.24l.17-.04.25-.04c.2,0,.38-.07.55-.16.1-.01.17-.08.25-.13.33-.16.57-.4.66-.77.09-.12.15-.26.19-.4.23-.47.46-.94.61-1.45.15-.39.43-.76.19-1.21l.06-.18c.15-.1.33-.14.49-.2h.25c.18.02.36.05.55.09l.24.12c.3.26.45.59.48.98.01.16-.02.33-.03.49l.05.11.07-.07c.12-.08.2-.21.3-.32.17-.17.33-.33.5-.5l.3-.25c.17-.12.33-.23.5-.35.1-.05.2-.11.3-.16.18-.05.36-.11.54-.16h.25c.2.02.37.09.55.18l.25.23c.37.55.39,1.16.34,1.79-.05.58-.22,1.14-.39,1.69-.11.21-.21.43-.28.65-.18.4-.37.8-.55,1.2-.1.11-.16.25-.21.4-.25.42-.44.87-.53,1.36-.03.16-.04.32.14.42.16.09.32.07.46-.06.11-.03.18-.12.26-.2.21-.18.39-.37.54-.6.11-.09.19-.2.25-.32.2-.24.4-.49.55-.77.1-.14.19-.28.29-.42.19-.26.37-.54.51-.83.12-.16.21-.33.3-.51.23-.38.38-.8.55-1.2.08-.11.15-.23.2-.36.2-.3.4-.59.6-.89.1-.08.19-.18.26-.29.17-.16.33-.33.49-.49.1-.08.24-.13.29-.26.22-.06.38-.22.57-.33.1-.04.19-.08.29-.12.17-.06.34-.12.51-.18l.24-.06c.18-.04.38.03.55-.07h.24c.18.09.38.03.56.11l.25.15c.5.5.45,1.08.25,1.68-.07.22-.17.42-.26.64-.1.15-.2.31-.3.46-.17.21-.34.42-.5.63-.1.06-.19.14-.24.25-.18.15-.37.31-.55.46-.1.07-.2.14-.3.21-.16.1-.33.2-.49.3-.09.02-.18.06-.25.13-.18.07-.37.14-.55.22-.09,0-.17.04-.25.09-.11.01-.21.02-.25.16-.11.51-.22,1.02-.17,1.54.03.33.06.68.37.9.08.08.19.11.3.1.19.03.38.02.56-.07.11-.02.21-.04.3-.11.18-.07.35-.16.5-.29.11-.05.22-.11.3-.21.18-.13.36-.27.5-.44l.24-.25c.21-.18.39-.39.55-.61.11-.09.19-.2.25-.33.25-.26.45-.56.62-.87.09-.1.17-.22.23-.35.26-.41.48-.83.61-1.3.06-.12.11-.24.17-.35.23-.49.46-.98.62-1.5.1-.3.29-.58.08-.91-.07-.1.07-.15.11-.22.17-.09.36-.14.55-.17h.25c.16.04.32.08.48.12.11.06.21.13.32.19.42.49.47,1.05.32,1.65-.1.37-.22.74-.33,1.11-.12.16-.18.36-.27.53-.19.38-.37.76-.56,1.15-.11.13-.18.29-.25.45-.2.3-.36.62-.52.94-.22.45-.48.88-.58,1.37-.03.14-.09.3.07.41.16.11.32.05.46-.05.24-.16.45-.36.62-.6.11-.09.2-.2.29-.32.19-.22.36-.44.51-.69.12-.14.22-.28.31-.45.18-.25.36-.51.5-.79.11-.14.2-.28.27-.45.24-.36.45-.75.58-1.17.09-.2.17-.39.26-.59.21-.47.4-.96.53-1.46.11-.33.27-.65.12-1.02-.04-.11.08-.15.13-.22.17-.08.35-.15.55-.18h.25c.18.04.36.08.55.12l.24.16c.36.39.48.84.34,1.36-.11.42-.23.83-.34,1.25-.12.2-.2.41-.24.65-.26.49-.45,1.01-.65,1.53-.09.11-.13.23-.16.37l-.09.12c-.43.94-.87,1.88-1.29,2.82-.1.22-.25.43-.26.69h-.01s.01,0,.01,0c.66-.43,1.19-1,1.66-1.63.08-.07.16-.14.2-.24.23-.23.43-.49.6-.77.11-.1.2-.22.26-.37.24-.29.44-.6.61-.94.08-.09.15-.19.19-.3.22-.35.44-.71.58-1.1l.25-.49c.14-.08.29-.08.43,0,.17.16.09.33.01.49-.19.38-.38.76-.58,1.15-.09.09-.13.21-.19.31-.2.33-.41.66-.61.98l-.18.27c-.2.28-.4.55-.61.83l-.19.23c-.2.24-.41.48-.61.72-.09.07-.18.15-.24.25-.18.15-.35.32-.5.5-.1.09-.2.18-.3.27-.19.15-.37.31-.56.46l-.24.16c-.19.11-.37.23-.56.34-.15.16-.19.37-.26.57-.22.46-.44.91-.6,1.39-.11.15-.15.34-.23.5-.16.4-.31.8-.58,1.14l-.23.2c-.17.11-.34.22-.5.34l-.24.12c-.2.06-.4.12-.6.18l-.25.02c-.18,0-.36.01-.54.02l-.26-.03c-.16-.04-.32-.08-.48-.12-.1-.05-.21-.1-.31-.15-.18-.14-.36-.26-.51-.44-.08-.15-.16-.3-.24-.45,0-.18,0-.36,0-.55.08-.13.16-.27.24-.4.17-.15.33-.3.5-.45.1-.06.21-.13.31-.19.17-.09.34-.19.51-.28l.23-.12c.22-.07.41-.18.6-.3l.2-.1c.23-.07.42-.2.6-.35.13-.08.29-.14.26-.34l.1-.13c.24-.67.52-1.33.81-1.98.11-.24.24-.47.29-.74h.01s0,0,0,0c-.39.41-.79.81-1.25,1.15l-.2.11c-.2.05-.39.13-.6.15h-.2c-.22-.05-.41-.15-.6-.27-.08-.1-.16-.2-.24-.3-.3-.66-.26-1.35-.15-2.11-.18.21-.32.35-.42.52-.1.1-.2.21-.3.31-.17.17-.33.33-.49.5-.1.09-.2.17-.3.26-.17.13-.34.26-.51.38l-.24.16-.55.27-.26.1c-.18.05-.36.1-.55.14-.1.01-.2.03-.3.04-.18-.01-.37-.02-.55-.03l-.25-.06c-.18-.07-.36-.15-.55-.22l-.24-.15c-.17-.17-.33-.33-.49-.49-.06-.21-.17-.39-.26-.59-.11-.4-.13-.82-.12-1.24h-.07c-.16.24-.32.49-.48.74-.08.1-.16.2-.24.3-.17.2-.33.4-.5.6-.1.1-.2.2-.3.3-.17.15-.34.29-.51.44-.1.07-.2.13-.3.2-.18.07-.36.14-.54.21h-.25c-.2,0-.38-.07-.55-.16l-.25-.25c-.4-.61-.47-1.28-.37-1.98.08-.55.25-1.08.42-1.61.1-.21.2-.42.25-.65.2-.43.4-.87.6-1.3.11-.13.18-.28.21-.44.28-.34.4-.75.49-1.17.03-.13.04-.28-.11-.35-.14-.07-.3-.11-.44.01-.1,0-.17.07-.24.13-.21.13-.39.29-.55.48-.12.08-.21.18-.3.3-.18.19-.37.37-.51.58-.12.1-.21.23-.3.36-.21.23-.41.47-.56.75-.09.07-.15.16-.19.26-.26.33-.4.72-.58,1.09-.11.13-.17.3-.25.45-.21.37-.41.74-.57,1.14-.13.19-.22.39-.29.6-.06.15-.12.29-.17.44-.08.23-.21.48-.11.72.13.3-.02.44-.23.58l-.19.05c-.21,0-.41-.01-.6-.1l-.19-.1c-.42-.43-.56-.94-.47-1.53.07-.45.21-.88.35-1.32.11-.36.25-.72.43-1.12-.33.17-.63.23-.92.32l-.25.03c-.18.01-.36.02-.55.03-.21.03-.2.22-.26.36-.21.32-.37.67-.55,1.01-.1.15-.2.3-.3.46-.17.21-.33.43-.49.65-.1.1-.2.21-.3.31-.18.16-.37.33-.55.49l-.25.16-.5.24c-.1.02-.2.04-.29.06-.18,0-.36,0-.55.01l-.24-.04-.5-.19c-.1-.06-.21-.13-.31-.19-.16-.19-.32-.38-.48-.57-.09-.19-.18-.39-.27-.58-.06-.33-.11-.65-.11-1.02-.19.1-.34.18-.5.27-.1.05-.21.09-.31.14-.16.07-.33.13-.49.2l-.25.09c-.2.06-.4.12-.6.18l-.24.06c-.19.04-.38.09-.56.13-.15-.02-.22.05-.25.21-.12.69-.14,1.39-.09,2.08.04.51.11,1.02.29,1.51.03.24.11.47.19.69.11.27.08.5-.16.69l-.24.12c-.18.05-.37.1-.55.15l-.25.02c-.18,0-.36,0-.54,0h-.25c-.16-.05-.32-.09-.49-.13-.1-.05-.2-.1-.31-.15-.14-.14-.19-.32-.26-.49-.11-.26-.13-.56-.29-.8v-.22c-.1-.48-.15-.96-.16-1.45-.01-.54.03-1.08.06-1.61,0-.1.04-.24-.15-.2h-.85c-.18,0-.36,0-.55,0h-.25c-.18-.04-.37-.06-.55-.04h-.25c-.18-.05-.36-.07-.55-.05l-.25-.02c-.24-.09-.41-.04-.49.22l-.11.24c-.09.11-.17.23-.21.36-.2.29-.41.59-.61.88-.1.08-.19.18-.25.29-.18.2-.36.4-.54.6l-.26.25c-.18.15-.35.31-.53.46-.11.08-.21.16-.32.24-.16.11-.33.23-.49.34l-.24.14c-.19.1-.38.2-.56.3l-.24.1c-.18.06-.36.12-.54.19l-.25.09c-.18.03-.37.07-.55.1l-.25.04c-.18,0-.37,0-.55,0-.1,0-.19-.02-.29-.02-.19-.04-.38-.09-.56-.13l-.24-.11c-.17-.11-.34-.22-.5-.34-.1-.1-.2-.21-.3-.31-.56-.83-.47-1.68-.1-2.54.05-.11.1-.23.15-.34.08-.12.16-.23.24-.35.18-.2.36-.41.54-.61l.26-.23c.17-.11.33-.23.5-.34.12-.07.24-.14.35-.2.16-.07.32-.15.48-.22.11-.04.21-.09.32-.13.16-.05.33-.1.49-.15l.24-.05c.18,0,.37-.01.55-.07l.26-.02c.18,0,.36,0,.55-.01l.25.02c.18.02.36.04.54.05l.25.03.14-.11c.21-.57.42-1.14.51-1.75.11-.29.15-.6.2-.9.12-.6.2-1.22.36-1.81.11-.4,0-.63-.34-.8-.08-.09-.15-.18-.26-.24-.18-.18-.36-.37-.55-.55-.09-.11-.18-.21-.3-.29-.17-.15-.33-.3-.5-.45-.08-.1-.19-.18-.3-.24-.15-.13-.31-.24-.49-.31-.09-.07-.2-.12-.31-.14-.17-.1-.36-.16-.55-.19-.08-.03-.16-.07-.25-.05-.18-.04-.36-.07-.55-.05h-.25c-.19.02-.38.05-.56.12-.1.03-.2.05-.29.11-.21.06-.39.17-.55.32-.11.06-.18.15-.26.24-.31.33-.53.7-.59,1.16-.08.12-.07.27-.09.4-.02.18,0,.36-.17.49-.16.05-.33.11-.49.16l-.25.03c-.18-.02-.37-.04-.55-.07l-.24-.09c-.26-.17-.24-.41-.2-.67.04-.28.15-.54.25-.81.07-.1.13-.21.2-.31.18-.21.37-.41.55-.62l.24-.19c.18-.12.37-.24.56-.35l.24-.12c.19-.07.38-.15.57-.22l.23-.08c.18-.04.37-.09.55-.14.1-.02.2-.03.29-.05.18-.02.37-.03.56-.05h.24c.18.02.36.04.55.03l.24.03c.19.04.37.09.56.14l.25.09c.18.09.37.17.55.26l.25.15c.18.14.37.28.55.42l.25.23c.18.17.36.34.54.51.08.1.15.18.26.24.18.21.36.42.6.57.04.05.08.09.12,0,.06-.2.13-.41.19-.61.19-.41.38-.83.57-1.25.08-.12.16-.23.24-.35.17-.21.34-.42.51-.64l.24-.24c.18-.14.36-.29.55-.43.1-.06.21-.13.31-.19.16-.09.32-.17.49-.26.09,0,.18-.04.25-.09.18-.05.37-.1.55-.15.1-.01.2-.03.3-.04.18,0,.36-.02.55-.02l.24.03c.18.07.37.09.56.11l.24.09c.19.1.37.19.56.29l.25.19c.59.73.44,1.5.15,2.28-.06.16-.13.3-.19.46-.09.15-.17.29-.26.44-.17.22-.33.43-.49.65-.1.1-.2.2-.3.3-.18.15-.37.3-.55.45-.1.03-.17.09-.25.15l-.49.26c-.12.05-.23.1-.35.15-.17.05-.33.1-.5.16l-.25.05c-.14.04-.34-.04-.39.2-.07.36-.14.73-.21,1.09-.12.36-.2.72-.25,1.1-.15.61-.36,1.2-.55,1.8l-.12.24c-.11.26-.11.26.18.26.18.05.36.05.55.04h.25c.18.06.36.06.55.05h.25c.18.01.36.02.54.03.1.03.21.03.31,0,.18.05.36,0,.54-.02l.26-.04c.16-.8.33-1.59.59-2.36.11-.21.2-.42.26-.65.18-.38.37-.77.55-1.15.11-.12.18-.26.24-.4.17-.28.34-.55.52-.83.08-.12.16-.23.24-.35.18-.23.37-.47.55-.71.11-.1.2-.22.27-.34.17-.19.35-.37.52-.56.1-.1.2-.21.3-.31.18-.18.37-.36.55-.54.09-.08.21-.12.25-.25.22-.1.38-.28.55-.45l.25-.19c.18-.14.37-.28.55-.42l.25-.18c.2-.1.38-.25.56-.39l.24-.15c.19-.11.38-.23.56-.35.1-.05.2-.11.3-.17.16-.09.32-.18.48-.27.12-.06.24-.12.36-.19.17-.07.34-.14.49-.24l.2-.09c.21-.07.41-.15.6-.26l.24-.09c.18-.07.37-.15.55-.22l.25-.08c.18-.06.37-.12.55-.18l.25-.07c.18-.06.37-.11.55-.17l.24-.06c.19,0,.37-.05.55-.11l.25-.05c.2-.04.41-.07.61-.11M6.96,14.48c.14-.21.25-.43.34-.66.21-.56.28-.51-.39-.57h-.26c-.18-.04-.36-.04-.54-.01h-.26c-.18.02-.36.05-.54.1l-.25.05c-.19.04-.38.09-.55.18l-.24.11c-.21.05-.38.17-.55.3-.1.07-.2.14-.3.2-.21.16-.42.32-.55.54-.11.08-.18.19-.25.3-.24.31-.38.66-.43,1.04-.06.53-.05,1.05.43,1.42.07.07.15.13.26.14.17.1.35.12.55.1.11.02.21-.01.3-.05.2-.03.39-.11.56-.22l.24-.14c.21-.11.39-.24.55-.41.11-.08.22-.15.29-.26.2-.16.35-.35.5-.54.12-.1.21-.23.3-.36.19-.23.37-.47.51-.74.13-.15.22-.33.3-.51m34.72-5.9c.23-.35.38-.74.44-1.16.06-.41-.13-.59-.49-.51l-.24.12c-.24.11-.39.31-.55.5-.12.1-.21.23-.29.36-.64.85-1.1,1.79-1.53,2.84.63-.22,1.14-.48,1.58-.89.13-.1.27-.2.37-.34.17-.16.34-.32.45-.53.13-.1.2-.24.28-.38m-26.66-2.98c.31-.4.46-.86.46-1.35,0-.41-.22-.7-.52-.78l-.2-.04c-.2-.02-.39-.01-.56.1-.11.03-.22.07-.3.16-.23.12-.39.3-.54.51-.13.13-.23.28-.31.45-.23.43-.43.87-.53,1.36-.17.39-.23.82-.34,1.23-.04.14-.17.34-.04.43.13.09.33-.02.48-.09.16-.05.32-.11.48-.17.11-.02.21-.07.29-.14.2-.1.39-.21.55-.37.11-.07.22-.15.3-.26.2-.17.36-.38.5-.6.12-.13.22-.27.26-.44m29.61,11.91c-.25.14-.43.25-.61.34-.19.1-.39.18-.59.28-.38.19-.77.36-1.07.68-.35.37-.34.68.02,1.03.23.22.47.26.75.14.23-.1.42-.25.55-.45.39-.61.64-1.29.94-2.02"/>
      <path class="cls-1" d="m53.48,1.59l.25-.05c.2.01.4.02.6.03l.25.07c.16.08.32.17.48.26l.24.19c.34.41.55.86.53,1.41-.02.5-.22.91-.53,1.28l-.24.19c-.16.08-.32.17-.49.25l-.24.08c-.2.07-.4.02-.6.03l-.25-.04c-.18-.08-.36-.15-.55-.23l-.24-.18c-.21-.22-.39-.45-.51-.73-.18-.47-.19-.93,0-1.4.12-.28.3-.52.51-.73.1-.07.2-.14.3-.21.16-.07.33-.14.49-.2m-.86,2.85c.08.12.18.22.31.3.17.16.37.26.61.29l.2.04c.2.03.4.05.6-.04l.2-.06c.25-.06.44-.2.6-.39.66-.61.66-1.69,0-2.3-.53-.62-1.59-.69-2.21-.16-.12.08-.23.18-.31.3-.47.63-.47,1.39,0,2.02"/>
      <path class="cls-1" d="m43.96,24.37l-.14.13c-.2.12-.4.24-.6.35l-.24.09c-.18.06-.36.12-.55.18-.11.03-.21.05-.32.08-.16.04-.32.07-.48.11l-.25.04c-.18.03-.36.05-.55.08l-.25.04c-.18.02-.36.04-.55.06l-.25.04c-.19,0-.38-.01-.56.04-.1,0-.19.01-.29.02-.26-.06-.42.04-.48.3-.03.14-.09.26-.13.4-.1.13-.16.29-.21.44-.2.44-.39.87-.59,1.31-.11.15-.19.32-.25.5-.2.39-.4.78-.55,1.2-.11.15-.19.32-.25.5-.2.39-.4.78-.56,1.2-.11.15-.18.32-.25.5-.21.39-.4.79-.54,1.2-.12.2-.21.41-.27.64-.19.43-.33.87-.4,1.33-.02.13-.02.26.1.34.13.09.25.04.36-.06.12-.05.22-.14.3-.25.19-.17.37-.36.51-.59.12-.1.21-.23.29-.36.21-.25.41-.51.55-.8.11-.1.18-.22.24-.35.21-.29.4-.58.55-.9.11-.12.18-.26.25-.4.24-.34.35-.74.55-1.1h.21c.34.05.39.16.24.48-.11.22-.21.45-.31.67-.1.09-.14.22-.19.34-.2.35-.41.71-.61,1.06-.1.1-.17.23-.24.35-.19.28-.38.56-.57.84l-.22.26c-.17.21-.34.42-.52.63-.1.1-.2.2-.3.31l-.49.41-.25.18c-.18.07-.35.18-.55.22l-.26.03c-.18-.04-.36-.03-.53-.1l-.27-.18c-.42-.5-.5-1.08-.46-1.7.03-.5.18-.96.31-1.43.06-.22.16-.42.19-.69-.23.08-.43.16-.64.23l-.25.05-.55.09h-.25c-.1-.02-.15.02-.19.11-.12.26-.25.52-.37.78-.11.19-.22.38-.34.57-.15.23-.31.45-.46.68-.08.1-.16.2-.24.3-.18.18-.37.37-.55.55-.1.08-.21.16-.31.25-.18.11-.36.23-.55.34l-.19.07c-.2.04-.4.07-.6.11h-.25c-.18-.05-.36-.09-.55-.13l-.26-.12c-.17-.14-.33-.27-.5-.4-.08-.1-.16-.2-.24-.3-.33-.64-.44-1.32-.37-2.04.06-.63.23-1.23.38-1.84.08-.19.15-.37.23-.56.19-.36.38-.73.56-1.09.08-.12.16-.23.24-.35.19-.25.39-.49.58-.74.1-.04.16-.13.23-.2.18-.15.36-.3.54-.46l.2-.13c.2-.11.4-.21.6-.32.09,0,.17-.04.25-.09.18-.05.37-.1.55-.15l.25-.02c.18,0,.36-.01.54-.02.42.05.75.25,1.01.58.06.18.13.36.19.54.1.31.04.59-.21.79-.23.18-.49.09-.72-.05-.19-.32-.18-.49.07-.78v-.21c-.1-.09-.2-.12-.32-.09-.28.04-.47.22-.63.43l-.18.19c-.23.23-.44.48-.6.77-.11.1-.17.23-.24.35-.23.37-.45.74-.59,1.15-.1.1-.13.23-.16.36-.29.55-.44,1.14-.58,1.74-.11.45-.14.92-.09,1.39.04.4.23.86.69.86l.2-.03c.27-.07.44-.26.6-.47.12-.08.2-.18.26-.31.23-.28.44-.56.59-.89.11-.09.16-.21.2-.33.19-.25.32-.54.47-.82.04-.08.05-.14-.04-.19-.21-.1-.31-.29-.43-.47-.11-.37-.1-.73,0-1.1.14-.22.28-.44.53-.56l.26-.04h.15c.44.03.58.16.67.59.05.26,0,.51-.04.76-.1.57-.11.57.48.44l.1-.03c.09,0,.17-.02.25-.07.2-.04.38-.12.55-.23.12-.06.23-.13.31-.23.35-.35.42-.83.59-1.26.1-.13.15-.29.19-.45.22-.49.44-.98.61-1.49.12-.17.18-.36.25-.55.28-.66.57-1.32.85-1.98.06-.13.04-.18-.11-.17-.27,0-.53,0-.8,0h-.25c-.2,0-.4-.01-.6.04h-.2c-.2,0-.4,0-.6.06l-.25.03c-.19.02-.38.04-.56.11l-.24.06c-.2.04-.39.12-.55.25-.14.05-.23.16-.31.28-.08.12-.09.26-.11.41-.02.12-.05.25-.19.3-.13.04-.22-.04-.31-.12l-.07-.07c-.24-.53-.18-1.06,0-1.59.07-.11.14-.21.2-.32.16-.17.36-.29.55-.42l.24-.12c.19-.06.38-.12.56-.17l.24-.04c.18-.02.37-.04.55-.07.1,0,.2,0,.29-.01.18,0,.36.02.55-.02h.26c.18.02.37.02.55.02h.24c.18.06.37.05.56.05l.25.02c.18.04.36.04.54.04.11.07.15,0,.18-.09.04-.12.08-.25.12-.38.1-.29.2-.58.29-.87.04-.15.12-.32.06-.46-.09-.2,0-.29.15-.38l.25-.1c.18-.02.36-.05.55-.03l.24.05c.2.08.39.17.55.32l.26.47c.04.27.07.54,0,.81-.06.23-.1.46-.16.68-.04.15-.01.2.14.2.21,0,.42,0,.62,0h.25c.18,0,.37.01.55-.03h.25c.19,0,.37-.03.55-.06l.25-.03c.19,0,.38-.03.56-.09l.24-.05c.2-.02.38-.07.55-.17.18-.08.34-.17.33-.41.07-.27.12-.29.48-.13l.19.23c.06.18.09.37-.02.55"/>
      <path class="cls-1" d="m20.59,35.6l-.25.11c-.17.06-.33.13-.5.19l-.24.07c-.19.04-.37.08-.56.13l-.25.03c-.2.02-.39.04-.59.05h-.26c-.18,0-.36-.01-.55-.02l-.25-.04-.54-.12-.24-.11c-.14-.17-.12-.35-.01-.53l.25-.11c.19.01.37-.02.56-.07l.24-.06c.22-.02.42-.08.61-.19l.19-.07c.22-.06.43-.15.61-.29.09-.03.18-.07.25-.13.2-.1.4-.2.56-.36.11-.05.21-.13.29-.21.18-.14.36-.27.5-.45.1-.07.2-.15.26-.27.22-.21.41-.44.55-.71.12-.14.23-.29.29-.46.23-.41.43-.84.54-1.3l.04-.06c.2-.77.31-1.56.21-2.35-.05-.35-.08-.71-.24-1.03-.1-.42-.29-.8-.54-1.16-.07-.16-.18-.29-.3-.41-.15-.22-.33-.41-.56-.56-.07-.08-.14-.15-.24-.19-.14-.15-.32-.25-.5-.34-.1-.07-.19-.14-.31-.14-.17-.11-.35-.19-.55-.22-.08-.05-.16-.07-.25-.07-.19-.06-.39-.11-.6-.11l-.2-.03c-.2-.03-.4-.04-.6,0l-.25.02c-.19.01-.38.03-.55.11l-.25.06c-.19.04-.38.1-.55.2-.1.01-.18.06-.25.12-.2.08-.39.18-.55.31-.11.05-.22.11-.31.2-.18.1-.33.23-.48.37-.12.08-.22.18-.31.29-.2.18-.41.36-.55.6-.11.08-.17.19-.24.29-.24.32-.47.63-.61,1-.08.09-.13.2-.15.31l-.07.1c-.48,1.07-.73,2.17-.55,3.35.08.53.25,1.03.64,1.43.02.12,0,.23-.06.34-.15.16-.35.27-.54.38-.09,0-.17.03-.25.08-.18,0-.36.02-.55.03l-.25-.06c-.18-.18-.36-.36-.53-.55l-.19-.26c-.75-1.33-.54-2.67-.06-4.02.13-.16.19-.35.28-.53.17-.29.34-.59.52-.88.12-.12.22-.26.3-.4.17-.2.33-.39.5-.59.1-.06.19-.14.24-.24.18-.16.36-.33.54-.49.1-.06.18-.14.25-.23.2-.11.37-.26.55-.41.12-.08.24-.16.36-.24l.49-.31c.11-.05.24-.07.31-.19.19-.02.34-.14.51-.23l.24-.11c.19-.05.37-.12.55-.21l.25-.09.55-.16.25-.07c.18-.03.37-.02.55-.1.1.01.21.02.3-.03l.49-.02h.26c.2,0,.4,0,.59.01l.24.02c.18.02.37.04.55.07l.24.04c.19.04.37.09.56.13l.25.09c.18.06.36.13.55.19l.23.1c.17.09.34.18.51.28.1.05.2.11.3.17.19.14.37.27.56.4.1.08.2.16.29.24.17.16.33.33.5.49l.19.2c.22.31.44.62.66.93.04.13.12.25.2.36.04.12.08.24.13.35.37.89.47,1.81.33,2.76-.08.55-.27,1.06-.45,1.58-.1.13-.14.28-.21.42-.2.32-.4.64-.6.96-.08.1-.16.21-.25.31-.18.21-.37.43-.55.64-.1.09-.22.15-.29.27-.17.15-.33.29-.5.44l-.25.19c-.18.12-.37.24-.55.36l-.25.15c-.2.1-.4.2-.61.3"/>
      <path class="cls-1" d="m40.59,50.06c.1,0,.17.05.24.1.13.21.13.41-.02.61l-.23.04c-.1-.05-.18-.12-.23-.22-.15-.27-.07-.45.23-.53"/>
      <path class="cls-1" d="m39.78,50.09l.18.17c.03.13.03.26,0,.39l-.18.16c-.13,0-.24-.03-.32-.15-.08-.14-.17-.28-.09-.43.08-.17.25-.17.41-.15"/>
      <path class="cls-1" d="m23.84,50.94l-.2-.04c-.13-.12-.11-.27-.09-.42.05-.34.1-.69.15-1.03.09-.38.18-.76.19-1.15.09-.16.1-.34.11-.52.03-.31.06-.35.38-.33.1.08.14.19.15.32.01.16.06.32.09.48-.02.35.1.67.18,1,.04.15.05.39.23.4.16.01.2-.21.28-.35.09-.12.18-.26.23-.4.21-.41.43-.81.57-1.24l.18-.19c.34.04.38.09.35.41-.07.87-.14,1.74-.21,2.61-.02.19,0,.39-.16.53h-.22c-.14-.09-.17-.22-.15-.38.05-.5.09-1,.11-1.52-.2.29-.38.6-.6.87l-.24.19c-.15.04-.29,0-.41-.1-.08-.11-.16-.23-.24-.34-.06-.16-.12-.32-.18-.48h-.05c-.05.28-.1.57-.15.85-.03.17-.07.34-.08.51-.02.15-.08.24-.21.31"/>
      <path class="cls-1" d="m12.55,51.01h-.25c-.19,0-.37-.06-.55-.12l-.23-.21c-.14-.38-.03-.75.01-1.12.01-.11.02-.2-.06-.29-.11-.12-.06-.24.03-.36.29-.05.21-.32.28-.49.06-.16.14-.35-.16-.38l-.11-.1v-.2c.07-.07.14-.13.23-.17.1.01.2.03.26-.09.06-.13.18-.13.29-.13.11.01.13.16.25.18.18,0,.37-.01.55-.02.1,0,.19-.01.29-.02l.56-.02.19.2v.15l-.2.18c-.45.02-.89.04-1.34.06-.15,0-.23.04-.27.21-.14.59-.15.58.45.54.13,0,.26-.03.4-.04.18-.02.33.04.34.24.01.19-.13.27-.31.29-.3.02-.6.05-.89.05-.19,0-.27.07-.28.25-.01.2-.05.4-.08.59-.04.22.07.31.27.32.32.01.63-.03.93-.13l.19-.06c.17-.06.36-.11.44.12.08.23-.1.3-.27.37l-.16.07c-.11.03-.21.05-.32.08-.16.02-.32.05-.48.07"/>
      <path class="cls-1" d="m17.39,50.99l-.25.03c-.16-.01-.33,0-.48-.07-.1-.09-.2-.17-.3-.26-.34-.57-.29-1.14,0-1.71.08-.1.16-.2.24-.29.17-.12.36-.21.56-.25l.24-.02c.18.05.37.1.55.16l.24.21c.15.32.25.65,0,.97l-.26.14c-.32.06-.63.13-.95.09-.1-.01-.27-.09-.31.04-.05.15.05.3.16.42l.23.08c.21,0,.41-.07.56-.22.09-.09.18-.15.31-.12.22.21.22.26.02.52-.17.14-.37.21-.56.3m-.16-1.49c.11,0,.27-.03.43-.04.16-.01.2-.09.16-.24-.08-.33-.6-.42-.89-.14-.1.09-.23.21-.18.33.04.12.22.07.34.08h.14Z"/>
      <path class="cls-1" d="m18.8,48.55l.24.02c.05.08.11.15.17.25.1-.15.25-.2.39-.27l.24.02c.16.06.36.05.48.21.14.24.17.48.01.72-.15.1-.29.1-.41-.06q-.06-.38-.33-.3c-.21.14-.28.36-.36.58-.14.38-.17.79-.27,1.18l-.17.07c-.23,0-.32-.12-.3-.35.05-.55.08-1.11.13-1.66.01-.15.02-.3.17-.39"/>
      <path class="cls-1" d="m11.82,40.3c-.23-.47-.16-.95-.06-1.44.02-.1.03-.2.05-.29.18-.68.37-1.37.55-2.05.11-.22.17-.47.23-.7.2-.54.4-1.09.56-1.65.14-.3.27-.61.31-.94l.11-.18c.14-.41.28-.82.42-1.23.1-.18.18-.38.21-.59.24-.52.42-1.06.59-1.61.11-.22.19-.46.25-.7.24-.63.43-1.28.55-1.95.06-.17.1-.33,0-.5l-.02-.16.22-.15.56-.14.25-.02c.18.01.37.03.55.04l.25.07c.23.14.44.29.54.56.1.38.03.76.01,1.14-.15.78-.4,1.53-.6,2.3-.11.22-.19.46-.25.7-.17.49-.39.96-.52,1.47-.15.22-.2.47-.3.71-.19.45-.38.9-.53,1.36-.11.19-.18.39-.25.6-.2.48-.41.95-.55,1.45-.12.2-.19.42-.26.64-.2.51-.4,1.03-.54,1.56-.12.26-.19.53-.24.8-.08.24-.15.5-.14.75.02.32-.1.53-.37.69-.1.02-.2.04-.29.07-.18-.01-.37-.02-.55-.03l-.24-.1c-.21-.12-.37-.29-.5-.49"/>
      <path class="cls-1" d="m15.62,48.61l.18-.16c.3.04.38.15.28.43-.11.29-.23.58-.35.87-.07.14-.13.28-.2.41-.18.26-.32.54-.55.76l-.23.08c-.18-.07-.27-.22-.32-.39-.16-.57-.15-1.16-.11-1.75.01-.21.16-.27.36-.24.15.1.18.25.15.42-.05.3-.03.61-.03.91,0,.11-.06.3.07.32.1.01.17-.17.19-.31.25-.42.4-.89.55-1.35"/>
      <path class="cls-1" d="m37.59,52.06l-.25-.02c-.44-.18-.55-.42-.36-.78.07-.12.17-.18.31-.16.13.03.2.12.19.25-.02.16.08.18.2.19.34.02.58-.2.68-.63l.02-.05-.05.02c-.91.46-1.39-.36-1.35-1.04.02-.39.16-.74.38-1.07l.24-.22c.17-.08.36-.11.55-.11l.24.03c.19.06.33.24.56.19.14.08.18.18.16.35-.07.71-.07,1.43-.23,2.14-.08.3-.22.57-.49.75l-.25.11c-.18.06-.37.03-.55.06m.61-3.07c-.13-.07-.26-.05-.37.04-.3.24-.44.96-.26,1.29.11.21.35.25.52.08.07-.07.13-.15.15-.25.16-.2.21-.44.25-.68.04-.18-.14-.43-.3-.48"/>
      <path class="cls-1" d="m36.53,48.68c.06.14.12.28.18.42.05.4.03.8,0,1.2-.09.23-.02.51-.24.69-.32.01-.4-.08-.34-.39.08-.42.16-.85.12-1.28-.01-.16-.03-.33-.27-.27-.11.05-.19.13-.25.23-.33.4-.47.89-.61,1.37-.06.1-.06.24-.18.3-.36,0-.4-.06-.36-.41.07-.55.12-1.1.18-1.66.02-.16.05-.29.19-.39l.24.02c.15.12.08.3.12.49.16-.17.3-.32.46-.44l.24-.08c.21-.02.39.06.55.18"/>
      <path class="cls-1" d="m31.69,48.49c.1,0,.18.06.25.12,0,.13.01.25.02.42.19-.2.34-.38.55-.5l.23-.04c.24,0,.39.15.54.29.22.7.13,1.39,0,2.09-.15.17-.3.19-.46.02-.05-.31.08-.6.11-.9.02-.21.04-.43.03-.64,0-.13-.02-.26-.15-.32-.14-.05-.23.05-.31.15-.3.34-.48.74-.58,1.18-.13.17-.1.43-.27.58-.35.02-.42-.05-.38-.39.06-.58.13-1.16.19-1.73.02-.17.07-.29.25-.33"/>
      <path class="cls-1" d="m30.83,48.66c.12.08.19.21.24.34,0,.1,0,.2,0,.3-.05.09-.08.2-.18.26-.21.01-.35-.05-.35-.3,0-.14-.08-.18-.21-.16-.16.02-.23.14-.3.26-.23.39-.29.82-.37,1.25-.02.12-.02.25-.14.33l-.24.02c-.11-.07-.16-.16-.15-.29.06-.67.11-1.34.16-2,.07-.06.14-.12.24-.12l.2.11c.06.19.14.11.24.03l.13-.11.23-.03c.16.05.33.04.49.11"/>
      <path class="cls-1" d="m22.07,48.86c.07-.12.13-.25.25-.34.38.05.43.13.29.48-.13.32-.33.62-.4.96-.1.19-.19.38-.29.57-.18.37-.37.74-.55,1.11-.08.13-.16.26-.24.4-.1.16-.2.31-.43.21-.18-.16-.09-.33,0-.49.13-.23.25-.47.38-.7.12-.2.2-.37-.01-.58-.09-.09-.12-.25-.16-.39-.1-.39-.18-.79-.21-1.2,0-.09,0-.18.01-.28.11-.15.24-.21.42-.1.1.15.09.33.1.5.01.27.02.54.14.79l.1.23c.25-.37.46-.75.6-1.18"/>
      <path class="cls-1" d="m28.68,50.64l-.19.19c-.18.11-.38.18-.6.22h-.25c-.18-.03-.34-.11-.48-.21-.08-.1-.16-.2-.24-.29-.15-.38-.11-.76,0-1.14.06-.11.12-.22.18-.33l.15-.11c.08-.2.24-.32.42-.43l.23-.05c.2-.01.4.04.59.09l.19.15c.44.64.35,1.28,0,1.91m-.22-1.01c-.01-.11-.02-.22-.04-.32-.05-.18-.15-.32-.36-.31-.2,0-.35.09-.37.32l-.1.16c-.26.08-.25.29-.26.5,0,.32.09.49.32.55.28.07.56-.06.69-.32.09-.18.12-.38.12-.58"/>
      <path class="cls-1" d="m34.32,48.85c-.06.48-.12.96-.18,1.45-.02.18-.05.36-.07.54-.15.19-.3.17-.46,0,0-.15,0-.29,0-.43.06-.52.13-1.03.18-1.55.02-.23.13-.32.35-.31l.18.21v.09Z"/>
      <path class="cls-1" d="m34.13,47.6l.18.06c.12.16.04.33.02.49l-.19.1c-.16-.04-.28-.11-.27-.3,0-.18.07-.32.27-.36"/>
      <path class="cls-1" d="m54.52,4.49c-.1-.18-.03-.39-.08-.58-.02-.09-.02-.18-.11-.23-.19-.1-.4-.08-.61-.06-.18-.05-.26,0-.25.2,0,.22,0,.44,0,.66q-.33.01-.33-.31c0-.52,0-1.05,0-1.57,0-.16.04-.22.21-.21.3.01.6,0,.9,0,.23,0,.41.09.51.29.11.21.1.43-.04.61-.09.11-.1.18,0,.29.06.07.07.17.07.26,0,.11,0,.22.02.32.05.31.05.31-.27.32m-.61-1.18h0s.25,0,.25,0c.2,0,.31-.11.31-.31,0-.2-.1-.31-.3-.31-.18,0-.36,0-.55,0l-.15.09c-.11.36.01.53.39.53h.05Z"/>
    </g>
  </g>
</svg>