<?xml version="1.0" encoding="UTF-8"?>
<svg id="Layer_2" data-name="Layer 2" xmlns="http://www.w3.org/2000/svg" viewBox="0 0 39.1 47.18">
  <defs>
    <style>
      .cls-1 {
        fill: #000;
      }
       .cls-1:hover {
    fill: #000; /* Change the fill color to black on hover */
  }
    </style>
  </defs>
  <g id="Layer_1-2" data-name="Layer 1">
    <g>
      <path class="cls-1" d="m0,35.38V6.37c.16,0,.3-.02.45-.02,2.15,0,4.31,0,6.47-.01,2.91,0,5.82-.02,8.74-.02.78,0,.94-.17.93-.94-.02-1.35-.03-2.7-.05-4.05,0-.52-.27-.76-.88-.75-1.5.02-3,.04-4.5.06-.17,0-.35-.03-.51-.1l-.18-.26c.01-.09.14-.2.24-.23.15-.05.32-.04.49-.04C16.35,0,21.53,0,26.7,0c.12,0,.25-.02.35.04.1.05.17.17.25.27-.09.08-.18.22-.27.23-.59.05-1.18.09-1.78.09-1.06,0-2.11-.03-3.16-.04-.65,0-.89.23-.89.87,0,1.31-.01,2.61-.01,3.92,0,.8.13.9.91,1,1.87.22,3.78.29,5.6.73,4.39,1.05,7.81,3.53,9.99,7.55,1.29,2.38,1.61,4.96,1.32,7.61-.23,2.14-.78,4.2-2.01,6.02-1.3,1.94-3.04,3.38-5.03,4.58-2.28,1.38-4.81,1.91-7.38,2.29-.88.13-1.77.17-2.66.26-.61.07-.75.22-.76.82-.01,1.38-.01,2.76,0,4.14,0,.56.2.73.76.73,1.53,0,3.06.02,4.59.03.12,0,.25-.02.35.03.09.04.21.16.21.24,0,.09-.11.21-.21.24-.12.04-.26.02-.4.02-5.07,0-10.14,0-15.21,0-.24,0-.6.07-.62-.25-.02-.35.35-.28.59-.28,1.51-.01,3.03-.02,4.55-.03.64,0,.8-.16.8-.79,0-8.09,0-16.17-.01-24.26,0-2.29-.03-4.58-.06-6.86,0-.37.1-.54.5-.54,1.22.02,2.44.02,3.66,0,.43,0,.57.16.57.58-.02,6.41-.02,12.81-.04,19.22,0,1.87-.02,3.74-.03,5.61,0,.53.17.71.65.65,4.4-.58,7.99-2.55,10.51-6.27,1.27-1.89,1.89-4.04,2.28-6.27.42-2.44-.28-4.64-1.27-6.8-2.26-4.91-6.26-7.45-11.45-8.31-.89-.15-1.8-.17-2.71-.17-3.64,0-7.28.02-10.92.03-.8,0-1.6.03-2.4.03-.38,0-.54.22-.59.54-.04.28-.02.56-.02.85,0,4.8,0,9.6-.02,14.4,0,3.68-.03,7.37-.04,11.06,0,.95.02.97.96.98,2.58.02,5.17.04,7.76.06.22,0,.45,0,.66.05.12.03.21.18.31.27-.1.09-.19.2-.3.26-.1.05-.23.02-.35.02-4.61,0-9.21-.02-13.82-.03-.12,0-.23,0-.4-.02"/>
      <path class="cls-1" d="m12.64,43.56h1.52c-.67.39-.3,1-.41,1.55h1.75c-.1-.52.25-1.11-.39-1.54h1.4c-.08.23-.24.49-.26.76-.04.65-.04,1.31,0,1.96.02.27.17.53.25.79h-1.38c.61-.46.28-1.07.37-1.65h-1.73c.11.56-.29,1.19.39,1.64h-1.46c.47-.63.45-3.08-.06-3.51"/>
      <path class="cls-1" d="m20.73,47.08h-1.45c.34-.14.32-.37.22-.66-.11-.29-.18-.57-.59-.49-.11.02-.24,0-.35,0-.23.03-.52-.13-.63.24-.09.32-.31.66.28.91h-1.14c.66-.53.72-1.32,1.01-2,.19-.45.33-.92.52-1.37.05-.11.22-.25.33-.25.11,0,.28.14.33.25.34.85.64,1.72.99,2.57.12.28.33.53.49.78m-1.52-1.41c-.18-.5-.35-.94-.55-1.49-.19.55-.35,1-.52,1.49h1.07Z"/>
      <path class="cls-1" d="m21.36,43.55h1.25c-.08.26-.21.52-.23.79-.04.62-.03,1.25,0,1.87.01.23.1.61.21.64.29.06.63,0,.93-.09.13-.03.21-.23.41-.31-.02.19-.05.38-.07.61h-2.5c.07-.23.22-.5.23-.76.04-.68.03-1.37,0-2.05,0-.23-.15-.45-.24-.69"/>
      <path class="cls-1" d="m24.3,43.56c.48,0,.97,0,1.35,0-.08.26-.21.53-.23.79-.03.62-.03,1.25,0,1.87.01.22.1.61.22.63.29.06.63-.01.93-.09.13-.03.23-.21.42-.39-.03.28-.06.47-.08.69h-2.49c.07-.25.21-.53.22-.82.04-.59.01-1.19.01-1.78q0-.58-.35-.91"/>
      <polygon class="cls-1" points="7.82 47.06 11.97 47.06 11.97 47.16 7.81 47.16 7.82 47.06"/>
      <rect class="cls-1" x="27.42" y="47.08" width="4.18" height=".1"/>
    </g>
  </g>
</svg>