<?xml version="1.0" encoding="UTF-8"?>
<svg id="Layer_2" data-name="Layer 2" xmlns="http://www.w3.org/2000/svg" viewBox="0 0 65.67 36.52">
  <defs>
    <style>
      .cls-1 {
        fill: #000;
      }
       .cls-1:hover {
    fill: #000; /* Change the fill color to black on hover */
  }
    </style>
  </defs>
  <g id="Layer_1-2" data-name="Layer 1">
    <g>
      <path class="cls-1" d="m32.83,17.37c-1.25,0-2.38.01-3.5,0-3.31-.04-5.54-2.34-5.64-5.65-.1-3.63,3.01-6.03,5.56-6.11,3.68-.11,6.33,2.4,6.38,6.1q.04,3.26,3.64,2.79c0-.98.04-1.99,0-3.01-.14-3.11,1.74-4.98,3.47-5.63,2.32-.87,4.99-.3,6.63,1.45,1.79,1.92,2.17,4.41,1.03,6.84-.04.09-.05.19-.11.42.31.04.59.1.87.1,3.29,0,6.58.01,9.87,0,1.14,0,1.86-.45,1.71-1.44-.38-2.43,1.44-3.38,2.88-4.87,0,1.96.14,3.73-.04,5.48-.22,2.2-2.22,3.63-4.76,3.64-7.68.01-15.36,0-23.04.01-.27,0-.55.03-.82,0-.99-.14-1.49.17-1.35,1.27.04.29-.11.69-.31.92-.72.81-1.51,1.56-2.47,2.54v-4.85Zm9.24-2.83c.45.03.75.07,1.05.07.86,0,1.72.04,2.57-.05,1.64-.18,2.76-1.54,2.71-3.2-.05-1.59-1.29-2.96-2.77-3.07-2.03-.14-3.34.74-3.54,2.56-.13,1.18-.02,2.38-.02,3.68m-9.3-.01c0-1.3.1-2.51-.02-3.68-.17-1.62-1.54-2.61-3.28-2.55-1.6.06-2.83,1.24-2.96,2.84-.14,1.74.75,3.18,2.29,3.36,1.27.15,2.58.03,3.98.03"/>
      <path class="cls-1" d="m13.28,17.13v4.69h-2.72v-1.18c0-5.49.03-10.98-.02-16.46-.01-1.12.25-1.96,1.11-2.68.48-.4.81-.99,1.2-1.49.13.09.27.17.4.25v1.08c0,3.7,0,7.41,0,11.11,0,1.45.6,2.07,2.03,2.08.93,0,1.85-.02,2.78,0,.94.01,1.38-.52,1.47-1.38.06-.64.03-1.3.06-1.95l.15-.26c.77-.82,1.55-1.63,2.48-2.38-.02,2.15.63,4.3-.35,6.33-.69,1.43-1.91,2.22-3.53,2.24-1.64.03-3.28,0-5.05,0"/>
      <path class="cls-1" d="m43.41,22.82h2.64v7.45c-1.11.17-2.14.22-2.9-.88-.48-.7-1.08-1.32-1.56-1.9-1.85,1.08-2.51,3.57-5.06,2.73v-10.33c.96,1.01,2.04,1.72,2.43,2.71.39,1,.09,2.27.09,3.42.1.04.2.08.3.12.63-.58,1.26-1.17,1.97-1.84.63.6,1.26,1.2,2.09,2v-3.48Z"/>
      <path class="cls-1" d="m25.86,22.86c1.1-.23,2.03-.2,2.79.76.56.72,1.24,1.35,1.99,2.15,1.66-1.75,3.21-3.37,4.75-4.99l.22.11c0,1.56.02,3.11-.02,4.67,0,.26-.26.54-.46.75-.68.72-1.38,1.41-2.2,2.24-.06-.59-.11-1.02-.18-1.67-.77.72-1.42,1.34-2.12,2-.67-.64-1.32-1.26-2.18-2.08v3.45h-2.59v-7.39Z"/>
      <path class="cls-1" d="m47.06,30.27v-7.41h6.79v1.88c-1.14,0-2.26-.03-3.38.02-.25.01-.48.29-.72.44.25.15.5.41.75.42,1.09.05,2.18.02,3.33.02v1.93c-1.08,0-2.17-.03-3.25.02-.28.01-.56.28-.84.43.27.13.53.37.8.38,1.06.04,2.12.02,3.26.02v1.83h-6.75Z"/>
      <path class="cls-1" d="m61.65,25.65v1.94c-1.19,0-2.35-.02-3.5.02-.24,0-.48.22-.72.34.24.17.48.46.73.47,1.12.05,2.25.02,3.46.02v1.84h-6.75v-7.43h6.73v1.89c-1.1,0-2.22-.03-3.33.02-.28.01-.55.3-.83.45.29.14.57.4.86.41,1.08.05,2.17.02,3.36.02"/>
      <path class="cls-1" d="m24.84,22.93v7.34h-2.51v-2.59h-1.57v2.6h-2.75c0-1.38-.02-2.73.02-4.09,0-.23.22-.49.39-.69.31-.36.67-.68,1-1.02,1.79-1.81,2.73-2.08,5.42-1.56m-3.33,2.95c.32-.28.53-.47.75-.65-.26-.16-.53-.43-.8-.44-.22,0-.46.29-.69.45.21.18.42.37.75.64"/>
      <path class="cls-1" d="m1.96,29.16c.31,1.83.97,3.17,2.33,4.1,1.59,1.09,3.97.73,5.35-.74q1.31-1.4,3.69-1.13c-.42.8-.71,1.59-1.18,2.24-3.24,4.39-9.91,3.64-12.09-1.36-.14-.32,0-.9.23-1.21.49-.68,1.11-1.27,1.68-1.89"/>
      <path class="cls-1" d="m6.41,25.22c.11-.22.12-.25.14-.28,1.19-1.72,2.75-2.38,4.89-2.2,2.28.2,4.59.05,6.89.05h1.29c.05.1.1.2.15.3-.65.59-1.29,1.21-1.98,1.76-.27.21-.67.34-1.02.36-.78.05-1.58.08-2.36,0-1-.1-1.23.32-1.18,1.23.06,1.26.02,2.52.02,3.86h-2.63c0-1.26,0-2.48,0-3.71q0-1.36-1.32-1.37c-.92,0-1.83,0-2.89,0"/>
      <path class="cls-1" d="m65.25,20.3v9.97h-2.71c0-1.18,0-2.36,0-3.54,0-.51.09-1.04-.02-1.54-.5-2.37,1.03-3.59,2.73-4.89"/>
      <path class="cls-1" d="m18.02,19.36c.49-.92,1.16-1.55,2.28-1.19.78.26,1.12.89,1.12,1.66,0,.76-.28,1.43-1.11,1.64-1.06.26-1.86-.1-2.28-1.17-1.06,1.35-2.25,1.65-3.14.84-.69-.63-.68-1.87.03-2.58.85-.86,1.85-.61,3.11.81"/>
      <path class="cls-1" d="m57.51,6.16c.88-1.12,1.63-1.48,2.45-1.1.73.34,1,.98.96,1.77-.04.76-.37,1.32-1.14,1.51-1.07.26-1.78-.23-2.22-1.19-1.1,1.35-2.2,1.65-3.1.85-.74-.66-.71-1.97.05-2.66.83-.76,1.9-.47,3.01.83"/>
      <path class="cls-1" d="m35.55,27.28c.3,3.02-.19,4.01-2.58,5.45-.86-2.57.71-4.01,2.58-5.45"/>
    </g>
  </g>
</svg>