<?xml version="1.0" encoding="UTF-8"?>
<svg id="Layer_2" data-name="Layer 2" xmlns="http://www.w3.org/2000/svg" viewBox="0 0 71.39 15.39">
  <defs>
    <style>
      .cls-1 {
        fill: #000;
      }
       .cls-1:hover {
    fill: #000; /* Change the fill color to black on hover */
  }
    </style>
  </defs>
  <g id="Layer_1-2" data-name="Layer 1">
    <g>
      <path class="cls-1" d="m32.9,11.75c-.09.74.04,1.2.52,1.59.55.44.38.88-.2,1.14-1.46.66-2.95.68-4.45.16-.57-.2-.9-.63-.4-1.12,1.2-1.17.92-2.76,1.3-4.16.16-.58.2-1.2.3-1.8.1-.55.06-1.03-.39-1.46-.64-.6-.44-1.16.23-1.59.62-.4,1.25-.62,2.05-.51,1.05.16,2.13.2,3.2.17,1.38-.04,2.32.66,3.06,1.68.62.86.23,1.71-.3,2.44-.44.6-.52,1.15-.15,1.79.26.44.29.94.26,1.45-.03.62.02,1.18.5,1.69.56.6.32,1.09-.4,1.42-1.77.81-3.24-.08-3.33-2.04-.01-.27.04-.55-.04-.8-.18-.61-.48-1.17-1.26-1.07-.78.1-.41.76-.48,1.02m.86-5.25c-.25-.02-.35.13-.35.26.03.72-.55,1.52.05,2.12.27.27.71-.27,1.03-.51.34-.26.44-.62.21-1-.23-.39-.51-.75-.93-.87"/>
      <path class="cls-1" d="m52.76,4.18c.86-.1,1.6.41,2.13,1.4.45.84,1.03,1.61,1.56,2.4.15.23.35.44.66.35.28-.08.27-.34.28-.57.02-.76.36-1.6-.73-2.03-.44-.17-.33-.62-.01-.95.93-.97,2.88-1.11,3.91-.27.39.32.55.69.09,1.04-1.65,1.26-1.49,3.15-1.72,4.9-.16,1.25.16,2.52-.16,3.77-.13.5-.26,1.07-.79,1.16-.49.09-.79-.43-1.03-.8-.95-1.43-1.87-2.88-2.8-4.33-.19-.29-.34-.64-.77-.57-.48.08-.34.52-.4.83-.22,1.05-.17,1.98.76,2.78.72.62.52,1.13-.42,1.3-.82.15-1.63.43-2.49.37-.6-.04-1.02-.31-1.29-.81-.27-.51-.13-1.05.26-1.37.93-.75.94-1.74.95-2.79,0-.99.14-1.98.21-2.96.02-.3.04-.59-.16-.88-.7-1.04-.27-1.85,1.01-1.97.23-.02.46,0,.96,0"/>
      <path class="cls-1" d="m39.66,10.12c.06-2.77,1.32-4.64,3.55-5.85,1.38-.75,2.77-.68,4.06.32,1.49,1.14,2.36,2.61,2.11,4.52-.3,2.32-1.45,4.16-3.51,5.36-1.31.76-2.66.73-3.87-.19-1.42-1.07-2.5-2.37-2.34-4.15m6.42-1.13c-.02-.26.02-.55-.06-.79-.21-.66-.11-1.73-.87-1.82-.88-.1-1.01.99-1.26,1.66-.39,1.04-.5,2.15-.41,3.25.04.5.24,1.04.76,1.17.54.13.75-.42.97-.8.5-.82.91-1.67.86-2.67"/>
      <path class="cls-1" d="m22.09,4.38c1.11.05,2.22.05,3.3-.21.98-.23,1.27.46,1.59,1.12.37.76.1,1.47-.42,2-.45.46-.9-.08-1.12-.39-.57-.79-1.41-.7-2.07-.52-.86.24-.67,1.21-.6,1.84.07.7.68.4,1.07.18.6-.34,1.13-.45,1.62.17.45.57.56,1.16.11,1.78-.2.28-.4.56-.61.83-.48.61-.93.61-1.29-.12-.16-.31-.29-.69-.73-.56-.37.11-.25.5-.29.79-.09.65-.47,1.57.36,1.79.78.2,1.78.45,2.48-.54.33-.47.73-1.28,1.47-.98.83.34.2,1.03.13,1.58-.21,1.66-.39,1.72-1.98,1.59-2.08-.17-4.18-.32-6.27.1-.36.07-.85.22-1.05-.17-.2-.38.05-.8.37-1.04.82-.59.54-1.53.73-2.3.3-1.25.38-2.55.57-3.84.11-.78.12-1.51-.57-2.07-.55-.44-.25-.68.24-.84.97-.31,1.97-.18,2.96-.2"/>
      <path class="cls-1" d="m65.13,12.02c-.66-.03-1.26-.1-1.6.53-.29.53-.06.95.29,1.34.41.46.08.65-.29.85-.75.4-2.31.21-2.92-.4-.25-.25-.5-.6-.07-.85.97-.54,1.16-1.57,1.6-2.43.63-1.26,1.2-2.55,1.82-3.81.25-.51.36-.95.02-1.49-.43-.68-.18-1.17.62-1.32.87-.17,1.75-.18,2.6.08.85.26,1.36.64,1.35,1.77-.01,1.05.5,2.13.89,3.16.57,1.51.63,3.22,1.81,4.49.34.37-.02.53-.3.65-.86.37-1.77.52-2.68.45-.6-.04-1.24-.23-1.18-1.09.11-1.77.07-1.81-1.7-1.92-.11,0-.23,0-.26,0m.27-1.81c.29-.09.81.18.74-.39-.04-.32-.15-.88-.63-.79-.39.07-.76.49-.8.88-.05.49.45.2.69.3"/>
      <path class="cls-1" d="m4.99,1.16c-.44,4.45-.87,8.78-1.3,13.11v.11c-.06.44-.35.57-.74.54-1.03-.07-2.12,0-2.83-.94-.35-.47.14-.82.44-1.03,1-.7,1.13-1.7,1.21-2.81.15-2.01.44-4.01.65-6.02.08-.75.24-1.49-.59-2.04-.61-.41-.4-.92.2-1.25.58-.31,1.2-.49,1.85-.61.87-.16,1.38.01,1.12.93"/>
      <path class="cls-1" d="m13.12,14.75c-2.03.45-2.66.04-3.51-1.68-.59-1.21-1.42-2.32-2.2-3.43-.26-.37-.7-.27-.69.22,0,.92-.38,1.88.41,2.73.38.41.87.94.33,1.61-.39.49-2.08.96-2.56.72-.33-.16-.23-.44-.21-.69.1-1.21.21-2.43.3-3.64.03-.34.21-.56.43-.78.81-.76,1.62-1.51,2.42-2.28.3-.29.53-.41.8.03,1.48,2.39,2.97,4.77,4.47,7.19"/>
      <path class="cls-1" d="m14.8,14.79c-.46.09-.7-.21-.91-.54-1.5-2.39-2.99-4.79-4.5-7.17-.27-.43-.22-.74.15-1.09,1.75-1.7,3.48-3.43,5.23-5.12.24-.23.57-.46.88-.49.61-.05,1.19.26,1.35.84.18.63-.43.94-.89.95-2.45.01-3.39,2.05-4.81,3.45-.39.38-.43.76-.14,1.23,1.2,1.95,2.38,3.9,3.59,5.85.27.44.77.6,1.21.83.29.15.72.24.61.7-.08.33-.44.38-.74.43-.34.05-.68.1-1.02.15"/>
      <path class="cls-1" d="m5.23,8.33c.26-2.57.51-5.13.77-7.7.04-.38.28-.49.64-.49.47,0,.91.13,1.32.33.91.44,1.05.98.23,1.5-1.15.73-.96,1.8-1.02,2.84-.04.67.32.71.77.34.56-.46,1.12-.93,1.63-1.43.32-.32.62-.55,1.28-.31-1.83,1.73-3.59,3.39-5.35,5.05l-.27-.12Z"/>
      <path class="cls-1" d="m10.71,2.99c.48-.52.49-1.03,0-1.59-.3-.34,0-.62.33-.8C11.94.1,12.93.04,13.92,0c.29-.01.68.21.32.43-1.24.74-2.03,2.03-3.35,2.66-.02,0-.06-.03-.18-.1"/>
    </g>
  </g>
</svg>