<?xml version="1.0" encoding="UTF-8"?>
<svg id="Layer_2" data-name="Layer 2" xmlns="http://www.w3.org/2000/svg" viewBox="0 0 98.37 30.44">
  <defs>
    <style>
      .cls-1 {
        fill: #000;
      }
       .cls-1:hover {
    fill: #000; /* Change the fill color to black on hover */
  }
    </style>
  </defs>
  <g id="Layer_1-2" data-name="Layer 1">
    <g>
      <path class="cls-1" d="m12.86,0c0,.14,0,.27,0,.41.02,1.26.02,1.25-1.27,1.38-.35.04-.7.14-1.04.23-.31.09-.62.21-.99.34.73.76,1.57,1.47,1.71,2.54.18,1.33.53,2.58,1.06,3.82.31.72.12,1.63-.44,2.33-.22.27-.18.46.04.71.34.39.65.8.96,1.21.24.31.5.52.87.17l.07-.05c1.35-.85,1.35-.84.66-2.29-.34-.71-.68-1.44-.76-2.22-.11-1,.61-2.04,1.63-2.52.92-.43,1.81-.25,2.62.53.81.78,1.05,1.85.65,2.85-.4,1-1.18,1.7-1.94,2.41-.41.38-.49.67-.18,1.19.63,1.05,1.13,2.17,1.74,3.24.85,1.49.63,3.11.71,4.72.07,1.38-.35,2.59-1.05,3.71-1.82,2.92-4.55,4.45-7.88,5.05-1.54.28-3.09.37-4.65.29-.27-.01-.27.06-.45.18-.06.04-.03.13-.16.2-.1.05-.3.03-.42.02-.57-.02-1.12-.26-1.67-.42-.82-.22-1.68-.26-2.51-.4l-.13-.06-.02-.11c0-.23-.11-.73.12-.87.12-.08.26-.08.4-.08,1.23,0,2.47-.02,3.7-.02.14,0,.29,0,.42.05.28.1.27.43.54.55.26.12.6.02.88.03,1.26.07,2.51-.04,3.76-.27,2.54-.47,4.82-1.4,6.51-3.46,1.8-2.19,2.2-4.67,1.53-7.37-.45-1.8-1.58-3.27-2.32-4.97-.46.31-.86.64-1.31.88-.41.22-.37.4-.16.76.64,1.11,1.14,2.27,1.25,3.59.22,2.59-.73,4.74-2.33,6.7-.8.98-.8,1.03-1.86.34-.66-.43-1.19-.56-1.75.12-.45.55-.96.46-1.41,0-.63-.65-1.24-.64-1.9-.06-.14.12-.33.19-.49.3-.3.22-.54.16-.79-.09-1.75-1.78-2.76-3.93-2.94-6.41-.12-1.68.53-3.21,1.34-4.65.29-.52.3-.81-.16-1.24-.56-.51-1.09-1.04-1.58-1.61-.25-.3-.49-.6-.71-.92-.35-.5-.85-1.03-.73-1.68l.07-.16.12-.06c.33-.09.61-.03.75.3.43,1.02,1.16,1.85,1.9,2.66,1.2,1.31,1.18,1.3,2.38.08.31-.32.42-.54.12-.96-.57-.78-.73-1.72-.28-2.55.51-.94.9-1.81.86-2.94-.05-1.29.75-2.26,1.8-3.04-.65-.34-1.26-.51-1.89-.57-1.58-.15-1.58-.14-1.55-1.72v-.08h8.55Zm-2.44,20.35c-.02-1.52-.78-2.18-1.48-2.86-.28-.27-.51-.01-.72.13-1.89,1.33-1.8,3.49.17,4.75.17.11.35.23.51.07.72-.7,1.57-1.33,1.52-2.09m4.07-1.48c-.13-1.19-.47-2.46-1.12-3.66-.35-.65-.6-.39-1.04-.16-.6.32-.26.59-.05.9.58.84,1.02,1.73,1.09,2.77.11,1.92-.71,3.47-1.94,4.86-.17.19-.71.39-.17.73.33.2.69.67,1.11.1,1.19-1.61,2.04-3.35,2.13-5.54m-11.55-.17c-.02,2.55.66,3.93,2.05,5.65.41.51.69.18,1.03-.02.49-.3.13-.53-.07-.77-.21-.26-.42-.51-.62-.76-1.82-2.29-2.19-4.77-.05-7.17.47-.53-.02-.63-.28-.84-.29-.23-.57-.54-.91.01-.79,1.29-1.22,2.67-1.14,3.9m9.63.18c.13-.88-.4-1.82-1.14-2.65-.71-.79-1.2.1-1.65.38-.54.33.15.55.32.72,1,1.05,1.64,2.18,1.1,3.67-.26.71-.74,1.26-1.3,1.75-.16.14-.49.28-.21.58.23.25.51.31.78.03,1.15-1.16,2.1-2.43,2.11-4.48m3.79-12.03c-.88-.02-1.35.37-1.57,1.21-.14.51-.01.97.18,1.42.27.63.37,1.36.9,1.87.72-.58,1.45-1.18,1.81-2.06.53-1.3-.1-2.41-1.32-2.44m-8.49,9.85c-.29-.2-.56-.37-.81-.57-.52-.42-.88-.29-1.27.22-.86,1.13-1.23,2.35-.89,3.75.28,1.18,1.06,2.06,1.76,2.99.23.31.53.67.93.25.44-.46-.18-.57-.36-.75-1.29-1.26-1.6-2.52-.94-4.12.31-.75.97-1.22,1.58-1.78m-1.05-10.5c1.27-1.52,2.48-1.51,3.77.02-.12-1.47-.77-2.32-1.56-3.09-.22-.21-.42-.21-.66-.03-.93.73-1.69,1.55-1.55,3.1m1.9,2.51c.22.01,1.41-1.29,1.45-1.59.03-.25-1.08-1.19-1.42-1.21-.29-.01-1.6.9-1.63,1.13-.03.25,1.31,1.65,1.6,1.66m1.67,2.81c-.08-.11-.11-.18-.17-.23-.47-.41-.88-1-1.43-1.17-.4-.13-.82.51-1.23.82-.13.1-.26.2-.38.31-.1.09-.24.21-.14.34.43.5.98.87,1.55,1.18.39.22.59-.27.86-.46.33-.23.62-.52.93-.79m2.11,2.25c-.32-.39-.68-.79-1-1.22-.3-.39-.54-.38-.93-.07-1.14.92-1.16.9.03,1.8.11.08.21.17.33.23.32.16,1.56-.4,1.57-.74m-4.57-.37c-.47-.36-.89-.67-1.3-.98-.15-.11-.29-.31-.49-.13-.4.37-.91.73-1.02,1.24-.09.42.55.49.83.77.26.25.52.2.79-.03.35-.29.74-.55,1.18-.87m2.3,1.75l-.11-.18c-.38-.3-.76-.62-1.17-.89-.24-.16-1.7.71-1.69.99l.07.14c.43.28.86.57,1.31.82.17.09,1.56-.69,1.59-.88m1.36-6.04c.02-.15-.08-.48-.25-.8-.21-.4-.39-.59-.8-.1-1.07,1.27-1.1,1.25-.11,2.07.64.53.9.45,1.1-.38.04-.18.03-.38.06-.78m-5.78.27c0,.47.08,1.01.45,1.24.26.16.58-.31.84-.52.82-.64.82-.66-.02-1.5-.23-.23-.37-.77-.74-.62-.36.15-.41.67-.51,1.07-.02.1-.02.22-.03.33M7.16,1c1.08.74,2.09.82,3.1,0h-3.1Zm2.23,23.29c-.2-.24-.42-.46-.72-.44-.26.02-.59.19-.58.46.02.31.37.47.67.45.26-.02.48-.2.63-.46"/>
      <path class="cls-1" d="m98.37,8.22v16.93l-.23.04-.23.1c-.46.08-1.96.53-2.36.13-.18-.14-.12-.35-.12-.53,0-6.38,0-12.75-.01-19.13,0-.49.19-.59.63-.61.78-.03,1.55-.02,2.32.12,0,1.02-.05,2.98,0,2.96"/>
      <path class="cls-1" d="m46.4,5.12c.54-.03,1.6-.23,1.94.32.14.23.09.84.13,1.12.06.46.12.92.18,1.38.24,1.77.48,3.54.73,5.31.5,3.53,1.02,7.07,1.56,10.59.02.14.04.28.07.42.05.29.09.6-.03.86-.25.59-1.93.47-2.43.13-.68-.47-.57-1.69-.58-2.4-.01-.94-.37-1.12-1.17-1.08-.57.03-1.14-.05-1.71-.06-.65-.02-1.02.26-1.04.96-.02.76-.15,1.52-.17,2.29-.01.42-.21.47-.56.5-.45.03-1.16.18-1.6-.01-.82-.37-.04-2.89.05-3.51.24-1.66.48-3.33.72-4.99,0-1,.3-2.09.44-3.08.16-1.1.32-2.2.47-3.29.16-1.1.33-2.19.47-3.29.06-.48-.09-1.75.42-2.02.13-.07.29-.08.44-.08.54-.02,1.08-.04,1.63-.07h.02Zm-.33,14.12c.11,0,.22,0,.33,0,1.22,0,1.21-.02,1.02-1.19-.14-.86-.18-1.72-.33-2.58-.34-1.92-.48-3.88-.71-5.82-.03-.23.01-.56-.34-.54-.29.02-.23.32-.25.53-.14,1.18-.29,2.36-.44,3.54-.19,1.59-.43,3.18-.56,4.77-.1,1.29-.04,1.29,1.29,1.3"/>
      <path class="cls-1" d="m72.37,5.16c.61.07,1.39-.24,1.88.14.49.38.15,1.17.25,1.78.33,2.06.78,4.11.98,6.18.21,2.17.61,4.32.86,6.49.19,1.72.62,3.42.69,5.17.02.45-.08.6-.51.56-.16-.02-.33,0-.49,0-1.46,0-1.44,0-1.65-1.4-.09-.61-.4-1.17-.35-1.83.03-.39-.37-.42-.67-.44-.71-.04-1.42-.03-2.13-.1-.73-.07-1.04.33-1.02.95.02.81-.24,1.57-.29,2.35-.02.36-.18.44-.51.47-1.97.17-1.96.18-1.72-1.75.23-1.81.32-3.65.67-5.44.38-1.95.64-3.91.88-5.88.26-2.19.8-4.34.88-6.55.02-.5.19-.7.66-.71.52,0,1.04,0,1.6,0m-.25,14.05c.36,0,.71.01,1.07,0,.3-.02.61-.17.49-.5-.3-.85-.18-1.74-.35-2.58-.44-2.11-.68-4.24-.86-6.38-.02-.22,0-.38-.27-.39-.26,0-.3.14-.3.37.01,1.12-.37,2.18-.47,3.29-.15,1.65-.41,3.29-.54,4.95-.1,1.23-.04,1.24,1.23,1.24"/>
      <path class="cls-1" d="m57.95,22.07c.21-2.21-.2-4.33-.83-6.44-.68-2.26-1.1-4.58-1.86-6.82-.21-.63-.3-1.29-.43-1.93-.06-.31-.55-1.42-.2-1.63.11-.06.24-.07.36-.07.31,0,.62-.01.93-.02.54,0,1.15-.13,1.33.5.34,1.2.7,2.39.89,3.63.22,1.45.81,2.82.93,4.29.01.17.09.33.29.34.22.01.23-.18.27-.34.31-1.15.65-2.29.91-3.44.32-1.37.57-2.76.84-4.14.07-.37.24-.7.63-.82.26-.08.55-.06.82-.03.83.07,1.39.28,1.14,1.21l-1.61,5.99c-.51,1.9-.83,3.98-1.62,5.77-.13.31-.08.7-.08,1.06,0,1.86,0,3.72.03,5.58,0,.52-.11.71-.67.72-2.09.03-2.09.05-2.09-2.02v-1.4"/>
      <path class="cls-1" d="m29.33,15.37c0-3.12.02-6.23-.02-9.35,0-.66.22-.85.85-.86,1.92-.03,1.93-.05,1.93,1.86,0,4.9,0,9.79-.03,14.69,0,.78.27,1.02.99,1,1.04-.02,2.08.03,3.12,0,.48-.02.6.17.64.6.19,2.16.2,2.16-1.91,2.16-1.59,0-3.18-.03-4.76.02-.68.02-.82-.22-.82-.84.03-3.09.01-6.18.01-9.27"/>
      <path class="cls-1" d="m82.78,15.32c0-3.12,0-6.24-.03-9.37,0-.62.17-.81.78-.81,2.33.03,1.94-.13,1.95,1.91.03,4.9.03,9.8,0,14.71,0,.68.25.94.91.97.96.04,1.93-.02,2.89-.02.19,0,.39,0,.56.07.67.27.39,1.81.38,2.37,0,.32-.27.29-.49.29-2.16,0-4.33,0-6.5.02-.42,0-.51-.26-.51-.65,0-3.17.02-6.34.03-9.51"/>
    </g>
  </g>
</svg>