<?xml version="1.0" encoding="UTF-8"?>
<svg id="Layer_2" data-name="Layer 2" xmlns="http://www.w3.org/2000/svg" viewBox="0 0 63.14 36.67">
  <defs>
    <style>
      .cls-1 {
        fill: #000;
      }
       .cls-1:hover {
    fill: #000; /* Change the fill color to black on hover */
  }
    </style>
  </defs>
  <g id="Layer_1-2" data-name="Layer 1">
    <g>
      <path class="cls-1" d="m15.79,23.71c1.26.24,2.54.02,3.81.08.63.03,1.28-.15,1.9.13-.36,1.15-1.17,2.11-1.45,3.29-1.63.1-3.25.18-4.86.46-.43-.07-.85-.05-1.22.2-3.21.19-6.38.78-9.55,1.27-.95.15-1.89.3-2.83.5-.62.14-.87-.09-.96-.68-.17-1.05-.38-2.09-.59-3.13-.13-.63.12-.81.74-.88,4.25-.49,8.52-.75,12.8-.97.34-.02.68-.05,1.03-.07.42.06.84.12,1.19-.2"/>
      <path class="cls-1" d="m22.8,23.72c1.13.01,2.26.04,3.39.04,9.04,0,18.05.58,27.04,1.53,3.32.35,6.64.72,9.91,1.54-2.25-.12-4.5-.23-6.75-.35-9.24-.52-18.47-.45-27.71.06-2.52.14-5.04.29-7.56.43.56-1.08,1.13-2.17,1.69-3.25"/>
      <path class="cls-1" d="m31.84,19.07c.39-.61.76-1.24,1.19-1.83.27-.38.59-.83,1.16-.66.59.18.74.69.72,1.23-.03,1.09-.11,2.19-.17,3.28-.01.3-.09.69.27.8.34.1.41-.29.53-.52.44-.83.92-1.64,1.16-2.58.35-1.35,1.27-2.01,2.62-2.07-1.42,1.38-1.57,3.07-1.28,4.87.06.4.21.82.7.91.41.08.64-.19.81-.5.22-.39.41-.72.05-1.2-.32-.43-1.03-1.21.38-1.19.3,0,.25-.27.26-.46.02-.82.02-1.64-.57-2.4.97-.03,1.28.63,1.56,1.27.34.78.39,1.61.07,2.4-.1.25-.2.47,0,.62.22.16.47,0,.63-.18.59-.63,1.18-1.25.94-2.24-.09-.36-.07-.75-.09-1.12-.02-.39.09-.69.56-.68.42.01.69.12.73.64.1,1.37.33,2.72.74,4.03.1.32.16.76.56.77.34.01.41-.42.52-.69.68-1.56.92-3.14.19-4.76,1.15-.04,1.77.48,1.74,1.55-.05,1.85-.92,3.35-2.2,4.61-.58.57-1.39.27-1.81-.6-.16-.34-.26-.71-.37-1.07-.11-.35-.2-.7-.35-1.19-.46.85-1,1.43-1.88,1.55-.25.03-.4.16-.56.37-1.29,1.62-3.11,1.35-3.94-.54-.09-.2-.05-.49-.42-.62-.32.49-.63,1-.97,1.49-.27.39-.65.62-1.15.49-.51-.14-.84-.49-.86-1.03-.02-.92,0-1.85.01-2.77,0-.22.13-.51-.17-.63-.3-.12-.42.17-.54.35-.59.88-1.24,1.73-1.14,2.89.03.37.03.82-.35,1.02-.5.27-.84.08-.96-.5-.12-.56.35-1.32-.51-1.66v-.27c.76-.89.61-2,.7-3.04.04-.44.07-.82.67-.79.58.03.63.36.6.83-.04.59,0,1.19,0,1.78l.21.05Z"/>
      <path class="cls-1" d="m22.8,23.72c-.56,1.08-1.13,2.17-1.69,3.25-.58.45-.66,1.16-.89,1.78-.89,2.29-1.9,4.52-3.2,6.61-.41.66-.88,1.49-1.78,1.27-.93-.23-1.14-1.16-1.29-2.03-.4-2.25-.1-4.49.02-6.73.38-.25.79-.27,1.22-.2-.03.51-.07,1.02-.09,1.53-.1,1.94-.26,3.88.05,5.82.04.26,0,.62.32.69.29.07.48-.23.65-.44.21-.26.4-.55.57-.85,1.28-2.33,2.38-4.75,3.37-7.21.29-1.18,1.09-2.14,1.45-3.29,1.08-1.86,2.69-3.4,3.31-5.54.32-1.11.96-1.93,2.42-2.04-.76,1.03-1.32,2.04-1.26,3.27,1.74-.37,2.61-1.82,1.85-3.03.58-.19,1,.04,1.31.52.31.47.31.97.03,1.45-.6,1.01-1.52,1.49-2.65,1.43-.6-.03-.61.21-.56.65.19,1.51,1.2,1.97,2.44,1.09.3-.21.58-.45.95-.56-.47.81-1.13,1.42-2.07,1.55-1.38.19-2.15-.62-2.56-2.01-.83,1.02-1.45,1.96-1.89,3.02"/>
      <path class="cls-1" d="m15.79,23.71c-.35.32-.77.26-1.19.2.84-5.65,2.65-11.01,4.9-16.24,1-2.33,2.04-4.63,3.39-6.77.13-.2.25-.41.38-.61.17-.26.4-.4.69-.19.24.18.18.41.06.64-.47.87-.96,1.73-1.4,2.62-3.21,6.47-5.33,13.3-6.82,20.35"/>
      <path class="cls-1" d="m51.77,22.22c-.13.06-.17.06-.2.08-.57.49-1.01,1.37-1.96.92-.91-.43-.93-1.38-.94-2.23-.03-1.47.39-2.76,1.68-3.65.28-.2.58-.34.94-.38,1.51-.18,2.28.68,2.21,2.49-.04.82-.13,1.63-.15,2.45,0,.24-.02.6.28.7.29.09.39-.23.52-.41.39-.52.75-1.06.97-1.38-.23.68-1.06,1.24-1.44,2.14-.27.64-1.22.64-1.61.04-.14-.22-.19-.5-.3-.78m.03-5c-.57.1-.89.45-1.04.99-.26.99-.47,2-.46,3.03,0,.43-.16,1.15.43,1.21.57.06.86-.58,1.07-1.09.07-.18.01-.41.06-.61.2-.9-.13-1.88.47-2.74.27-.4-.12-.67-.53-.79"/>
    </g>
  </g>
</svg>