<?xml version="1.0" encoding="UTF-8"?>
<svg id="Layer_2" data-name="Layer 2" xmlns="http://www.w3.org/2000/svg" viewBox="0 0 97.2 19.27">
  <defs>
    <style>
      .cls-1 {
        fill: #000;
      }
       .cls-1:hover {
    fill: #000; /* Change the fill color to black on hover */
  }
    </style>
  </defs>
  <g id="Layer_1-2" data-name="Layer 1">
    <g>
      <polygon class="cls-1" points="25.37 .91 25.81 .91 25.81 6.61 29.32 6.61 29.32 7.01 25.37 7.01 25.37 .91"/>
      <polygon class="cls-1" points="34.67 6.61 34.67 7.01 30.46 7.01 30.46 .91 34.54 .91 34.54 1.31 30.91 1.31 30.91 3.72 34.16 3.72 34.16 4.11 30.91 4.11 30.91 6.61 34.67 6.61"/>
      <polygon class="cls-1" points="37.46 1.31 35.26 1.31 35.26 .91 40.1 .91 40.1 1.31 37.9 1.31 37.9 7.01 37.46 7.01 37.46 1.31"/>
      <path class="cls-1" d="m24.16,16.68l.78-.94c.33.44.7.67,1.13.67.57,0,.86-.34.86-1.01v-2.9h-2.14v-1.13h3.55v3.96c0,1.51-.76,2.25-2.19,2.25-.82,0-1.54-.31-1.99-.89"/>
      <path class="cls-1" d="m29.36,14.42c0-1.81,1.41-3.15,3.34-3.15s3.34,1.33,3.34,3.15-1.42,3.15-3.34,3.15-3.34-1.34-3.34-3.15m5.25,0c0-1.16-.82-1.95-1.91-1.95s-1.91.79-1.91,1.95.82,1.95,1.91,1.95,1.91-.79,1.91-1.95"/>
      <path class="cls-1" d="m40.98,17.47l-1.18-1.7h-1.3v1.7h-1.41v-6.1h2.64c1.63,0,2.65.85,2.65,2.21,0,.92-.46,1.59-1.25,1.93l1.37,1.96h-1.52Zm-1.32-4.95h-1.15v2.13h1.15c.86,0,1.3-.4,1.3-1.06s-.43-1.06-1.3-1.06"/>
      <path class="cls-1" d="m43.5,11.37h2.77c2,0,3.36,1.2,3.36,3.05s-1.37,3.05-3.36,3.05h-2.77v-6.1Zm2.7,4.94c1.21,0,2-.72,2-1.89s-.79-1.89-2-1.89h-1.29v3.78h1.29Z"/>
      <path class="cls-1" d="m54.63,16.16h-2.83l-.54,1.31h-1.45l2.72-6.1h1.39l2.73,6.1h-1.48l-.54-1.31Zm-.44-1.07l-.97-2.33-.97,2.33h1.93Z"/>
      <polygon class="cls-1" points="62.88 11.37 62.88 17.47 61.72 17.47 58.68 13.76 58.68 17.47 57.28 17.47 57.28 11.37 58.45 11.37 61.48 15.07 61.48 11.37 62.88 11.37"/>
      <path class="cls-1" d="m70.91,14.32h1.29v2.48c-.67.51-1.6.77-2.47.77-1.92,0-3.33-1.32-3.33-3.15s1.41-3.15,3.35-3.15c1.07,0,1.96.37,2.55,1.05l-.91.84c-.44-.47-.96-.69-1.58-.69-1.18,0-2,.79-2,1.95s.81,1.95,1.98,1.95c.38,0,.74-.07,1.1-.26v-1.79Z"/>
      <path class="cls-1" d="m77.39,17.47l-1.18-1.7h-1.3v1.7h-1.41v-6.1h2.64c1.63,0,2.65.85,2.65,2.21,0,.92-.46,1.59-1.25,1.93l1.37,1.96h-1.52Zm-1.32-4.95h-1.15v2.13h1.15c.86,0,1.3-.4,1.3-1.06s-.43-1.06-1.3-1.06"/>
      <polygon class="cls-1" points="84.63 16.33 84.63 17.47 79.91 17.47 79.91 11.37 84.52 11.37 84.52 12.5 81.31 12.5 81.31 13.83 84.15 13.83 84.15 14.92 81.31 14.92 81.31 16.33 84.63 16.33"/>
      <polygon class="cls-1" points="90.48 16.33 90.48 17.47 85.76 17.47 85.76 11.37 90.37 11.37 90.37 12.5 87.16 12.5 87.16 13.83 89.99 13.83 89.99 14.92 87.16 14.92 87.16 16.33 90.48 16.33"/>
      <polygon class="cls-1" points="97.2 11.37 97.2 17.47 96.04 17.47 93 13.76 93 17.47 91.6 17.47 91.6 11.37 92.77 11.37 95.8 15.07 95.8 11.37 97.2 11.37"/>
      <path class="cls-1" d="m13.92,19.27l-4.22-4.19-4.51,3.87.65-5.91-5.84-1.11,5.02-3.18L2.25,3.5l5.62,1.95L10.25,0l1.98,5.6,5.74-1.53-3.15,5.04,4.78,3.53-5.9.68.22,5.94Zm-4.17-5.63l3.01,2.99-.16-4.24,4.22-.49-3.41-2.52,2.25-3.6-4.1,1.1-1.42-4-1.7,3.89-4.01-1.39,1.98,3.75-3.59,2.27,4.17.79-.46,4.22,3.22-2.77Z"/>
    </g>
  </g>
</svg>