<?xml version="1.0" encoding="UTF-8"?>
<svg id="Layer_2" data-name="Layer 2" xmlns="http://www.w3.org/2000/svg" viewBox="0 0 77.71 67.35">
  <defs>
    <style>
      .cls-1 {
        fill: #000;
      }
       .cls-1:hover {
    fill: #000; /* Change the fill color to black on hover */
  }
    </style>
  </defs>
  <g id="Layer_1-2" data-name="Layer 1">
    <path class="cls-1" d="m38.96,22.75c1.34-4.49,2.88-8.75,5.05-12.76,1.54-2.84,3.31-5.52,5.85-7.58,4.13-3.37,8.5-3.18,12.36.49,2.96,2.81,4.87,6.31,6.49,9.98,3.51,7.94,5.41,16.34,6.77,24.86,1.49,9.39,2.15,18.84,2.23,28.34,0,1.06-.28,1.31-1.3,1.27-2.47-.08-4.94-.05-7.41-.01-.73.01-.93-.23-.92-.94.04-7.1-.21-14.19-.76-21.27-.84-10.63-1.97-21.22-5.14-31.47-.68-2.21-1.49-4.38-2.81-6.31-.37-.55-.8-1.07-1.28-1.53-1.36-1.3-2.88-1.3-4.29-.05-1.36,1.2-2.2,2.75-2.92,4.36-2.19,4.94-3.33,10.18-4.25,15.47-2.05,11.77-2.73,23.66-2.81,35.59,0,1.03-.2,1.42-1.33,1.37-2.47-.09-4.94-.05-7.41-.02-.71.01-1.05-.11-1.05-.95.02-6.83-.22-13.64-.83-20.44-.87-9.65-2.01-19.25-5.17-28.47-.75-2.19-1.65-4.33-3.15-6.13-1.97-2.36-4.08-2.31-5.91.17-2.16,2.92-3.18,6.35-4.11,9.8-1.82,6.71-2.8,13.57-3.55,20.46-1.07,9.75-1.5,19.54-1.5,29.34,0,.88-.32,1.02-1.09,1.01-2.51-.04-5.02-.05-7.53,0-.9.02-1.18-.2-1.18-1.15.08-8.12.57-16.21,1.63-24.27,1.09-8.25,2.7-16.37,5.46-24.24,1.69-4.82,3.74-9.47,7.08-13.43.79-.93,1.66-1.77,2.65-2.49,3.79-2.75,8.09-2.27,11.8,1.3,3.17,3.05,5.21,6.83,6.95,10.8,1.1,2.51,2.01,5.09,2.82,7.71.11.36.12.76.57,1.16"/>
  </g>
</svg>