<?xml version="1.0" encoding="UTF-8"?>
<svg id="Layer_2" data-name="Layer 2" xmlns="http://www.w3.org/2000/svg" viewBox="0 0 54.59 33.24">
  <defs>
    <style>
      .cls-1 {
        fill: #000;
      }
       .cls-1:hover {
    fill: #000; /* Change the fill color to black on hover */
  }
    </style>
  </defs>
  <g id="Layer_1-2" data-name="Layer 1">
    <g>
      <path class="cls-1" d="m54.59,29.2c-.06.16-.05.33-.06.5-.02.29-.02.29-.3.29-1.33,0-2.66,0-3.99,0-.11,0-.15.02-.15.14.02.3.04.59.11.88.13.51.47.81.98.92.5.11,1,.08,1.5.07.49-.01.99-.04,1.48-.1.12-.02.16.02.16.15,0,.26,0,.53.02.79l-.09.12c-.95.16-1.9.31-2.87.26-.59-.03-1.14-.18-1.61-.53-.11-.08-.21-.18-.29-.29-.15-.22-.29-.44-.39-.69-.31-.82-.32-1.67-.3-2.52.01-.41.04-.83.13-1.24.08-.32.16-.64.31-.94.43-.85,1.14-1.3,2.08-1.39.5-.05,1-.03,1.48.12.41.13.77.34,1.05.68.28.34.45.72.57,1.13.09.29.12.59.15.89l.03.06v.7Zm-2.9-.28h0c.48,0,.97,0,1.45,0,.12,0,.15-.04.14-.15-.01-.11,0-.22-.01-.34-.03-.38-.08-.76-.28-1.11-.12-.2-.27-.34-.47-.43-.27-.13-.56-.16-.86-.15-.79.03-1.32.41-1.49,1.23-.05.27-.07.54-.09.81,0,.11.03.13.13.13.49,0,.98,0,1.47,0"/>
      <path class="cls-1" d="m28.73,13.97c0,.35.03.71,0,1.05-.05.43-.03.87-.13,1.3v.2c0,.22,0,.23-.23.29-.4.1-.79.2-1.19.3-.5.12-1,.24-1.49.36-.12.03-.18,0-.23-.1-.12-.25-.26-.48-.41-.71-.29-.46-.54-.95-.79-1.43-.21-.41-.41-.83-.6-1.25-.13-.29-.27-.57-.4-.86-.12-.26-.26-.51-.32-.79-.03-.13-.12-.09-.19-.1l-.1.12c-.03.32.06.62.09.93.02.2.12.4.17.61l.02.22c0,.28.06.54.19.78.06.1.04.23.08.34.1.3.2.61.3.91.11.3.21.6.34.89.11.23.19.48.32.7.06.12.02.11-.06.13-.23.05-.47.1-.7.15-.53.11-1.06.22-1.59.33-.76.16-1.52.31-2.28.47-.16.03-.32.06-.47.1-.12.04-.2,0-.28-.1-.2-.25-.4-.49-.59-.75-.24-.32-.47-.65-.65-1-.25-.47-.39-.98-.58-1.47-.06-.16-.03-.33-.08-.5-.21-.73-.28-1.47-.27-2.23.01-.85-.02-1.7.02-2.55.02-.37.01-.75.12-1.11v-.04c-.03-.39.12-.76.17-1.15.04-.37.1-.73.15-1.1.02-.12.08-.23.1-.35.06-.28.1-.57.15-.86.05-.26.13-.52.18-.78.09-.51.25-1,.38-1.5.17-.65.37-1.3.56-1.94.12-.41.27-.82.41-1.22.07-.21.37-.31.61-.22.16.06.29.16.43.24.34.18.68.38,1.01.59.24.15.47.32.71.48.43.28.83.59,1.23.9.25.19.46.41.7.62.43.36.82.75,1.22,1.15.13.13.24.28.36.42.14.16.3.32.43.49.11.15.23.29.34.44.22.31.44.61.65.93.11.18.21.37.38.52.09.08.1.25.17.36.13.21.21.45.33.67.17.32.32.64.44.98.13.37.28.73.36,1.11.02.11.08.21.11.32.06.24.11.48.13.73.01.14.03.3.12.42l.04.15c0,.19.04.37.07.56.06.46.11.91.09,1.38-.01.16,0,.32,0,.48h0Z"/>
      <path class="cls-1" d="m38.02,7.11c-.05.46-.07.92-.14,1.38-.07.45-.18.89-.26,1.34-.05.27-.15.53-.22.79-.03.11-.07.22-.07.34l-.09.24-.05.11c-.1.41-.26.8-.42,1.18-.14.33-.28.66-.44.99-.26.52-.55,1.02-.85,1.51-.08.14-.18.26-.26.4l-.17.09c-.77.09-1.52.25-2.28.4-.78.15-1.56.32-2.34.48-.19.04-.37.08-.56.12-.09.02-.14,0-.11-.1.08-.28.09-.57.12-.85.03-.29.13-.56.12-.86-.02-.52,0-1.05,0-1.57l-.06-.24-.03-.11c0-.2-.06-.39-.06-.58,0-.25-.07-.48-.09-.72-.02-.23-.1-.47-.18-.69-.03-.1-.05-.21-.07-.31-.04-.26-.19-.51-.15-.79.02-.17.1-.29.23-.38.26-.19.56-.33.85-.46.53-.22,1.05-.49,1.59-.69.41-.15.82-.3,1.24-.45.41-.15.83-.28,1.25-.39.61-.16,1.2-.35,1.83-.46.4-.07.79-.17,1.19-.24.1-.02.2-.03.31-.03.15,0,.22.08.23.23v.16s0,.15,0,.15Z"/>
      <path class="cls-1" d="m4.72,31.18c.09-.12.12-.24.15-.36.11-.5.28-.98.42-1.47.1-.34.17-.68.28-1.01.11-.31.16-.63.27-.93.11-.29.15-.6.26-.89.13-.34.18-.7.3-1.03.11-.29.15-.6.26-.89.11-.31.16-.63.27-.93.06-.17.11-.35.16-.53l.12-.09c.71,0,1.43,0,2.14,0,.1,0,.11.04.11.12,0,.18,0,.35,0,.53,0,3.08,0,6.16.01,9.24,0,.14-.03.18-.17.18-.34-.01-.68,0-1.03,0-.12,0-.14-.03-.14-.15,0-1.79,0-3.59,0-5.38,0-.96,0-1.92,0-2.88,0-.05.04-.14-.07-.14-.08,0-.14,0-.17.1-.1.37-.22.74-.34,1.11-.11.33-.17.67-.29.99-.11.28-.15.58-.26.86-.11.29-.16.59-.27.88-.11.28-.15.58-.26.86-.12.32-.17.66-.29.97-.11.29-.16.59-.27.88-.11.28-.16.58-.26.86-.07.18-.12.36-.17.54l-.12.09c-.4,0-.8,0-1.2,0l-.14-.11c-.12-.28-.16-.59-.27-.87-.12-.32-.18-.66-.3-.97-.11-.28-.15-.57-.26-.85-.11-.29-.16-.59-.27-.87-.12-.3-.17-.63-.28-.93-.11-.3-.17-.61-.28-.9-.1-.27-.15-.55-.25-.82-.13-.33-.18-.67-.31-1-.09-.23-.15-.47-.21-.71-.03-.1-.08-.12-.17-.11-.11.01-.06.1-.06.15,0,2.74,0,5.48,0,8.21,0,.14-.03.19-.18.18-.34-.01-.69-.01-1.03,0-.12,0-.14-.03-.14-.14,0-1.21,0-2.43,0-3.64,0-2.04,0-4.08,0-6.12,0-.15.04-.17.18-.17.68,0,1.36,0,2.04,0,.1,0,.14.03.17.13.15.54.29,1.09.46,1.63.1.3.15.61.26.91.11.29.15.6.26.89.12.33.17.68.29,1.01.11.3.16.62.27.92.11.28.15.58.25.86.11.31.16.63.27.93.11.28.15.57.26.86"/>
      <path class="cls-1" d="m43.84,17.13c-.15.03-.29,0-.43-.02-.46-.08-.93-.1-1.39-.12-.22,0-.45-.04-.67-.02-.57.05-1.15,0-1.73.04-.27.01-.54.04-.81.07-.25.03-.5.03-.74.09-.3.06-.6.02-.89.12-.11.03-.22.01-.33.04-.25.06-.51.07-.76.13-.2.04-.41.08-.61.12-.23.04-.46.1-.7.13-.1.01-.19.07-.29.08-.28.03-.55.11-.83.16-.23.04-.45.14-.69.18-.32.06-.65.12-.96.22-.22.08-.44.11-.66.18-.16.05-.33.09-.5.12-.22.04-.41.13-.63.17-.18.03-.35.09-.52.14-.2.05-.41.1-.61.17-.21.08-.44.1-.66.15-.29.07-.56.18-.85.24-.24.05-.48.11-.72.17-.15.04-.3.08-.46.13-.21.07-.43.1-.65.15-.29.07-.58.14-.88.2-.35.07-.7.16-1.06.22-.23.04-.46.08-.7.14-.22.06-.45.1-.67.13-.44.06-.88.12-1.31.2-.19.03-.38.02-.57.05-.58.09-1.17.15-1.75.17-.38.02-.77.04-1.15.05-.36.01-.72,0-1.07,0-.33-.01-.66-.03-.99-.08-.48-.08-.95-.17-1.42-.29-.43-.11-.87-.23-1.29-.4-.42-.18-.85-.35-1.24-.59-.2-.12-.41-.22-.6-.34-.33-.22-.65-.47-.96-.73-.31-.26-.56-.59-.84-.88-.13-.14-.2-.33-.3-.49l-.11-.15-.02-.07.06.02c.2.24.48.4.67.64.09.11.22.15.33.23.35.23.7.45,1.07.63.22.11.43.23.67.31.27.09.53.2.81.28.35.11.71.18,1.07.26.37.08.74.13,1.11.2l.09.02c.6.03,1.21.07,1.81.03.48-.03.96-.06,1.44-.13.35-.05.71-.11,1.06-.16.48-.07.96-.13,1.43-.24.4-.1.81-.13,1.21-.23.49-.13.99-.19,1.47-.35.12-.04.24-.04.36-.07.54-.13,1.09-.27,1.63-.4.43-.09.86-.2,1.28-.32.39-.11.79-.13,1.17-.27.15-.05.33-.07.49-.11.28-.07.56-.14.85-.2.4-.08.8-.16,1.2-.26.33-.07.66-.13.98-.19.49-.09.99-.18,1.49-.26.35-.06.7-.11,1.05-.14.25-.02.51-.06.76-.08.22-.02.43-.1.66-.09.32,0,.63-.03.95-.06.15-.02.31,0,.46,0,.6-.02,1.21-.07,1.81-.03.42.03.85.03,1.27.1h.06c.4,0,.79.08,1.19.14.32.05.64.08.95.15.33.08.67.13,1,.25.2.07.42.1.62.18.15.06.31.09.44.19"/>
      <path class="cls-1" d="m41.06,28c.28.14.55.27.79.46.2.16.35.34.46.57.24.53.24,1.09.21,1.66-.01.3-.09.59-.18.88-.23.8-.77,1.29-1.57,1.51-.66.19-1.33.17-2.01.12-.71-.05-1.4-.18-2.09-.35-.12-.03-.16-.07-.15-.21.04-.27.05-.54.07-.82,0-.12.04-.14.15-.12.52.12,1.04.21,1.57.27.54.06,1.08.09,1.62-.04.54-.13.97-.38,1.14-.96.12-.38.13-.76.04-1.13-.06-.24-.15-.48-.35-.67-.31-.3-.69-.43-1.1-.46-.63-.04-1.26-.01-1.89-.01-.13,0-.17-.04-.17-.17,0-.3,0-.6,0-.89,0-.1.03-.13.13-.13.53,0,1.07,0,1.6,0,.46,0,.83-.16,1.15-.48.5-.52.58-1.14.36-1.8-.13-.39-.47-.57-.87-.65-.59-.12-1.18-.08-1.77-.02-.46.04-.91.12-1.36.22l-.11-.06c-.07-.28-.07-.58-.11-.87-.01-.09,0-.14.11-.17,1.01-.32,2.05-.43,3.11-.38.54.03,1.06.13,1.52.41.26.16.48.38.62.66.24.47.32.97.31,1.5,0,.19,0,.38-.05.57-.17.7-.54,1.24-1.19,1.59"/>
      <path class="cls-1" d="m16.56,29.44c0,.73,0,1.35,0,1.97v.19c.06.3.17.44.51.53.13.03.18.08.16.21-.02.25-.03.5-.03.75,0,.12-.05.14-.16.14-.49,0-.97-.1-1.37-.39-.16-.11-.26-.16-.47-.07-.75.34-1.55.52-2.38.45-.65-.05-1.16-.33-1.48-.94-.22-.43-.25-.89-.26-1.36,0-.23.02-.46.06-.68.14-.69.59-1.09,1.24-1.3.57-.18,1.16-.2,1.75-.26.33-.04.67-.07,1.01-.09l.1-.1c-.01-.29.01-.58-.03-.86-.07-.52-.43-.82-.94-.83-.88-.01-1.76.06-2.63.16-.12.01-.14-.01-.14-.12,0-.25-.02-.51-.03-.76l.09-.12c.9-.21,1.8-.35,2.73-.34.49,0,.96.07,1.39.34.14.09.27.2.37.32.26.31.35.69.42,1.08.13.73.02,1.47.07,2.09m-1.3,1.22c0-.32,0-.65,0-.97,0-.09-.02-.12-.11-.11-.12.02-.25.02-.38.04-.52.06-1.04.07-1.56.17-.39.08-.69.33-.75.75-.04.25-.05.51,0,.76.03.21.08.4.25.56.18.17.39.23.63.23.64.01,1.26-.13,1.86-.35l.08-.14c0-.32,0-.64,0-.95"/>
      <path class="cls-1" d="m34.67,29.54c0,.62,0,1.23,0,1.85,0,.43.15.66.6.77.1.02.11.06.11.14-.02.28.01.55-.05.83l-.12.1c-.57,0-1.1-.13-1.55-.5h-.16c-.79.34-1.62.56-2.5.5-.54-.04-1-.22-1.33-.68-.25-.34-.38-.72-.41-1.13-.04-.4-.04-.8.05-1.2.15-.63.54-1.04,1.15-1.25.5-.18,1.03-.21,1.55-.26.42-.04.85-.08,1.27-.12l.1-.09c0-.34.02-.67-.05-1.01-.08-.42-.44-.67-.83-.69-.49-.02-.98,0-1.47.04-.42.03-.85.07-1.27.12l-.09-.08c0-.26-.01-.53-.03-.79,0-.09.03-.13.12-.15.66-.16,1.33-.27,2.01-.31.47-.03.93-.04,1.39.06.63.14,1.09.46,1.33,1.09.15.39.18.78.19,1.19,0,.53,0,1.06,0,1.58h0Zm-1.3,1.11c0-.32,0-.64,0-.97,0-.09-.02-.12-.12-.11-.6.06-1.2.11-1.8.18-.47.06-.82.34-.89.82-.04.29-.04.58.03.87.09.35.38.61.74.63.67.03,1.32-.11,1.95-.34l.09-.14c0-.32,0-.64,0-.95"/>
      <path class="cls-1" d="m22.39,21.5c.29-.07.57-.02.85-.05.53-.06,1.06-.06,1.58-.14.15-.02.29-.03.44-.04.14,0,.29.01.4-.1h.07c.32.02.62-.08.92-.14.49-.1.99-.19,1.47-.33.33-.1.67-.15.99-.25.28-.09.57-.16.85-.26.27-.1.56-.16.84-.24.27-.08.54-.18.82-.27.26-.08.5-.19.77-.24.15-.03.3-.1.45-.15.17-.06.35-.1.53-.16.15-.05.3-.1.45-.15.44-.12.87-.28,1.32-.38.21-.04.41-.12.61-.19.21-.07.43-.08.63-.16.45-.17.93-.2,1.39-.32.41-.11.84-.14,1.25-.23.29-.06.59-.07.88-.12.57-.1,1.14-.11,1.71-.14.42-.02.84-.03,1.26-.01.27.01.54.02.82.07.24.05.5.06.74.09.38.06.76.11,1.12.24h.17s.08.08.08.08l-.08.03c-.24-.03-.47-.04-.71-.03-.4,0-.8,0-1.2.04-.56.06-1.13.05-1.69.14-.36.06-.71.13-1.07.2-.24.05-.49.07-.73.14-.33.09-.67.16-1,.24-.33.09-.67.15-1,.26-.3.09-.61.17-.91.27-.5.15-.99.32-1.5.45-.26.07-.52.18-.78.26-.1.04-.2.06-.31.09-.4.12-.81.22-1.2.36-.16.06-.32.11-.48.17-.17.06-.36.07-.54.13-.34.11-.67.21-1.02.29-.34.08-.68.18-1.02.25-.2.04-.4.1-.6.14-.23.05-.47.08-.7.14-.31.08-.64.08-.96.16-.21.05-.42.05-.63.09-.38.07-.77.03-1.15.07-.58.07-1.17.05-1.75.03-.37-.02-.74-.03-1.11-.12-.12-.03-.24-.04-.36-.04-.27,0-.53-.11-.81-.12l-.11-.05Z"/>
      <path class="cls-1" d="m20.91,28.57h-.13c-.85,0-1.71,0-2.56,0-.1,0-.13-.02-.13-.12,0-.23,0-.46,0-.69l.09-.09c1.29,0,2.59,0,3.88,0l.1.08c0,.25,0,.5,0,.75l-.11.21c-.12.11-.19.26-.3.38-.19.23-.36.47-.55.7-.22.27-.44.55-.65.83-.21.28-.43.55-.64.82-.17.21-.34.43-.52.64l-.04.07.09.02c.86,0,1.72,0,2.57,0,.11,0,.15.03.14.13,0,.22,0,.44,0,.66,0,.09-.02.11-.12.11-1.16,0-2.32,0-3.49,0-.13,0-.26,0-.38,0l-.07-.07c0-.26,0-.53,0-.79l.07-.11c.18-.25.37-.49.56-.73.22-.28.44-.57.66-.85.14-.18.28-.36.42-.54.22-.29.45-.57.68-.87.13-.18.29-.35.42-.55"/>
      <path class="cls-1" d="m45.82,29.09c0,.66-.01,1.31.02,1.97,0,.14.02.27.05.41.08.36.33.56.68.56.38,0,.75-.03,1.13-.06.11,0,.14.02.15.13.02.29.05.59.09.88l-.08.11c-.56.09-1.13.19-1.7.15-.35-.03-.69-.09-.97-.32-.21-.16-.35-.37-.43-.62-.16-.51-.23-1.03-.23-1.57,0-1.2,0-2.41,0-3.61,0-.16-.05-.18-.19-.18-.21.01-.42,0-.63,0l-.1-.1c0-.32,0-.65,0-.97l.11-.11c.22,0,.44,0,.66,0,.13,0,.15-.04.15-.16,0-.62,0-1.25,0-1.88,0-.11.02-.15.14-.15.34,0,.68,0,1.03,0,.1,0,.13.03.13.13,0,.64,0,1.27,0,1.91,0,.12.04.15.16.15.58,0,1.15,0,1.73,0,.1,0,.14.02.14.13,0,.3,0,.61,0,.91,0,.1-.03.13-.13.13-.58,0-1.16,0-1.75,0-.12,0-.15.04-.15.16,0,.66,0,1.33,0,1.99"/>
      <path class="cls-1" d="m26.08,26.67c.22-.14.42-.27.62-.38.52-.3,1.08-.52,1.66-.66.09-.02.13-.01.13.1,0,.38,0,.76,0,1.14l-.11.14c-.61.14-1.2.36-1.78.6l-.18.09c-.31.07-.33.27-.33.54.01,1.56,0,3.12.01,4.68,0,.14-.04.17-.17.17-.33,0-.67,0-1,0-.1,0-.13-.02-.13-.12,0-2.35,0-4.7,0-7.05,0-.11.03-.14.14-.14.34,0,.68,0,1.01,0,.11,0,.14.03.14.14,0,.24,0,.49,0,.76"/>
    </g>
  </g>
</svg>