<?xml version="1.0" encoding="UTF-8"?>
<svg id="Layer_2" data-name="Layer 2" xmlns="http://www.w3.org/2000/svg" viewBox="0 0 71.19 70.71">
  <defs>
    <style>
      .cls-1 {
        fill: #000;
      }
       .cls-1:hover {
    fill: #000; /* Change the fill color to black on hover */
  }
    </style>
  </defs>
  <g id="Layer_1-2" data-name="Layer 1">
    <path class="cls-1" d="m34.37,70.71c-8.51-.16-16.97-3.49-23.93-10.36-4.96-4.89-8.19-10.77-9.65-17.58C-2.48,27.41,4.6,11.97,18.38,4.4,24.55,1.01,31.16-.4,38.16.1c13.49.95,25.1,9.26,30.33,21.73,2.16,5.14,3.02,10.51,2.59,16.08-.69,8.93-4.28,16.52-10.66,22.78-4.15,4.07-9.06,6.87-14.63,8.54-3.32,1-6.72,1.48-11.42,1.49M7.34,50.5c.24-.17.36-.25.47-.34,7.46-5.79,14.92-11.57,22.39-17.35.33-.25.46-.54.51-.93.22-1.66.45-3.32.68-4.98.59-4.21,1.18-8.42,1.76-12.63.41-2.92.82-5.84,1.22-8.76.09-.64.17-1.29.28-2.04-12.1.88-21.42,6.21-27.23,16.82-5.43,9.91-5.1,20.06-.09,30.22m56.44-.15c4.73-8.18,5.95-21.27-1.34-32.34-3.67-5.57-8.6-9.64-14.78-12.15-3.52-1.43-7.19-2.2-11.04-2.31.02.23.02.39.05.55.21,1.53.43,3.05.64,4.58.63,4.43,1.25,8.86,1.88,13.29.47,3.35.94,6.7,1.41,10.05.04.32.17.54.43.74,1.19.9,2.37,1.83,3.55,2.74,6.29,4.88,12.58,9.76,18.87,14.63.1.08.21.15.32.22m-55.26,1.89c5.31,8.69,16.48,16.16,30.25,14.75,10.31-1.06,18.25-6.15,24.04-14.79-.25-.11-.38-.16-.51-.22-1.64-.66-3.27-1.33-4.91-1.99-7.15-2.88-14.3-5.75-21.46-8.62-.21-.08-.51-.09-.71,0-7.99,3.24-15.97,6.5-23.96,9.75-.9.37-1.79.74-2.73,1.12"/>
  </g>
</svg>