<?xml version="1.0" encoding="UTF-8"?>
<svg id="Layer_2" data-name="Layer 2" xmlns="http://www.w3.org/2000/svg" viewBox="0 0 142.9 28.11">
  <defs>
    <style>
      .cls-1 {
        fill: #000;
      }
       .cls-1:hover {
    fill: #000; /* Change the fill color to black on hover */
  }
    </style>
  </defs>
  <g id="Layer_1-2" data-name="Layer 1">
    <g>
      <path class="cls-1" d="m19.91,28.1c-.06-.89-.09-1.79-.24-2.67-.04-.23.1-.28.22-.36,1.6-1.11,3.02-2.43,4.25-3.94,1.12-1.38,2.02-2.9,2.69-4.55.11,0,.13.11.17.18.43.71.81,1.44,1.16,2.19.11.23.07.43-.02.65-1.35,3.4-3.54,6.14-6.5,8.28-.1.07-.19.15-.29.23-.34,0-.68,0-1.03,0h-.2s-.21-.01-.21-.01Z"/>
      <path class="cls-1" d="m19.72,1.22c.32.82.59,1.66.9,2.47.37.95.7,1.91,1.07,2.86l.1.25-.05.18-.18-.02c-1.41-1.03-2.94-1.88-4.32-2.97-.85-.67-1.74-1.29-2.61-1.94-.52-.39-1.05-.77-1.57-1.15-.07-.05-.13-.16-.25-.09h0c-.07-.27-.35-.31-.53-.48-.04-.04-.1-.21-.23-.07-.21.05-.37-.16-.57-.14-.61.07-1.23.06-1.85.06-2.72,0-5.43,0-8.15,0-.26,0-.52.01-.78-.05C.42.06.13.26.13.51c0,1.16,0,2.32,0,3.48,0,.19.03.35.29.27.15-.04.17.07.19.17-.17.11-.35.2-.55.23l-.02-.24v-.26c0-1.28,0-2.55,0-3.83v-.19C.07-.03.2,0,.31,0h11.31c2.46,0,4.92,0,7.38,0,.11,0,.23,0,.34,0,.1.31.2.62.3.93-.24-.06-.38-.21-.4-.47-.01-.14-.05-.29-.23-.28-.29.02-.56-.08-.84-.08-1.62,0-3.25,0-4.87,0-.26,0-.52.06-.85.1.29.16.54.24.72.4.17.15.26.44.48.06h.19s.23.04.23.04c.84-.07,1.68-.14,2.53-.06.81.07,1.62.1,2.4.34.21.06.46.04.59.28l.14-.07Z"/>
      <path class="cls-1" d="m17.05,26.46c-.54.44-1.19.64-1.82.9-.66.27-1.33.5-2,.74-.14,0-.27.01-.41.02-.19,0-.39-.01-.58-.01-2.22,0-4.43,0-6.65.01h-.2c-.12,0-.23,0-.34,0-.13-.56.17-1.24.65-1.48l.16-.02c2.26,0,4.46-.34,6.63-.96h.13s-.07.13-.07.13l-.17.06.05.06.12-.12.07.02c.14.05.32.38.38-.07l.1-.06c.15.06.21-.05.31-.12.21-.14.46-.17.68-.06.17.08.32.08.49.1.86.07,1.7-.23,2.57-.14l.18-.06c.15-.32.43-.28.7-.28.15,0,.28,0,.41-.12.17-.15.4-.12.58-.05.16.07-.03.24,0,.37v.14s-.04.02-.04.02c-.19,0-.39-.02-.58,0-.24.02-.5.04-.47.39,0,.12-.07.15-.18.15-.14,0-.27.02-.4.04-.48.06-.48.05-.3.44m-.97.17c-.02-.11-.11-.1-.18-.1-.1,0-.15.05-.1.15.03.06,0,.19.12.14.07-.03.15-.09.16-.19m.44,0c-.07-.07-.14-.13-.25-.07v.06c.07.09.15.11.25.01m-3.44-.67c.16-.02.26-.02.38-.2-.17.07-.27.05-.38.2"/>
      <path class="cls-1" d="m31.7.02l.02.18c0,1.3,0,2.61-.01,3.91,0,.32.1.7-.04.93-.15.25-.56.28-.88.36l-.05.04c-1.08.4-2.16.79-3.24,1.19-.44-.16-.56-.61-.84-.91-.2-.22-.29-.48-.28-.77.78-1.07,1.57-2.14,2.35-3.22.41-.57.87-1.09,1.23-1.7.56-.01,1.13-.02,1.69-.03l.06.02Z"/>
      <path class="cls-1" d="m21.83,28.11l-.11-.07.17-.16c2.92-2.14,5.07-4.87,6.4-8.24.01-.04.03-.07.09-.2.3.95.69,1.76.71,2.71.04,1.55-.83,2.72-1.51,3.97-.34.63-.79,1.19-1.23,1.76-.12.16-.24.22-.45.22-1.2,0-2.41,0-3.61,0h-.14s-.13,0-.13,0h-.2Z"/>
      <path class="cls-1" d="m.01,18.5c.57.09,1.14.17,1.7.26.63.1,1.26.15,1.89.18.18,0,.27.04.28.27.03,1,.17,1.98.22,2.98.03.55.08,1.11.18,1.65.02.11-.02.15-.14.17-.63.1-1.26.01-1.88-.02-.66-.03-1.31-.17-1.96-.27-.1-.01-.19-.06-.29-.09v-.25s0-.06,0-.06c0-1.07.02-2.15.02-3.22,0-.45-.01-.9-.02-1.35v-.15s0-.11,0-.11Z"/>
      <path class="cls-1" d="m24.08,3.34c.09-1.11.22-2.22.36-3.33.1,0,.2,0,.3,0h.11c1.61,0,3.21,0,4.82,0l-.06.15c-1.23,1.47-2.45,2.94-3.68,4.41-.22-.18-.26-.53-.58-.62-.32-.09-.56-.3-.77-.55-.14-.17-.31-.22-.5-.06"/>
      <path class="cls-1" d="m.02,15.89c.04-.11.01-.23.22-.18.78.19,1.58.3,2.38.37.14.01.22.08.32.16.56.43.92.94.83,1.7-.02.2.02.41.04.61.03.19-.03.27-.23.25-1.12-.08-2.23-.2-3.33-.44-.14-.03-.24-.05-.23-.22,0-.71,0-1.41,0-2.11v-.07s0-.07,0-.07Z"/>
      <path class="cls-1" d="m.04,23.86c.97.12,1.93.28,2.9.31.39.01.77.03,1.16.03.2,0,.26.07.26.25,0,.12,0,.26.03.37.19.58-.08.97-.49,1.33-.13.11-.25.08-.38.07-1.11-.1-2.2-.25-3.29-.51H.06c0-.62-.02-1.23-.02-1.85"/>
      <path class="cls-1" d="m.06,25.98c1.12.28,2.27.43,3.41.54.19.02.34.08.48.2.42.37.85.72.75,1.38-.18,0-.36.01-.55.02H.75c-.14,0-.27,0-.41,0-.11-.04-.29.06-.32-.15v-.06s0-.14,0-.14v-.14c.04-.41.04-.82,0-1.22v-.07c.02-.11.03-.23.05-.34"/>
      <path class="cls-1" d="m.03,13.36c1.09.05,2.18.1,3.26-.03.16-.02.19.04.19.18,0,.25,0,.5.05.75.08.47-.07.82-.42,1.16-.3.29-.58.38-.96.32-.6-.1-1.21-.19-1.81-.3-.25-.04-.33-.14-.31-.37,0-.57,0-1.14,0-1.71"/>
      <path class="cls-1" d="m13.84,28.11c.36-.22.78-.31,1.17-.46,1.42-.55,2.77-1.22,4.06-2.03.09-.05.17-.11.29-.18.15.87.21,1.72.22,2.58l-.08.1h-4.71s-.07,0-.07,0c-.3,0-.59,0-.89,0"/>
      <path class="cls-1" d="m.05,11.31c1.01-.03,2.01-.16,2.99-.37.21-.05.32-.06.32.23,0,.6.06,1.2.1,1.8,0,.11,0,.19-.14.2-1.1.1-2.19.13-3.28,0,0-.62.02-1.23.02-1.85"/>
      <path class="cls-1" d="m26.6,28.09c1.09-1.41,1.99-2.91,2.64-4.57.03-.07.02-.18.13-.17.14,0,.09.14.1.21.27,1.4.17,2.8-.11,4.18-.02.11-.03.22-.05.34l-.2.03h-1.98s-.07,0-.07,0c-.16,0-.32-.02-.48-.02"/>
      <path class="cls-1" d="m1.15,8.85c-.41.51-.67,1.11-1.06,1.65l-.06-.2c.01-.09.03-.19-.03-.27v-.08c.08-.93.05-1.86.02-2.79.02-.12.05-.24.18-.28.38-.11.76-.22,1.14-.32.34-.09.69-.25.87.24l.07.07c.15.1.15.19.03.35-.41.52-.82,1.05-1.15,1.63"/>
      <path class="cls-1" d="m.03,4.97l.15-.08c.68-.37,1.36-.65,2.07-.05.1.11,0,.18-.06.26-.15.21-.29.45-.28.71.02.29-.13.34-.36.4-.48.12-.96.23-1.42.41H.04c0-.55,0-1.1-.01-1.65"/>
      <path class="cls-1" d="m31.65,15.95c.12.11.06.25.06.38,0,3.77,0,7.55,0,11.32,0,.12,0,.25.01.37l-.02.06c-.58,0-1.17-.02-1.75.02-.33.02-.35-.11-.28-.36l.07-.26c.23.51.3.56.76.45.18-.04.36-.04.54-.04.56,0,.6-.04.6-.6,0-3.59,0-7.18,0-10.77,0-.19-.06-.38,0-.57"/>
      <path class="cls-1" d="m19.84.27c-.11-.06-.18-.13-.11-.26,1.44,0,2.87,0,4.31,0,0,.14,0,.28-.1.4.02-.26-.15-.28-.35-.28-1.05,0-2.1,0-3.15,0-.22,0-.42,0-.6.14"/>
      <path class="cls-1" d="m4.32,20.67v-.07c.09-.01.19-.02.14-.16-.07-.19.02-.3.17-.4.18-.12.24-.23-.05-.29-.17-.03-.29-.15-.27-.34.02-.21.21-.09.33-.13.32-.11.74.06.96-.34.95-.11,1.89-.19,2.83-.38,2.53-.51,4.85-1.52,6.97-3.02.64.9,1.19,1.85,1.7,2.83.17.33.32.68.49,1.01.1.19.08.3-.11.44-.96.67-1.97,1.24-3.01,1.77-1.38.7-2.82,1.23-4.31,1.64l-.17.02c-.53-.11-1.06.05-1.57.12-.31.04-.68.13-1.01.27-.44.19-.95.12-1.41.1-.51-.02-1.17.05-1.4-.67l-.06-.03-.02-.14c.04-.16.09-.32.11-.48.02-.15.02-.3-.19-.33v-.14c.16-.17.24-.65.12-.85-.05-.09-.16-.17-.09-.27.17-.27-.08-.14-.16-.17"/>
      <path class="cls-1" d="m23.52,12.53c-.1.22-.2.44-.3.65-.83,1.67-1.91,3.16-3.22,4.49-.58.59-1.2,1.13-1.84,1.64-.19.15-.25.1-.33-.09-.56-1.27-1.24-2.47-2.02-3.62-.14-.2-.11-.29.08-.43,1.06-.78,1.97-1.73,2.78-2.75.57-.71,1.07-1.49,1.46-2.32.1-.21.17-.2.34-.09,1.03.71,2.02,1.46,2.93,2.32.05.05.14.08.13.18"/>
      <path class="cls-1" d="m.61,4.44c-.03-.1-.05-.22-.19-.17-.26.08-.29-.08-.29-.27,0-1.16,0-2.32,0-3.48,0-.25.29-.45.59-.38.26.07.52.05.78.05,2.72,0,5.43,0,8.15,0,.62,0,1.23.01,1.85-.06.21-.03.36.19.57.14l.23.2c-.38.19.03.2.1.32-.38.15-.74.3-1.11.43-.74.27-1.47.56-2.17.93-.15.08-.32.17-.32.36,0,.24.24.09.35.16l.04.05c-.4.01-.81.03-1.21.04h-.07c-2.53.13-4.96.7-7.3,1.66"/>
      <path class="cls-1" d="m4.05,17.46v-.14c.18-.16.24-.37.25-.61.27-.43.64-.61,1.18-.63,1.31-.04,2.58-.32,3.83-.7,1.1-.33,2.13-.8,3.13-1.35.18-.1.35-.13.55-.1.28.05.56.1.84.1.34,0,.58.13.76.41.16.25.33.49.53.71.17.19.15.29-.06.44-1.36.93-2.81,1.68-4.38,2.2h-.1c-.28-.05-.64-.03-.82.07-.5.27-1.05.22-1.55.41-.36.13-.74.05-1.11.12-.3.06-.61.17-.9.19-.61.05-1.23-.03-1.86-.14.19-.16.39-.09.58-.1.12-.01.3-.01.3-.16,0-.2-.18-.11-.29-.11-.26-.02-.55.07-.71-.26l-.13-.02v-.14c.1-.09.09-.16-.04-.21"/>
      <path class="cls-1" d="m5.04,15.83c-.23.07-.42-.13-.66-.32-.52-.41-.56-.93-.57-1.51,0-.7-.02-.71.63-.82,2.26-.37,4.38-1.13,6.35-2.29.19-.11.29-.11.48.05.43.37.84.75,1.25,1.15.09.09.19.16.16.32-.07.38-.14.76-.19,1.14-.02.16-.15.19-.26.25-1.51.85-3.13,1.42-4.83,1.75-.75.15-1.5.23-2.36.29"/>
      <path class="cls-1" d="m31.65,15.95c-.06.19,0,.38,0,.57,0,3.59,0,7.18,0,10.77,0,.56-.04.59-.6.6-.18,0-.36,0-.54.04-.46.11-.53.06-.76-.45.17-1.17.29-2.33.29-3.51,0-2.19-.31-4.33-.96-6.42-.04-.14-.07-.28-.11-.43l.18-.13c.12-.34.34-.7.35-1.03.02-.59.28-1.17.11-1.76.64.47,1.28.94,1.92,1.41.11.08.26.16.12.34"/>
      <path class="cls-1" d="m26.4,17.12l-.02.06c-.3.06-.24.3-.25.51-.45,1.03-1.08,1.96-1.75,2.86-1.29,1.71-2.83,3.16-4.59,4.37l-.16.1c-.13-.6-.38-1.19-.35-1.76.03-.54.14-1.13.68-1.55,2.16-1.71,3.83-3.82,5.03-6.29.04-.09.1-.18.15-.27l.06.06.03-.12h.14c.15.25.36.21.58.13l.02.03c-.05.15-.22.33.09.41.09.02.05.16.05.25,0,.14,0,.29.12.37.23.16.24.35.08.54-.14.16-.05.24.08.32"/>
      <path class="cls-1" d="m24.63,15.41c-.5,1.11-1.19,2.11-1.93,3.07-.87,1.11-1.86,2.11-2.95,3.01-.32.26-.97.07-1.13-.33-.16-.42-.3-.86-.5-1.26-.11-.23-.04-.33.13-.46,1.17-.91,2.22-1.94,3.15-3.1.85-1.07,1.58-2.22,2.13-3.47.1-.23.19-.24.34-.06.2.23.41.45.62.67-.01.11-.02.23.04.33.25.43.14.86,0,1.28-.05.14-.01.24.1.32"/>
      <path class="cls-1" d="m10.62,23.28c2.49-.74,4.83-1.81,6.95-3.33.15-.11.22-.1.28.08.09.26.17.52.3.76.25.5.29.99.08,1.53-.11.28-.23.49-.49.64-.84.5-1.68.99-2.58,1.37-.02-.08,0-.17-.15-.1-.33.13-.64.32-1.02.27h0c-.2-.06-.41-.11-.61-.17-.1-.03-.2-.06-.28.03l-.02.09c.06.09.16.04.25.05.09.01.22-.03.24.12.02.14-.1.15-.18.22-.3.26-.69.04-1.02.18l-.09-.04c-.14-.09-.28-.06-.42,0-.1.04-.21.08-.33.07-.47-.07-.81-.4-1.17-.63-.31-.21-.59-.26-.92-.25-.25,0-.46.11-.69.17-.14.04-.14.04-.59-.14.58-.14,1.19-.29,1.8-.43h0c.2.06.34-.15.53-.14-.07-.15.29-.12.14-.31"/>
      <path class="cls-1" d="m5.44,4.1c.77-.34,1.53-.67,2.36-.84,1.31-.27,2.62-.21,3.93-.03.75.1,1.49.25,2.26.45-.54.82-1.15,1.54-1.82,2.22-.12.12-.24.08-.37.05-.13-.04-.26-.05-.4-.08-.28-.07-.56-.16-.85-.17l-.17-.04c-.16-.03-.31-.1-.48-.08l-.14-.03c-.34-.05-.68-.1-1.02-.16h-.07c-.18-.03-.36-.05-.55-.07h-.21c-.22-.05-.45-.1-.68-.07h-.21c-.14-.02-.27-.04-.41-.06h-.07c-.34-.02-.68-.03-1.02-.04-.12,0-.27,0-.33-.12-.1-.21-.3-.33-.42-.53l.06-.03.6-.37Z"/>
      <path class="cls-1" d="m10.93,10.62c-1.13.68-2.29,1.22-3.5,1.64-1.07.37-2.17.63-3.29.81-.25.04-.41.05-.4-.31.02-.57-.04-1.13-.07-1.7-.01-.19.04-.27.24-.32,1.58-.41,3.1-1,4.52-1.81.14-.08.23-.04.33.04.74.51,1.46,1.04,2.18,1.65"/>
      <path class="cls-1" d="m14.58,13.72c.04-.33.07-.68.11-1.03.02-.15.08-.27.2-.37.97-.84,1.81-1.78,2.5-2.86.08-.13.2-.17.32-.22.69-.27,1.31-.23,1.92.25.52.41.54.2.21.81-1.02,1.88-2.4,3.46-4.08,4.77-.16.12-.24.15-.36-.04-.22-.33-.47-.64-.71-.95-.08-.1-.14-.21-.11-.36"/>
      <path class="cls-1" d="m14.32,12.18c-.39-.04-.82-.08-1.24-.11-.13,0-.21-.07-.29-.15-.42-.4-.83-.8-1.26-1.19-.12-.11-.18-.17,0-.29,1.31-.83,2.47-1.84,3.49-3.01.09-.1.17-.12.29-.07.43.18.85.37,1.29.53.21.08.24.26.31.42q.35.87-.22,1.62c-.58.77-1.23,1.48-1.96,2.12-.11.09-.21.18-.4.13"/>
      <path class="cls-1" d="m10.62,23.28c.15.19-.2.16-.14.31-.19,0-.32.2-.53.14l-.13-.05-.02.03.15.03c-.61.15-1.21.29-1.8.43.45.18.45.17.59.14.23-.06.44-.17.69-.17.34,0,.61.04.92.25.36.24.7.57,1.17.63.12.02.23-.03.33-.07.15-.05.28-.08.42,0l.09.04c.33-.14.71.08,1.02-.18.07-.06.2-.08.18-.22-.02-.15-.15-.11-.24-.12-.09-.01-.19.04-.25-.05l.02-.09c.08-.09.18-.06.28-.03.2.06.41.11.61.17l-.09.03.02.03.07-.05c.38.05.69-.14,1.02-.27.16-.06.13.03.15.1-1.89.85-3.87,1.42-5.92,1.73-1.12.17-2.26.26-3.39.27-.38,0-1.04-.57-1.09-.96-.02-.18-.04-.36-.05-.54-.06-.59-.06-.62.51-.65,1.84-.09,3.64-.4,5.41-.89"/>
      <path class="cls-1" d="m8.89,8.68c.78-.49,1.52-.99,2.2-1.57.24-.21.48-.42.71-.63.1-.09.2-.17.36-.12.93.26,1.85.52,2.81.89-.32.34-.61.66-.92.96-.8.78-1.67,1.47-2.6,2.09-.18.12-.3.12-.46-.02-.66-.57-1.37-1.09-2.11-1.6"/>
      <path class="cls-1" d="m11.38,6.15c.11.04.23.08.37.14-.65.64-1.34,1.18-2.07,1.68-.31.21-.63.54-.95.55-.3.01-.62-.33-.93-.51-.39-.23-.77-.47-1.19-.65l-.19-.11-.11-.04c-.11-.09-.24-.16-.38-.19l-.14-.07c-.14-.1-.3-.18-.47-.21l-.2-.1c-.13-.05-.12-.13-.07-.23l.12-.21.02-.03.04-.1c.03-.1.09-.2.08-.29-.04-.31.11-.35.37-.33.63.05,1.26.08,1.88.11h.14c.14.02.27.03.4.04l.14.03,1.38.18.12.03c.54.1,1.09.21,1.63.31"/>
      <path class="cls-1" d="m27.68,7.22c1.26-.55,2.51-1.11,3.77-1.65.07-.03.21-.23.27.03v.07s-.03.14-.03.14c-.09.11-.05.24-.05.36,0,.75-.02,1.49,0,2.24.01.47-.06.93-.15,1.38-.99-.17-1.99-.35-2.98-.52.21-.04.24-.17.19-.35-.1-.39-.13-.8-.5-1.07-.09-.06-.11-.15-.09-.27.03-.18.05-.4-.26-.24-.11.05-.17,0-.18-.12"/>
      <path class="cls-1" d="m3.82,7.23c.29-.05.58-.1.76-.38h0c.16-.04.31,0,.45.06.08.06.17.11.28.12l.2.1.14.06c.31.15.62.3.94.46.6.36,1.2.71,1.84,1.09-1.09.62-2.19,1.11-3.34,1.49-.41.13-.82.24-1.23.37-.17.05-.22.02-.22-.16,0-.76-.03-1.52-.04-2.28,0-.18.02-.37-.02-.54-.05-.23.03-.34.24-.39"/>
      <path class="cls-1" d="m9.19,2.73l-.04-.05c-.11-.08-.34.08-.35-.16,0-.19.17-.28.32-.36.7-.37,1.43-.66,2.17-.93.37-.14.73-.28,1.11-.43-.07-.12-.48-.12-.1-.32.2.07.3.29.52.35h0c.38.43.85.78,1.29,1.14.88.72,1.74,1.45,2.62,2.17l.03.07c-.19.05-.33-.07-.48-.13-1.79-.66-3.62-1.08-5.52-1.22-.52-.04-1.04-.08-1.56-.12"/>
      <path class="cls-1" d="m30.43,10.07l.2.02c.19.23.45.11.67.12.22.01.31.06.33.31.05.99,0,1.97.03,2.96.02.5-.07.99-.07,1.48,0,.14-.08.17-.2.17-.7-.5-1.34-1.08-1.99-1.63.16.01.21-.07.21-.23.02-.54-.03-1.08-.14-1.61-.08-.37-.22-.72-.23-1.11-.01-.22-.1-.56-.48-.55l-.1-.12c.43.05.86.09,1.3.14.16.04.3.2.48.04"/>
      <path class="cls-1" d="m21.25,7.14c1.11.84,2.1,1.73,3.01,2.72.08.09.11.18.08.28-.18.69-.39,1.36-.68,2.04-1.01-.92-2.04-1.75-3.16-2.47-.14-.09-.09-.17-.04-.28.32-.72.59-1.46.8-2.28"/>
      <path class="cls-1" d="m28.65,9.89l.1.12c.38-.01.47.33.48.55.02.39.16.74.23,1.11.11.53.16,1.07.15,1.61,0,.16-.05.24-.21.23h0c0-.09-.04-.14-.14-.14-.59-.37-1.08-.85-1.62-1.29-.84-.69-1.67-1.4-2.51-2.09-.08-.07-.1-.14-.11-.23l.02-.1c.06-.15.18-.19.33-.16.62.11,1.26.13,1.88.24.46.08.93.08,1.39.17"/>
      <path class="cls-1" d="m23.59,2.65c-.05.63-.21,1.24-.32,1.86-.1.6-.19,1.2-.3,1.79-.03.14.03.33-.2.37-.24.04-.27-.15-.33-.3-.49-1.12-1.01-2.22-1.46-3.35-.23-.56-.55-1.08-.71-1.67.15.03.11-.26.28-.18.62.28,1.21.62,1.83.91.4.19.77.47,1.22.56"/>
      <path class="cls-1" d="m12.24,6.06c.67-.71,1.28-1.41,1.8-2.18.09-.13.17-.14.31-.1.75.21,1.49.47,2.22.74.18.07.18.14.1.29-.41.7-.84,1.37-1.35,2-.08.11-.16.18-.31.12-.89-.34-1.8-.61-2.77-.87"/>
      <path class="cls-1" d="m1.31,9.11c.4-.55.81-1.09,1.19-1.66.13-.2.27-.28.5-.22.21.04.28.15.28.38,0,.94.03,1.88.06,2.82,0,.22-.04.3-.28.35-.96.19-1.93.32-2.96.38.33-.76.83-1.37,1.2-2.06"/>
      <path class="cls-1" d="m12.55,25.78l.07-.14c.73-.27,1.46-.53,2.18-.82,1.09-.44,2.13-.99,3.13-1.62.34-.22,1.01.06,1.1.45.1.42.17.84.27,1.26.06.26.01.44-.26.52v-.14c-.04-.13.16-.3,0-.37-.18-.07-.41-.1-.58.05-.13.11-.26.12-.41.12-.27,0-.55-.05-.7.28l-.18.06c-.86-.09-1.7.21-2.57.14-.17-.01-.33-.01-.49-.09-.22-.11-.48-.07-.68.06-.1.07-.16.18-.31.12l-.1.06c-.06.45-.24.11-.38.07l-.07-.02Z"/>
      <path class="cls-1" d="m23.59,2.65c-.45-.09-.82-.37-1.22-.56-.62-.29-1.21-.63-1.83-.91-.17-.08-.13.21-.28.18l-.02-.05v-.09s.04-.03.04-.03h-.02s-.01.03-.01.03h-.06c-.12-.32-.36-.59-.35-.95.18-.14.39-.14.6-.14,1.05,0,2.1,0,3.15,0,.2,0,.37.02.35.28v.06s-.01.2-.01.2c-.08.67-.2,1.32-.34,1.98"/>
      <path class="cls-1" d="m18.75,5.69c-.16.55-.33,1.08-.55,1.59l-.05.08c-.46.13-.91.37-1.4.25-.41-.1-.79-.33-1.2-.48-.2-.07-.17-.15-.07-.28.5-.62.94-1.28,1.32-1.98.09-.16.16-.21.34-.12.47.24.96.47,1.44.7.11.05.21.1.16.23"/>
      <path class="cls-1" d="m19.08,5.73c.67.36,1.3.78,1.92,1.21.13.09.1.19.07.3-.2.71-.44,1.4-.74,2.08-.06.14-.11.2-.26.09-.2-.14-.41-.29-.64-.39-.42-.19-.66-.48-.8-.93-.12-.37-.18-.69,0-1.07.19-.4.3-.85.46-1.29"/>
      <path class="cls-1" d="m29.61,14.21c.17.6-.09,1.17-.11,1.76,0,.32-.23.68-.35,1.03l-.18.13h.01s-.07-.15-.07-.15h0c-.01-.07.02-.16-.07-.2h0c0-.1.03-.21,0-.3-.07-.19-.03-.46-.32-.52-.61-1.43-1.35-2.79-2.2-4.1l.03-.03c.52.3.98.69,1.46,1.04.6.44,1.2.89,1.79,1.33"/>
      <path class="cls-1" d="m25.11,8.49v-.17c.86-.37,1.72-.74,2.57-1.1.01.11.07.18.18.12.31-.15.29.06.26.24-.02.12,0,.21.09.27.37.26.39.68.5,1.07.05.18.02.32-.19.35-1-.17-2-.34-2.99-.51-.11-.02-.22-.02-.33-.04l-.03-.13-.04-.1Z"/>
      <path class="cls-1" d="m23.87,6.89c-.08-.07-.17-.08-.26-.09.2-.61.17-1.26.27-1.89.08-.52.08-1.05.2-1.57.19-.16.36-.11.5.06.21.25.44.46.76.55.32.09.36.43.58.62-.61.73-1.21,1.47-1.82,2.2-.06.07-.12.13-.23.12"/>
      <path class="cls-1" d="m24.55,10.18l.05.05c.41.51.84,1.01,1.22,1.55.1.15.12.28.07.44-.11.33-.2.67-.31,1-.1.29-.46.4-.69.19-.34-.33-.67-.68-1-1.02-.06-.06-.1-.12-.05-.21.29-.61.43-1.27.64-1.91l.07-.09Z"/>
      <path class="cls-1" d="m19.72,1.22l-.14.07c-.13-.24-.38-.21-.59-.28-.78-.24-1.6-.27-2.4-.34-.85-.08-1.69,0-2.53.06l-.23-.03h-.19c-.22.37-.31.08-.48-.07-.18-.16-.43-.24-.72-.4.33-.04.59-.1.85-.1,1.62,0,3.25,0,4.87,0,.28,0,.56.1.84.08.18-.01.22.14.23.28.02.26.15.41.4.47l.09.27Z"/>
      <path class="cls-1" d="m26.92,15.92c-1.04-1.07-1.53-2.21-.72-3.59.4.59.79,1.24,1.13,1.91.05.1.03.2,0,.3-.13.45-.27.9-.41,1.38"/>
      <path class="cls-1" d="m27.51,14.58c.49.96.87,1.9,1.18,2.87.14.45-.15.85-.25,1.36-.43-.93-.86-1.76-1.37-2.55l-.04-.22c.16-.47.31-.94.48-1.45"/>
      <path class="cls-1" d="m4.5,4.36h-.14s-.07,0-.07,0c-.21-.07-.42-.12-.64-.04h-.16s-.22.04-.22.04l-.14.06c-.16,0-.28.1-.39.18-.12.09-.23.06-.35.02-.16-.17-.4-.21-.58-.35.92-.49,4.13-1.17,5.1-1.11-.66.24-1.28.47-1.84.84-.17.06-.31.15-.44.26l-.14.09Z"/>
      <path class="cls-1" d="m4.09,17.8l.13.02c.15.32.45.24.71.26.11,0,.3-.08.29.12,0,.14-.18.14-.3.15-.18.02-.39-.06-.58.1.63.11,1.25.19,1.86.14.29-.03.6-.13.9-.19.37-.07.75.01,1.11-.12.5-.18,1.05-.14,1.54-.41.18-.1.54-.12.82-.07-.55.3-1.17.39-1.76.53-1.42.34-2.86.47-4.31.49-.31,0-.39-.13-.41-.38-.01-.21,0-.43,0-.65"/>
      <path class="cls-1" d="m28.85,17.98c.34,1.08.52,2.08.68,3.1,0,.07.05.17-.07.19-.11.02-.16-.05-.19-.15-.18-.66-.41-1.31-.68-1.95-.05-.11-.04-.22,0-.33.08-.26.16-.51.27-.86"/>
      <path class="cls-1" d="m4.53,23.05l.06.03c.22.72.88.65,1.4.67.46.02.97.09,1.41-.1.33-.14.7-.22,1.01-.27.51-.07,1.04-.23,1.57-.12-.82.27-1.67.4-2.52.53-.85.14-1.71.2-2.57.24-.21,0-.3-.03-.31-.24-.01-.25-.03-.5-.05-.75"/>
      <path class="cls-1" d="m5.59,18.96c-.22.4-.64.22-.96.34-.11.04-.3-.08-.33.13-.02.18.1.3.27.33.29.06.23.17.05.29-.15.1-.23.21-.17.4.05.14-.06.14-.15.16-.04-.47-.09-.94-.14-1.41-.01-.13-.04-.24.17-.23.42.01.83,0,1.25,0"/>
      <path class="cls-1" d="m17.05,26.46c-.18-.39-.18-.38.3-.44.13-.02.27-.04.4-.04.1,0,.19-.04.18-.15-.02-.35.24-.37.47-.39.19-.02.38,0,.58,0-.61.4-1.2.85-1.93,1.01"/>
      <path class="cls-1" d="m31.38,15.14c.12,0,.2-.03.2-.17,0-.49.09-.98.07-1.48-.04-.99.02-1.97-.03-2.96-.01-.25-.1-.3-.32-.31-.23-.01-.49.11-.67-.12.3.03.61.06.91.07.22.01.17.17.17.29,0,1.2,0,2.41,0,3.61v1.32c-.16-.04-.25-.14-.33-.26"/>
      <path class="cls-1" d="m26.4,17.12c-.13-.08-.22-.15-.08-.32.16-.19.15-.38-.08-.54-.12-.08-.12-.23-.12-.37,0-.09.04-.22-.05-.25-.32-.08-.14-.26-.09-.41.23.32.46.64.69.96.07.09.08.17.03.28-.1.21-.16.44-.29.64"/>
      <path class="cls-1" d="m24.63,15.41c-.11-.08-.14-.18-.1-.32.14-.43.25-.86,0-1.28-.06-.1-.05-.22-.04-.33.49.46.55,1.28.14,1.93"/>
      <path class="cls-1" d="m31.5,9.78c.1-.46.17-.91.15-1.38-.02-.75,0-1.5,0-2.24,0-.12-.04-.25.05-.36,0,1.16,0,2.32.01,3.48,0,.14,0,.27.01.41v.06c-.06.11-.15.06-.23.04"/>
      <path class="cls-1" d="m4.32,20.67c.08.03.32-.11.16.17-.06.1.05.18.09.27.11.2.04.68-.13.85-.09-.42-.08-.86-.12-1.29"/>
      <path class="cls-1" d="m28.52,15.96c.29.06.25.33.32.52.03.09,0,.2,0,.3-.15-.26-.22-.55-.32-.82"/>
      <path class="cls-1" d="m4.44,22.09c.21.03.21.18.19.33-.02.16-.07.32-.11.48-.02-.27-.05-.54-.07-.82"/>
      <path class="cls-1" d="m25.95,15.22c-.22.08-.43.13-.58-.13.2.02.43-.12.58.13"/>
      <path class="cls-1" d="m4.3,16.71c0,.24-.06.45-.26.61-.07-.27.04-.46.26-.61"/>
      <path class="cls-1" d="m26.13,17.69c0-.21-.06-.45.25-.51-.06.18-.13.36-.25.51"/>
      <path class="cls-1" d="m30.43,10.07c-.18.16-.32,0-.48-.04.16-.01.32-.02.48.04"/>
      <path class="cls-1" d="m4.05,17.46c.14.05.14.12.03.21l-.03-.21Z"/>
      <path class="cls-1" d="m28.84,16.77c.09.05.06.14.07.21l-.07-.21Z"/>
      <polygon class="cls-1" points="25.24 15.09 25.2 15.21 25.14 15.15 25.24 15.09"/>
      <path class="cls-1" d="m29.26,13.36c.09,0,.14.05.14.14l-.14-.14Z"/>
      <path class="cls-1" d="m23.93.67v-.2s0,.2,0,.2Z"/>
      <path class="cls-1" d="m28.91,16.98l.07.14-.07-.14Z"/>
      <path class="cls-1" d="m7.91,2.78h.07s-.07,0-.07,0Z"/>
      <polygon class="cls-1" points="20.26 1.22 20.24 1.31 20.19 1.22 20.26 1.22"/>
      <polygon class="cls-1" points="26.26 11.8 26.23 11.75 26.25 11.8 26.26 11.8"/>
      <polygon class="cls-1" points="26.32 11.86 26.26 11.8 26.25 11.8 26.36 11.84 26.32 11.86"/>
      <path class="cls-1" d="m16.08,26.63c0,.1-.09.16-.16.19-.12.05-.1-.09-.12-.14-.05-.1,0-.14.1-.15.08,0,.16-.01.18.1"/>
      <path class="cls-1" d="m16.52,26.63c-.1.1-.18.08-.25-.01v-.06c.11-.07.18,0,.25.07"/>
      <path class="cls-1" d="m13.08,25.97c.11-.15.22-.14.38-.2-.12.18-.22.18-.38.2"/>
      <polygon class="cls-1" points="12.55 25.78 12.43 25.9 12.38 25.84 12.55 25.78"/>
      <path class="cls-1" d="m27.5,6.63c-.86.32-1.72.64-2.58.97-.14.05-.18,0-.25-.09-.1-.11-.06-.2.02-.3.48-.66.97-1.32,1.45-1.97.07-.1.15-.19.23-.28,0,.29.08.55.28.77.28.3.4.75.84.91"/>
      <polygon class="cls-1" points="9.96 23.73 9.81 23.7 9.83 23.68 9.96 23.73"/>
      <polygon class="cls-1" points="13.98 24.48 13.91 24.53 13.89 24.51 13.98 24.48"/>
      <polygon class="cls-1" points="20.26 1.22 20.27 1.2 20.29 1.2 20.26 1.22"/>
      <path class="cls-1" d="m71.12,6.5c0-.81.02-1.49,0-2.17-.02-.53.04-.83.71-.82.62.01.85.15.84.82-.04,2.76,0,5.52-.02,8.28,0,.35.07.99-.44.82-.96-.31-1.7.29-2.56.34-1.26.06-2.36-.62-2.88-1.8-.73-1.65-.44-4.06.6-5.15.85-.89,1.94-1.04,3.33-.46.1.04.2.07.42.15m0,3.16c0-.09,0-.43-.07-.76-.2-.79-.63-1.34-1.55-1.34-.89,0-1.22.53-1.43,1.3-.23.85-.14,1.63.17,2.42.3.77.9,1.17,1.69.92,1.08-.35,1.22-1.3,1.2-2.54"/>
      <path class="cls-1" d="m86.43,13.38c0,.77-.04,1.52.01,2.26.04.6-.27.66-.75.66-.47,0-.76-.02-.75-.64.03-2.94.03-5.89,0-8.83,0-.58.29-.85.73-.64.7.34,1.26-.03,1.88-.15,1.38-.29,2.64.38,3.21,1.7.5,1.15.53,2.36.24,3.55-.51,2.12-1.81,2.71-4.56,2.09m3.14-3.39c-.03-.38-.02-.73-.1-1.05-.19-.76-.51-1.49-1.43-1.49-.87,0-1.31.59-1.55,1.39-.23.8-.14,1.57.12,2.33.23.67.73,1.05,1.45,1.04.74-.01,1.17-.48,1.36-1.14.1-.35.1-.74.14-1.07"/>
      <path class="cls-1" d="m36.51,8.45c0-1.36.03-2.72-.01-4.09-.02-.6.09-.88.79-.85,1.21.06,2.42,0,3.63.03,1.54.04,2.47,1.1,2.5,2.77.03,1.78-.91,3.02-2.42,3.13-.68.05-1.37.06-2.04,0-.74-.08-.9.23-.86.9.06.75-.01,1.51.02,2.27.03.6-.11.88-.8.89-.67,0-.9-.22-.81-.84v-.11c0-1.36,0-2.72,0-4.09h0Zm3.01-.56c.36,0,.63-.02.89,0,.53.04.97-.1,1.23-.61.28-.54.27-1.09-.04-1.61-.31-.53-2.92-.95-3.38-.55l-.1.19c0,.79-.16,1.63.06,2.35.16.53.95.1,1.34.23"/>
      <path class="cls-1" d="m108.47,9.75c0,.6,0,1.21,0,1.81,0,.25-.09.63.21.7.83.18.66.84.43,1.19-.26.4-1,.51-1.32.16-.66-.73-1.18-.36-1.83-.07-1.31.59-2.79,0-3.2-1.22-.47-1.39.31-2.72,1.83-3.06.51-.11,1.04-.17,1.57-.22.45-.04.8-.12.82-.7.02-.54-.28-.79-.71-.86-.74-.12-1.52-.31-1.84.74-.21.69-.86.42-1.26.32-.44-.1-.19-.58-.12-.87.26-1.06,1.05-1.53,2.06-1.63,1.91-.19,3.69.24,3.34,2.8-.04.3,0,.6,0,.91h0Zm-1.54.47c-.35.06-.64.11-.93.17-.33.07-.66.15-.98.22-.61.14-.95.5-.77,1.13.18.62.7.72,1.27.6,1.07-.22,1.48-.83,1.42-2.12"/>
      <path class="cls-1" d="m47.13,6.61c1.03-.69,1.93-.81,2.87-.41.85.36,1.29,1.01,1.29,1.94,0,1.51-.02,3.02.02,4.53.01.58-.16.8-.77.8-.58,0-.81-.16-.79-.77.04-1.24,0-2.49.02-3.74,0-.76-.03-1.48-1.04-1.55-.85-.05-1.55.6-1.58,1.55-.05,1.21-.03,2.42-.02,3.62,0,.47.06.89-.66.89-.68,0-.8-.29-.8-.89.02-2.76.02-5.51,0-8.27,0-.53.06-.81.71-.82.73-.01.78.33.76.89-.03.67,0,1.35,0,2.22"/>
      <path class="cls-1" d="m64.77,9.75c0,.61,0,1.21,0,1.82,0,.25-.09.61.23.7.71.19.66.76.44,1.14-.26.46-.93.55-1.29.2-.67-.66-1.18-.38-1.86-.06-1.23.58-2.75-.02-3.15-1.13-.5-1.38.25-2.77,1.73-3.13.58-.14,1.19-.18,1.8-.25.33-.04.59-.14.64-.51.05-.35.04-.66-.32-.89-.69-.45-1.81-.29-2.12.46-.31.74-.87.6-1.3.45-.53-.19-.23-.71-.11-1.06.41-1.17,1.78-1.72,3.46-1.42,1.41.25,1.84.76,1.85,2.22,0,.49,0,.98,0,1.48h0Zm-2.07.57c-.77.35-2.08-.12-2.14,1.3-.03.66.6.88,1.16.74.81-.2,1.61-.5,1.62-1.59,0-.49-.19-.61-.64-.45"/>
      <path class="cls-1" d="m80.12,11.79c-.49,1.42-1.57,1.89-2.89,1.95-1.32.06-2.39-.43-2.93-1.68-.66-1.53-.61-3.08.17-4.58.64-1.22,1.73-1.62,3.04-1.52,1.3.1,1.99.89,2.35,2.1.68,2.29.65,2.36-1.71,2.36-.72,0-1.43.02-2.15,0-.54-.02-.65.18-.5.67.31,1.01,1.67,1.66,2.56,1.08.67-.44,1.3-.45,2.07-.37m-3.05-2.66c.45-.36,1.36.47,1.44-.49.07-.76-.51-1.34-1.37-1.33-.86,0-1.56.55-1.52,1.35.06.94.99.12,1.45.48"/>
      <path class="cls-1" d="m112.49,6.96c0-.14.02-.27.03-.41.06-.21.12-.42.19-.63.46-1.36,1.66-2.01,3.47-1.88,1.39.1,2.59,1.06,2.78,2.25.04.29.27.75-.28.8-.4.04-.94.3-1.09-.4-.04-.18-.09-.38-.19-.53-.57-.87-1.46-.88-2.33-.73-.58.1-1.04.48-1.06,1.15-.03,1.02.85,1.02,1.47,1.26,1.15.43,2.45.5,3.35,1.5l.09.15c.38.96.6,1.9-.14,2.81-.31-.05-.38.09-.28.36l-.15.15c-1.53.67-3.09,1.01-4.72.38l-.15-.11v-.08s-.1,0-.1,0l-.13-.15c.06-.27-.06-.36-.31-.33l-.21-.11-.03-.03c-.04-.15-.07-.3-.1-.46.13-.52-.15-1.14.43-1.53.14,0,.28.01.42.02-.15.42-.07.76.34,1l.1.18c-.07.16-.1.29.16.22l.17.16c.1.58.35.84.92.43.2.02.4.04.6.06.3.27.58.34.85-.04l.21-.13c.15.11.26.15.24-.11l.17-.14c.15.08.21.02.19-.14.62-1.21.45-1.68-.8-2.1-.57-.19-1.14-.39-1.72-.52-1.29-.29-2.15-.98-2.39-2.33"/>
      <path class="cls-1" d="m92.41,8.49c0-1.4.02-2.8-.01-4.2-.01-.57.13-.79.75-.79.66,0,.77.29.71.82-.01.11,0,.23,0,.34,0,.53-.18,1.21.07,1.55.35.47.89-.19,1.39-.23,1.56-.14,2.61.75,2.62,2.33.01,1.4.01,2.8,0,4.2,0,.46.15.97-.68.99-.89.02-.73-.52-.73-1.03,0-1.17,0-2.35,0-3.52,0-.79-.16-1.46-1.11-1.53-.82-.06-1.54.65-1.56,1.59-.03,1.17-.01,2.35-.01,3.52,0,.49.12.96-.69.98-.86.02-.76-.49-.76-1.03,0-1.32,0-2.65,0-3.97"/>
      <path class="cls-1" d="m134.88,13.75h-.11s-.08.06-.08.06c-.66-.09-1.33-.18-1.99-.27-.17-.16-.33-.32-.5-.47-.06-.1-.11-.2-.17-.3l.02-.07-.06-.04c.01-.65.03-1.3.04-1.95l.03-.04.16-.27c.11-.13.23-.26.34-.39.86-.42,1.79-.49,2.71-.63.63-.1.87-.8.49-1.24-.48-.55-1.83-.54-2.07.13-.29.82-.86.68-1.43.73h0c-.12-.54.05-1.03.2-1.53l.02-.03c.93-1.02,2.14-.94,3.36-.89h.03c1.06.46,1.52,1.22,1.39,2.4-.1.86-.04,1.74-.03,2.61,0,.32-.12.76.28.9.53.18.43.56.4.92-.05.57-.58.34-.89.47-.13-.03-.26-.05-.39-.08-.57-.98-1.15-.44-1.73,0m1.02-2.68c-.06-.22.13-.7-.39-.53-.79.25-1.94-.08-2.2,1.12-.13.62.38.85.91.88.93.04,1.68-.62,1.69-1.47"/>
      <path class="cls-1" d="m120.92,11.05c-.02-.15-.04-.29-.07-.44.06-1.43.26-2.81,1.42-3.84.14-.06.27-.12.41-.18.9-.11,1.79-.13,2.67.17l.03.02c.59.58,1.03,1.26,1.3,2.04.03.14.06.29.09.43,0,.6,0,1.2-.01,1.81-.03.14-.06.29-.09.43-.36.81-.7,1.63-1.6,2.03-1.89.85-3.41-.05-4.15-2.48m4.49-1.03c0-.07,0-.26-.03-.45-.16-.83-.52-1.57-1.43-1.66-.95-.09-1.37.62-1.58,1.45-.07.25-.13.51-.13.77-.01,1.17.78,2.29,1.6,2.28.86-.01,1.58-1.05,1.58-2.39"/>
      <path class="cls-1" d="m83.36,8.45c0,1.43-.02,2.86,0,4.29,0,.51-.11.76-.68.74-.52-.02-.83-.07-.82-.73.03-2.86.02-5.73-.01-8.59,0-.61.29-.66.76-.65.45,0,.79.01.77.64-.04,1.43-.01,2.86-.01,4.29"/>
      <path class="cls-1" d="m57.69,8.47c0,1.43-.02,2.87.01,4.31.01.56-.19.7-.72.71-.55,0-.71-.19-.71-.72.02-2.87.01-5.74,0-8.61,0-.49.17-.66.66-.64.45.02.78.02.76.65-.04,1.43-.01,2.87-.01,4.31h0Z"/>
      <path class="cls-1" d="m139.68,10.04c0-.79,0-1.58,0-2.37,0-.15.02-.3,0-.45-.07-.71.69-.68.79-.52.63,1.03,2.18-1.57,2.42.65.04.42-.14.6-.55.68-1,.19-1.3.92-1.31,1.83-.01.98-.03,1.96,0,2.94,0,.51-.14.72-.7.74-.64.02-.65-.32-.64-.77.01-.9,0-1.81,0-2.71"/>
      <path class="cls-1" d="m36.2,19c0-.11-.04-.24,0-.34.34-.7-.82-2.06.78-2.17,2.58-.17,3.4.43,3.47,2.24.08,1.87-.61,2.73-2.27,2.82q-2,.11-1.99-1.87c0-.23,0-.45,0-.68m.78.1c.12.51-.33,1.35.24,1.68.47.28,1.28.26,1.83-.16.8-.61.79-1.5.58-2.37-.23-.93-1-1.32-2.14-1.15-.97.14-.33.9-.5,1.34-.06.16-.01.37-.01.66"/>
      <path class="cls-1" d="m52.68,9.74c0-.94.02-1.88,0-2.82-.01-.48.05-.8.65-.76.48.03.88,0,.86.69-.04,1.96-.03,3.91,0,5.87,0,.6-.23.75-.8.77-.67.02-.73-.3-.71-.82.03-.98,0-1.96,0-2.93h0Z"/>
      <path class="cls-1" d="m101.54,9.84c0,.94-.02,1.89,0,2.83.01.51-.02.84-.7.84-.66,0-.82-.24-.81-.86.03-1.88.03-3.77,0-5.65-.01-.65.2-.83.84-.84.7,0,.68.37.67.86-.02.94,0,1.88,0,2.83"/>
      <path class="cls-1" d="m129.19,4.21c.42-.03.83-.1.82.56-.03,2.54-.04,5.09-.05,7.63-.19.3.07.88-.56.9-.7.03-.46-.61-.64-.95,0-2.19,0-4.38,0-6.57l.04-.05-.04-.05v-.59l.04-.05-.04-.05c.02-.3-.23-.7.31-.79l.06.04.06-.04Z"/>
      <path class="cls-1" d="m114.27,18.54c-.3-.91-.17-1.64.82-2.03,1.13-.44,2.17,0,2.8,1.15-.51.6-.69.1-1-.24-.41-.47-.96-.53-1.54-.3-.32.13-.49.38-.44.7.09.65.72.54,1.13.74.16.08.36.08.54.12,1.04.23,1.54.85,1.34,1.94-1.12,1.48-3,1.38-3.97-.23.06-.18.11-.36.17-.54h.05c.71.2.85,1.23,1.76,1.17.55-.04,1.11-.09,1.27-.7.17-.66-.4-.83-.86-.95-.73-.2-1.45-.36-2.06-.83"/>
      <path class="cls-1" d="m72.84,16.55c.1.11.22.21.31.32.23.3.78.61.35,1-.45.41-.57-.25-.82-.46-.14-.11-.3-.21-.47-.28-.79-.32-1.41-.06-1.84.63-.53.86-.32,2.42.39,2.92.72.5,1.39.44,2.03-.21.24-.25.27-1.02.83-.59.49.39-.13.75-.32,1.1-.05.1-.12.18-.18.28-.26.13-.59.22-.42.64l-.03-.06c-.1-.54-.48-.2-.71-.2-1.01,0-1.87-.23-2.31-1.25-.46-1.06-.53-2.14.18-3.1.67-.91,1.62-1.15,2.71-.82.11.03.22.05.33.07"/>
      <path class="cls-1" d="m63.41,22.14c0-.09-.02-.19-.03-.28.35-.06.66-.02.89.31.29.43.75.37,1.11.19.36-.18.63-.52.43-1.01-1.57.44-2.46-.2-2.48-1.71,0-.69.27-1.23.73-1.7l.2-.09c.13-.04.26-.09.39-.13.52-.05.96.39,1.52.17.38-.15.4.18.4.46,0,.83,0,1.66,0,2.48,0,2.15-.97,2.73-2.95,1.79-.07-.17-.14-.33-.21-.5m.62-2.34c-.03.53.15,1.18.98,1.18.77,0,.94-.69.95-1.31.02-.64-.18-1.28-.95-1.31-.76-.02-.99.56-.99,1.43"/>
      <path class="cls-1" d="m89.91,19.02c0-2.54,0-2.56,2.58-2.52.36,0,1.02-.28,1.03.26.02.58-.65.25-1.01.31-.37.06-.76.04-1.13,0-.61-.07-.76.2-.76.78,0,.59.16.83.77.75.33-.04.68-.04,1.02,0,.34.04.91-.22.94.31.03.61-.56.26-.88.33-.25.05-.53,0-.79,0-.54,0-1.09-.18-1.08.78,0,.88.43.87,1.04.85.53-.02,1.06,0,1.59,0,.25,0,.46.06.46.36,0,.32-.26.32-.49.32-.87,0-1.74-.04-2.61,0-.58.03-.7-.21-.67-.72.04-.6,0-1.21,0-1.82"/>
      <path class="cls-1" d="m107.76,21.28c-.08.96-.46,1.7-1.53,1.77-.86.05-1.59-.18-1.7-1.22.32-.02.55.09.81.29.86.68,1.41.42,1.61-.71-1.71.37-2.55-.3-2.48-1.92.04-.9.52-1.44,1.3-1.78.41.08.82.16,1.23.24l.22-.11c.38-.04.5.19.54.51,0,.3,0,.59,0,.89,0,.46,0,.92,0,1.38,0,.22,0,.44.01.66m-2.63-1.66c.02.69.17,1.33.95,1.35.87.02,1.02-.7,1-1.36-.01-.61-.17-1.28-1-1.25-.79.03-.9.67-.95,1.27"/>
      <path class="cls-1" d="m41.06,19.7c.02-1.15.52-1.79,1.51-1.9,1-.12,1.56.37,1.84,1.27.17.55.07.87-.6.82-.37-.03-.76-.05-1.13.01-.3.05-.9-.3-.84.35.05.51.47.87,1.06.77.28-.05.57-.15.73-.46.15-.28.5-.3.68-.11.23.25-.07.49-.23.66-.55.61-1.28.62-1.98.39-.84-.28-1.06-1-1.04-1.81m.79-.46c.35.02.69.08,1.01.03.27-.04.79.27.77-.29-.02-.46-.46-.68-.91-.64-.48.05-.83.3-.86.9"/>
      <path class="cls-1" d="m54.56,21.32c-1.83.72-2.26.58-2.83-.87-.69-1.73.53-2.93,2.5-2.55.48.45.96,1,.72,1.65-.25.66-.98.23-1.49.34-.14.03-.3-.01-.45,0-.21.02-.49-.11-.6.14-.11.26.04.52.24.7.45.41.93.49,1.39.02.24-.25.53-.6.82-.29.28.29-.2.56-.3.86m-.33-2.08c0-.45-.19-.63-.42-.77-.36-.21-.72-.17-1.06.08-.2.14-.37.37-.24.57.22.34.61.13.93.16.26.02.52-.02.8-.04"/>
      <path class="cls-1" d="m80.45,21.58c-.44-.33-.81-.7-.58-1.32.2-.56.65-.78,1.22-.83l.22-.05c.32-.16.81.06.96-.4.08-.23-.08-.43-.32-.52-.45-.17-.9-.24-1.21.22-.16.25-.3.43-.6.29-.28-.14-.13-.38-.1-.59l.16-.22.31-.23c.34-.05.67-.15,1.01-.16.89,0,1.58.26,1.5,1.35-.06.81.27,1.64-.11,2.44-.82-.44-1.63.36-2.45.03m1.86-1.43c-.09-.11,0-.42-.39-.28-.46.16-1.14-.08-1.32.61-.09.33.14.57.51.58.61.03.99-.26,1.19-.91"/>
      <path class="cls-1" d="m79.04,18.43c.45,1.44.43,1.46-1.01,1.46-.45,0-.89,0-1.36,0,.29,1.24.87,1.52,1.68.83.25-.21.43-.4.76-.31l.09.25c-.15.28-.13.67-.53.8-.62.2-1.25.19-1.88.06-.16-.13-.32-.25-.48-.38-.64-1-.45-1.98.05-2.96.96-.55,1.87-.6,2.7.26m-.53.82c.05-.41-.18-.62-.42-.78-.35-.23-.7-.15-1.05.08-.21.14-.38.36-.29.55.18.4.58.14.89.18.29.04.59-.02.88-.03"/>
      <path class="cls-1" d="m83.87,19.63v-.22c.38-.44-.78-1.54.68-1.52,2.44.04,2.44.03,2.44,1.73,0,.45,0,.9,0,1.36,0,.3.05.64-.42.61-.4-.02-.34-.32-.34-.58,0-.57,0-1.13,0-1.7,0-.47-.21-.85-.69-.88-.53-.04-.83.3-.86.83-.03.6-.02,1.21-.02,1.81,0,.31-.09.52-.44.5-.29-.02-.36-.23-.35-.47,0-.49,0-.98,0-1.47h0Z"/>
      <path class="cls-1" d="m101.4,21c-.77.8-1.68.89-2.53.28-.83-.6-.84-1.55-.5-2.45.45-1.19,1.43-1.13,2.44-.92l.22.25c.46.41.73.99.49,1.52-.2.46-.81.15-1.23.21-.18.03-.39-.04-.57,0-.26.06-.68-.21-.74.25-.05.36.21.65.53.81.52.25.96.1,1.29-.36.2-.27.45-.3.67-.1.07.07-.04.33-.07.51m-1.41-1.69c.29-.12.83.18.81-.32-.02-.41-.44-.69-.92-.65-.41.03-.83.28-.79.67.05.58.62.13.9.3"/>
      <path class="cls-1" d="m109.95,20.54c.37-.98.65-1.67.89-2.37.1-.28.3-.37.52-.3.32.1.16.36.08.56-.46,1.24-.92,2.47-1.4,3.7-.15.4-.41.72-.84.86-.23.08-.48.09-.6-.13-.17-.32.02-.41.34-.52.71-.25.68-.81.46-1.4-.33-.85-.66-1.69-.98-2.54-.07-.19-.23-.46.12-.54.22-.05.43,0,.52.28.24.71.51,1.4.89,2.4"/>
      <path class="cls-1" d="m134.93,19.74c-.01,1.23-.62,1.88-1.77,1.88s-1.7-.71-1.68-1.96c.02-1.23.65-1.9,1.76-1.88,1.08.02,1.7.74,1.69,1.96m-.66-.13c-.09-.61-.25-1.26-1.08-1.25-.8.02-1.05.6-1.04,1.32.02.74.21,1.4,1.11,1.36.84-.04.93-.72,1.01-1.43"/>
      <path class="cls-1" d="m121.22,17.92c1.1,1.29,1.1,2.31,0,3.54-.74.06-1.52.54-2.2-.18.04-.16-.04-.24-.18-.29-.07-.13-.15-.27-.22-.41-.11-.86-.12-1.71.43-2.45.69-.42,1.42-.44,2.18-.22m.1,1.52c0-.51-.28-1.08-1.06-1.08-.82,0-1,.62-1.01,1.32,0,.7.15,1.34.98,1.36.89.03,1.07-.64,1.09-1.6"/>
      <path class="cls-1" d="m139.96,17.89c.63-.11,1.27-.24,1.85.18.22.16.45.35.34.64-.09.23-.37.21-.6.2-.26-.41-.56-.77-1.13-.54-.19.08-.32.22-.28.42.12.52.64.4.98.56.09.04.21.04.32.05.7.35,1.22.8.7,1.64-.46.73-1.82.83-2.48.14-.09-.1-1.16-.36-.19-.84.48-.08.57.42.87.6.31.18.67.18.98.03.13-.07.25-.31.24-.47-.02-.39-.41-.38-.66-.51-.1-.05-.23-.03-.33-.07-1.28-.39-1.46-.98-.61-2.03"/>
      <path class="cls-1" d="m138.64,19.87c0,.23.02.46-.03.68-.07.35.25,1-.37.97-.57-.03-.27-.67-.31-1.04-.05-.41,0-.83-.01-1.24,0-.48-.2-.84-.71-.84-.51,0-.86.29-.89.83-.03.64-.01,1.28-.02,1.93,0,.25-.06.43-.38.41-.26-.02-.3-.18-.3-.38,0-.98,0-1.97,0-2.95,0-.21.08-.41.32-.34.73.22,1.46-.33,2.18.01.66.53.41,1.3.53,1.97"/>
      <path class="cls-1" d="m124.45,21.29c-.3-.98-.15-1.98-.19-2.98-.02-.55.34-.46.67-.42,0,.68.02,1.36,0,2.04-.01.54.08,1.07.72,1.06.61,0,.87-.46.92-1.08.05-.7-.23-1.43.19-2.09.94.2.23.99.52,1.43-.02.76-.04,1.52-.06,2.28-.48-.1-.96-.31-1.39.11-.43-.22-1.12.58-1.37-.35"/>
      <path class="cls-1" d="m94.49,19.66v-.11q0-1.58,1.49-1.74c1-.11,1.46.29,1.48,1.33.02.64.01,1.28,0,1.92,0,.22,0,.47-.32.48-.31,0-.35-.22-.35-.46,0-.6-.02-1.21,0-1.81.01-.55-.24-.91-.78-.88-.48.03-.83.34-.84.89,0,.6,0,1.21,0,1.81,0,.22.04.48-.31.47-.29,0-.38-.16-.38-.43.01-.49,0-.98,0-1.47"/>
      <path class="cls-1" d="m49.61,20.6c.36-.96.63-1.66.88-2.37.11-.29.3-.48.59-.37.46.17.08.44.01.63-.29.82-.61,1.62-.91,2.44-.1.28-.13.6-.54.63-.43.03-.46-.32-.57-.58-.33-.84-.65-1.69-.95-2.54-.07-.18-.3-.43.03-.56.3-.12.51.03.62.33.25.71.49,1.42.83,2.39"/>
      <path class="cls-1" d="m61.46,17.71c.93.24,1.29.85,1.23,1.8-.04.66,0,1.33,0,2-1.33.13-.38-.95-.71-1.35,0-.48.21-.99-.15-1.44l-.25-.21c-.6-.32-.93-.05-1.13.51-.22.68-.1,1.38-.15,2.07-.04.58-.28.64-.64.19.02-.93.03-1.87.07-2.81.01-.25-.09-.76.4-.53.49.23.74-.13,1.09-.25h.25Z"/>
      <path class="cls-1" d="m55.76,21.5c-.03-1.16-.05-2.33-.08-3.49.66-.12,1.32-.2,1.99-.11.04.36.04.68-.48.66-.63-.03-.69.43-.73.9-.13.67-.14,1.34,0,2h0s-.21.15-.21.15l-.1.02c-.13-.04-.27-.09-.4-.13"/>
      <path class="cls-1" d="m102.24,21.06l.04-3.15c.67-.01,1.33-.03,1.99-.04.04.22.09.59-.12.6-1.37.08-1.05,1.09-1.08,1.9-.02.38,0,.75,0,1.13-.46.21-.78.15-.83-.43"/>
      <path class="cls-1" d="m128.8,16.66c.44.32-.19,1.19.69,1.32.17.02.07.31-.06.34-.7.14-.39.67-.45,1.06-.13.83.09,1.54.69,2.12-.46.1-.91.12-1.3-.22-.03-.15-.06-.29-.09-.44,0-.53,0-1.06,0-1.59.24-.61-.56-1.22,0-1.83.02-.36.13-.66.53-.76"/>
      <path class="cls-1" d="m45.84,19.05v2.03c0,.23-.02.46-.33.47-.31.01-.36-.19-.37-.44,0-1.39,0-2.78,0-4.16,0-.23,0-.47.32-.47.28,0,.38.17.38.44,0,.71,0,1.43,0,2.14h0Z"/>
      <path class="cls-1" d="m123.34,16.52c0,1.45-.02,2.91,0,4.36.01.53-.12.79-.69.64h0c0-1.37-.02-2.73-.03-4.1-.19-.64-.25-1.17.71-.9"/>
      <path class="cls-1" d="m75.22,16.97c-.01,1.52-.02,3.03-.04,4.55-.29.07-.57.12-.72-.22.01-1.59.03-3.18.04-4.76.39-.1.73-.11.71.44"/>
      <path class="cls-1" d="m53.44,3.53c.61-.1.74.2.76.77.01.7-.37.65-.86.69-.71.05-.64-.37-.67-.85-.04-.62.29-.69.77-.61"/>
      <path class="cls-1" d="m101.52,4.23c.11.54-.06.8-.69.76-.5-.03-.84-.05-.82-.71.02-.56.13-.81.74-.78.5.03.91.04.76.73"/>
      <path class="cls-1" d="m46.75,19.56c.21-.49-.43-1.57.38-1.59.68-.02.17,1.05.28,1.63.08.44.02.9.02,1.35,0,.26.05.57-.33.59-.42.03-.34-.3-.34-.55,0-.45,0-.9,0-1.44"/>
      <path class="cls-1" d="m130.14,21.52c0-1,.01-2-.02-3-.02-.55.16-.77.71-.6,0,.98-.02,1.95,0,2.93,0,.47-.04.86-.67.68"/>
      <path class="cls-1" d="m58.14,17.88c1.21-.04.38.95.68,1.37-.01.59-.03,1.19-.03,1.78,0,.28-.03.53-.41.5-.34-.03-.26-.29-.27-.5-.02-.37-.03-.74-.04-1.11.02-.68.05-1.36.07-2.04h0Z"/>
      <path class="cls-1" d="m118.35,12.8c-.09.15-.18.29-.27.44l-.19.14c-.94.45-1.94.45-2.95.45-.14-.03-.29-.06-.43-.08-.24-.27-.73-.16-.88-.57,1.63.63,3.19.29,4.72-.38"/>
      <path class="cls-1" d="m128.76,12.35c.18.34-.06.97.64.95.62-.02.37-.6.56-.9.2.39.31.83-.1,1.08-.25.15-.73.18-.96.04-.43-.27-.29-.75-.14-1.17"/>
      <path class="cls-1" d="m112.89,10.18l.14.2c-.59.39-.31,1.02-.43,1.53-.3-.11-.1-.49-.35-.63.11-.42-.22-1.11.64-1.09"/>
      <polygon class="cls-1" points="128.76 5 128.8 5.05 128.76 5.09 128.69 5 128.76 5"/>
      <polygon class="cls-1" points="128.76 5.68 128.8 5.73 128.76 5.78 128.69 5.68 128.76 5.68"/>
      <path class="cls-1" d="m129.19,4.21l-.06.04-.06-.04c.04-.13.08-.14.12,0"/>
      <path class="cls-1" d="m114.22,11.96c.34.08.66.18.92.43-.57.4-.82.15-.92-.43"/>
      <path class="cls-1" d="m113.45,10.39c.42.23.31.64.34,1-.4-.24-.48-.58-.34-1"/>
      <path class="cls-1" d="m115.75,12.46c.29-.01.57-.02.85-.04-.27.37-.56.3-.85.04"/>
      <path class="cls-1" d="m118.77,12.29c.02.21-.05.35-.28.36-.1-.27-.03-.41.28-.36"/>
      <path class="cls-1" d="m112.91,12.65l.04-.15c.25-.03.37.07.31.33-.12-.06-.23-.12-.35-.19"/>
      <path class="cls-1" d="m116.81,12.29l.24-.11c.02.26-.09.22-.24.11"/>
      <path class="cls-1" d="m117.22,12.04c0-.13.08-.16.19-.14.02.16-.04.22-.19.14"/>
      <path class="cls-1" d="m113.9,11.57c.15,0,.19.09.16.22-.25.07-.23-.06-.16-.22"/>
      <polygon class="cls-1" points="113.48 13.08 113.39 13.07 113.38 12.99 113.47 12.99 113.48 13.08"/>
    </g>
  </g>
</svg>