<?xml version="1.0" encoding="UTF-8"?>
<svg id="Layer_2" data-name="Layer 2" xmlns="http://www.w3.org/2000/svg" viewBox="0 0 65.07 18.37">
  <defs>
    <style>
      .cls-1 {
        fill: #000;
      }
       .cls-1:hover {
    fill: #000; /* Change the fill color to black on hover */
  }
    </style>
  </defs>
  <g id="Layer_1-2" data-name="Layer 1">
    <g>
      <path class="cls-1" d="m7.27,0c.43.09.87.14,1.29.26,2.98.8,5.11,3.15,5.44,6.3.32,3.01-1.46,6.09-4.24,7.28-1,.43-2.05.47-3.12.43-.59-.02-1.18-.02-1.76,0-.42.01-.55-.11-.54-.52.01-.74,0-1.49,0-2.24v-.24c.01-.35.1-.43.44-.43.74,0,1.49,0,2.24-.02,1.67-.02,3.12-1.18,3.49-2.8.4-1.78-.69-4.11-3.1-4.45-1.87-.26-3.54,1.03-3.87,2.68-.12.64-.12,1.31-.12,1.96-.01,3.2,0,6.4,0,9.6,0,.19.01.37.02.56H.03l-.02-.14C0,14.55,0,10.88,0,7.2,0,6.41.11,5.63.37,4.88,1.18,2.49,2.77.91,5.25.28c.45-.11.92-.19,1.37-.28h.65Z"/>
      <path class="cls-1" d="m65.07,7.44c-.08.44-.13,1.02-.29,1.57-.3,1.01-1.01,1.6-2.03,1.84-.76.18-1.52.19-2.28.05-1.38-.25-2.12-1.01-2.39-2.47-.17-.89-.16-1.78.08-2.66.29-1.08.99-1.75,2.09-2.01.89-.21,1.77-.2,2.65.03,1.17.31,1.8,1.13,2.02,2.28.08.4.1.82.15,1.36m-5.5-.27c.04.38.07.68.11.99.15.99.65,1.48,1.63,1.6.91.11,1.69-.36,1.93-1.22.21-.74.23-1.49.06-2.24-.22-.97-.68-1.38-1.66-1.45-.95-.07-1.64.34-1.87,1.24-.1.38-.14.77-.19,1.08"/>
      <path class="cls-1" d="m9.98,6.96c.06,1.57-1.02,2.84-2.6,2.98-1.54.13-2.91-1.02-3.01-2.48-.13-1.86.94-3.01,2.51-3.14,1.57-.13,2.98.94,3.1,2.65"/>
      <path class="cls-1" d="m22.56,10.82h-1.48c0-.1-.02-.18-.02-.27,0-2.16,0-4.32,0-6.47,0-.24.06-.32.31-.32,1.2.01,2.39,0,3.59.02.81.01,1.55.19,2.04.94.73,1.13.36,2.88-.79,3.36-.49.2-1.06.24-1.6.28-.58.04-1.16.02-1.73,0-.24,0-.33.07-.32.32.02.6,0,1.2,0,1.79v.34Zm1.18-3.7v-.02c.32,0,.65.02.97,0,.63-.04.98-.41.98-1.02,0-.62-.29-.96-.95-1-.65-.04-1.31-.03-1.97-.04-.17,0-.22.08-.22.24,0,.54,0,1.08,0,1.62,0,.18.07.24.24.24.31,0,.63,0,.94,0"/>
      <path class="cls-1" d="m56.77,3.82c0,.33,0,.66,0,.99,0,.21-.14.18-.26.18-.68,0-1.35,0-2.03,0-1.14,0-1.59.34-1.81,1.46-.14.7-.14,1.42.04,2.13.14.55.49.92,1.06.96.86.06,1.72.06,2.58.08.42,0,.42,0,.42.41v.82c-.34,0-.65,0-.95,0-.8-.01-1.61.02-2.41-.06-1.21-.12-1.98-.85-2.29-2.01-.29-1.12-.26-2.24.16-3.32.38-1,1.18-1.53,2.21-1.6,1.07-.07,2.15-.02,3.27-.02"/>
      <path class="cls-1" d="m37.95,3.79v1.21h-.59c-.46,0-.92.01-1.38,0-.23,0-.31.07-.3.3.01.68,0,1.35,0,2.03v3.49h-1.54v-.33c0-1.71,0-3.41,0-5.12,0-.31-.09-.38-.38-.37-.53.02-1.06,0-1.59,0-.1,0-.19,0-.3-.01v-1.19h6.07Z"/>
      <path class="cls-1" d="m50.02,10.88c-1.07-.05-2.1-.03-3.12-.16-.91-.11-1.62-.99-1.68-1.95-.05-.83-.03-1.67-.04-2.5,0-.74,0-1.47,0-2.21,0-.22.05-.32.29-.31.3.02.61.02.91,0,.24-.01.29.08.29.31,0,1.39-.01,2.79,0,4.18,0,.28.04.58.16.82.17.36.53.53.92.55.66.03,1.31.03,1.97.02.23,0,.32.06.3.3-.02.28,0,.57,0,.94"/>
      <path class="cls-1" d="m39.11,3.77c.46,0,.87,0,1.28,0,.22,0,.2.13.2.27,0,1.04,0,2.08,0,3.12,0,.46-.02.92.03,1.38.07.7.42,1.04,1.12,1.09.62.04,1.25.03,1.88.02.27,0,.37.07.35.35-.02.27,0,.54,0,.85-.31,0-.58,0-.85,0-.63-.01-1.26.03-1.88-.05-1.38-.17-2.1-1.03-2.12-2.42,0-.93,0-1.86,0-2.79v-1.8"/>
      <rect class="cls-1" x="29" y="3.78" width="1.52" height="7.04"/>
      <path class="cls-1" d="m17.31,18.17c-.17-5.98-.17-11.96-.02-18,.29.54.31,17.24.02,18"/>
      <path class="cls-1" d="m32.19,13.5c.34.23.39.53.27.85-.12.31-.41.36-.71.36-.38,0-.76,0-1.15,0-.19,0-.26-.07-.25-.26,0-.64,0-1.27,0-1.91,0-.19.07-.26.26-.26.37,0,.75,0,1.12,0,.3,0,.59.04.72.35.13.32.07.62-.25.86m-.83.21h0c-.1,0-.2.01-.29,0-.16-.01-.21.08-.19.22.02.13-.09.35.17.36.22.01.45,0,.67-.04.09-.02.23-.17.22-.24-.01-.1-.12-.23-.23-.28-.09-.05-.23-.02-.34-.03m-.46-.97v.54c.27,0,.53.03.78-.01.1-.02.22-.18.24-.29.01-.06-.16-.21-.26-.23-.25-.03-.5-.01-.76-.01"/>
      <path class="cls-1" d="m22.77,14.27v-.54c-.21,0-.41-.02-.64-.03v-.42c.35,0,.7,0,1.04,0l.13.15c.01.41,0,.82,0,1.31-.56-.03-1.1-.02-1.62-.1-.18-.03-.38-.25-.48-.43-.23-.43-.19-.89-.03-1.34.12-.32.37-.51.71-.54.41-.03.82-.03,1.23-.02l.18.19c.04.13-.03.22-.19.21-.27,0-.55,0-.82,0-.39,0-.57.16-.63.55-.02.14-.02.29,0,.44.04.41.22.57.63.57.15,0,.31,0,.49,0"/>
      <path class="cls-1" d="m64.48,13.72h-.65v-.41h1.2c0,.43,0,.84,0,1.25l-.18.16c-.38.01-.77.02-1.15,0-.53-.03-.86-.39-.9-.98-.01-.2,0-.41.04-.61.1-.52.37-.77.9-.81.37-.03.75,0,1.12-.01.16,0,.22.09.18.22l-.18.18c-.29.02-.59,0-.88.01-.34,0-.51.15-.57.48-.03.19-.03.39-.01.59.04.33.22.48.55.49h.12q.5,0,.43-.55"/>
      <path class="cls-1" d="m53.19,13.76c.17.29.35.59.53.9-.47.12-.53.1-.73-.27-.09-.15-.16-.31-.27-.46l-.22-.15c-.43-.06-.47-.02-.47.41v.24c.02.19-.02.29-.25.29-.21,0-.26-.09-.26-.28,0-.63,0-1.25,0-1.88,0-.18.05-.27.25-.27.37,0,.74,0,1.12,0,.41.01.64.15.72.44.11.4,0,.71-.33.94l-.07.09Zm-.7-.42c.11,0,.25.01.36-.04.11-.06.25-.19.25-.29,0-.1-.16-.23-.27-.26-.14-.05-.31,0-.47-.02-.26-.03-.33.07-.33.33,0,.38.26.25.47.28"/>
      <path class="cls-1" d="m29.25,13.51c0,1.06-.91,1.63-1.86,1.13-.21-.11-.41-.36-.47-.59-.09-.31-.07-.65-.04-.98.04-.43.32-.72.73-.77.35-.04.74-.05,1.06.07.51.18.58.66.57,1.14m-1.88-.02c.04.18.06.37.12.54.1.25.32.32.58.32.25,0,.45-.1.54-.33.13-.33.16-.68-.02-1-.08-.15-.28-.29-.44-.32-.47-.1-.75.22-.78.8"/>
      <path class="cls-1" d="m61.18,13.93c0-.45,0-.82,0-1.2-.01-.46,0-.48.52-.39v.89c0,.38,0,.77,0,1.15,0,.12-.07.32-.12.32-.2.01-.43.12-.57-.15-.23-.43-.48-.85-.72-1.28-.04-.08-.1-.15-.19-.29,0,.52,0,.97,0,1.41,0,.2-.02.33-.28.32-.25,0-.26-.13-.26-.32,0-.59,0-1.18,0-1.76,0-.11.08-.32.12-.32.21,0,.47-.14.63.15.24.43.48.85.73,1.28.03.05.06.09.14.19"/>
      <path class="cls-1" d="m47.08,13.52c0,1.07-.98,1.64-1.92,1.1-.45-.26-.5-.71-.5-1.15,0-1.04,1.02-1.6,1.93-1.07.43.25.5.67.49,1.12m-.55-.02c0-.45-.15-.72-.45-.81-.37-.11-.71.08-.82.46-.15.53.05,1.09.42,1.18h.09c.5.05.76-.23.76-.83"/>
      <path class="cls-1" d="m42.34,14.71c-.2,0-.39,0-.59,0-.17,0-.28-.02-.27-.23,0-.2.11-.22.27-.21.35,0,.7,0,1.06,0,.18,0,.34-.04.34-.27,0-.22-.16-.27-.34-.27-.25,0-.51,0-.76,0-.43-.02-.64-.25-.65-.67,0-.44.19-.71.62-.74.46-.03.92-.01,1.38-.02.17,0,.25.09.2.23l-.2.2c-.36.02-.73,0-1.09.02-.12,0-.27.09-.33.18-.11.17.04.36.26.37.28.01.57,0,.85.02.44.03.62.23.63.65.01.42-.19.68-.6.73-.25.03-.51,0-.76,0h0Z"/>
      <path class="cls-1" d="m35.91,14.66c-.5.11-.54.1-.7-.32-.06-.16-.15-.21-.3-.2-.13,0-.26.01-.38,0-.31-.04-.51.04-.6.38-.08.32-.35.16-.6.17.26-.62.5-1.2.75-1.78.05-.11.1-.21.14-.32.06-.2.16-.3.39-.3.24,0,.34.11.42.31.28.68.58,1.36.88,2.07m-.96-.97c-.11-.29-.22-.55-.32-.82h-.07c-.1.26-.19.52-.3.82h.69Z"/>
      <path class="cls-1" d="m48.7,12.34c0,.47,0,.95,0,1.43,0,.45.16.59.61.57.27-.01.43-.14.44-.41.02-.41.02-.82.02-1.24,0-.43,0-.43.48-.37,0,.62.04,1.25-.01,1.86-.03.41-.53.61-1.22.55-.51-.04-.81-.28-.83-.7-.02-.32-.01-.65-.02-.97,0-.13,0-.26,0-.38,0-.43.03-.45.52-.34"/>
      <path class="cls-1" d="m56,14.72h-.03c-1.13,0-1.65-.8-1.21-1.85.11-.27.32-.47.6-.51.38-.05.76-.04,1.14-.04l.14.22-.16.17c-.2.02-.41,0-.62.01-.39,0-.57.17-.62.56l-.02.15c-.05.7.12.89.82.89.11,0,.22,0,.32,0,.15,0,.29-.02.29.22,0,.21-.13.2-.28.2-.13,0-.25,0-.38,0"/>
      <path class="cls-1" d="m36.77,13.16c0-.2,0-.39,0-.59-.01-.19.04-.29.26-.29.22,0,.29.08.28.29-.01.4,0,.8,0,1.2,0,.36.16.51.52.54.12,0,.24,0,.35,0,.14,0,.31-.05.3.2,0,.25-.18.18-.32.19-.16,0-.31,0-.47,0-.59,0-.88-.28-.91-.87-.01-.22,0-.45,0-.68h0Z"/>
      <path class="cls-1" d="m26.06,14.32c.09.29.02.42-.26.39-.24-.02-.49,0-.73-.03-.35-.05-.6-.3-.61-.65-.02-.52,0-1.04-.02-1.56,0-.2.13-.18.26-.19.14,0,.25.01.25.2,0,.42,0,.84,0,1.27,0,.39.16.55.56.56.18,0,.37,0,.56,0"/>
      <path class="cls-1" d="m58.31,13.55c0,.31-.01.63,0,.94.01.22-.11.23-.27.23-.17,0-.27-.03-.27-.24.01-.65.01-1.29,0-1.94,0-.23.11-.25.29-.25.19,0,.26.06.26.26-.01.33,0,.67,0,1"/>
    </g>
  </g>
</svg>