<?xml version="1.0" encoding="UTF-8"?>
<svg id="Layer_2" data-name="Layer 2" xmlns="http://www.w3.org/2000/svg" viewBox="0 0 55.08 68.72">
  <defs>
    <style>
      .cls-1 {
        fill: #000;
      }
       .cls-1:hover {
    fill: #000; /* Change the fill color to black on hover */
  }
    </style>
  </defs>
  <g id="Layer_1-2" data-name="Layer 1">
    <g>
      <path class="cls-1" d="m28.03,68.72h-.06c-.12-.07-.24-.15-.38-.21-4.97-2.28-9.64-5.07-14-8.36-2.61-1.97-4.9-4.23-6.78-6.91-1.36-1.93-2.51-3.98-3.3-6.21-.36-1-.64-2.03-.72-3.09-.12-1.62-.23-3.25-.34-4.88-.14-2-.27-4-.41-6.01-.12-1.71-.23-3.43-.35-5.14-.14-2.01-.27-4.02-.41-6.03-.11-1.7-.23-3.41-.34-5.11-.16-2.3-.31-4.6-.47-6.9-.12-1.87-.25-3.74-.37-5.6-.01-.16-.07-.31-.1-.47v-.29c.09-.01.19-.01.28-.04.42-.1.84-.21,1.26-.31,2.41-.59,4.83-1.11,7.27-1.52,1.59-.26,3.18-.51,4.78-.73,1.31-.18,2.62-.31,3.94-.43,1.47-.13,2.94-.25,4.42-.32,1.56-.08,3.12-.11,4.69-.13,2.2-.03,4.4,0,6.6.14,1.79.12,3.58.27,5.37.44,1.3.13,2.61.29,3.9.49,1.63.25,3.25.54,4.87.85,2.53.49,5.03,1.11,7.5,1.84l.21.08c0,.1,0,.17,0,.25-.04.65-.07,1.29-.12,1.94-.06.94-.13,1.89-.19,2.83-.09,1.3-.18,2.6-.27,3.9-.06.93-.13,1.87-.19,2.8-.09,1.29-.18,2.58-.27,3.87-.07.94-.13,1.89-.19,2.83-.09,1.27-.18,2.54-.27,3.81-.08,1.23-.17,2.46-.25,3.7-.11,1.53-.22,3.06-.32,4.59-.09,1.25-.17,2.5-.25,3.76-.11,1.63-.23,3.25-.34,4.88-.06.93-.19,1.84-.44,2.74-.55,1.95-1.38,3.79-2.38,5.54-1.32,2.3-2.89,4.41-4.82,6.23-1.04.99-2.14,1.92-3.24,2.85-2.06,1.74-4.3,3.23-6.65,4.56-2.18,1.23-4.38,2.4-6.57,3.59-.1.05-.18.13-.27.2M51.68,6.8c-.1-.03-.18-.07-.26-.09-4.22-1.33-8.54-2.25-12.93-2.8-1.67-.21-3.34-.35-5.01-.49-1.9-.16-3.8-.21-5.7-.22-2.24-.01-4.48.05-6.71.22-1.39.11-2.79.21-4.18.37-1.72.21-3.44.46-5.16.73-2.39.37-4.76.89-7.11,1.47-.39.1-.78.2-1.17.3v.22c.08,1.14.16,2.27.24,3.41.1,1.52.21,3.04.31,4.56.12,1.77.26,3.54.38,5.31.11,1.51.2,3.02.31,4.53.14,2.04.29,4.08.44,6.12.12,1.63.23,3.25.34,4.88.14,2.07.28,4.14.43,6.21.04.51.07,1.02.14,1.53.17,1.3.55,2.54,1.05,3.75,1.5,3.61,3.78,6.67,6.72,9.24,2.82,2.46,5.86,4.62,9.06,6.56,1.5.91,3.05,1.74,4.68,2.4.22.09.39.07.59-.03,3.89-2.01,7.55-4.36,11-7.04,1.83-1.43,3.57-2.95,5.05-4.75,1.63-1.98,3-4.11,3.95-6.51.47-1.19.84-2.41.97-3.68.12-1.19.19-2.38.28-3.58.09-1.22.17-2.45.25-3.67.09-1.31.18-2.62.28-3.93.06-.9.12-1.81.19-2.71.09-1.29.18-2.58.27-3.87.07-.92.13-1.85.19-2.77.09-1.24.18-2.48.26-3.73.09-1.23.17-2.46.25-3.7.09-1.32.18-2.64.28-3.96.07-.95.14-1.91.21-2.86.03-.48.06-.96.09-1.45"/>
      <path class="cls-1" d="m50.62,7.71c-.02.36-.04.7-.07,1.03-.11,1.45-.22,2.91-.32,4.36-.06.88-.12,1.75-.19,2.63-.09,1.25-.18,2.5-.28,3.75-.08,1.18-.17,2.37-.25,3.55-.09,1.2-.18,2.41-.26,3.61-.07.9-.13,1.81-.19,2.71-.09,1.22-.18,2.44-.27,3.67-.07.89-.13,1.77-.19,2.66-.09,1.25-.18,2.5-.27,3.75-.06.82-.12,1.64-.18,2.45-.15,1.89-.63,3.7-1.41,5.43-.88,1.97-2.1,3.73-3.5,5.36-1.41,1.64-3.03,3.05-4.73,4.38-2.77,2.16-5.65,4.14-8.73,5.82-.54.29-1.1.56-1.64.85-.18.1-.34.11-.54.04-1.14-.4-2.22-.93-3.27-1.52-2.21-1.24-4.28-2.69-6.29-4.22-1.63-1.25-3.24-2.53-4.72-3.96-1.75-1.71-3.26-3.61-4.38-5.79-1-1.95-1.63-4.02-1.81-6.21-.1-1.28-.19-2.56-.28-3.84-.11-1.45-.22-2.91-.32-4.36-.09-1.19-.17-2.39-.25-3.58-.09-1.2-.18-2.4-.27-3.61-.07-.91-.13-1.81-.19-2.72-.09-1.22-.18-2.44-.27-3.67-.06-.89-.13-1.77-.19-2.66-.09-1.25-.18-2.5-.27-3.75-.09-1.18-.17-2.37-.25-3.55-.07-.93-.14-1.87-.21-2.8v-.22l.18-.06c2.04-.54,4.1-1.01,6.18-1.38,1.65-.29,3.31-.56,4.97-.79,1.33-.18,2.67-.3,4-.43,2.05-.2,4.1-.28,6.16-.33,1.76-.04,3.51-.02,5.27.08,1.3.07,2.6.14,3.9.26,1.27.11,2.53.28,3.79.44,1.8.23,3.58.56,5.36.94,2.03.43,4.03.96,6.01,1.58.06.02.12.05.21.08m-31.69,17.86c-.52-.1-1.03-.12-1.53-.03-1.06.18-2.08.5-3.08.88-.7.26-1.38.55-2.02.92-.16.1-.27.2-.26.41,0,.11-.02.23-.05.34-.13.47-.55.66-.99.44l-.1-.05c-.12-.08-.25-.08-.39-.04-.13.04-.27.05-.4.04-.25-.02-.47-.12-.57-.38-.1-.25-.13-.52.07-.74.18-.2.28-.42.36-.67.13-.4.47-.56.88-.44.1.03.2.07.3.11.19.07.27.04.32-.16.05-.18.08-.36.11-.54.15-1.03.58-1.93,1.21-2.75.38-.5.88-.83,1.48-1.01.16-.05.33-.06.49-.09l.03.06c-.11.11-.22.21-.32.32-.25.28-.52.55-.73.86-.41.61-.68,1.3-.86,2.01-.04.15-.03.32-.05.52.35-.13.64-.27.94-.34.33-.07.47-.26.55-.57.12-.47.34-.9.62-1.3.48-.68,1.09-1.2,1.89-1.46.13-.04.27-.05.4-.08l.03.06c-.8.74-1.44,1.58-1.61,2.73.29-.06.55-.14.82-.16.29-.02.45-.17.56-.42.23-.48.58-.89.97-1.25.28-.25.6-.42.97-.49.12-.02.26-.02.38-.02l.03.06c-.59.51-1.07,1.09-1.25,1.9.31.02.57.03.85-.03v-.8h8.23c.06-.45.04-11.11-.02-11.33-7.09,0-14.08.78-20.93,2.71.52,7.11,1.03,14.18,1.54,21.24.48.06,10.94.04,11.14-.02v-4.14c-.14-.05-.28-.12-.43-.15-.27-.06-.55-.11-.83-.14-1.04-.11-2.05,0-3.03.43-.97.42-1.77,1.09-2.58,1.75-.08.06-.11.19-.15.3l-.02.26c-.05.37-.46.62-.76.53-.2-.06-.42-.05-.63-.04-.19,0-.32-.05-.43-.19-.14-.17-.16-.36-.1-.57.06-.21.11-.43.15-.64.06-.37.41-.64.79-.49.18.07.37,0,.44-.16.03-.08.03-.19.03-.28-.04-.9.2-1.72.64-2.49.21-.37.49-.67.86-.87.14-.08.29-.15.49-.11-.3.46-.53.94-.68,1.45-.15.51-.31,1.02-.28,1.59.28-.17.51-.33.75-.46.13-.07.18-.17.22-.31.15-.47.31-.94.51-1.38.23-.49.63-.82,1.12-1.05.12-.06.25-.13.39-.07-.21.34-.42.67-.6,1.02-.19.35-.31.72-.35,1.13.24-.07.43-.13.63-.17.12-.02.18-.08.22-.19.08-.21.18-.41.28-.6.29-.51.68-.91,1.22-1.15.12-.05.24-.1.4-.07-.39.55-.74,1.08-.84,1.76.16,0,.27-.01.38,0,.31.05.53-.09.72-.33.35-.44.8-.74,1.3-1l.16-.09v-3.51Zm23.75,22.67l-.07.02-.05-.09c-.38-.89-1.05-1.46-1.93-1.8-.96-.37-1.96-.43-2.96-.32-1.14.13-2.26.41-3.35.75-.85.26-1.67.59-2.43,1.07-.15.09-.24.19-.28.39-.1.46-.32.54-.65.47-.17-.04-.32,0-.48.03-.27.06-.52,0-.71-.21-.18-.21-.2-.45-.07-.7.1-.18.13-.38.14-.58.02-.42.42-.66.81-.53l.13.05c.26.09.7-.13.75-.4.08-.36.14-.72.2-1.08l-.02-.13c-1.11.52-2.26.8-3.49.89v.37c0,5.27,0,10.54.01,15.81v.15c0,.06.02.12.04.22.18-.1.34-.17.49-.25,2.49-1.32,4.85-2.85,7.13-4.52,1.92-1.4,3.78-2.88,5.43-4.59,1.09-1.13,2.11-2.31,2.98-3.62,1.47-2.2,2.39-4.6,2.65-7.23.16-1.61.25-3.23.37-4.85.01-.18.02-.36.03-.55h-10.91l-.02.21c-.06.59-.08,1.18-.18,1.75-.35,1.99-1.26,3.69-2.76,5.06-.51.28-.62.77-.65,1.29,0,.15-.03.29-.04.43,0,.08,0,.17,0,.27.28-.1.53-.2.78-.28.14-.04.21-.12.26-.24.11-.23.21-.45.34-.67.45-.8,1.05-1.45,1.85-1.9.32-.18.66-.32,1.03-.34.14,0,.28-.02.4.05-.32.26-.64.49-.93.76-.4.37-.76.77-1,1.26-.07.15-.16.3-.15.49.53-.08,1.03-.16,1.53-.25l.18-.16c.15-.2.28-.42.44-.61.38-.45.84-.8,1.41-.97.2-.06.4-.11.67-.06-.11.09-.19.15-.26.21-.4.32-.71.71-.95,1.15-.05.09-.07.2-.12.32.58.03,1.12.13,1.59-.24.12-.09.28-.13.43-.18.41-.14.83-.18,1.25-.08.13.03.26.09.39.14-.25.1-.5.13-.73.21-.24.08-.49.18-.63.43l.2.09c.57.29,1.07.66,1.46,1.16.44.57.58,1.22.44,1.93m-7.23-23.86c-.58-.07-15.37-.04-15.59.03v.25c0,4.08,0,8.17,0,12.25,0,.77.06,1.54.24,2.3.46,1.98,1.5,3.57,3.24,4.64,2.2,1.35,4.56,1.59,7.01.79,1.9-.62,3.34-1.82,4.25-3.62.6-1.18.85-2.46.85-3.78,0-4.19,0-8.38,0-12.57v-.3M6.23,13.89c.12-.02.21-.03.31-.06,3.82-.94,7.68-1.61,11.59-2.02,2.11-.22,4.23-.37,6.35-.43,3.38-.09,6.75,0,10.12.32,1.82.18,3.64.4,5.45.7,2.91.48,5.79,1.12,8.62,1.97.1.03.2.05.33.08.18-2.02.36-4.02.54-6.02l-.21-.08c-3.31-1.01-6.68-1.74-10.1-2.25-1.76-.26-3.52-.48-5.29-.6-1.7-.11-3.39-.22-5.09-.26-3.49-.08-6.97.06-10.43.44-1.57.17-3.14.37-4.7.6-2.6.4-5.18.94-7.73,1.6-.08.02-.16.05-.26.08.16,1.97.33,3.93.49,5.91m22.06,9.51h20.1c.15-2.02.3-4.02.46-6.04h-20.56v6.04Zm-1.2,22.69c-.33-.03-.61-.05-.9-.1-1.5-.25-2.86-.83-4.09-1.74-.65-.48-1.22-1.04-1.64-1.74-.1-.17-.21-.21-.39-.21-3.8,0-7.61,0-11.41,0-.09,0-.19,0-.32.01.04.35.06.69.11,1.02.26,1.73.85,3.34,1.76,4.84.1.16.21.23.41.23,5.4,0,10.79,0,16.19,0,.09,0,.19,0,.28-.02v-2.29Zm9.37-10.16h10.99c.16-2.03.32-4.03.48-6.03l-.12-.03c-3.73,0-7.47,0-11.2,0l-.11.02-.02.02-.02.02v6Zm-9.32,18.97c-1.57,0-3.13-.02-4.69-.02-2.17,0-4.34,0-6.51,0l-.02.02v.03s.04.06.04.06c.11.1.23.21.35.3,2.17,1.83,4.47,3.48,6.87,5.01,1.17.75,2.37,1.45,3.63,2.04.09.04.19.08.33.14v-7.59Zm-8.2-25.12c-.29.23-.54.48-.72.81.25.12.48.22.72.33v-1.14Z"/>
      <path class="cls-1" d="m14.69,14.6l-.18.13c-.98.83-1.54,1.89-1.76,3.14-.07.39-.15.77-.23,1.2.12-.05.2-.08.27-.11.38-.15.74-.32,1.13-.45.22-.08.34-.19.4-.42.15-.6.38-1.17.68-1.72.43-.78,1.07-1.33,1.86-1.72.25-.12.52-.21.85-.2-.25.26-.48.48-.68.72-.21.26-.41.54-.58.83-.16.28-.29.59-.42.89-.12.3-.22.61-.25.97.25-.07.48-.14.71-.21.21-.06.47-.06.63-.19.16-.13.21-.38.32-.57.22-.36.43-.73.69-1.07.41-.52.94-.85,1.6-.95.09-.01.18,0,.35,0-.38.37-.76.65-.99,1.08-.22.42-.34.85-.46,1.33.42.03.82.06,1.24.09.68-.78,1.47-1.37,2.65-1.29l-.18.16c-.36.25-.69.53-.96.87-.12.16-.24.33-.25.56.76.55,1.48,1.14,1.89,2.03.07.15.1.32.1.51l-.11-.08c-1.14-1.1-2.52-1.51-4.07-1.47-1.07.03-2.09.31-3.1.65-1.38.47-2.67,1.14-3.93,1.88-.11.06-.16.15-.19.27-.05.19-.12.39-.21.57-.21.44-.66.63-1.11.47-.3-.1-.6-.18-.92-.2-.57-.04-.83-.59-.56-1.08.05-.09.13-.17.18-.26.08-.14.16-.29.2-.44.19-.7.64-.91,1.29-.57.14.07.25.1.36-.01l.1-.2c.1-.46.16-.93.29-1.39.17-.58.36-1.16.61-1.71.36-.78.94-1.38,1.69-1.81.3-.17.63-.29.98-.28l.05.07Z"/>
      <path class="cls-1" d="m33.57,48.54c-.72.68-1.23,1.44-1.38,2.47.22-.1.38-.19.56-.24.35-.1.57-.33.72-.65.2-.4.46-.76.78-1.07.56-.54,1.23-.77,2-.74.06,0,.11.02.24.04-.93.43-1.68.97-2.15,1.9.12-.01.2-.01.27-.02.15-.02.31-.09.46-.08.39.03.63-.18.86-.46.19-.23.41-.43.64-.62.31-.26.69-.39,1.1-.4.09,0,.18.02.35.03-.59.37-1.13.71-1.45,1.34.3.03.56.07.83.08.1,0,.21-.09.31-.15.38-.22.78-.38,1.23-.38.22,0,.42.04.62.24-.46.06-.89.12-1.19.53.1.06.19.1.27.16.29.2.58.38.85.6.3.25.48.57.54.96.02.09.01.18.02.28h-.08c-.68-.69-1.52-1.02-2.46-1.19-1.76-.31-3.41.03-5.02.73-.44.19-.87.41-1.26.67-.03.15-.03.29-.07.41-.09.28-.29.39-.56.29-.2-.07-.39-.1-.61-.07-.37.05-.62-.32-.47-.67l.14-.22c.05-.09.1-.18.12-.28.09-.38.41-.55.77-.4.28.11.45.04.55-.26.21-.63.43-1.26.82-1.81.32-.45.72-.8,1.26-.97l.25-.05h.14Z"/>
      <path class="cls-1" d="m33.57,53.61c-.38.33-.75.67-.9,1.17-.03.09-.01.18-.02.3.19-.04.34-.06.48-.12l.21-.18c.2-.23.38-.49.59-.71.26-.26.58-.4.97-.37l.11.04c-.39.26-.74.52-.88.99.33.01.61.05.88-.15.25-.18.54-.3.9-.24-.22.18-.47.28-.59.53.57.36,1.2.65,1.45,1.4-.09-.05-.14-.07-.18-.1-.27-.14-.53-.27-.8-.41-.7-.34-1.43-.37-2.17-.2-.97.21-1.87.6-2.74,1.07-.1.05-.17.12-.17.24l-.06.19c-.08.17-.22.29-.41.27-.23-.03-.46-.08-.69-.15-.16-.05-.22-.39-.12-.57.08-.15.16-.3.24-.45.09-.18.23-.25.45-.23.28.03.27.03.32-.25.05-.28.11-.57.2-.84.14-.42.42-.75.8-1,.14-.09.29-.19.5-.15-.41.56-.77,1.12-.74,1.86.25-.05.42-.16.51-.4.22-.53.55-.97,1.02-1.31.24-.17.5-.29.81-.26"/>
      <path class="cls-1" d="m31.83,32.58l.23.1c.21-.07.34-.24.42-.42.19-.44.5-.66.99-.66.21,0,.42-.05.61-.07-.03-.2-.07-.36-.06-.52,0-.17.08-.32.27-.38l.15.03v.13c-.18.2-.1.41-.02.62.09.26.04.33-.24.41-.22.06-.45.12-.66.2-.24.09-.39.27-.43.54.12.11.22.06.31-.02.11-.09.22-.19.34-.27.08-.05.18-.08.27-.09l.17.08-.09.16c-.09.09-.19.15-.29.24l-.08.15c.33.04.53-.31.85-.25-.08.17-.16.33-.25.52h.42c.05.19-.07.29-.17.38-.16.13-.28.28-.33.49l-.21.23c-.07.08-.14.16-.19.27.3.02.48-.27.78-.25.09.21-.08.37-.1.57.09.03.16.06.25.1,0,.14,0,.28-.03.42l-.16.18-.26.12c-.12.07-.12.18,0,.23.12.05.24.1.24.25,0,.16-.11.28-.26.32-.16.05-.35.09-.51.06-.29-.05-.57-.16-.85-.25l-.13-.07c-.13-.04-.21.03-.19.16l.05.16c.18.38.11.76-.07,1.11-.1.19-.21.37-.33.54-.36.5-.37.99,0,1.5.1.13.19.27.28.4.11.17.1.27-.05.41l-.26.22c-.38.32-.68.68-.79,1.18-.03.16-.15.25-.28.31-.18.08-.36.13-.54.2-.09.04-.17.09-.26.14.02.1.04.18.06.27.04.19.01.27-.15.36-.19.11-.39.19-.66.17.1-.45.14-.9.54-1.18l.09-.07c.53-.36.88-.88,1.24-1.39.18-.25.13-.7-.21-.83-.4-.16-.76-.37-1.07-.66-.16.06-.19.19-.19.31,0,.14,0,.29,0,.43.01.34.02.35-.29.49-.22.1-.44.19-.66.29-.3.14-.57.32-.77.59-.12.16-.27.24-.47.24l-.26.03c-.17.04-.24.11-.22.28.03.24-.1.36-.29.43l-.25.08c-.19.04-.27-.03-.22-.21.04-.19.09-.39.21-.53.26-.34.57-.63,1.01-.72.42-.08.78-.29,1.07-.59.39-.4.4-.86.06-1.3l-.2-.25c-.25-.34-.26-.4-.17-.83h-.29c-.59,0-1.17-.06-1.74-.22-.3-.08-.58-.19-.83-.4-.18-.15-.19-.13-.41-.02-.12.06-.27.11-.41.11-.53.02-1.03-.11-1.54-.24l-.14-.04c-.26-.06-.4.02-.42.29-.02.24-.02.48-.02.72l.08.15c.21.15.22.37.21.6v.14c-.01.3.03.35.33.35.18,0,.28.1.26.3-.01.19-.06.38-.23.53-.28-.08-.49-.23-.61-.52-.05-.12-.13-.25-.23-.32-.22-.16-.29-.38-.29-.63v-.09c.08-.55.02-1.09-.14-1.63-.1-.33.05-.5.39-.55.41-.06.82-.14,1.22-.21l.19-.07c-.11-.11-.22-.21-.32-.31-.32.08-.39.06-.55-.23-.1-.19-.17-.41-.26-.61-.05-.11-.1-.23-.18-.32-.2-.22-.46-.24-.69-.05-.22.17-.39.38-.33.69.02.14-.03.24-.12.34l-.14.15c-.17.17-.23.37-.13.61.1.24.07.32-.15.45-.11.06-.22.11-.34.16-.1.04-.18,0-.2-.1-.04-.2-.09-.41.04-.59.17-.23.23-.48.28-.75.03-.17.09-.36.19-.51.3-.45.62-.88.95-1.32.2-.27.31-.27.57-.06.11.08.2.18.31.26.16.11.32.22.49.3.24.11.34.05.4-.19.04-.17.08-.34.09-.51.02-.27.13-.5.3-.71.22-.25.44-.48.65-.73.12-.15.24-.3.34-.46.06-.1.09-.23.12-.34-.29-.19-.61-.14-.83.09l-.19.21c-.08.07-.19.1-.29.02v-.24c.02-.06.03-.12.06-.23-.15.04-.25.06-.36.09-.11.03-.2,0-.23-.11-.03-.1,0-.2.11-.23.12-.04.17-.11.2-.22l.12-.19c.17-.16.35-.3.52-.46.14-.13.29-.17.48-.13.15.03.3.08.47-.07-.16-.12-.32-.24-.47-.35.02-.21.15-.29.33-.32h.23c.28.02.56-.02.79-.18l.04.05c-.08.27.05.42.25.58.61.47.87,1.12.95,1.85.03.31.03.62.05.92l.04.16c.27-1.12.16-2.16-.68-3.03l-.2-.21c-.14-.16-.03-.54.18-.59l.15.08.02.2c.16.12.32.12.5.08.2-.04.4-.08.6-.11l.2.09-.18.09-.2.1-.03.16.14.08.25-.04c.26-.04.51-.07.77-.1l.2.02c0,.16-.1.19-.21.21-.11.03-.23.04-.34.06l-.17.05-.12.14.16.1.12.03c-.02.09-.04.17-.07.3l.1.05c.18.01.36.02.54,0l.25-.07c.09-.02.18-.04.21.08.02.11-.05.16-.14.18l-.19.06c-.09.03-.18.07-.27.11-.11.04-.18.11-.16.24.02.14.12.19.24.21.1.01.19.01.29.02l.26.04c.1.02.21.05.19.17l-.18.14c-.09.03-.19.03-.28.06-.08.02-.15.05-.26.09.19.17.5.01.59.3-.14.13-.32.04-.47.07-.16.03-.32.03-.48.16l.24.14c-.03.09-.05.18-.08.28.12.14.28.11.42.11.11,0,.24-.03.28.15-.23.17-.52.01-.81.12.1.12.19.23.31.37-.13.03-.23.06-.32.07l-.2-.02c-.15-.02-.26.03-.28.18-.02.2-.14.26-.32.3-.23.05-.29.26-.13.44.07.08.17.16.27.21.32.15.65.3.98.44.32.13.65.18.99.16.1,0,.19,0,.29,0,.52-.04.99.1,1.41.42.18.13.37.21.59.18.32-.04.45-.29.27-.56-.08-.11-.19-.19-.29-.28-.09-.08-.21-.14-.29-.24-.09-.11-.18-.24-.19-.37-.02-.41-.07-.8-.25-1.18-.06-.14-.08-.3.09-.42"/>
      <path class="cls-1" d="m32.44,27.62h-.43v-2.22c.3,0,.6-.03.89,0,.42.05.61.55.37.92l-.12.14c.26.34.17.75.22,1.16h-.42l-.04-.22c0-.12,0-.25-.02-.38-.03-.32-.1-.37-.46-.35v.94Zm0-1.32c.2.02.37.04.47-.14.07-.12.08-.25,0-.35-.12-.16-.29-.08-.46-.08v.57Z"/>
      <path class="cls-1" d="m29.82,26.02h-.37l-.08-.23-.21-.15-.23.14-.07.25c0,.29,0,.58,0,.87,0,.09.03.2.09.27l.23.14c.12.02.2-.08.22-.19.03-.1.02-.21.03-.32-.09-.02-.16-.04-.25-.06v-.29h.64v1.19c-.13.03-.25.05-.33-.09-.09.04-.18.09-.27.11-.3.07-.56-.06-.69-.34l-.08-.22c-.08-.39-.08-.79,0-1.18.08-.38.31-.6.62-.63.46-.05.74.21.75.73"/>
      <path class="cls-1" d="m30.63,25.39h.53c.19.74.38,1.48.57,2.23h-.44c-.05-.15-.09-.29-.14-.44h-.51c-.04.15-.09.29-.14.45h-.45c.2-.76.4-1.5.59-2.24m.46,1.34c-.06-.27-.12-.52-.17-.77h-.05c-.06.25-.11.49-.17.77h.39Z"/>
      <path class="cls-1" d="m24.64,25.39h.43v.41c0,.34,0,.68,0,1.01,0,.11,0,.23-.04.34-.08.34-.37.53-.74.49-.33-.03-.57-.26-.59-.6-.02-.27,0-.54,0-.81,0-.28,0-.55,0-.84h.39l.02.22c0,.41,0,.81,0,1.22l.02.23c.03.13.12.19.25.19.13,0,.22-.06.25-.19l.02-.26c0-.37,0-.73,0-1.1v-.3"/>
      <path class="cls-1" d="m21.94,25.97c-.11,0-.21.01-.32.02l-.08-.18c-.09-.16-.27-.2-.41-.1-.13.1-.15.27-.03.4l.19.13.24.09c.3.12.45.35.44.64,0,.32-.19.57-.47.67-.27.1-.64.02-.8-.18-.12-.14-.17-.3-.13-.51h.37l.07.17c.05.12.14.18.27.18.12,0,.2-.06.25-.17.05-.13.04-.25-.07-.34l-.19-.13c-.09-.05-.19-.08-.29-.13-.33-.16-.45-.44-.36-.79.08-.29.4-.49.72-.46.39.05.58.26.6.68"/>
      <path class="cls-1" d="m26.23,27.63h-.45v-1.87c-.17-.01-.31-.02-.47-.03v-.34h1.39v.34c-.15.01-.3.02-.48.03v1.87Z"/>
      <path class="cls-1" d="m27.41,25.78c-.17-.02-.32-.03-.47-.04v-.34h1.4v.34c-.16.01-.31.03-.48.04v1.85h-.45v-1.85Z"/>
      <path class="cls-1" d="m34.91,25.41v.32c-.16.01-.31.03-.49.04v1.86h-.42v-1.85c-.17-.01-.32-.03-.5-.04,0-.11,0-.21-.01-.31.21-.07,1.09-.09,1.42-.02"/>
      <path class="cls-1" d="m23.5,25.39v.17s0,.16,0,.16l-.22.03c-.08,0-.15,0-.27,0v1.89h-.43v-1.86c-.18-.01-.33-.03-.49-.04v-.34h1.41Z"/>
      <path class="cls-1" d="m25.54,28.83c.13-.22.31-.37.61-.53-.09.49-.17.64-.61.53"/>
      <path class="cls-1" d="m30.83,6.27v.99c-.11,0-.22.01-.33.01-1.26,0-2.53,0-3.79,0h-.2c-.17.01-.25.09-.25.25,0,.16.08.24.26.24.31,0,.62,0,.93,0,.81,0,1.62,0,2.43,0,.22,0,.42.04.61.16.2.13.34.32.38.56.07.39.06.79,0,1.18-.07.36-.33.53-.66.6-.1.02-.21.02-.32.02-1.45,0-2.9,0-4.34,0-.08,0-.15,0-.25-.01v-1.02h4.1c.13-.03.21-.11.21-.24,0-.13-.08-.21-.21-.23h-.23c-.97,0-1.93,0-2.89-.01-.15,0-.31-.02-.46-.06-.33-.1-.53-.33-.6-.67-.06-.32-.06-.63,0-.95.08-.49.4-.79.9-.81.48-.01.96,0,1.45,0,.99,0,1.97,0,2.95,0h.34"/>
      <path class="cls-1" d="m18.12,9.22c0,.24,0,.48,0,.72-.02.5-.22.76-.72.87-.48.11-.96.2-1.45.27-.75.11-1.51.17-2.26.28-.4.06-.9-.2-.97-.69-.12-.85-.22-1.7-.16-2.56.03-.45.25-.72.69-.8.99-.18,1.99-.35,2.99-.51.28-.04.56-.08.83-.08.18,0,.36.03.53.1.21.08.33.26.37.48.12.64.18,1.28.16,1.92m-1.03-.18c-.02-.24-.04-.49-.06-.74-.03-.32-.1-.4-.42-.35-.89.12-1.77.25-2.66.39-.3.05-.37.15-.36.46.02.36.05.71.09,1.07.03.3.12.36.42.33.31-.03.62-.05.92-.1.58-.09,1.16-.19,1.74-.28.18-.03.27-.13.29-.3.02-.15.02-.31.03-.47"/>
      <path class="cls-1" d="m24.21,8.31c.27.24.31.59.32.96,0,.33,0,.65,0,1.01-.31.06-.64.04-.99.05,0-.21-.01-.4-.02-.59,0-.17,0-.35,0-.52-.01-.29-.15-.43-.44-.41-.42.02-.85.05-1.27.08-.52.04-1.04.07-1.56.11l-.21.02v1.54c-.3.03-.61.07-.92.11-.07-.22-.27-3.65-.23-4.05l.22-.04c1.43-.1,2.87-.21,4.3-.31.11,0,.21,0,.32,0,.35.04.68.32.72.66.03.29.03.6,0,.89-.02.16-.13.31-.21.49m-4.28-.3h.16c.87-.04,1.75-.09,2.62-.15l.2-.03c.15-.04.23-.17.22-.33-.02-.16-.11-.25-.29-.25h-.2c-.79.07-1.57.13-2.36.19-.12,0-.24.03-.38.05.01.19.02.35.03.52"/>
      <path class="cls-1" d="m43.85,12.15c.12-1.37.25-2.75.37-4.16,1.46.35,2.89.7,4.34,1.05-.03.32-.06.63-.09.98-1.08-.26-2.13-.51-3.22-.77-.03.23-.05.46-.08.7,1.08.26,2.13.52,3.19.78,0,.1,0,.17,0,.25-.02.18-.04.36-.06.58-1.06-.25-2.11-.5-3.19-.76-.02.22-.05.43-.07.66,1.07.27,2.12.54,3.21.81-.02.29-.05.59-.07.88-.22.02-3.97-.85-4.32-.99"/>
      <path class="cls-1" d="m36.87,10.82c-.26-.01-.49-.02-.72-.04-.83-.08-1.67-.17-2.5-.25-.34-.03-.67-.06-1.01-.09-.11,0-.21-.02-.31-.05-.41-.11-.64-.36-.64-.78,0-.68.05-1.37.08-2.05,0-.16.04-.32.07-.49.06-.34.27-.54.6-.63.13-.03.27-.06.4-.05.8.05,1.6.11,2.39.18.56.05,1.11.14,1.66.21l.17.03c-.02.34-.04.67-.07,1.04-.18-.01-.35-.02-.52-.04-.93-.1-1.86-.21-2.79-.3-.18-.02-.37-.03-.55-.03-.22,0-.34.12-.36.34-.03.38-.05.75-.06,1.13,0,.29.12.41.42.44,1.22.12,2.44.23,3.65.35l.12.03c-.02.34-.03.67-.05,1.04"/>
      <path class="cls-1" d="m37.93,6.89c.39.06.73.11,1.1.16-.04.53-.07,1.05-.11,1.58,1.12.18,2.21.36,3.34.54.04-.53.08-1.04.12-1.58.38.07.72.14,1.11.21-.1,1.38-.22,2.74-.34,4.13-.37-.07-.71-.13-1.08-.2.04-.52.07-1.04.11-1.57-1.1-.18-2.18-.36-3.29-.55-.05.52-.09,1.02-.14,1.55-.36-.05-.7-.1-1.07-.15.08-1.37.17-2.73.25-4.12"/>
      <path class="cls-1" d="m6.62,8.75c.52-.12,1.01-.24,1.49-.35.82-.2,1.65-.39,2.48-.58.55-.13.95.08,1.15.61.13.35.14.72.04,1.08-.12.4-.37.66-.79.76-.94.23-1.87.46-2.81.7-.1.02-.2.05-.33.09.05.53.09,1.04.14,1.6-.33.09-.65.17-1.01.27-.13-1.4-.24-2.77-.36-4.17m1.09,1.38l.12-.02c.91-.22,1.81-.45,2.72-.67l.11-.04c.16-.07.23-.23.18-.41-.05-.15-.15-.2-.35-.16l-.08.02c-.79.19-1.59.38-2.38.58-.13.03-.25.07-.39.1.03.21.05.39.08.59"/>
    </g>
  </g>
</svg>