<?xml version="1.0" encoding="UTF-8"?>
<svg id="Layer_2" data-name="Layer 2" xmlns="http://www.w3.org/2000/svg" viewBox="0 0 98.84 27.57">
  <defs>
    <style>
      .cls-1 {
        fill: #000;
      }
       .cls-1:hover {
    fill: #000; /* Change the fill color to black on hover */
  }
    </style>
  </defs>
  <g id="Layer_1-2" data-name="Layer 1">
    <g>
      <path class="cls-1" d="m4.43,16.81c-.98,0-1.97,0-2.97,0-1.57,0-1.53.02-1.19-1.5.11-.49-.03-1.04-.04-1.57,0-3.51,0-7.02-.01-10.53,0-.75-.07-1.5-.2-2.23C-.16-.12.72.29,1.15.19c.52-.12,1.09,0,1.64-.05.99-.1,1.37.21,1.37,1.22,0,3.9-.02,7.8.01,11.69,0,1.2.16,2.4.26,3.76"/>
      <path class="cls-1" d="m50.13,16.75h-4.29c.06-1.26.15-2.46.16-3.66.02-3.93,0-7.86,0-11.79,0-1.07.26-1.26,1.28-1.1.33.05.69,0,1.03-.05,1.09-.16,1.64.28,1.64,1.36,0,4.26,0,8.52,0,12.77,0,.79.11,1.59.17,2.46"/>
      <path class="cls-1" d="m21.23.17h4.28c-.31,5.53-.33,11.04.01,16.63h-4.31c.44-5.6.43-11.08.01-16.63"/>
      <path class="cls-1" d="m61.95,16.82c.64-4.59.22-9.08.32-13.55.02-.73-.19-1.46-.23-2.19-.01-.25.16-.73.27-.74,1.1-.08,2.22-.13,3.32-.07.16,0,.41.6.42.93.04,2.53.02,5.06.02,7.6,0,1.67-.03,3.34.01,5,.02.73.16,1.46.3,2.18.15.76.02.88-.77.86-1.21-.04-2.43-.01-3.67-.01"/>
      <path class="cls-1" d="m87.19,17.19c-4.26-.52-7.57-4.02-7.34-9.08.25-5.51,4.61-8.09,7.62-8.03-1.35.68-2.18,1.67-2.66,2.91-.34.87-.64,1.79-.75,2.71-.36,3.04-.49,6.1,1.01,8.9.54,1.02,1.48,1.82,2.11,2.59"/>
      <path class="cls-1" d="m91.05,17.27c2.65-1.54,3.42-3.98,3.61-6.66.11-1.56.17-3.15-.03-4.68-.24-1.83-.72-3.65-2.16-5-.34-.32-.75-.55-1.17-.85,3.87.11,7.1,3.43,7.48,7.27.6,6.05-3.33,9.33-7.73,9.92"/>
      <path class="cls-1" d="m6.63.21c1.98,0,3.76.33,5.26,1.74,1.86,1.75,1.53,4.82-.6,6.33-1.39.99-3.02,1.38-5.02,1.05,2.15-.93,2.82-2.6,2.86-4.52.04-1.93-.91-3.45-2.5-4.61"/>
      <path class="cls-1" d="m68.72.16c2.41.17,4.78.48,5.99,3.1.64,1.4.42,2.76-.43,3.92-1.36,1.85-3.35,2.39-5.57,2.24l-.15-.08-.14-.18c1.34-.34,2.07-1.39,2.34-2.55.27-1.14.35-2.48,0-3.57-.34-1.07-1.33-1.93-2.04-2.89"/>
      <path class="cls-1" d="m44.07.15c-.3.33-.47.58-.7.74-.66.46-.7,1.03-.39,1.7.47,1.03.09,1.9-.57,2.68-.64.75-1.51.95-2.42.7-.99-.27-1.7-1.02-1.79-1.99-.1-1.06.5-2,1.34-2.67,1.28-1.03,2.79-1.23,4.54-1.17"/>
      <path class="cls-1" d="m52.01.31c1.93-.1,3.66.02,4.97,1.51.86.98,1.07,2.2.44,3.14-.62.92-1.85,1.33-2.8.95-1.31-.54-1.97-1.6-1.64-2.93.28-1.12.31-2.05-.98-2.66"/>
      <path class="cls-1" d="m68.4,10.98c.41.51.78,1.05,1.23,1.52.83.88,1.25.95,2.35.48,1.26-.53,2.66-.2,3.22.76.55.94.47,1.73-.26,2.5-.54.57-1.74.78-2.48.42-1.92-.93-3.02-2.55-3.76-4.48-.08-.22-.21-.42-.29-.64-.07-.17-.09-.36-.13-.54l.12-.02Z"/>
      <path class="cls-1" d="m6.23,10.81c.6.68,1.01,1.2,1.48,1.67.79.81,1.34.91,2.39.49,1.24-.5,2.47-.22,3.08.71.5.75.5,1.75.02,2.39-.48.63-1.59.93-2.41.64-1.59-.57-2.64-1.73-3.42-3.18-.33-.62-.63-1.26-.93-1.89-.09-.2-.11-.43-.21-.82"/>
      <path class="cls-1" d="m27.59,14.31c1.09.33,1.9.02,2.67-.83.47-.52,1.22-.96,2.06-.5,1.17.64,1.52,1.21,1.34,2.49-.12.84-.66,1.28-1.49,1.55-1.67.54-4.26-.94-4.59-2.7"/>
      <path class="cls-1" d="m27.41,2.94c.76-1.71,2.79-3.34,4.62-2.85.85.23,1.44.72,1.63,1.56.22.98-.29,1.99-1.21,2.42-.8.38-1.6.26-2.18-.42-.75-.87-1.58-1.32-2.87-.72"/>
      <path class="cls-1" d="m46.42,22.28c1.48,0,2.61,1.15,2.66,2.59.05,1.39-1.43,2.66-2.67,2.64-1.42-.02-2.72-1.28-2.72-2.69,0-1.35,1.43-2.7,2.73-2.54m-2.02,2.57c0,1.11.95,2.01,2.07,1.99.97-.01,1.97-.99,1.9-1.96-.09-1.24-.82-1.96-2.05-2.01-.97-.04-1.92,1.01-1.92,1.98"/>
      <path class="cls-1" d="m53.67,27.54c-.89-.62-1.26-2.28-2.91-1.42-.05.35-.13.84-.2,1.34-.1.01-.2.02-.3.03-.1-.39-.27-.78-.29-1.18-.04-.98,0-1.96-.01-2.95,0-.77.32-1.17,1.14-1.08.74.08,1.49-.15,2.19.45.67.57,1.05,1.6.41,2.32-.73.82-.55,1.39.1,2.05l.04.23-.16.2Zm-2.93-3.36c-.11.76-.07,1.31.96,1.21.96-.09,1.67-.6,1.63-1.36-.03-.72-.73-1.11-1.78-1.18-1.23-.08-.66.83-.81,1.33"/>
      <path class="cls-1" d="m58.86,22.7c-.6.05-1.2.15-1.8.13-.92-.03-1.28.33-1.14,1.26.03.23.13.45.23.8h2.32c0,.13.01.26.02.39-.59.03-1.19.1-1.78.07-.73-.04-.86.33-.81.93.05.52.31.69.83.67.71-.02,1.42.04,2.13.23-1.08.4-2.16.44-3.24.13-.14-.04-.29-.32-.29-.49-.02-1.28-.04-2.56.01-3.83,0-.23.29-.64.47-.64,1.01-.06,2.03-.03,3.04-.03,0,.13.01.26.02.38"/>
      <path class="cls-1" d="m35.51,26.31c.85.65,1.57.87,2.32.42.23-.14.48-.49.46-.72-.02-.23-.33-.49-.58-.62-.41-.22-.87-.35-1.32-.51-.61-.21-.97-.58-.98-1.28,0-.76.6-1.1,1.09-1.23.75-.19,1.63-.32,2.42.6-.43,0-.69.01-.95,0-.38-.02-.8-.18-1.13-.06-.33.12-.56.5-.84.76.27.26.51.58.82.76.38.21.9.2,1.23.46.4.3.95.82.91,1.17-.06.47-.57.98-1.01,1.29-.62.43-1.89.17-2.39-.38-.08-.08-.03-.28-.05-.65"/>
      <path class="cls-1" d="m63,23c-.55-.05-1.09-.21-1.57-.11-.39.08-.72.46-1.08.71.28.28.53.62.86.83.31.2.77.19,1.06.41.42.31.91.68,1.07,1.14.26.74-.46,1.09-.96,1.39-.81.48-1.95.12-2.71-.92.44.14.67.26.91.27.56.03,1.13.06,1.67-.03.2-.03.54-.47.49-.59-.12-.28-.4-.55-.67-.71-.41-.23-.89-.31-1.31-.51-1.23-.6-1.32-1.43-.27-2.31.7-.58,2.11-.37,2.52.44"/>
      <path class="cls-1" d="m27.65,8.44c.74-.42,1.31-.7,1.84-1.07.58-.4,1.11-.17,1.36.27.22.39.29,1.07.1,1.44-.15.29-.87.52-1.24.41-.7-.2-1.32-.66-2.05-1.05"/>
      <path class="cls-1" d="m41.7,22.86c0,1.01.03,2.1-.01,3.17-.02.43-.18.86-.27,1.29-.14-.4-.36-.79-.4-1.2-.06-.74-.06-1.49,0-2.23.07-.86-.3-1.2-1.12-1.18-.2,0-.4-.06-.61-.28h4l.03.22c-.48.06-.96.13-1.61.21"/>
    </g>
  </g>
</svg>