<?xml version="1.0" encoding="UTF-8"?>
<svg id="Layer_2" data-name="Layer 2" xmlns="http://www.w3.org/2000/svg" viewBox="0 0 118.02 9.79">
  <defs>
    <style>
      .cls-1 {
        fill: #000;
      }
       .cls-1:hover {
    fill: #000; /* Change the fill color to black on hover */
  }
    </style>
  </defs>
  <g id="Layer_1-2" data-name="Layer 1">
    <g>
      <path class="cls-1" d="m65.31,9.48c.72-1.49-.11-2.73-1.23-3.33-.84-.45-1.62-1-2.44-1.48-1.43-.85-1.12-3.46.48-3.91.3-.08.57-.24,1.04-.44-.52,1.4-.27,2.52.78,3.32.6.45,1.31.77,2,1.08,1.67.75,2.29,2.36,1.45,3.82-.46.79-1.1,1.14-2.08.95"/>
      <path class="cls-1" d="m104.02,7.98c-.96,1.49-2.73,2.11-4.37,1.64-2.1-.6-3.46-2.2-3.47-4.09-.02-2.56,1.03-4.3,3.15-4.96-1.26,1.87-1.75,3.8-.73,5.73,1.15,2.17,3.24,2.04,5.43,1.68"/>
      <path class="cls-1" d="m2.35,9.69H.02c0-1.36,0-2.67,0-3.99,0-1.55.03-3.11-.02-4.66C-.02.41.15.13.8.19c.32.03.67-.07.96.03.23.08.55.37.56.57.04,2.94.02,5.88.02,8.91"/>
      <path class="cls-1" d="m87.42,9.24c-.35.1-.61.2-.89.25-1.1.22-1.43-.07-1.43-1.2,0-2.26.05-4.52-.02-6.78-.03-.99.54-1.25,1.26-1.27.77-.02,1.14.37,1.11,1.27-.08,2.58-.03,5.16-.03,7.73"/>
      <path class="cls-1" d="m75.15,4.99c0,1.23-.04,2.46.02,3.69.03.76-.4.86-.97.85-.6-.02-1.35.11-1.36-.82-.03-2.49-.02-4.99,0-7.48,0-.85.62-.83,1.24-.84.64,0,1.08.16,1.08.9,0,1.23,0,2.46,0,3.69"/>
      <path class="cls-1" d="m36.54.2c.35,0,.94-.08,1.48.04.23.05.52.51.52.79.04,2.1.02,4.2.03,6.31,0,.77.07,1.53.11,2.34-.16.02-.35.07-.53.07-.58-.02-1.15-.05-1.73-.08.04-.51.11-1.02.11-1.53.01-2.59,0-5.18,0-7.92"/>
      <path class="cls-1" d="m29.02,9.64c-.15.04-.23.09-.32.09-1.87.12-1.86.12-1.85-1.66,0-2.33.02-4.65-.02-6.98-.01-.72.35-.9.95-.88.54.02,1.22-.06,1.23.73.03,2.9.01,5.79.01,8.7"/>
      <rect class="cls-1" x="12.41" y=".27" width="2.31" height="9.21"/>
      <path class="cls-1" d="m111.56,9.28c0-2.71,0-5.35,0-7.98,0-.74.44-.91,1.08-.91.65,0,1.06.2,1.05.93,0,1.95,0,3.91.01,5.86,0,.19-.02.39.02.58.27,1.62-.23,2.07-1.8,1.61-.09-.03-.18-.05-.36-.1"/>
      <path class="cls-1" d="m50.26,9.51c-1.41.2-3.2-2.01-3.38-3.69-.37-3.55,1.77-5.31,3.64-5.58-2.2,3.05-1.89,6.14-.26,9.27"/>
      <path class="cls-1" d="m53.56.22c2.57.38,4.06,2.48,3.9,5.15-.13,2.23-1.67,4.1-3.58,4.14,1.33-1.35,1.52-3.06,1.5-4.66-.02-1.59-.21-3.31-1.82-4.63"/>
      <path class="cls-1" d="m103.22.78c1.13.74,1.99,1.66,1.68,3.08-.12.53-.63,1.13-1.12,1.36-.39.18-1.25,0-1.49-.32-.33-.44-.48-1.23-.33-1.76.24-.81.8-1.53,1.26-2.35"/>
      <path class="cls-1" d="m40.42,5.38c1.74-2.47,1.07-3.98-.22-5.01.95-.3,2.18.15,2.96,1.12.61.76.66,1.62.19,2.43-.63,1.08-1.63,1.53-2.92,1.47"/>
      <path class="cls-1" d="m3.61.26c2.03-.14,3.58.93,3.65,2.33.09,1.72-1.03,2.71-2.98,2.77.26-.83.63-1.68.77-2.58.16-1.03-.33-1.86-1.44-2.52"/>
      <path class="cls-1" d="m76.74,5.13c1.61-1.44,1.02-2.96.39-4.46,1.27-.31,1.97.3,2.61,1.23.63.91.19,1.68-.24,2.39-.56.92-1.47,1.19-2.75.85"/>
      <path class="cls-1" d="m30.78.2c.87,0,1.8.25,2.43,1.23.32.49.45.9.01,1.38-.46.49-1.02.97-1.65.5-.39-.29-.64-.88-.77-1.39-.13-.5-.03-1.06-.03-1.71"/>
      <path class="cls-1" d="m25.26,0c-.1.73-.29,1.21-.2,1.65.16.79-.09,1.34-.74,1.68-.76.4-1.31-.05-1.7-.65-.43-.66-.14-1.31.42-1.67.67-.43,1.46-.68,2.22-1.01"/>
      <path class="cls-1" d="m109.97.66c.03,1.05.31,2.21-.86,2.73-.38.17-1.28-.18-1.54-.57-.23-.35-.07-1.17.2-1.6.49-.76,1.32-.87,2.2-.57"/>
      <path class="cls-1" d="m115.4.63c.94-.28,1.69.01,2.3.73.52.62.41,1.33-.33,1.89-.65.49-1.2.36-1.57-.36-.17-.33-.32-.69-.39-1.05-.07-.36-.02-.75-.02-1.21"/>
      <path class="cls-1" d="m40.36,7.38c.71,0,1.43-.08,2.12.03.46.07.99.31,1.26.65.18.23.12.97-.1,1.12-.36.26-1.07.46-1.37.27-.8-.51-1.45-1.23-2.16-1.87l.24-.19Z"/>
      <path class="cls-1" d="m3.72,7.38c1.05,0,1.78-.09,2.47.03.47.08.99.38,1.29.75.15.18,0,.94-.22,1.05-.43.22-1.15.39-1.47.18-.76-.52-1.35-1.28-2.08-2.01"/>
      <path class="cls-1" d="m88.83,8.4c.5-.31.87-.65,1.31-.78.45-.13,1.04-.19,1.41.01.25.14.41.89.26,1.18-.19.38-.74.78-1.14.79-.78.01-1.54-.29-1.85-1.21"/>
      <path class="cls-1" d="m16.24,1.35c.53-1.23,2.08-1.63,2.93-.69.5.55.32,1-.09,1.43-.41.42-.86.64-1.43.16-.42-.35-.92-.6-1.41-.9"/>
      <path class="cls-1" d="m16.03,8.72c.63-.43.97-.78,1.38-.91.47-.15,1.07-.27,1.49-.11.27.11.55.94.4,1.15-.3.44-.94,1-1.35.93-.68-.12-1.28-.68-1.92-1.07"/>
      <path class="cls-1" d="m88.77,1.54c.98-1.18,1.75-1.48,2.51-1.1.65.33.8.9.52,1.45-.25.49-.74.82-1.39.48-.52-.28-1.05-.53-1.64-.83"/>
      <path class="cls-1" d="m67.23,2.41c-.2.17-.66.7-.76.64-.46-.29-1.05-.69-1.16-1.16-.08-.36.47-1.21.78-1.23.89-.05,1.02.77,1.14,1.75"/>
      <path class="cls-1" d="m62.39,9.4c-.9-.27-1.45-.74-1.45-1.67,0-.51.14-1.11.76-.88.44.16.89.69,1.04,1.15.12.37-.2.88-.35,1.4"/>
      <path class="cls-1" d="m18.61,4.89c-.86,1.44-1.54.67-2.3-.01.79-.74,1.5-1.45,2.3.01"/>
      <path class="cls-1" d="m91.06,5.2c-.86,1.44-1.54.67-2.3-.01.79-.74,1.5-1.45,2.3.01"/>
    </g>
  </g>
</svg>