<?xml version="1.0" encoding="UTF-8"?>
<svg id="Layer_2" data-name="Layer 2" xmlns="http://www.w3.org/2000/svg" viewBox="0 0 55.3 23.37">
  <defs>
    <style>
      .cls-1 {
        fill: #000;
      }
       .cls-1:hover {
    fill: #000; /* Change the fill color to black on hover */
  }
    </style>
  </defs>
  <g id="Layer_1-2" data-name="Layer 1">
    <g>
      <path class="cls-1" d="m38.31,18.93c-2.22,1.43-4.44,2.86-6.68,4.27-.24.15-.61.19-.91.16-2.91-.35-5.81-.73-8.72-1.11-3.36-.43-6.71-1.03-10.08-1.25-3.63-.24-7.21.5-10.77,1.22-.33.07-.67.13-1.13.22,0-1.35-.02-2.63.02-3.91,0-.16.29-.39.49-.44,2.84-.77,5.73-1.19,8.67-1.36,5.4-.31,10.66.61,15.92,1.6,3.9.74,7.81,1.01,11.76.51.45-.06.92-.05,1.37-.08l.05.17Z"/>
      <path class="cls-1" d="m10.76,7.76c1.2,2.18,2.35,4.26,3.56,6.44-1.61,0-3.1.02-4.58-.03-.22,0-.5-.33-.63-.57-.78-1.44-1.52-2.9-2.28-4.35-.32-.61-1.7-1.02-2.22-.61-.16.12-.2.45-.21.69-.02,1.3-.01,2.59-.02,3.89,0,.31-.04.62-.06.95H.07c-.02-.29-.05-.54-.05-.79C.02,9.24.03,5.09,0,.95,0,.22.22.02.93.02,3.55.04,6.17-.01,8.79,0c.68,0,1.38.11,2.04.27,1.77.41,2.7,1.46,2.9,3.19.2,1.7-.56,3.08-2.13,3.88-.25.13-.5.26-.84.43M6.06,1.92v.04c-.38,0-.77-.06-1.12.02-.2.05-.5.31-.51.48-.04,1.24-.04,2.47,0,3.71,0,.15.26.43.39.42,1.44-.09,2.89-.16,3.96-1.34,1.11-1.22.61-2.81-1-3.14-.56-.12-1.14-.13-1.7-.19"/>
      <path class="cls-1" d="m22.08,3.56c1.1.15,2.15.18,3.14.44,2.79.74,4.17,3.36,3.51,6.38-.48,2.18-1.88,3.36-3.96,3.81-1.82.39-3.66.35-5.46-.19-2.23-.66-3.55-2.52-3.54-4.93,0-2.46,1.28-4.31,3.5-4.96.93-.27,1.9-.37,2.81-.54m2.72,5.46c-.07-.68-.07-1.35-.2-1.99-.22-1.07-.89-1.53-2.06-1.56-1.37-.03-2.24.39-2.36,1.5-.15,1.44-.12,2.92.04,4.37.1.93,1.06,1.35,2.34,1.3,1.17-.05,1.83-.49,2.02-1.49.14-.7.16-1.42.23-2.12"/>
      <path class="cls-1" d="m51.11,7.37c.22-1.63-.29-2.33-1.8-2.27-1.27.05-2.54.3-3.95.48-.11-.27-.28-.7-.53-1.36,1.27-.2,2.41-.45,3.56-.55,1.78-.16,3.56-.12,5.22.71,1.07.54,1.63,1.43,1.65,2.62.03,1.96,0,3.91.04,5.87,0,.5-.18.7-.63.83-2.7.78-5.42.99-8.16.3-.49-.12-.98-.34-1.43-.57-1.03-.52-1.65-1.36-1.64-2.53.02-1.15.59-2.09,1.65-2.52.97-.39,2.02-.63,3.06-.81.96-.16,1.94-.15,2.96-.21m.02,5.34v-3.88c-.96.14-1.83.22-2.68.41-.67.15-1.11.64-1.12,1.36,0,.73.24,1.43,1,1.64.88.24,1.81.31,2.8.47"/>
      <path class="cls-1" d="m55.28,17.2c0,1.51,0,2.89,0,4.26,0,.61-.49.45-.83.46-3.6,0-7.2,0-10.8,0h-3.68c.53-.85,1.07-1.47,1.34-2.19.81-2.16,2.29-2.75,4.52-2.58,2.78.22,5.58.05,8.38.05h1.08"/>
      <path class="cls-1" d="m40.74,11.96c.25.58.48,1.12.79,1.82-.98.2-1.86.44-2.75.54-1.94.21-3.86.23-5.54-1.01-3.15-2.32-2.55-7.58,1.04-9.16,1.86-.82,5.25-.7,7.13.25v.17c-.56,1.44-.56,1.43-2.1,1.2-.54-.08-1.09-.19-1.62-.13-2,.23-2.63,1.9-2.41,3.99.23,2.27,1.51,3.13,3.77,2.72.54-.1,1.06-.24,1.7-.39"/>
    </g>
  </g>
</svg>