<?xml version="1.0" encoding="UTF-8"?>
<svg id="Layer_2" data-name="Layer 2" xmlns="http://www.w3.org/2000/svg" viewBox="0 0 155.22 81.13">
  <defs>
    <style>
      .cls-1 {
        fill: #000;
      }
       .cls-1:hover {
    fill: #000; /* Change the fill color to black on hover */
  }
    </style>
  </defs>
  <g id="Layer_1-2" data-name="Layer 1">
    <g>
      <path class="cls-1" d="m0,55.05c.67-.09,1.35-.26,2.02-.26,5.86,0,11.72-.03,17.58.05,3.75.05,6.01,1.72,6.69,4.67.6,2.63-.32,4.97-2.6,6.43-.8.52-1.68.91-2.95,1.59,2.95,1.65,3.01,4.42,3.21,7.19.05.63.82,1.22,1.26,1.82.47-.52,1.01-1.01,1.39-1.59.21-.31.04-.87.24-1.19.21-.33.71-.76,1-.71.41.08,1.01.51,1.07.88.15.87.08,1.79.03,2.68-.17,3.03-1.47,4.38-4.27,4.49-3.67.15-5.96-1.33-6.38-4.18-.12-.81-.1-1.65-.14-2.48-.24-4.82-2.28-6.43-7.39-5.54,0,2.34-.12,4.74.09,7.11.05.53,1.14,1.28,1.84,1.4,2.24.38,2.26.28,1.88,2.86H0v-2.48c.53-.11,1.06-.28,1.59-.31,3.02-.15,3.14-.25,3.15-3.19.01-4.74-.03-9.49.03-14.23.02-1.58-.54-2.29-2.15-2.26-.87.02-1.75-.19-2.62-.3v-2.48Zm10.75,9.84c2.23,0,4.28.17,6.29-.05,1.7-.18,2.62-1.47,2.67-3.18.05-1.75-.67-3.21-2.51-3.51-1.81-.3-3.68-.31-5.52-.31-.31,0-.86.67-.88,1.05-.09,1.97-.04,3.95-.04,6"/>
      <path class="cls-1" d="m155.22,80.31h-14.65c-.75-2.39-.65-2.55,1.84-2.79,1.57-.16,1.96-.9.99-2.14-1.34-1.73-2.8-3.37-4.4-5.27-1.76,1.99-3.58,3.68-4.95,5.69-1.13,1.65.44,1.73,1.57,1.72,1.23,0,2.56-.15,2.15,1.71-.1.48-.77,1.18-1.2,1.19-3.51.09-7.03.08-10.54-.02-.44-.01-1.21-.74-1.2-1.13,0-.57.45-1.28.92-1.67.86-.72,2.02-1.11,2.81-1.89,2.31-2.27,4.45-4.71,6.75-6.98,1.02-1.01,1.26-1.73.18-2.9-1.72-1.87-3.14-4.04-4.93-5.84-.95-.95-2.36-1.84-3.65-1.97-2.03-.21-2.48-1-1.94-2.98h14.52v2.46c-2.62.92-2.68,1.13-.9,3.3.56.68,1.14,1.35,1.9,2.24,1.37-1.59,2.59-3.01,4.04-4.69-1.05-.37-1.72-.61-2.51-.89v-2.39h13.18v2.48c-4.33-.41-6.96,2.23-9.41,5.22-.57.69-1.15,1.38-1.82,1.97-.98.87-.98,1.57-.09,2.57,2.11,2.35,4.18,4.76,6.14,7.24,1.37,1.73,2.83,3.17,5.17,3.3v2.48Z"/>
      <path class="cls-1" d="m72.27,30.72c-.86-7.04-1.68-14.08-2.62-21.11-.1-.71-.77-1.5-1.4-1.96-1.32-.98-1.79-2.15-.97-3.56.76-1.32,2.01-1.65,3.39-.95,1.36.69,1.62,2.22.83,3.76-.29.55-.61,1.3-.46,1.83,1.92,6.76,3.92,13.5,5.9,20.24.05.17.2.31.57.86.38-3.85.74-7.32,1.06-10.79.37-4.05.75-8.1,1-12.16.04-.73-.35-1.65-.85-2.2-1.17-1.29-1.42-2.76-.3-3.83,1.11-1.06,2.41-1.16,3.52-.1,1.17,1.12,1.06,2.36.09,3.7-.5.68-.88,1.7-.8,2.51.75,7.61,1.62,15.21,2.49,23.18.39-.58.69-.84.77-1.16,1.62-6.56,3.24-13.11,4.76-19.7.17-.72-.11-1.7-.5-2.36-.88-1.47-.83-2.98.43-3.84,1.3-.9,2.5-.62,3.48.54.97,1.16.6,2.62-.72,3.79-.51.45-1.11,1.13-1.16,1.74-.57,7.08-1.04,14.17-1.53,21.25,0,.11.11.23.28.57.3-.53.58-.94.78-1.38,2.17-4.62,4.37-9.22,6.43-13.88.35-.8.32-1.95.05-2.81-.5-1.6-.16-2.76,1.28-3.47,1.42-.7,2.62-.13,3.3,1.18.77,1.49.1,2.56-1.22,3.48-.75.52-1.55,1.32-1.8,2.15-2.22,7.32-4.4,14.66-6.41,22.03-.8,2.94-2.6,4.57-5.38,5.39-3.93,1.16-7.88,1.23-11.83.16-2.69-.73-4.54-2.25-5.43-5.1-2.26-7.23-4.74-14.4-7.11-21.6-.36-1.09-.7-1.92-2.06-2.22-1.51-.34-2.01-1.69-1.54-3.11.46-1.41,1.6-2.15,3.09-1.66,1.51.5,2.34,1.71,1.64,3.23-.59,1.3-.17,2.18.43,3.23,2.48,4.38,4.92,8.78,7.38,13.17.22.39.5.75.76,1.13.14-.06.28-.11.42-.16m7.98,6.6c-2.02.37-4.22.57-6.29,1.21-1.76.55-1.85,1.97-.23,2.77,4.1,2.03,8.34,2.04,12.52.22.59-.25,1.3-1.1,1.27-1.64-.03-.53-.84-1.31-1.45-1.47-1.84-.48-3.74-.72-5.83-1.09"/>
      <path class="cls-1" d="m61.37,67.34c-.32,8.97-5.9,13.83-15.42,13.44-7.99-.33-13.32-5.8-13.13-13.49.19-7.58,6.82-13.48,14.83-13.2,8.05.28,13.97,6,13.71,13.24m-6.76-.02c-.38-1.85-.57-3.71-1.16-5.44-1.05-3.06-3.32-4.5-6.47-4.42-3.08.08-5.46,1.71-6.37,4.67-1.14,3.72-1.1,7.48.34,11.14,1.18,3,3.41,4.49,6.31,4.41,2.85-.08,5.19-1.73,6.15-4.68.59-1.81.81-3.74,1.2-5.68"/>
      <path class="cls-1" d="m103.16,57.67v7.44c3.03.95,4.46-.11,5.04-3.84h2.61v11.83c-1.71.46-2.9.57-2.93-1.84-.02-1.66-2.62-2.96-4.17-2.27-.32.14-.62.72-.63,1.11-.06,2.07-.11,4.14.04,6.2.03.46.83,1.17,1.33,1.23,1.57.16,3.16.08,4.75.06,4.01-.06,5.85-1.67,6.51-5.69.12-.74.19-1.5.29-2.28,1.58-.59,2.49-.44,2.41,1.59-.11,2.75-.03,5.51-.04,8.27,0,.2-.07.4-.15.77h-25.58v-2.24c.13-.08.24-.21.36-.22,4.18-.2,4.25.14,4.21-4.78-.03-3.93-.01-7.86,0-11.79,0-3.32-.03-3.35-3.26-3.54-.4-.02-.79-.1-1.15-.14-.45-2.55-.38-2.65,1.9-2.65,7.24,0,14.47.05,21.71-.01,1.53-.01,2.09.39,2,1.97-.13,2.2.03,4.41-.08,6.61-.03.5-.64.96-.98,1.44-.51-.41-1.33-.73-1.47-1.24-1.41-5.17-2.4-5.97-7.72-5.98-1.63,0-3.26,0-5,0"/>
      <path class="cls-1" d="m65.26,80.22v-2.15c.19-.14.3-.28.41-.29q3.58-.42,3.57-4.07c0-4,.02-7.99-.01-11.99-.04-4.21.3-3.62-3.85-4.22-.05-.35-.15-.73-.16-1.11-.01-.4.06-.81.12-1.5h13.96v2.48c-.13.08-.24.2-.36.21-3.48.4-3.73-.44-3.68,4.19.05,5.15.01,10.31.01,15.59,2.75,0,5.35.18,7.91-.06,1.97-.18,2.75-1.9,3.17-3.65.17-.73.25-1.51.2-2.26-.13-1.92.59-2.73,2.73-2.07v10.9h-24.02Z"/>
    </g>
  </g>
</svg>