<?xml version="1.0" encoding="UTF-8"?>
<svg id="Layer_2" data-name="Layer 2" xmlns="http://www.w3.org/2000/svg" viewBox="0 0 160.78 25.25">
  <defs>
    <style>
      .cls-1 {
        fill: #000;
      }
       .cls-1:hover {
    fill: #000; /* Change the fill color to black on hover */
  }
    </style>
  </defs>
  <g id="Layer_1-2" data-name="Layer 1">
    <g>
      <path class="cls-1" d="m137.1,0c1.35.38,2.77.6,4.04,1.16,5.15,2.28,8.05,7.44,7.42,12.96-.72,6.31-5.8,10.48-11.14,11.06-5.37.58-10.27-2.33-12.55-6.71-2.39-4.57-1.83-9.95,1.59-13.98,2.1-2.47,4.79-3.94,8.04-4.33.18-.02.35-.1.52-.15h2.08Zm-12.25,12.61c-.08,6.04,4.92,11.18,10.96,11.27,6.22.09,11.35-4.86,11.43-11.05.09-6.14-4.86-11.3-10.93-11.39-6.32-.1-11.38,4.83-11.46,11.17"/>
      <path class="cls-1" d="m67.43,20.78q-2.29.18-2.97-1.79c-.96-2.77-1.92-5.55-2.88-8.32-.08-.24-.19-.48-.36-.91-.59,1.66-1.11,3.14-1.63,4.62-.66,1.89-1.35,3.77-1.96,5.67-.2.63-.5.87-1.14.79-.42-.05-.84-.01-1.4-.01.09-.46.12-.85.25-1.21,1.47-4.24,2.97-8.46,4.42-12.7.21-.62.47-.88,1.17-.85,1.47.06,1.46.02,1.95,1.43,1.42,4.08,2.84,8.16,4.26,12.25.11.32.19.65.3,1.03"/>
      <path class="cls-1" d="m102.78,20.76c-.12.04-.14.06-.17.06q-2.15.12-2.86-1.9c-.96-2.75-1.91-5.49-2.86-8.24-.08-.22-.17-.44-.33-.86-.33.84-.61,1.51-.85,2.19-.92,2.64-1.86,5.28-2.73,7.95-.21.65-.56.88-1.18.87-.48,0-.96,0-1.58,0,.41-1.13.81-2.19,1.18-3.25,1.24-3.55,2.48-7.09,3.68-10.66.21-.63.49-.87,1.17-.84,1.44.06,1.44.02,1.94,1.43,1.43,4.11,2.86,8.21,4.29,12.31.1.3.19.6.3.94"/>
      <path class="cls-1" d="m153.76,7.45c1.51,2.64,3.01,5.29,4.52,7.93l.17-.04V5.64h2.34v14.55c-.67,0-1.33.04-1.99-.02-.2-.02-.45-.25-.57-.45-1.43-2.47-2.85-4.95-4.23-7.45-.26-.46-.39-1.04-.42-1.57-.06-1.06-.02-2.13-.02-3.2l.2-.06Z"/>
      <polygon class="cls-1" points="116.27 6.14 116.27 7.67 111.94 7.67 111.94 20.79 109.56 20.79 109.56 7.72 105.21 7.72 105.21 6.14 116.27 6.14"/>
      <polygon class="cls-1" points="36.79 6.13 39.13 6.13 39.13 20.76 36.85 20.76 36.85 14.19 31.35 14.19 31.35 12.56 36.79 12.56 36.79 6.13"/>
      <path class="cls-1" d="m3.23,6.16c2.75-.32,5.09.93,5.84,3.1.75,2.16-.15,4.32-2.49,5.81,1.08,1.88,2.16,3.76,3.32,5.77-.79,0-1.45.04-2.1-.02-.22-.02-.5-.26-.62-.48-.72-1.31-1.43-2.63-2.07-3.98-.3-.63-.64-1.01-1.38-.84-.14.03-.31-.02-.51-.04v-1.69c.45,0,.87.02,1.28,0,1.31-.06,2.14-.76,2.42-2.04.53-2.41-.55-3.84-2.97-3.87-.61,0-.82-.2-.74-.79.04-.29,0-.58,0-.92"/>
      <path class="cls-1" d="m13.09,6.14h2.32c0,.34,0,.65,0,.97.02,2.54.02,5.07.08,7.61.01.6.15,1.22.31,1.81.34,1.26,1.01,2.24,2.46,2.46v1.87c-1.56-.04-2.79-.66-3.7-1.87-1.01-1.35-1.45-2.92-1.48-4.58-.06-2.64-.04-5.29-.05-7.93,0-.1.04-.2.07-.34"/>
      <path class="cls-1" d="m22.07,6.12h2.23l.11.15c0,2.85.03,5.7-.05,8.55-.04,1.42-.47,2.79-1.32,3.97-.92,1.29-2.16,2-3.81,2.07v-1.89c1.96-.22,2.45-1.75,2.64-3.35.19-1.63.17-3.3.2-4.95.03-1.49,0-2.98,0-4.56"/>
      <rect class="cls-1" y="6.15" width="2.26" height="14.64"/>
      <path class="cls-1" d="m30.34,20.83c-.62,0-1.17-.01-1.73,0-.43.01-.62-.13-.62-.6.01-4.61.01-9.22.01-13.83,0-.07.04-.15.07-.26h2.26v14.7Z"/>
      <rect class="cls-1" x="119.31" y="6.15" width="2.28" height="14.64"/>
      <rect class="cls-1" x="84.71" y="6.14" width="2.28" height="14.66"/>
      <rect class="cls-1" x="150.35" y="5.64" width="2.27" height="14.53"/>
      <path class="cls-1" d="m69.2,6.16l.11-.04c2.44-.17,2.43-.17,3.06,2.23.75,2.84,1.6,5.65,2.26,8.51.29,1.27.24,2.63.34,3.88-1.07.42-1.34-.06-1.57-.84-1.37-4.52-2.79-9.02-4.2-13.54-.01-.05,0-.11,0-.21"/>
      <path class="cls-1" d="m75.86,20.82c-.34-2.48.1-4.81.84-7.11.75-2.31,1.36-4.65,2.01-6.99.13-.46.32-.66.82-.63.63.04,1.27.01,2.02.01-.41,1.26-.79,2.45-1.17,3.63-1.13,3.5-2.28,6.99-3.39,10.5-.2.62-.5.83-1.13.6"/>
      <path class="cls-1" d="m62.98,17.73h-3.68c.51-.53.01-1.55,1.19-1.55,2.23-.01,2.27,0,2.49,1.55"/>
      <path class="cls-1" d="m98.3,17.73h-3.63c.38-.57.04-1.46,1.02-1.54,2.19-.16,2.34-.06,2.61,1.54"/>
      <path class="cls-1" d="m146.55,12.65c.03,5.73-4.68,10.49-10.39,10.51-5.76.02-10.59-4.62-10.6-10.2-.02-6.04,4.55-10.77,10.42-10.79,5.85-.02,10.55,4.64,10.58,10.48m-13.3-.07c-.05,1.53,1.19,2.85,2.71,2.88,1.54.04,2.84-1.18,2.89-2.71.05-1.52-1.19-2.83-2.72-2.88-1.55-.04-2.83,1.16-2.88,2.7m-2.6-7.26c.53,1.61,1.46,2.8,2.56,3.79-.42-1.5-.84-3.01-1.28-4.59-.43.26-.85.53-1.28.79m-2.33,2.45c1.31.93,2.57,1.81,3.82,2.69l.08-.14c-.93-1.28-1.86-2.56-2.81-3.88-.29.36-.62.76-1.08,1.33m8.08-4.25c-.14,1.6-.26,3.09-.39,4.58h.16c.63-1.41,1.27-2.82,1.94-4.31-.44-.07-.93-.15-1.71-.27m7.36,14.02c-1.33-.93-2.57-1.8-3.82-2.67l-.06.13c.92,1.28,1.84,2.56,2.79,3.88.3-.37.61-.76,1.08-1.34m-3.13-4.12l-.02.21c1.26.87,2.52,1.73,3.82,2.62.15-.5.3-.99.5-1.64-1.5-.41-2.9-.8-4.3-1.19m-9.04-1.5v-.18c-1.3-.88-2.6-1.76-3.94-2.67-.16.5-.31.99-.52,1.64,1.57.43,3.01.82,4.46,1.21m13.5-.34c-1.59-.1-3.07-.1-4.55.4,1.57.4,3.05.78,4.55,1.16v-1.57Zm-11.12,9.94c.33.05.66.14,1,.15.2,0,.55-.07.59-.18.42-1.41.53-2.85.37-4.33-.65,1.45-1.28,2.86-1.95,4.36m.43-13.2l.2-.04c.11-1.53.22-3.07.34-4.68-.53.12-1.01.22-1.65.36.39,1.51.75,2.93,1.12,4.36m10.34,1.68c-.12-.33-.2-.68-.38-.96-.11-.18-.41-.39-.57-.35-1.37.35-2.63.94-3.84,1.82,1.62-.17,3.15-.33,4.78-.5m-14.96,9.27c1.34-.89,2.43-1.96,3.31-3.27-1.46.71-2.88,1.4-4.34,2.11.33.37.67.75,1.03,1.16m9.15-3.25l-.1.13c.43,1.51.87,3.03,1.32,4.62.39-.24.84-.5,1.46-.88-.93-1.33-1.81-2.6-2.69-3.87m-1.15-8.16c.87-.8,1.99-1.84,3.14-2.9-.35-.18-.8-.43-1.4-.74-.68,1.43-1.31,2.75-1.73,3.64m-5.72,7.17l-.09-.21c-1.52.16-3.05.32-4.64.49.11.3.19.68.38.97.12.18.49.38.64.32,1.25-.49,2.47-1.04,3.7-1.57m-5.03-2.85c-.26,1.54-.2,1.65,1.31,1.59,1.06-.04,2.11-.21,3.16-.32l-.05-.16c-1.48-.37-2.95-.75-4.43-1.12m15.15-6.28c-1.14,1.14-2.2,2.2-3.27,3.26l.13.1c1.41-.68,2.82-1.36,4.28-2.06-.32-.36-.65-.74-1.14-1.3m-7.96,11.67c-.75.68-1.89,1.72-3.05,2.78.34.18.79.42,1.39.74.67-1.43,1.31-2.77,1.66-3.52m2.91,4.11c.38-.07.77-.11,1.13-.23.15-.05.37-.28.36-.4-.17-1.41-.44-2.79-1.14-4.07-.12,1.57-.23,3.08-.35,4.7"/>
      <path class="cls-1" d="m136.06,13.67l-.05-.02-.17-.14c-.12-.14-.24-.29-.31-.46-.07-.17-.08-.37,0-.54.22-.49.92-.28,1.09.14.1.26-.03.68-.2.88-.08.1-.22.16-.35.14"/>
    </g>
  </g>
</svg>