<?xml version="1.0" encoding="UTF-8"?>
<svg id="Layer_2" data-name="Layer 2" xmlns="http://www.w3.org/2000/svg" viewBox="0 0 73.71 34.07">
  <defs>
    <style>
      .cls-1 {
        fill: #000;
      }
       .cls-1:hover {
    fill: #000; /* Change the fill color to black on hover */
  }
    </style>
  </defs>
  <g id="Layer_1-2" data-name="Layer 1">
    <g>
      <path class="cls-1" d="m38.43,8.82c2.2,0,4.34-.27,6.35.1,1.33.24,2.47.64,3.77,0,.56-.27,1.27-.27,1.91-.3,1.92-.07,3.17.86,3.34,2.76.25,2.83.29,5.69.42,8.48-2.07.52-2.16.45-2.17-1.4-.01-1.84.1-3.69-.08-5.51-.08-.8-.61-2.06-1.18-2.2-.99-.26-2.18.12-3.24.39-.19.05-.26.84-.26,1.29-.02,2.53-.01,5.05-.01,7.53-1.62.56-2.13.03-2.06-1.46.08-1.84.04-3.68,0-5.51-.04-1.68-.85-2.53-2.3-2.5-2.03.03-2.63.61-2.64,2.54,0,2.31,0,4.63,0,7.03h-1.86v-11.24Z"/>
      <path class="cls-1" d="m.23,20.1c-.13-1.6.38-1.96,1.42-1.82,1.07.14,2.15.26,3.23.27,1.86.02,2.87-.76,3.05-2.22.21-1.62-.37-2.32-2.34-2.88-1.09-.31-2.21-.55-3.24-.99C.32,11.59-.29,10.17.12,7.65c.26-1.62,1.48-2.81,3.39-2.94,2.07-.14,4.17-.03,6.49-.03-.11,1.02-.17,1.56-.24,2.16-1.77-.12-3.38-.33-4.98-.32-1.23,0-2.39.37-2.57,1.91-.14,1.2.41,1.99,1.53,2.35,1.28.41,2.61.69,3.87,1.16,2.05.76,2.78,1.9,2.68,3.92-.12,2.3-1.18,3.92-3.3,4.18-2.2.27-4.46.06-6.75.06"/>
      <path class="cls-1" d="m22.6,19.96c-2.02.38-2.08.31-2.11-1.51-.03-2,0-4-.18-5.98-.14-1.6-.96-2.13-2.53-1.98-1.99.18-2.29.48-2.3,2.28,0,2.42,0,4.84,0,7.32h-1.97V4.18h1.9v5.08c.89-.18,1.55-.32,2.21-.45,2.94-.59,4.62.37,4.93,3.29.28,2.6.06,5.26.06,7.86"/>
      <path class="cls-1" d="m26.02,10.4c.28-.44.53-1.22.85-1.25,1.8-.18,3.62-.34,5.41-.2,1.32.1,2.01,1.15,2.04,2.51.03,1.35-.01,2.7.05,4.04.05,1.17-.41,2.51,1.06,3.3.24.12.13.88.18,1.29-.2.13-.32.25-.37.23-2.09-.89-4.14-.27-6.24.01-2.01.27-3.3-.96-3.5-2.94-.21-2.12.62-3.27,2.7-3.67.79-.15,1.6-.22,2.4-.34.75-.11,1.73.12,1.64-1.19-.08-1.12-.68-1.71-1.75-1.7-1.34,0-2.68.14-4.02.22-.15-.11-.3-.21-.44-.32m6.11,4.4c-1.13.08-2.23-.06-3.11.3-.62.25-1.24,1.15-1.35,1.84-.14.94.58,1.5,1.62,1.58,2.41.17,3.04-.42,2.95-2.85,0-.21-.05-.42-.11-.87"/>
      <path class="cls-1" d="m65.73,10.73c-1.98-.1-3.34-.31-4.66-.16-.63.07-1.18.82-1.77,1.26.51.46.95,1.09,1.55,1.34.88.37,1.89.43,2.82.69,1.49.42,2.22,1.4,2.15,2.99-.07,1.56-.65,2.92-2.22,3.15-1.78.26-3.64.12-5.45-.02-.3-.02-.53-.92-.98-1.78,1.34.11,2.14.22,2.93.24.8.02,1.66.1,2.39-.14.49-.16,1.11-.83,1.12-1.28,0-.47-.57-1.19-1.05-1.37-1.04-.4-2.2-.48-3.29-.76-1.36-.35-2.07-1.2-2.07-2.69,0-1.52.48-2.88,1.99-3.12,1.83-.29,3.74-.14,5.6-.02.28.02.51.88.94,1.68"/>
      <path class="cls-1" d="m73.52,5.08c-.92.06-1.81.12-2.77.18-.08,1.05-.15,2-.22,3.03-.56.04-1.02.07-1.66.11-.07-1.03-.13-1.97-.2-3.1-.97-.06-1.91-.11-2.93-.17-.45-1.19-.44-2.05,1.17-1.9,1.35.13,2.05-.29,1.87-1.78-.08-.66-.2-1.47.95-1.45,1.16.02.94.88.88,1.51-.13,1.33.33,1.9,1.71,1.72,1.5-.19,1.57.65,1.2,1.85"/>
      <path class="cls-1" d="m21.96,27.07c1.95,0,3.65.01,5.35,0,.98-.01,1.53.39,1.56,1.42.02.97.11,1.94.09,2.91,0,.25-.32.49-.49.74-.15-.04-.3-.09-.45-.13,0-1,.11-2.02-.05-2.99-.08-.47-.66-.86-1.01-1.29-.36.43-.94.82-1.02,1.29-.16.97-.05,1.99-.05,2.98-.27,0-.54,0-.8,0,0-.92.13-1.87-.05-2.76-.11-.56-.61-1.39-1.04-1.47-1-.18-1.15.65-1.1,1.5.05.91.01,1.83-.35,2.74-.96-1.51-.51-3.11-.59-4.95"/>
      <path class="cls-1" d="m41.93,28.75h1.33c.04.31.14.58.1.83-.16,1,.72,2.5-1.38,2.55-2.42.06-3.33-.48-3.52-2.48-.05-.53-.04-1.08-.01-1.61.12-2.79,2.26-3.86,4.95-2.33-.3.07-.48.12-.65.16-.99.21-2.66.16-2.84.66-.45,1.22-.34,2.71-.16,4.06.05.38,1.07.72,1.69.89.26.07.94-.38.94-.59-.01-.67-.25-1.33-.43-2.13"/>
      <path class="cls-1" d="m1.2,25.45c2.4-.7,4.11-.21,4.49,1.3.47,1.87-.43,2.66-3.7,3.17-.08.68-.17,1.38-.26,2.2-.74-.82-.92-3.74-.53-6.67m.78,3.88c.98-.34,1.93-.43,2.49-.95.34-.31.33-1.62,0-1.9-.59-.49-1.55-.53-2.49-.79v3.63Z"/>
      <path class="cls-1" d="m61.1,32.29c-.15.59-.3,1.19-.45,1.79-.14-.02-.27-.05-.41-.07v-6.62c2.78-.6,3.57-.35,3.88,1.24.46,2.32-.27,3.21-3.02,3.67m-.74-2.75c.64.87,1.01,1.84,1.47,1.88,1.18.13,1.56-.97,1.42-1.88-.1-.65-.77-1.21-1.19-1.81-.5.52-.99,1.05-1.7,1.8"/>
      <path class="cls-1" d="m7.57,25.1c.13.63.25,1.26.34,1.68,1.07.31,2.58.34,2.8.89.52,1.29.41,2.83.56,4.27-.27.04-.54.07-.82.11-.07-.7-.15-1.39-.21-2.09-.06-.58.05-1.26-.22-1.72-.19-.32-.95-.55-1.34-.44-.36.1-.75.69-.83,1.12-.18.94-.17,1.91-.25,2.86,0,.06-.17.11-.46.29v-6.89c.15-.03.29-.05.44-.08"/>
      <path class="cls-1" d="m30.69,27.26c.47-.07.93-.17,1.4-.2,1.8-.09,2.16.28,2.22,2.08.03.93.17,1.86.26,2.81-.81.06-1.77.28-2.66.13-.59-.1-1.36-.64-1.55-1.16-.33-.91.31-1.49,1.26-1.64.57-.09,1.13-.19,1.76-.3-.19-2.16-1.99-.79-2.7-1.72m2.93,3.39c-.02-.17-.04-.35-.07-.52-.36-.15-.78-.5-1.05-.4-.47.16-.84.6-1.26.92.37.28.76.78,1.12.77.43-.02.84-.49,1.26-.76"/>
      <path class="cls-1" d="m16.64,31.97c-.89.05-1.8.24-2.65.1-.54-.09-1.42-.7-1.41-1.05.02-.58.56-1.22,1.04-1.67.48-.46,1.87.32,1.67-1.02-.04-.28-1.32-.37-2.02-.56-.13-.04-.26-.11-.42-.19,2.25-1.26,3.54-.57,3.59,1.84.02.84.14,1.67.22,2.55m-.93-1.86c-.25-.25-.5-.5-.75-.74-.5.46-1,.92-1.49,1.37.35.25.9.78,1.01.69.48-.34.83-.87,1.23-1.32"/>
      <path class="cls-1" d="m52.85,29.56c0,1.87-.56,2.55-2.09,2.56-1.48,0-2.28-.87-2.28-2.49,0-1.65.78-2.55,2.22-2.57,1.54-.02,2.16.7,2.16,2.5m-.21.22c-.8-.92-1.23-1.86-1.82-1.98-1.12-.23-1.35.79-1.33,1.71.01.87.03,1.97,1.17,1.9.58-.03,1.12-.89,1.98-1.63"/>
      <path class="cls-1" d="m58.17,32.35c-1.28-.33-2.91-.27-3.48-1.01-.83-1.09-.43-2.73-.27-4.12h.71c0,.86-.03,1.72,0,2.58.04.82.1,1.72,1.25,1.69,1.11-.03,1.21-.81,1.16-1.7-.04-.85,0-1.71,0-2.56.21,0,.41.01.62.02v5.11Z"/>
      <path class="cls-1" d="m45.29,31.98v-4.65h2.21c-2.18.89-1.31,3.06-1.69,4.73-.18-.03-.35-.05-.53-.08"/>
      <path class="cls-1" d="m18.41,27.35c.73-.04,1.44-.07,2.15-.1-1.91.98-1.6,2.93-1.54,4.78-.2-.04-.41-.07-.62-.11v-4.56Z"/>
    </g>
  </g>
</svg>