<?xml version="1.0" encoding="UTF-8"?>
<svg id="Layer_2" data-name="Layer 2" xmlns="http://www.w3.org/2000/svg" viewBox="0 0 77.9 34.68">
  <defs>
    <style>
      .cls-1 {
        fill: #000;
      }
       .cls-1:hover {
    fill: #000; /* Change the fill color to black on hover */
  }
    </style>
  </defs>
  <g id="Layer_1-2" data-name="Layer 1">
    <g>
      <path class="cls-1" d="m38.19,31.95h-5.91c-.04-.34-.07-.62-.12-1-1.76.96-3.6,1.32-5.55,1.18-1.96-.15-3.65-.89-5.2-2.12-.28.26-.53.53-.82.76-1.91,1.49-4.03,1.78-6.26.93-2.15-.83-3.23-2.55-3.51-4.77-.17-1.41-.46-2.84.25-4.22.09-.17.04-.55-.1-.66-1.52-1.33-1.43-3.17-1.64-4.92-.09-.74-.18-1.48-.3-2.42-.94.77-1.76,1.41-2.54,2.1-1.11.98-2.58,1.09-3.79.26-.44-.3-.92-.56-1.38-.85-1.16-.73-1.76-2.51-.96-3.98,1.25-2.31,3.26-3.78,5.19-5.38,1.71-1.42,3.63-2.44,5.77-3,.79-.21,1.67-.3,2.48-.19.76.11,1.05-.12,1.41-.74C16.23,1.18,17.83.13,19.84.06c3.1-.12,6.2-.03,9.38-.03v2.89l.19.09c.61-.76,1.24-1.5,1.82-2.28.32-.43.66-.63,1.21-.6,1.11.05,2.22.04,3.32,0,.53-.02.83.14,1.07.64.6,1.26,1.26,2.49,1.96,3.86.73-1.39,1.39-2.68,2.1-3.94.14-.24.5-.51.76-.52,2.38-.04,4.76-.12,7.13.03,1.53.1,3.04.56,4.61.87.01-.15.05-.48.09-.87h8.82v5.47l.18.06c.9-1.32,1.91-2.59,2.68-3.98.7-1.27,1.56-1.71,3.02-1.64,2.91.14,5.83.04,8.75.04h.95c.01.32.04.58.04.84,0,10.8,0,21.61,0,32.42,0,1.14-.16,1.29-1.32,1.29-12.32,0-24.64,0-36.96,0-1.35,0-1.43-.08-1.44-1.41,0-.4,0-.8,0-1.32m17.51-7.61c.22-4.42-1.58-7.28-6.02-8.33,2.98-.48,4.84-2.18,5.91-4.9v7.24c.42-.3.65-.69.95-1.01.75-.83.97-1.77.95-2.88-.06-3.73-.02-7.46-.03-11.19,0-.31-.02-.62-.04-.94h-1.87v4.99c-1.07-2.94-3.07-4.69-6.15-4.93-2.2-.18-4.43-.09-6.64-.08-.2,0-.47.31-.59.54-1.02,1.9-2.01,3.82-3.02,5.73-.11.22-.25.42-.43.73-1.05-2.07-2.07-4-3-5.98-.38-.81-.84-1.13-1.77-1.1-.86.03-1.43.25-1.95.97-.98,1.36-2.07,2.63-3.11,3.94-.55.68-1.1,1.36-1.64,2.04l-.17-.06V2.34h-1.87v1.2c0,3.97-.01,7.94.01,11.92,0,.55-.17.78-.66,1-1.84.81-3.17,2.12-3.84,4.05-.05.16-.15.3-.32.65v-3.96c0-.11.01-.22,0-.33-.04-.44.14-.6.6-.65,2.05-.22,3.52-1.68,3.73-3.64.22-2.04-.77-3.54-2.81-4.28-.81-.29-1.64-.53-2.44-.86-.72-.29-1.1-.84-1.06-1.65.04-.8.43-1.39,1.16-1.71,1.26-.57,2.55.14,2.9,1.55.06.24.23.61.41.64.48.09.99.03,1.48.03.1-2.3-1.33-3.9-3.57-4.13-2.05-.21-3.89,1.18-4.21,3.19-.32,1.93.57,3.33,2.54,4.05.91.33,1.85.61,2.71,1.04.88.44,1.09,1.3.95,2.22-.13.87-.62,1.48-1.48,1.76-1.55.5-2.89-.23-3.16-1.82-.11-.65-.38-.81-.95-.77-.31.02-.62,0-.96,0-.02,1.68.5,2.95,1.86,3.76.44.26.56.55.56,1.03-.02,2.86,0,5.73,0,8.59,0,.46-.01.92-.08,1.38-.18,1.31-1.1,1.91-2.38,1.57-.76-.2-1.13-.76-1.35-1.47-.07-.23-.29-.53-.49-.57-.43-.09-.9-.03-1.35-.03,0,2.23,1.31,3.67,3.42,3.85.98.08,1.89-.18,2.66-.77,1.37-1.04,1.3-2.6,1.37-4.35,1.38,3.2,3.51,5.07,6.85,5.14,3.34.07,5.61-1.66,7.2-4.55v4.32h1.79v-1c0-3.4.01-6.81-.01-10.21,0-.6.16-.84.78-.79.81.06,1.62.03,2.43.11,1.19.12,2.11.64,2.48,1.87.54,1.81-.69,3.37-2.76,3.47-.74.04-1.47,0-2.39,0,1.65,2.21,3.17,4.24,4.7,6.26.08.11.26.22.39.22.63.02,1.26,0,2.05,0-1.3-1.73-2.48-3.32-3.69-4.93,3.5-.88,4.16-3.8,3.34-5.93-.58-1.5-1.82-2.12-3.23-2.56-.25-.08-.62-.34-.62-.52-.05-2.27-.25-4.53,1.16-6.62,1.13-1.68,1.94-3.59,2.9-5.39l.2.04v25.93c2.98-.12,5.89.46,8.73-1.11-.26.5-.41.79-.57,1.1,1.29.3,2.25.13,2.89-1.12.47-.93,1.15-1.76,1.76-2.62.15-.2.38-.49.58-.49,1.42-.04,2.84-.02,4.36-.02v4.31h1.73v-13.6c-1.91-.29-1.96-.27-2.96,1.2-.09.13-.18.27-.27.4-1.51,2.2-3.02,4.4-4.52,6.6m9.01-8.29v.97c0,1.95,0,3.89,0,5.84,0,2.05-.01,4.11.02,6.16,0,.26.19.68.36.72.45.1.93.03,1.48.03v-10.98c.3.41.47.64.63.88,2.05,3.04,4.15,6.06,6.13,9.16.62.98,1.32,1.1,2.29.88.03-.09.08-.17.08-.24.02-4.86.03-9.72.06-14.59,0-.48-.23-.59-.65-.58-1.46.01-2.92,0-4.38,0-.28,0-.57-.03-.83-.05v-4.26h5.59v-1.76h-5.61v-4.19h5.8v-1.78c-2.58,0-5.09.02-7.6-.01-.54,0-.81.21-1.1.64-2.07,3.1-4.16,6.18-6.25,9.27-.15.23-.32.45-.48.67l-.18-.08V2.32h-1.76v13.65c1.3.32,2.11-.04,2.85-1.19,1.96-3.07,4.09-6.03,6.15-9.04.17-.24.35-.48.53-.72l.18.09v10.97h5.77v10.2c-.26-.36-.42-.58-.57-.8-1.99-2.96-3.97-5.92-5.97-8.87-.15-.23-.39-.51-.62-.54-.6-.08-1.22-.03-1.93-.03M15.84,8.35c-.51-2.02-2.05-2.82-3.95-2.31-2.37.63-4.28,2-6.1,3.52-1.06.89-2.03,1.92-2.9,3-.99,1.23-.89,1.41.46,2.17.16.09.34.18.47.3.46.42.83.3,1.27-.08.82-.73,1.66-1.45,2.55-2.09.87-.63,1.83-1.12,2.71-1.73,1.69-1.17,3.4-2.27,5.48-2.78m-.08,15.11c-1.27-1.01-.43-2.55-.89-3.34.36-.93.61-1.59.92-2.39-1.1.32-.79,1.88-2.01,1.61-.19-.26-.43-.63-.61-.6-.92.15.06.83-.26,1.19-.23-.1-.44-.19-.65-.28.04.32.15.53.31.7.75.79,1.35,1.59.86,2.78-.08.2.13.72.31.78.71.24,1.46.35,2.2.52-.08-.23-.2-.33-.35-.37-.33-.08-.68-.09-.99-.22-.17-.08-.26-.34-.39-.52.2-.03.41-.1.61-.08.31.04.61.14.92.22m43.48,9.41c.18-.37.33-.66.47-.95-.29-.14-.57-.35-.88-.4-.43-.07-.88-.02-1.36-.02,0,.63-.01,1.11.01,1.59,0,.1.13.19.2.29.09-.08.21-.14.26-.23.06-.12.06-.28.08-.44.57.28,1.07.52,1.57.76l.11-.21c-.2-.16-.39-.32-.46-.38m-19.25-1.36c.17.73.3,1.3.43,1.87l.15-.05c.05-.21.11-.42.16-.64.55.28,1.04.53,1.53.78l.1-.23c-.19-.16-.39-.32-.45-.38.19-.36.52-.72.44-.88-.12-.23-.5-.41-.8-.46-.43-.08-.89-.02-1.55-.02m35.71.38c0-.1,0-.19,0-.29h-2.15v1.69h2.15v-.21c-.55-.06-1.11-.11-1.67-.17l.02-.21c.55-.04,1.11-.09,1.66-.13l-.03-.27c-.55-.04-1.11-.07-1.66-.11v-.22c.56-.03,1.11-.05,1.67-.08m-12.82,1.48l.2.06c.12-.24.24-.48.38-.76.34-.02.73.02,1.08-.07.21-.05.48-.32.49-.5.01-.17-.27-.5-.45-.52-.57-.07-1.15-.02-1.7-.02v1.81Zm-15.31-1.49v-.31c-.49-.02-1-.1-1.48-.03-.27.04-.5.36-.75.55.25.19.48.44.76.55.28.11.62.08.94.11v.18c-.57.06-1.13.13-1.69.19,0,.1.02.19.03.29.5,0,1.02.07,1.5-.03.26-.05.48-.38.71-.58-.23-.18-.43-.43-.69-.51-.3-.1-.64-.05-.96-.06v-.24c.55-.03,1.1-.06,1.65-.09m7.32-.45v2.14c.76-.18,1.47-.26,2.07-.55.16-.08.11-1.14-.06-1.21-.6-.25-1.3-.26-2-.37m14.42,1.97c.69.08,1.12-.12,1.13-.94,0-.84-.48-.96-1.14-.95-.99.01-1.11.14-1.14,1-.03.88.5.94,1.16.89m-1.63-.07l.02-.24c-.39-.05-.78-.1-1.25-.17.5-.43.92-.79,1.43-1.23-1.21-.31-1.97-.24-2.35.19.42.03.8.06,1.29.09-.53.45-.97.82-1.4,1.18l.13.17h2.14Zm4.81-.75c-.49-.38-.98-.76-1.47-1.14l-.25.18c.04.59.09,1.19.13,1.78.11,0,.21-.01.32-.02.04-.34.07-.69.11-1.09.56.44,1.05.82,1.63,1.27v-2.01l-.25-.04c-.08.35-.15.69-.23,1.06m-11.26.82c.66.05,1.21-.01,1.18-.89-.03-.83-.17-.99-1.08-.99-.99,0-1.14.14-1.17.99-.03.81.42.96,1.07.9m-16.28.1l.08-.24c-.24-.48-.47-.96-.74-1.42-.27-.47-.58-.45-.84,0-.27.48-.5.97-.75,1.46l.09.2c.72-.63,1.44-.6,2.16-.01m5.22-.1c.01-.1.02-.2.04-.31-.27-.03-.53-.06-.8-.09-.4-.04-.92.13-.9-.58.01-.68.51-.46.87-.5.27-.03.54-.03.81-.04v-.26c-.64-.17-1.35-.32-1.9.08-.26.19-.36,1.01-.17,1.3.5.77,1.35.26,2.04.39m.47-.64c.35.93,1.06.62,1.61.61.23,0,.6-.32.64-.54.08-.41-.04-.87-.07-1.3-.11.01-.22.02-.33.03-.03.44-.06.88-.1,1.48-.58-.09-1.12-.18-1.76-.28"/>
      <path class="cls-1" d="m55.38,31.82v1.28c.45-.13.83-.19,1.15-.35v-.58c-.32-.16-.7-.22-1.15-.35"/>
      <path class="cls-1" d="m68.68,33.03c.44-.07.83-.09,1.17-.23.08-.04.07-.67-.02-.7-.34-.13-.73-.12-1.14-.17v1.1Z"/>
      <path class="cls-1" d="m27.4,17.61c2.95-.02,5.41,2.39,5.41,5.31,0,3-2.4,5.43-5.38,5.45-2.88.02-5.39-2.34-5.39-5.06,0-3.28,2.25-5.67,5.36-5.69m-2.73,3.22c.36.74.63,1.31.92,1.9-.51.39-.97.74-1.52,1.16.75.18,1.35.33,1.96.47-.03.65-.06,1.22-.1,1.94.61-.49,1.11-.89,1.61-1.29.46.42.89.81,1.45,1.32v-2.13c.61-.11,1.15-.21,1.87-.33-.62-.5-1.11-.9-1.62-1.31.31-.56.59-1.06.96-1.73-.58.14-.98.2-1.35.34-.53.19-.8.03-.95-.49-.11-.37-.28-.72-.46-1.18-.35.71-.64,1.31-.92,1.89-.62-.19-1.14-.34-1.84-.55"/>
      <path class="cls-1" d="m45.86,27.9v-10.06c1.68-.01,3.32-.2,4.9.43,2.1.84,3.29,3.01,2.98,5.39-.3,2.25-2.07,4.02-4.36,4.22-1.14.1-2.3.02-3.51.02"/>
      <path class="cls-1" d="m45.88,14.25V4.12c1.6-.04,3.16-.15,4.67.37,2.12.74,3.39,2.8,3.19,5.16-.19,2.26-1.8,4.04-4.04,4.43-.61.11-1.23.13-1.85.16-.64.03-1.28,0-1.97,0"/>
      <path class="cls-1" d="m33.9,3.87c1.31,2.52,2.58,4.96,3.83,7.41.08.16.11.36.11.54,0,1.37,0,2.74,0,4.22-.85,0-1.62.02-2.39-.02-.2-.01-.44-.18-.58-.35-1.71-2.19-3.4-4.39-5.15-6.65,1.38-1.7,2.75-3.39,4.17-5.15"/>
      <path class="cls-1" d="m34.38,16.1v4.61c-1.42-3.18-3.77-4.86-7.18-4.87-.51-2.56-.17-3.86,1.36-5.28,1.18,1.53,2.39,3.04,3.53,4.61.47.65.97,1.03,1.79.89.15-.03.31.02.51.04"/>
      <path class="cls-1" d="m61.65,18.78v4.85h-3.31c1.1-1.61,2.14-3.13,3.31-4.85"/>
      <path class="cls-1" d="m55.38,31.82c.46.13.83.19,1.16.35v.58c-.33.16-.71.22-1.16.35v-1.28Z"/>
      <path class="cls-1" d="m68.68,33.03v-1.1c.41.05.8.04,1.14.17.09.03.11.67.02.7-.34.14-.73.16-1.17.23"/>
      <path class="cls-1" d="m60.56,31.77c.61.2,1,.28,1.33.46.07.04.01.59-.08.62-.31.1-.72.19-.97.05-.18-.1-.16-.57-.28-1.13"/>
    </g>
  </g>
</svg>