<?xml version="1.0" encoding="UTF-8"?>
<svg id="Layer_2" data-name="Layer 2" xmlns="http://www.w3.org/2000/svg" viewBox="0 0 86.46 32.33">
  <defs>
    <style>
      .cls-1 {
        fill: #000;
      }
       .cls-1:hover {
    fill: #000; /* Change the fill color to black on hover */
  }
    </style>
  </defs>
  <g id="Layer_1-2" data-name="Layer 1">
    <g>
      <path class="cls-1" d="m18.33,32.33c-.09-1.07-.23-2.13-.25-3.2-.04-1.79-.01-3.58-.01-5.36.09,0,.12-.02.12,0,1.15,1.55,1.98,3.2,1.74,5.22-.12,1.07-.47,2.04-1.1,2.91-.09.13-.14.29-.2.44h-.31Z"/>
      <path class="cls-1" d="m86.46,28.25c-.24.09-.48.19-.72.27l-.26-.04c-.45-.55-.88-1.11-1.33-1.7.45-.24.92-.46.71-1.08-.1-.31-.45-.43-1.02-.37v3.19h-.95v-3.9c.76.03,1.52-.1,2.26.16.81.29,1.01,1.13.42,1.75-.08.09-.18.17-.3.29.4.47.8.93,1.2,1.39v.06Z"/>
      <path class="cls-1" d="m42.27,10.62h2.38l.02.23c0,3.09,0,6.17,0,9.26,0,.32-.08.48-.39.58-.41.13-.81.3-1.2.48-.24.12-.35.04-.5-.15-1.76-2.23-3.53-4.45-5.3-6.67-.07-.09-.14-.17-.27-.31v7.07h-2.38c0-.12-.02-.23-.02-.34,0-3.07,0-6.13,0-9.2,0-.25.07-.37.3-.45.49-.17.98-.37,1.46-.59.21-.1.32-.05.46.12,1.72,2.1,3.45,4.2,5.17,6.3.07.09.14.17.26.3v-6.66Z"/>
      <path class="cls-1" d="m29.29,10.61h2.56c0,.12.02.24.02.36,0,2.04-.03,4.08,0,6.11.04,2.79-1.95,3.98-3.7,4.24-.99.15-1.99.14-2.97-.12-1.9-.51-3.04-1.92-3.08-3.87-.04-2.17-.02-4.34-.02-6.51l.02-.2h2.57v.42c0,1.93,0,3.87,0,5.8,0,.25,0,.5.05.74.17.93.72,1.53,1.66,1.67.48.07.99.05,1.46-.05.88-.19,1.39-.89,1.42-1.89.03-1.21.02-2.43.02-3.64,0-1.01,0-2.01,0-3.05"/>
      <path class="cls-1" d="m19.78,12.57c-.61,0-1.19-.03-1.76.01-.52.04-1.04.13-1.55.25-.38.09-.67.32-.73.75-.06.41.17.7.49.89.41.25.85.45,1.28.68.46.25.95.46,1.37.76,1.5,1.07,1.54,3.07.11,4.23-.85.69-1.87.97-2.92,1.04-1.09.08-2.18.04-3.27.06-.21,0-.31-.07-.33-.3-.05-.6-.12-1.2-.19-1.83.47.02.91.08,1.35.06.72-.03,1.43-.1,2.15-.18.19-.02.38-.1.55-.19.62-.31.74-1.08.21-1.53-.28-.24-.62-.4-.94-.58-.55-.3-1.14-.53-1.67-.86-1.82-1.14-1.81-3.38.01-4.52.79-.49,1.67-.72,2.58-.77.92-.05,1.85-.02,2.77-.01l.25.18c.1.63.17,1.26.24,1.86"/>
      <path class="cls-1" d="m58.93,21.14c-.4,0-.76.01-1.12-.01l-.16-.25c0-.66.02-1.32.02-1.98,0-2.64-.02-5.29-.02-7.93v-.38c.43,0,.82-.01,1.2,0,.86.04,1.73.06,2.58.14.32.03.64.16.94.29,1.79.79,2.23,2.96.87,4.38-.36.38-.77.7-1.22,1.1,1.23,1.31,2.47,2.65,3.74,4-.32.26-.62.51-.98.8-1.49-1.69-2.98-3.37-4.49-5.08.11-.06.18-.09.25-.13.45-.26.93-.48,1.35-.8.63-.48.86-1.16.78-1.94-.07-.73-.48-1.21-1.15-1.48-.83-.33-1.7-.24-2.59-.26v9.52Z"/>
      <polygon class="cls-1" points="47.95 10.62 54.49 10.62 54.49 11.68 49.22 11.68 49.22 15.14 54.49 15.14 54.49 16.2 49.21 16.2 49.21 20.07 54.61 20.07 54.61 21.12 47.95 21.12 47.95 10.62"/>
      <path class="cls-1" d="m75.13,10.52c.03.38.06.73.09,1.1-.57.03-1.13.04-1.68.08-.95.07-1.87.27-2.74.68-1.85.9-2.71,2.8-2.15,4.74.23.8.71,1.41,1.37,1.89,1.29.93,2.78,1.16,4.36,1.18v-4.44h1.25v5.42c-.5.02-.99.05-1.48.05-1.17,0-2.33-.11-3.43-.51-1.84-.66-3.12-1.86-3.48-3.85-.39-2.15.45-3.99,2.31-5.14,1.42-.88,3-1.16,4.63-1.2.31,0,.61,0,.94,0"/>
      <path class="cls-1" d="m82.43,21.12h-1.27c0-.11-.01-.21-.01-.32.01-1.43.03-2.86.03-4.29,0-.18-.07-.39-.18-.53-1.16-1.5-2.33-2.99-3.49-4.48-.07-.09-.14-.18-.23-.3.34-.26.67-.51,1.03-.78,1.18,1.57,2.34,3.11,3.53,4.69,1.22-1.58,2.41-3.12,3.62-4.68.3.23.6.45.91.68-.08.11-.15.2-.22.29-1.16,1.46-2.31,2.92-3.48,4.37-.2.25-.28.5-.28.81.02,1.42.03,2.84.04,4.26,0,.08,0,.16,0,.29"/>
      <path class="cls-1" d="m14.21,8.73c-.79-.98-1.36-2.03-1.67-3.21-.38-1.47-.37-2.92.37-4.29.23-.43.56-.82.85-1.23l.14.04c.1.7.25,1.39.27,2.09.05,1.39.03,2.78.04,4.17,0,.79,0,1.58,0,2.43"/>
      <path class="cls-1" d="m.03,18.35c.21-.05.42-.13.64-.16,1.69-.24,3.38-.19,5.08-.18.86,0,1.73,0,2.59,0h.3l-.02.08c-1.53,1.13-3.2,1.89-5.16,1.83-1.23-.04-2.33-.46-3.26-1.28l-.2-.14.03-.13Z"/>
      <path class="cls-1" d="m8.51,14.07c-.44.02-.87.07-1.31.07-1.53.02-2.99-.26-4.25-1.22-.85-.65-1.5-1.46-1.92-2.45-.04-.09-.06-.25-.01-.31l.3-.03c.64.25,1.31.45,1.9.78,1.72.95,3.41,1.96,5.11,2.95l.2.13v.06Z"/>
      <path class="cls-1" d="m3.11,26.24c2.24-1.98,4.93-3.07,7.36-4.6-.52,1.5-1.35,2.77-2.69,3.67-1.4.94-2.94,1.18-4.67.93"/>
      <path class="cls-1" d="m18.15,8.54c0-.75-.05-1.51.01-2.26.16-1.86.89-3.44,2.45-4.54.49-.34,1.05-.58,1.58-.86l.09.09c-.03.11-.06.22-.1.33-.51,1.37-1.23,2.62-1.97,3.87-.64,1.08-1.25,2.17-1.88,3.26l-.08.12h-.1Z"/>
      <path class="cls-1" d="m5.99,3.14c1.95,2.27,3.08,4.96,4.65,7.39-1.03-.11-3.12-1.72-3.9-3-.82-1.34-1.02-2.79-.75-4.39"/>
      <path class="cls-1" d="m14.05,23.73c.08,1.6,0,3.1-.61,4.53-.65,1.55-1.78,2.56-3.47,3.02.05-.15.08-.27.12-.37.47-1.27,1.12-2.44,1.81-3.6.68-1.14,1.36-2.28,2.03-3.42.02-.03.04-.06.12-.16"/>
      <path class="cls-1" d="m72.34,24.48c1.23,0,2.07.84,2.07,2.08,0,1.22-.86,2.09-2.07,2.1-1.23,0-2.09-.87-2.08-2.11,0-1.23.85-2.07,2.08-2.07m-1.08,2.08c0,.74.42,1.29,1.01,1.33.68.04,1.19-.58,1.15-1.38-.04-.76-.5-1.29-1.11-1.28-.6.02-1.05.58-1.05,1.33"/>
      <path class="cls-1" d="m79,28.59c-.31-.1-.59-.19-.89-.28.03-.09.05-.16.08-.22.48-1.09.96-2.18,1.43-3.28.08-.19.18-.26.39-.25.72,0,.72,0,1.01.66.4.92.81,1.85,1.21,2.77.04.09.07.19.12.32-.32.1-.62.18-.95.28-.13-.32-.25-.62-.36-.93-.06-.17-.15-.24-.33-.24-.34.01-.68.01-1.02,0-.19,0-.28.06-.34.23-.1.3-.23.59-.36.94m1.72-1.79c-.17-.44-.32-.86-.47-1.27h-.08c-.15.42-.31.83-.47,1.27h1.02Z"/>
      <path class="cls-1" d="m66.82,27.77c.4,0,.74,0,1.09,0l.24-.05c.14-.09.35-.2.35-.31,0-.14-.13-.34-.26-.43-.25-.17-.55-.28-.82-.43-.34-.2-.51-.5-.49-.9.03-.47.32-.74.72-.91.59-.25,1.21-.2,1.86-.17.03.26.06.51.1.78-.26,0-.49,0-.71,0l-.24.02c-.21.05-.49.05-.54.33-.05.28.2.38.4.48.22.12.45.21.66.34.72.44.72,1.33,0,1.76-.67.4-1.42.35-2.16.3l-.12-.14c-.03-.2-.05-.4-.07-.66"/>
      <polygon class="cls-1" points="76.2 27.74 78.02 27.74 78.02 28.51 75.26 28.51 75.26 24.63 76.2 24.63 76.2 27.74"/>
    </g>
  </g>
</svg>