<?xml version="1.0" encoding="UTF-8"?>
<svg id="Layer_2" data-name="Layer 2" xmlns="http://www.w3.org/2000/svg" viewBox="0 0 107.84 24.24">
  <defs>
    <style>
      .cls-1 {
        fill: #000;
      }
       .cls-1:hover {
    fill: #000; /* Change the fill color to black on hover */
  }
    </style>
  </defs>
  <g id="Layer_1-2" data-name="Layer 1">
    <g>
      <path class="cls-1" d="m0,10.84c.12-.55.22-1.09.36-1.63C1.54,4.47,5.51.87,10.33.16c.35-.05.7-.03,1.04-.16h.66l.03.08c-.04.4-.04.79,0,1.19-.75.08-1.51.12-2.26.28C5.52,2.43,2.05,6.1,1.39,10.41c-.37,2.44,0,4.74,1.16,6.92.05.1.21.22,0,.33-.21.12-.45.21-.64.36-.27.2-.38.1-.52-.16-.68-1.31-1.12-2.69-1.32-4.14-.01-.08.02-.18-.08-.23v-2.65Z"/>
      <path class="cls-1" d="m22.28,18.01l-.11-.13q-.54-.36-.27-.92c3.19-6.61-.8-14.32-8.04-15.53-.45-.07-.9-.09-1.36-.12-.2-.01-.29-.06-.28-.28.02-.34.01-.69.02-1.03h.59c.43.15.88.14,1.32.21,4.9.77,9.04,4.82,9.89,9.72.48,2.78.12,5.45-1.22,7.95-.07.14-.13.3-.33.27h0c-.01-.1-.06-.13-.15-.07h0s-.08-.07-.08-.07h0Z"/>
      <path class="cls-1" d="m2.61,17.73c.23-.04.24.18.32.29,1.86,2.79,4.42,4.53,7.76,4.92,4.48.53,8.01-1.15,10.58-4.84.29-.42.28-.42.73-.19.09.05.16.16.29.09h0c-.04.08.02.07.08.07h0c.02.09.07.11.15.08h0c.06.12.04.22-.04.35-2.11,3.27-5.06,5.27-8.95,5.67-4.95.5-8.83-1.42-11.63-5.53-.17-.24-.19-.38.11-.51.22-.1.41-.26.62-.39"/>
      <path class="cls-1" d="m98.49,8.7c-.02,1.18-.39,2.19-1.46,2.83-1.69,1.02-3.98-.06-4.27-2.01-.12-.79-.12-1.56.18-2.32.49-1.21,1.62-1.9,2.96-1.79,1.23.1,2.24,1.04,2.51,2.33.07.31.1.63.09.95m-1.24-.02c.02-.21-.02-.47-.07-.72-.14-.66-.7-1.25-1.27-1.33-.81-.1-1.42.19-1.75.91-.39.86-.35,1.72.17,2.52.35.54,1.02.77,1.65.61.8-.2,1.28-.93,1.28-2"/>
      <path class="cls-1" d="m103.08,11.72h-.26c-.3.05-.45-.07-.52-.37-.1-.38-.25-.74-.37-1.12-.05-.18-.16-.23-.32-.23-.38,0-.76.01-1.14,0-.23,0-.33.09-.39.3-.11.38-.25.74-.37,1.12-.07.21-.18.33-.42.3-.23-.02-.47-.02-.7,0-.27.04-.3-.07-.23-.29.45-1.3.9-2.6,1.35-3.9.21-.59.41-1.18.61-1.77.07-.21.2-.28.41-.29.95-.03.95-.04,1.25.84.56,1.65,1.12,3.3,1.68,4.95.15.45.15.45-.34.45h-.22Zm-2.07-2.83q.5,0,.35-.49c-.07-.21-.13-.42-.2-.63-.03-.09-.02-.22-.15-.21-.11,0-.1.12-.12.2-.07.21-.14.42-.21.63-.17.47-.15.5.35.5"/>
      <path class="cls-1" d="m76.9,8.61c0-.84,0-1.67,0-2.51,0-.26.07-.35.33-.34.69.01,1.38,0,2.07,0,.67,0,1.16.33,1.39.9.23.56.08,1.19-.4,1.64-.14.13-.13.19.02.27.75.4.82,1.16.65,1.78-.21.74-.77,1.12-1.58,1.12-.71,0-1.43-.01-2.14,0-.29,0-.35-.1-.35-.37.01-.83,0-1.67,0-2.51m1.77,2.16c.22,0,.44,0,.66,0,.58,0,.93-.35.96-.93.02-.5-.33-.92-.86-.95-.51-.03-1.03-.01-1.54-.02-.19,0-.25.1-.25.28,0,.45,0,.91,0,1.36,0,.19.07.27.26.27.26,0,.51,0,.77,0m-.14-2.56c.28-.01.57,0,.84-.04.45-.07.66-.38.66-.87,0-.47-.22-.72-.68-.81-.27-.05-.54-.04-.81-.04q-.9,0-.9.87t.88.89"/>
      <path class="cls-1" d="m51.63,10.16c.09-.15.02-.31.02-.46,0-1.2,0-2.41,0-3.61,0-.31.15-.33.39-.33.25,0,.34.08.34.34-.01,1.62,0,3.24-.01,4.87,0,.17.14.45-.15.49-.29.03-.62.15-.85-.24-.44-.76-.92-1.51-1.39-2.26-.32-.52-.64-1.05-.96-1.57-.05-.08-.06-.22-.18-.19-.13.03-.07.16-.07.25,0,1.2,0,2.41,0,3.61,0,.28-.03.42-.37.43-.34,0-.34-.16-.34-.41,0-1.62,0-3.24,0-4.87,0-.15-.1-.41.13-.43.27-.02.58-.15.79.2.6,1,1.22,1.99,1.82,2.98.21.35.42.7.63,1.04.04.07.07.16.19.15"/>
      <path class="cls-1" d="m59.02,8.61c0-.82.02-1.65,0-2.47,0-.32.1-.4.4-.39.75.02,1.5,0,2.25,0,.75,0,1.29.32,1.47.89.18.56.18,1.47-.48,1.85-.11.06-.19.15-.05.25.51.33.53.85.54,1.37,0,.39-.08.79.26,1.1l-.02.22c-.28.21-.9-.03-.94-.39-.03-.32-.04-.64-.04-.96,0-.82-.23-1.05-1.04-1.05-.44,0-.89,0-1.33,0-.2,0-.28.08-.28.28.01.6,0,1.2.02,1.81,0,.26-.07.36-.33.34-.23-.01-.44.04-.43-.32.02-.85,0-1.7,0-2.54h0Zm1.74-.28c.33,0,.59,0,.84,0,.52-.02.81-.3.85-.79.05-.66-.16-1-.73-1.07-.36-.05-.73-.03-1.1-.04-.86,0-.87,0-.86.84,0,.34-.15.77.07.99.22.22.66.04.93.07"/>
      <path class="cls-1" d="m69.43,8.62c0-.83,0-1.67,0-2.5,0-.28.08-.36.36-.35.54.02,1.08,0,1.62,0,1.2,0,1.9.46,2.23,1.62.33,1.12.29,2.24-.38,3.25-.34.51-.84.79-1.45.82-.7.03-1.4,0-2.1.02-.25,0-.27-.12-.27-.32,0-.85,0-1.69,0-2.54h0Zm.73-.03c0,.61.01,1.23,0,1.84,0,.28.09.37.36.35.33-.02.66,0,.99,0,.63,0,1.13-.35,1.35-.94.27-.71.27-1.45.09-2.17-.18-.75-.65-1.15-1.36-1.19-.39-.03-.79,0-1.18-.01-.22,0-.26.1-.26.3.01.61,0,1.23,0,1.84"/>
      <path class="cls-1" d="m37.66,8.59c0,.85-.02,1.7,0,2.54.01.33-.14.35-.4.35-.28,0-.36-.09-.35-.36.02-.64,0-1.28.01-1.92,0-.22-.07-.3-.29-.3-.73.01-1.45.01-2.17,0-.22,0-.3.07-.3.3.02.64,0,1.28.02,1.91.01.31-.12.37-.39.37-.25,0-.41-.01-.41-.35.01-1.68.01-3.36,0-5.05,0-.3.14-.34.39-.33.25,0,.43,0,.42.34-.02.6,0,1.2-.02,1.8,0,.24.08.3.29.3.73,0,1.45,0,2.17,0,.22,0,.3-.07.3-.3-.01-.6,0-1.2-.01-1.8-.01-.3.11-.35.37-.35.24,0,.39.02.38.33-.02.83,0,1.67,0,2.51"/>
      <path class="cls-1" d="m64.43,8.6c0-.82,0-1.65,0-2.47,0-.26.05-.38.34-.37,1.06.01,2.11.01,3.17,0,.26,0,.34.08.34.34,0,.28-.09.36-.36.36-.8-.01-1.6,0-2.4-.01-.27,0-.37.08-.35.36.02.35.02.71,0,1.07-.02.27.08.34.34.33.76-.01,1.52,0,2.29-.01.26,0,.37.05.37.35,0,.29-.09.38-.38.38-.75-.02-1.5,0-2.25-.01-.26,0-.38.06-.36.35.02.39.02.79,0,1.18-.01.26.08.35.34.34.85-.01,1.7,0,2.54-.01.27,0,.37.06.37.34,0,.29-.09.38-.38.38-1.08-.01-2.16-.01-3.25,0-.29,0-.38-.07-.38-.37.02-.84,0-1.67,0-2.51"/>
      <path class="cls-1" d="m86.2,8.62c0-.84.01-1.67,0-2.51,0-.27.08-.36.35-.36,1.05.01,2.09.01,3.14,0,.28,0,.36.09.36.36,0,.3-.13.34-.38.34-.79-.01-1.57,0-2.36-.01-.3,0-.39.09-.37.38.03.34.02.69,0,1.03-.02.29.1.35.36.35.76-.02,1.52,0,2.29-.01.26,0,.35.08.34.34,0,.24-.02.39-.33.38-.76-.02-1.52,0-2.29-.01-.26,0-.38.05-.36.35.02.39.02.79,0,1.18-.01.26.07.35.33.35.85-.01,1.7,0,2.54-.01.28,0,.37.08.36.35,0,.26-.05.38-.34.37-1.11-.01-2.21-.01-3.32,0-.27,0-.33-.1-.33-.35.01-.83,0-1.67,0-2.51"/>
      <path class="cls-1" d="m38.9,8.6c0-.84,0-1.67,0-2.51,0-.25.06-.34.33-.34,1.04.02,2.09.02,3.13,0,.28,0,.36.09.36.36,0,.26-.09.34-.35.34-.79-.01-1.57,0-2.36-.01-.32,0-.41.1-.39.4.02.34.02.69,0,1.03-.02.27.09.33.34.33.76-.01,1.53,0,2.29-.01.27,0,.37.08.36.36,0,.26-.07.37-.36.36-.76-.02-1.52,0-2.29-.01-.25,0-.36.05-.35.32.02.42.02.83,0,1.25,0,.23.08.3.3.3.85-.01,1.7,0,2.55-.02.28,0,.39.06.4.37,0,.32-.12.36-.4.36-1.08-.01-2.16-.01-3.24,0-.27,0-.34-.09-.33-.34.01-.85,0-1.7,0-2.54"/>
      <path class="cls-1" d="m54,8.6c0,.62.09,1.14.4,1.61.38.59.92.82,1.61.73.66-.09.98-.53,1.12-1.11.08-.33.16-.55.58-.5.27.03.3.12.26.34-.2,1.18-.87,1.87-1.95,1.97-1.23.11-2.19-.48-2.56-1.65-.39-1.24-.33-2.47.5-3.53.62-.8,1.5-.91,2.44-.73.77.15,1.19.69,1.41,1.4.04.13.22.37-.07.41-.21.03-.51.17-.65-.2-.34-.89-1.14-1.23-2.02-.86-.55.23-.8.71-.95,1.24-.09.31-.15.62-.12.88"/>
      <path class="cls-1" d="m104.88,9.22c0-.72,0-1.45,0-2.17,0-.28-.08-.4-.38-.39-.37.02-.74,0-1.1.01-.26,0-.35-.1-.34-.35.02-.89-.1-.74.73-.75,1.2,0,2.41,0,3.61,0,.35,0,.47.12.43.45-.01.11,0,.22,0,.33.02.24-.09.33-.33.33-.36,0-.71.02-1.07,0-.31-.02-.4.08-.4.39.02,1.4,0,2.8.02,4.2,0,.36-.11.46-.46.45-.71-.02-.71,0-.71-.71v-1.77"/>
      <path class="cls-1" d="m30.14,8.93c0-.73,0-1.45,0-2.17,0-.23-.07-.31-.29-.3-.41,0-.81,0-1.22,0-.26.01-.3-.12-.3-.34,0-.23.02-.37.31-.36,1.24.01,2.48.01,3.72,0,.25,0,.32.1.31.33,0,.22-.02.38-.31.37-.39-.02-.79,0-1.18-.01-.24,0-.32.08-.31.32.01,1.44,0,2.88.01,4.31,0,.31-.08.4-.39.41-.34,0-.38-.14-.37-.42.02-.71,0-1.42,0-2.14h0Z"/>
      <path class="cls-1" d="m81.92,8.6c0-.83.01-1.67,0-2.51,0-.31.14-.34.38-.33.24,0,.39.02.39.33-.02,1.44,0,2.87-.02,4.31,0,.29.08.38.38.37.66-.02,1.33.01,1.99-.02.33-.01.31.17.32.39.01.25-.07.34-.33.34-.92-.02-1.84-.01-2.77,0-.25,0-.35-.08-.34-.34.01-.85,0-1.7,0-2.54"/>
      <path class="cls-1" d="m46.1,8.61c0-.83.01-1.67,0-2.5,0-.29.1-.36.36-.35.23.01.43-.01.43.33-.01,1.69-.01,3.39,0,5.08,0,.37-.23.29-.45.31-.25.02-.35-.06-.34-.33.01-.85,0-1.69,0-2.54h0Z"/>
      <path class="cls-1" d="m74.95,8.63c0-.85.01-1.69,0-2.54,0-.3.12-.34.38-.34.24,0,.39.02.38.33-.01,1.69-.01,3.38,0,5.07,0,.33-.18.31-.4.31-.23,0-.37-.02-.36-.31.02-.85,0-1.69,0-2.54"/>
      <path class="cls-1" d="m47.95,16.66c0-.32,0-.64,0-.96-.01-.29.16-.34.34-.21.15.11.23.06.35-.02.3-.19.61-.19.89.05.15.12.23.11.37,0,.27-.22.58-.23.9-.07.29.15.32.41.31.69-.01.45,0,.91,0,1.36,0,.17.08.41-.22.41-.28,0-.2-.23-.2-.39,0-.4,0-.81,0-1.22,0-.29-.05-.53-.39-.56-.26-.02-.51.24-.52.56-.01.42,0,.84,0,1.25,0,.18,0,.37-.25.35-.25-.01-.19-.21-.19-.36,0-.42,0-.84,0-1.25,0-.28-.06-.54-.4-.55-.32,0-.5.21-.52.51-.03.43-.02.86-.02,1.29,0,.15.05.35-.2.35-.27.01-.23-.19-.23-.36,0-.3,0-.59,0-.89"/>
      <path class="cls-1" d="m70.38,17.19c0-.49,0-.98,0-1.47,0-.26.11-.35.33-.22.13.08.21.04.33-.02.54-.27,1.06-.1,1.32.45.23.5.24,1.02,0,1.52-.25.51-.77.7-1.27.45-.28-.14-.28-.03-.27.19,0,.17,0,.34,0,.51,0,.17-.02.3-.22.31-.22.01-.22-.14-.22-.29,0-.48,0-.96,0-1.43m.43-.5c0,.55.26.94.62.93.35-.01.64-.42.65-.9,0-.56-.26-.95-.65-.95-.38,0-.62.35-.62.92"/>
      <path class="cls-1" d="m45.41,16.18c0,.48,0,.96,0,1.43,0,.24-.05.43-.34.21-.12-.1-.2,0-.29.04-.5.28-1.06.12-1.32-.38-.26-.51-.28-1.04-.03-1.56.26-.54.77-.72,1.32-.46.22.11.29.08.26-.16-.02-.19,0-.39-.01-.59,0-.16.06-.27.23-.27.17,0,.18.13.18.26v1.47m-.4.46c-.01-.09-.02-.21-.05-.33-.09-.28-.22-.54-.56-.54-.32,0-.51.2-.61.49-.04.13-.07.26-.08.39-.02.5.31.96.67.96.35,0,.64-.43.63-.98"/>
      <path class="cls-1" d="m60.14,16.18c0,.48,0,.96,0,1.43,0,.24-.06.43-.34.2-.11-.09-.17-.03-.26.02-.59.32-1.14.16-1.4-.43-.23-.51-.23-1.02.03-1.53.26-.5.82-.68,1.31-.4.24.14.24.04.23-.14,0-.21,0-.42,0-.62,0-.16.04-.27.22-.27.18,0,.22.11.22.27,0,.49,0,.98,0,1.47m-.44.5c0-.57-.24-.92-.62-.92-.39,0-.64.35-.64.91,0,.53.27.92.64.93s.63-.38.62-.93"/>
      <path class="cls-1" d="m63.85,16.82c-.21,0-.42,0-.63,0-.21,0-.26.1-.19.28.1.26.26.45.54.5.26.04.45-.08.58-.3.1-.17.26-.27.43-.15.2.14.01.3-.06.41-.36.59-1.28.61-1.7.07-.58-.77-.26-2.02.58-2.24.74-.2,1.5.55,1.32,1.28-.03.13-.11.15-.22.15-.22,0-.44,0-.66,0h0Zm-.24-.35h.48c.14,0,.21-.07.16-.21-.08-.21-.21-.4-.43-.47-.23-.07-.44-.02-.6.16-.1.12-.24.25-.18.41.06.18.26.07.39.09h.18Z"/>
      <path class="cls-1" d="m100.31,16.82c-.16,0-.32,0-.48,0-.11,0-.26-.06-.32.1-.05.13.03.24.09.34.26.43.71.46,1.02.07l.17-.19h.28c.11.07.05.17.01.26-.16.37-.45.57-.85.6-.43.03-.79-.1-1-.49-.29-.54-.29-1.11.01-1.65.27-.48.79-.63,1.31-.42.43.18.74.75.66,1.21-.03.15-.13.16-.24.16-.22,0-.44,0-.66,0h0Zm-.12-.36c.16-.1.47.19.55-.17.05-.23-.32-.53-.6-.53-.2,0-.36.09-.47.24-.09.11-.21.24-.13.39.07.13.22.06.34.07.1,0,.19,0,.32,0"/>
      <path class="cls-1" d="m79.12,16.81c-.2,0-.39.01-.59,0-.26-.01-.29.12-.22.32.09.25.27.41.53.46.24.04.42-.08.57-.27l.08-.12c.1-.11.23-.16.36-.06.11.08.05.2,0,.3-.21.4-.55.57-1,.56-.46-.02-.77-.26-.92-.67-.16-.43-.15-.87,0-1.3.16-.44.6-.72,1.03-.7.46.02.85.35.97.82.16.6.14.64-.48.66-.11,0-.22,0-.33,0m-.23-.35c.11,0,.22,0,.33,0,.31,0,.36-.11.21-.39-.22-.38-.72-.43-.99-.09-.09.11-.21.24-.14.4.07.16.24.06.37.08h.22Z"/>
      <path class="cls-1" d="m36.34,16.72v.59c0,.11,0,.23.11.29.11.06.24.14.14.28-.1.15-.32.19-.42.07-.24-.25-.42-.12-.66-.02-.65.25-1.18-.13-1.14-.77.02-.28.15-.46.41-.55.19-.07.39-.13.61-.14.22-.01.46-.04.53-.3.05-.17-.08-.29-.22-.34-.23-.09-.48-.11-.68.1l-.02.03c-.09.2-.25.38-.44.21-.21-.18,0-.39.13-.53.24-.28.82-.35,1.24-.18.38.15.44.46.43.81,0,.16,0,.32,0,.48h0Zm-.41.25c0-.09.03-.25-.13-.22-.26.05-.54.04-.77.19-.13.08-.23.2-.21.36.01.16.13.26.28.3.4.12.84-.2.84-.63"/>
      <path class="cls-1" d="m55.53,16.66c0,.21,0,.42,0,.63,0,.11.01.23.12.29.12.08.26.16.14.31-.11.15-.32.17-.43.05-.21-.22-.36-.16-.59-.03-.34.18-.79.1-.99-.14-.22-.25-.28-.54-.13-.85.14-.31.44-.37.73-.43.17-.04.34-.04.51-.08.15-.04.26-.15.24-.33-.02-.17-.12-.27-.28-.3-.26-.05-.54-.05-.68.22-.09.18-.23.25-.38.16-.19-.12-.05-.28.02-.41.19-.35.69-.5,1.18-.37.45.12.57.28.57.8,0,.16,0,.32,0,.48h0Zm-.4.33c-.02-.08.05-.27-.13-.24-.27.04-.56.05-.8.21-.11.08-.21.19-.18.33.02.16.14.26.28.3.38.12.81-.18.84-.6"/>
      <path class="cls-1" d="m84.28,16.68c0,.21,0,.42,0,.63,0,.11,0,.23.12.29.13.07.26.15.14.3-.1.12-.31.17-.4.06-.25-.28-.45-.12-.7-.03-.66.24-1.23-.21-1.11-.85.08-.41.4-.52.75-.6.18-.04.37-.04.54-.09.13-.04.24-.13.24-.29,0-.17-.11-.29-.26-.32-.27-.06-.55-.09-.71.22-.09.17-.23.25-.39.15-.16-.1-.07-.26,0-.39.21-.37.72-.52,1.24-.38.4.11.52.3.52.8v.48h0Zm-.41.32c-.01-.1.04-.28-.15-.25-.25.04-.52.05-.74.18-.13.07-.23.19-.22.36.01.15.12.24.25.29.38.16.86-.17.87-.59"/>
      <path class="cls-1" d="m29.99,16.18v-1.36c0-.17-.04-.38.23-.36.26.01.21.22.21.39,0,.18,0,.37,0,.55,0,.18.04.21.21.12.73-.39,1.27-.07,1.27.76,0,.46,0,.91,0,1.36,0,.17-.04.29-.24.28-.2,0-.2-.15-.19-.29,0-.43,0-.86,0-1.29,0-.39-.17-.58-.47-.58-.34,0-.53.21-.56.53-.04.43-.02.86-.02,1.29,0,.16.02.34-.22.35-.23,0-.23-.17-.23-.33,0-.47,0-.93,0-1.4"/>
      <path class="cls-1" d="m87.77,18c-.54,0-.8-.16-.94-.53-.04-.12-.14-.26.05-.35.16-.07.3-.02.37.14.13.31.37.38.66.32.17-.03.35-.12.35-.32,0-.19-.15-.3-.33-.35-.13-.04-.26-.06-.39-.1-.56-.15-.76-.39-.69-.83.06-.4.49-.7.97-.66.3.03.58.12.74.41.06.11.16.26,0,.35-.13.07-.29.07-.38-.1-.13-.26-.36-.28-.6-.22-.14.03-.24.14-.25.29-.01.14.07.23.2.28.2.07.4.11.6.18.47.15.63.35.61.75-.02.37-.29.63-.73.71-.1.02-.2.02-.23.02"/>
      <path class="cls-1" d="m104.44,17.99c-.36,0-.69-.08-.85-.46-.06-.14-.18-.31.04-.41.18-.09.29.02.39.17.19.3.47.39.75.26.12-.06.26-.13.25-.29,0-.16-.12-.27-.27-.32-.21-.07-.43-.11-.64-.17-.32-.1-.53-.31-.54-.66,0-.33.23-.61.58-.72.48-.14.94,0,1.14.36.06.12.16.26,0,.35-.13.07-.29.07-.38-.1-.11-.22-.31-.26-.53-.23-.18.02-.29.13-.32.31-.02.17.09.24.23.28.18.05.35.1.53.15.48.15.7.4.66.76-.04.37-.37.67-.82.72h-.22Z"/>
      <path class="cls-1" d="m93.09,16.69c0,.31,0,.61,0,.92,0,.32-.11.39-.36.21-.13-.1-.19-.04-.28.03-.22.17-.48.19-.74.13-.33-.08-.54-.27-.54-.64,0-.54,0-1.08,0-1.62,0-.14,0-.28.2-.28.21,0,.22.13.22.3-.01.43,0,.86,0,1.29,0,.29.07.54.42.59.28.04.56-.19.62-.52.08-.44.03-.88.03-1.32,0-.17-.03-.33.22-.34.24,0,.22.17.22.33,0,.31,0,.61,0,.92h0Z"/>
      <path class="cls-1" d="m38.98,16.64c0-.31,0-.61,0-.92,0-.11-.03-.23.12-.27.1-.02.2-.04.25.08.08.18.15.08.24,0,.3-.25.62-.26.96-.09.31.16.35.44.35.75,0,.47,0,.93,0,1.4,0,.16-.02.31-.22.31-.22,0-.21-.16-.21-.32,0-.43,0-.86,0-1.29,0-.29-.1-.52-.41-.56-.3-.04-.48.13-.58.4-.06.16-.1.33-.09.5,0,.31,0,.61.01.92,0,.17.01.34-.23.34-.21,0-.21-.16-.2-.32,0-.32,0-.64,0-.96"/>
      <path class="cls-1" d="m74.93,16.19v-1.43c0-.15-.01-.31.21-.31.2,0,.23.13.23.3,0,.96,0,1.91,0,2.87,0,.16,0,.31-.21.31-.2,0-.23-.14-.22-.3,0-.48,0-.96,0-1.43"/>
      <path class="cls-1" d="m95.9,15.44l.07.02c.17.3.31.07.45-.03.1-.07.21-.13.34-.06.1.05.12.15.12.25,0,.12-.07.18-.18.2-.47.08-.6.4-.6.83,0,.32,0,.64,0,.95,0,.16.01.34-.23.33-.2-.01-.22-.15-.21-.31,0-.64,0-1.27,0-1.91,0-.16.04-.26.25-.26"/>
      <path class="cls-1" d="m11.66,11.58c.7-1.07,2.14-1.65,3.4-1.37.27.06.51.18.7.39l.18.1c.09-.03.07-.12.08-.19.06-.4.13-.8.17-1.2.03-.29-.04-.53-.43-.52-.2,0-.4-.1-.6-.16-.13-.04-.38,0-.36-.15.01-.15.04-.34.19-.48.43-.4.57-.4,1.04-.03,1.12.89,1.51,2.16,1.86,3.46.09.35-.2.48-.47.55-.76.19-1.52.26-2.28,0-.46-.16-.91-.37-1.4-.45-.17-.03-.29-.05-.38.21-.23.67-1.14,1.22-1.84,1.18-.6-.03-1.23-.57-1.41-1.18-.04-.13-.12-.28-.01-.38.11-.1.26,0,.38.06.6.29.9.8,1.1,1.46.34-.77.87-1.23,1.73-1.31-.34-.09-.6-.07-1.18.06-.14.03-.3.15-.43-.03h0Z"/>
      <path class="cls-1" d="m11.67,11.57c-.12.14-.25.05-.37,0-.61-.31-1.23-.45-1.95-.39-.9.07-1.63-.47-2.36-.92-.14-.08-.14-.21-.07-.35.31-.56.6-1.13.93-1.67.17-.27.48-.41.77-.55.21-.1.32.11.47.21.17.11.17.32.23.48l-.18.08c-.15,0-.29.02-.44.04-.49.08-.5.08-.46.6.02.23.06.46.08.69.02.13.04.2.21.13,1.27-.55,2.63.09,3.03,1.42l.08.24h0Z"/>
      <path class="cls-1" d="m11.73,17.75c.16-.71.45-1.2,1.14-1.33.1-.02.19-.02.29-.02.22,0,.27.11.2.31-.16.45-.54.65-.93.84-.58.28-.59.28-.49.9.1.62.22,1.23.33,1.85.02.11.12.28-.03.32-.21.05-.17-.18-.19-.28-.14-.72-.27-1.45-.38-2.17-.03-.22-.11-.31-.33-.34-.49-.07-.81-.37-1.02-.8-.13-.26-.02-.34.22-.33.47.02.74.33.97.7.07.1.12.21.21.38"/>
      <path class="cls-1" d="m14.58,8.15c-.36.48-.8.73-1.29.89-.66.21-1.31.29-1.92-.17-.37-.28-.63-.62-.6-1.11,0-.1-.05-.24.07-.3.12-.06.24.03.34.1.45.31.73.75.85,1.28l.04.21.06.03c.6-.79,1.41-1.07,2.45-.93"/>
      <path class="cls-1" d="m11.52,14.07c.25-.66.64-1.1,1.26-1.28.13-.04.31-.13.41,0,.09.11-.05.25-.11.37-.31.58-1.15,1.06-1.73,1-.58-.06-1.17-.61-1.34-1.23-.07-.25-.01-.32.24-.26.45.11.75.41.98.79.1.17.18.36.3.61"/>
      <path class="cls-1" d="m11.55,15.28c.2-.68.59-1.15,1.28-1.32.1-.02.24-.07.31.02l-.05.28c-.23.57-1.02,1.12-1.65,1.13-.54,0-1.14-.43-1.37-1.02-.04-.11-.15-.23-.04-.33.09-.09.24-.04.35,0,.47.16.77.51.98.94.05.09.04.22.18.3"/>
      <path class="cls-1" d="m11.61,16.56c.2-.85.67-1.33,1.28-1.38.34-.03.38.03.25.34-.2.51-1.12,1.11-1.68,1.1-.57-.01-1.09-.4-1.29-.94-.11-.3-.05-.39.27-.32.43.08.71.37.93.73.08.13.14.27.25.48"/>
      <path class="cls-1" d="m15.15,7.1c-.75.69-1.6.9-2.52.92-.24,0-.16-.12-.08-.22.23-.29.53-.48.86-.61.54-.21,1.1-.25,1.73-.09"/>
      <path class="cls-1" d="m13.54,5.28c.3.68-.21,1.69-.8,2.11-.2.15-.22-.02-.25-.15-.17-.75.31-1.65,1.05-1.97"/>
      <path class="cls-1" d="m14.1,9.27c-.51.77-1.23,1.08-2.06,1.16-.29.03-.11-.17-.07-.26.35-.62,1.26-1.02,2.13-.91"/>
      <path class="cls-1" d="m11.8,10.24c.03.17-.07.18-.2.15-.55-.11-1.17-.87-1.19-1.45,0-.23.07-.29.28-.21.47.17,1.1,1.01,1.11,1.51"/>
      <path class="cls-1" d="m11.17,6.66c.03-.13-.03-.34.12-.42.15-.08.29.08.41.18.41.34.62.78.69,1.29.03.2,0,.31-.25.19-.62-.3-.97-.72-.97-1.25"/>
      <path class="cls-1" d="m12.05,1.27c-.03-.4-.04-.79,0-1.19.07.4.08.79,0,1.19"/>
    </g>
  </g>
</svg>