<?xml version="1.0" encoding="UTF-8"?>
<svg id="Layer_2" data-name="Layer 2" xmlns="http://www.w3.org/2000/svg" viewBox="0 0 133.13 23.87">
  <defs>
    <style>
      .cls-1 {
        fill: #000;
      }
       .cls-1:hover {
    fill: #000; /* Change the fill color to black on hover */
  }
    </style>
  </defs>
  <g id="Layer_1-2" data-name="Layer 1">
    <g>
      <path class="cls-1" d="m8.63,0c.68.08,1.36.14,2.04.23,1.66.22,3.32.41,4.97.7,1.49.26,2.97.58,4.44.97,1.12.29,2.22.67,3.29,1.1.78.31,1.52.76,2.26,1.18.13.07.24.3.25.46.05,1.15.07,2.29.1,3.44l.02.27c0,.12,0,.23,0,.35-.13,0-.29.04-.4,0-1.78-.76-3.54-1.56-5.33-2.28-2-.8-4.01-1.58-6.04-2.26-1.68-.56-3.4-1.01-5.12-1.43-.92-.23-1.88-.3-2.82-.46-.77-.13-1.54-.29-2.31-.45-1.13-.24-2.26-.49-3.39-.74-.2-.04-.38-.14-.57-.21v-.31c.33-.12.66-.24.99-.35.26-.08.53-.13.79-.2h6.84Z"/>
      <path class="cls-1" d="m91.17,14.98v4.61h-3.21V3.76c.09,0,.19-.03.29-.03,1.93,0,3.86-.02,5.79.01.68.01,1.37.12,2.03.28,1.69.43,2.75,1.54,3.16,3.23.34,1.35.33,2.72-.02,4.06-.53,2.04-1.97,3.33-4.07,3.55-1.09.12-2.2.08-3.29.11-.21,0-.41,0-.67,0m.01-2.76c1,0,1.98.06,2.94-.01,1.07-.08,1.72-.66,1.91-1.71.13-.69.16-1.42.07-2.11-.16-1.29-.84-1.84-2.14-1.88-.67-.02-1.35-.01-2.02-.01-.25,0-.51,0-.77,0v5.74Z"/>
      <path class="cls-1" d="m101.29,8.33c2.07-.52,4.13-.89,6.24-.55,1.8.29,2.72,1.44,2.76,3.38.03,1.65.01,3.31.01,4.96,0,.15,0,.31.01.46.04.47.2.86.7.94v2.35c-1.12.01-2.17-.02-3.1-.63-.21-.14-.38-.13-.6-.04-1.14.5-2.34.76-3.59.65-1.92-.16-2.97-1.18-3.12-3.1-.05-.56-.02-1.14.06-1.7.14-1.03.74-1.73,1.71-2.12,1.07-.42,2.2-.44,3.32-.53.4-.03.8-.07,1.2-.08.22,0,.28-.1.29-.31.06-1.39-.27-1.74-1.67-1.71-1.22.03-2.43.1-3.65.15-.14,0-.28,0-.48,0-.03-.71-.07-1.41-.1-2.13m5.89,6.12c-.9.1-1.75.14-2.57.3-.7.14-.99.8-.85,1.68.1.64.49.97,1.21.92.67-.05,1.32-.19,1.98-.31l.22-.2c.02-.77,0-1.54,0-2.38"/>
      <path class="cls-1" d="m112.99,16.74c.93.1,1.8.23,2.68.27.85.04,1.7.01,2.55-.04.23-.01.49-.19.64-.37.29-.36.1-.9-.37-1.06-.55-.18-1.12-.28-1.69-.42-.69-.16-1.4-.28-2.07-.49-1.16-.36-1.86-1.17-1.97-2.38-.05-.61-.03-1.25.1-1.84.32-1.52,1.42-2.23,2.85-2.56,1.24-.28,2.47-.15,3.71.03.69.1,1.38.22,2.06.36.1.02.27.15.27.23.02.79.01,1.57.01,2.39-.84-.09-1.6-.21-2.37-.25-.91-.05-1.83-.07-2.75-.03-.52.02-.77.27-.82.63-.04.38.13.69.57.81.71.19,1.44.3,2.15.49.68.18,1.38.37,2.03.64.92.38,1.36,1.14,1.48,2.11.09.78.07,1.55-.18,2.3-.46,1.4-1.55,2-2.91,2.23-1.58.27-3.15.06-4.71-.19-.37-.06-.74-.12-1.11-.21-.09-.02-.23-.15-.23-.22.01-.79.05-1.57.08-2.41"/>
      <path class="cls-1" d="m132.79,10.82c-1.19-.11-2.3-.24-3.41-.31-.58-.04-1.16,0-1.74.05-.52.05-.76.29-.79.66-.03.4.16.68.67.81.81.21,1.65.34,2.46.54.54.14,1.06.32,1.58.53.84.35,1.33,1.01,1.48,1.9.14.8.12,1.6-.09,2.38-.41,1.49-1.53,2.14-2.95,2.38-1.59.27-3.17.07-4.75-.19-.36-.06-.71-.12-1.07-.2-.1-.02-.24-.14-.24-.22-.02-.79-.01-1.57-.01-2.43.73.08,1.34.17,1.95.21.96.06,1.91.1,2.87.12.25,0,.51-.08.75-.15.32-.1.5-.33.51-.66.01-.33-.14-.6-.45-.7-.57-.17-1.15-.3-1.73-.43-.7-.17-1.42-.29-2.11-.5-1.18-.37-1.85-1.21-1.95-2.44-.04-.57-.02-1.17.09-1.73.32-1.53,1.41-2.27,2.85-2.6,1.24-.29,2.47-.15,3.71.02.71.1,1.4.23,2.1.36.1.02.24.16.24.25.02.77.01,1.55.01,2.34"/>
      <path class="cls-1" d="m27.19,14.92c0,.28-.16.39-.42.26-.63-.32-1.26-.65-1.89-.98-.76-.4-1.53-.8-2.29-1.2-1.45-.76-2.89-1.52-4.34-2.28-1.04-.54-2.08-1.07-3.12-1.62-1.13-.59-2.25-1.2-3.38-1.78-1.47-.75-2.95-1.49-4.42-2.23-.63-.32-1.27-.62-1.89-.97-.17-.09-.25-.32-.38-.49.19-.13.37-.36.57-.37.57-.04,1.17-.07,1.74.01,1.7.24,3.35.71,4.97,1.28,1.64.58,3.28,1.15,4.89,1.79,2.04.81,4.06,1.69,6.09,2.56.72.31,1.42.67,2.14.99.51.23.5.73.62,1.15.29,1,.54,2.01.82,3.02.08.31.2.6.3.88"/>
      <path class="cls-1" d="m62.11,18.23c-.03.53-.06,1.04-.09,1.61-.96.05-1.86-.11-2.65-.67-.23-.17-.41-.17-.66-.06-1.3.56-2.66.82-4.09.74-1.43-.09-2.5-.93-2.76-2.34-.13-.72-.14-1.49-.06-2.23.12-1.08.78-1.85,1.82-2.15.88-.25,1.8-.36,2.7-.48.79-.11,1.6-.15,2.47-.23-.04-.59-.04-1.16-.14-1.71-.11-.64-.57-1.07-1.24-1.09-.93-.04-1.86,0-2.79.04-.71.03-1.41.11-2.16.18-.03-.53-.05-1.04-.08-1.58,2.02-.4,4-.81,6.03-.42,1.46.28,2.28,1.2,2.43,2.68.08.73.07,1.47.08,2.2.01,1.29,0,2.58,0,3.88,0,1.14.09,1.27,1.17,1.64m-3.34-4.24c-1.2.12-2.34.21-3.46.37-.77.11-1.23.59-1.33,1.32-.05.38-.04.78.02,1.15.15.83.65,1.22,1.49,1.23,1.05,0,2.06-.18,3.04-.54.1-.03.22-.16.23-.25.01-1.07,0-2.14,0-3.28"/>
      <path class="cls-1" d="m32.02,23.79c-.56.24-.86-.12-1.18-.34-1.42-.98-2.83-1.98-4.25-2.96-3.13-2.15-6.24-4.3-9.39-6.41-1.51-1.01-3.1-1.91-4.62-2.89-.99-.64-1.95-1.35-2.89-2.06-.19-.14-.42-.45-.39-.64.06-.37.46-.29.75-.29,1.08,0,2.09.32,3.03.78,1.62.79,3.2,1.65,4.78,2.51,1.78.97,3.54,1.96,5.31,2.94,1.44.8,2.89,1.58,4.33,2.39.17.09.32.27.41.44.64,1.21,1.21,2.46,1.92,3.62.55.89,1.29,1.66,1.94,2.49.1.13.17.27.26.42"/>
      <path class="cls-1" d="m73.83,19.6h-2.15v-.41c0-2.05,0-4.11,0-6.16,0-.57-.05-1.13-.14-1.69-.18-1.15-.71-1.64-1.86-1.7-1.05-.06-2.06.19-3.01.63-.11.05-.2.28-.2.43-.01,2.78,0,5.55,0,8.33v.56h-2.14V7.96h2.08c.02.22.03.45.05.72.15-.07.28-.12.4-.19,1.06-.56,2.19-.84,3.4-.81,1.91.06,3.02.96,3.36,2.84.13.73.22,1.48.23,2.23.03,2.19.02,4.39.02,6.59,0,.08,0,.15-.01.27"/>
      <path class="cls-1" d="m76.5,19.38c.04-.64.07-1.23.1-1.85.77.09,1.51.22,2.25.26.94.05,1.89.11,2.82.02,1.13-.11,1.65-.87,1.44-1.86-.12-.57-.53-.86-1.04-.99-.75-.19-1.52-.29-2.28-.47-.65-.15-1.32-.29-1.94-.54-.97-.38-1.46-1.15-1.52-2.19-.02-.4-.03-.81.03-1.2.24-1.54,1.21-2.44,2.86-2.73,1.46-.26,2.92-.08,4.37.12.37.05.74.11,1.1.2.1.02.23.17.23.26.02.51.01,1.03.01,1.58-.84-.1-1.6-.2-2.35-.27-.98-.09-1.96-.21-2.94.04-.69.17-1.09.56-1.16,1.1-.09.74.21,1.23.98,1.45.72.2,1.46.32,2.2.48.58.13,1.16.27,1.73.44,1.17.36,1.82,1.15,1.88,2.37.02.5.03,1.01-.05,1.5-.24,1.49-1.22,2.27-2.64,2.57-1.46.31-2.91.17-4.37-.03-.56-.08-1.12-.18-1.72-.28"/>
      <polygon class="cls-1" points="37.09 5.52 32.37 5.52 32.37 3.58 44.02 3.58 44.02 5.51 39.34 5.51 39.34 19.58 37.09 19.58 37.09 5.52"/>
      <path class="cls-1" d="m44.26,7.95h2.09v1.46c1.33-.8,2.63-1.43,4.15-1.72,0,.69,0,1.36-.01,2.02,0,.08-.18.17-.3.21-1.16.41-2.32.81-3.48,1.2-.25.09-.31.24-.31.49,0,2.49,0,4.99,0,7.48v.49h-2.14V7.95Z"/>
    </g>
  </g>
</svg>