<?xml version="1.0" encoding="UTF-8"?>
<svg id="Layer_2" data-name="Layer 2" xmlns="http://www.w3.org/2000/svg" viewBox="0 0 101.99 10.73">
  <defs>
    <style>
      .cls-1 {
        fill: #000;
      }
       .cls-1:hover {
    fill: #000; /* Change the fill color to black on hover */
  }
    </style>
  </defs>
  <g id="Layer_1-2" data-name="Layer 1">
    <g>
      <path class="cls-1" d="m0,.12c.39.01.78.05,1.17.03.36-.02.49.12.57.47.58,2.52,1.18,5.03,1.77,7.54.03.13.08.26.14.43.73-2.68,1.46-5.3,2.14-7.94.13-.51.41-.54.8-.49.38.05.83-.23,1,.47.64,2.59,1.35,5.15,2.07,7.88.18-.73.34-1.34.5-1.95.04-.17.03-.41.28-.42.41,0,.83-.11,1.22.03.14.05,0,.22-.03.33-.35,1.22-.71,2.44-1.05,3.66-.09.34-.23.45-.59.44-1.22-.02-1.23,0-1.53-1.14-.61-2.3-1.21-4.6-1.84-7.02-.32,1.19-.6,2.27-.9,3.35-.38,1.41-.79,2.8-1.15,4.21-.11.43-.29.63-.79.61-1.07-.04-1.06-.01-1.34-1.06C1.71,6.81.98,4.07.24,1.34c-.06-.21-.05-.45-.24-.6V.12Z"/>
      <path class="cls-1" d="m58.3,0l.06.09c2.62.81,3.86,2.48,3.84,5.22,0,1.21-.26,2.36-.94,3.38-.67,1-1.61,1.62-2.78,1.89-.11.03-.26-.03-.3.14h-2.1c-.01-.13-.12-.15-.22-.18-2.18-.6-3.33-2.51-3.45-4.8-.07-1.23.14-2.41.78-3.49.59-.99,1.44-1.67,2.55-2.02.17-.05.38-.03.46-.25h2.1Zm-4.24,5.29c0,1.05.19,2.04.83,2.9,1.33,1.79,4.16,1.55,5.14-.45.65-1.33.69-2.74.25-4.14-.49-1.55-1.59-2.31-3.14-2.26-1.47.05-2.52.95-2.92,2.47-.12.48-.16.97-.17,1.46"/>
      <path class="cls-1" d="m88.62,10.73c-.14-.46-.05-.74.51-.63.48.1.67-.18.68-.57.02-1.37.02-2.75,0-4.12,0-.44-.23-.68-.72-.6-.26.04-.53.04-.53-.32,0-.36.29-.35.54-.32,1.23.14,2.47-.08,3.7.02,1.23.1,1.86,1.01,1.53,2.14-.17.57-.6.8-1.2.99.83.39.81,1.08.81,1.78,0,.37-.14.93.39.95.58.02.43-.57.46-.96.02-.24,0-.49.02-.74.01-.19.14-.29.33-.3.19,0,.36.08.36.26,0,.85.26,1.78-.59,2.43h-1.24c-.41-.3-.56-.72-.56-1.22,0-.39-.03-.77-.05-1.16-.01-.25-.14-.45-.37-.52-.62-.19-1.31-.29-1.86-.03-.42.19-.12.82-.18,1.25-.02.14,0,.28.01.43.01.45.2.68.69.62.53-.07.7.14.46.64h-3.22Zm2.05-4.76c0,.26,0,.46,0,.66,0,.24.07.4.34.4.59,0,1.19.04,1.77-.13.73-.22,1.07-1.11.59-1.66-.62-.71-1.49-.49-2.25-.39-.68.09-.38.74-.45,1.11"/>
      <path class="cls-1" d="m21.54,0c.88.37,1.8.64,2.46,1.41.7.82,1.12,1.75,1.29,2.81.05.34-.05.46-.38.42h-.18q-.98,0-1.26-.95c-.44-1.49-1.55-2.34-3.03-2.33-1.5,0-2.55.84-2.99,2.36-.26.92-.27.88-1.24.93-.63.03-.65-.18-.52-.71.43-1.86,1.45-3.18,3.34-3.75.11-.03.26-.03.29-.19h2.23Z"/>
      <path class="cls-1" d="m34.04,0c.05.19.23.14.36.18,2,.62,2.97,2.08,3.34,4.04.05.27,0,.45-.33.42h-.12q-1.1.03-1.41-1c-.45-1.47-1.59-2.32-3.07-2.28-1.5.04-2.56.92-2.95,2.42-.07.28,0,.73-.29.81-.42.11-.9.06-1.35.03-.24-.02-.16-.23-.13-.39.33-1.93,1.32-3.33,3.24-3.98.14-.05.34-.03.38-.24h2.35Z"/>
      <path class="cls-1" d="m31.69,10.73c-.04-.19-.23-.16-.35-.2-1.94-.62-2.91-2.03-3.27-3.95-.08-.43.06-.48.43-.48,1.1,0,1.1-.02,1.44,1.01.48,1.47,1.61,2.3,3.09,2.25,1.45-.04,2.47-.91,2.88-2.42.07-.27,0-.71.25-.77.45-.11.94-.07,1.41-.05.26.01.16.23.14.38-.32,1.99-1.71,3.8-3.79,4.1l-.12.12h-2.1Z"/>
      <path class="cls-1" d="m19.31,10.73c-.07-.2-.27-.16-.42-.2-1.98-.63-2.91-2.09-3.27-4.02v-.24c.39-.32.86-.08,1.29-.14.22-.03.38.02.43.3.08.49.23.96.48,1.39.67,1.17,1.84,1.73,3.18,1.53,1.25-.19,2.19-1.12,2.52-2.48.06-.26-.05-.66.31-.72.44-.07.91-.07,1.35.01.23.04.1.37.06.55-.43,1.96-1.5,3.35-3.51,3.88-.11.03-.26-.02-.31.14h-2.1Z"/>
      <path class="cls-1" d="m80.33,10.73c-.21-.38-.17-.67.34-.63.5.04.63-.27.77-.63.57-1.53,1.14-3.07,1.7-4.6.14-.37.25-.75.76-.76.52,0,.62.39.76.76.54,1.48,1.09,2.96,1.61,4.44.18.5.37.88,1.03.8.48-.06.54.25.35.64h-3.34c-.18-.63.19-.69.67-.64.48.05.65-.11.44-.59-.53-1.23-.12-1.02-1.49-1.04-.16,0-.33.02-.49,0-.57-.09-.84.16-1.01.7-.29.9-.33.9.61.92.49.01.65.21.41.66h-3.09Zm3.53-5.72c-.2.58-.35,1.02-.51,1.47-.48,1.39-.48,1.38.99,1.3.32-.02.4-.11.3-.4-.25-.76-.5-1.51-.78-2.37"/>
      <path class="cls-1" d="m97.53,10.73c-.19-.44-.1-.7.43-.62.57.08.73-.18.73-.69-.01-1.29-.02-2.59,0-3.88.01-.63-.33-.75-.86-.75-.53,0-.83.18-.8.75.02.35.03.7.02,1.04,0,.25-.13.45-.42.43-.25-.02-.34-.21-.34-.44.02-.68.06-1.35,0-2.03-.02-.28.17-.4.44-.38,1.75.13,3.5-.02,5.24.04v2.71c-.57.15-.73.05-.73-.51,0-.24.05-.49.07-.73.05-.57-.15-.83-.69-.87-.76-.06-1,.07-1.01.7-.04,1.31-.04,2.62-.05,3.93,0,.5.19.77.75.68.52-.08.64.17.42.62h-3.22Z"/>
      <path class="cls-1" d="m43.48.14c.65.04,1.43-.06,2.21.07,2.27.38,3.77,1.91,4.03,4.19.11.9.05,1.8-.21,2.68-.61,2.08-2.33,3.43-4.5,3.49-1.19.03-2.39,0-3.59.01-.34,0-.47-.08-.47-.44.02-1.19.01-2.38,0-3.58,0-.34.08-.46.44-.47,1.21-.03,1.2-.05,1.2,1.38,0,.57-.26,1.32.11,1.65.32.28,1.06.08,1.61.1,2.98.12,3.84-2.04,3.78-4.21-.02-.64-.17-1.26-.48-1.83-.46-.87-1.18-1.41-2.15-1.59-.84-.16-1.69-.06-2.53-.09-.33-.01-.36.17-.36.42,0,.74-.01,1.48.01,2.22.01.36-.07.5-.47.51-1.16.01-1.16.03-1.16-1.11,0-.92.03-1.85-.01-2.77-.03-.54.16-.67.66-.63.58.04,1.15.01,1.86.01"/>
      <path class="cls-1" d="m12.65.14c.83,0,.83,0,.62.7-.31,1.08-.61,2.16-.92,3.24-.14.47-1.16.79-1.55.49-.14-.1-.06-.23-.03-.33.34-1.26.68-2.52,1.03-3.78.15-.56.63-.2.86-.32"/>
      <path class="cls-1" d="m63.83,10.59c.49-.74.92-1.38,1.35-2.02.65-.97,1.29-1.96,1.96-2.92.18-.26.18-.43,0-.69-1.04-1.55-2.06-3.11-3.17-4.79.64,0,1.17,0,1.71,0,.23,0,.29.21.38.36.65,1,1.31,1.99,1.93,3,.25.4.39.55.7.03.56-.93,1.23-1.8,1.78-2.73.31-.53.68-.77,1.28-.68.26.04.53,0,.91,0-.3.45-.54.82-.79,1.18-.79,1.15-1.57,2.31-2.39,3.44-.22.31-.18.52.01.82,1.09,1.61,2.16,3.24,3.32,4.99-.65,0-1.21.01-1.77,0-.21,0-.26-.24-.36-.39-.79-1.22-1.58-2.44-2.41-3.73-.79,1.21-1.55,2.34-2.26,3.5-.29.47-.6.72-1.17.64-.29-.04-.6,0-1.02,0"/>
      <path class="cls-1" d="m73.99.16c.61,0,1.1,0,1.59,0,.33,0,.39.27.5.47.84,1.52,1.68,3.05,2.55,4.62.76-1.36,1.49-2.67,2.23-3.98q.71-1.26,2.3-1.05c-.21.37-.41.72-.61,1.06-.47.77-.88,1.59-1.42,2.31-1.42,1.9-2.13,3.98-1.77,6.36.08.53-.15.7-.65.62-.18-.03-.37-.02-.55,0-.3.03-.4-.09-.39-.39.02-.47-.05-.95.02-1.41.2-1.51-.28-2.78-1.1-4.03-.94-1.44-1.75-2.97-2.68-4.58"/>
    </g>
  </g>
</svg>