<?xml version="1.0" encoding="UTF-8"?>
<svg id="Layer_2" data-name="Layer 2" xmlns="http://www.w3.org/2000/svg" viewBox="0 0 38.19 55.39">
  <defs>
    <style>
      .cls-1 {
        fill: #000;
      }
       .cls-1:hover {
    fill: #000; /* Change the fill color to black on hover */
  }
    </style>
  </defs>
  <g id="Layer_1-2" data-name="Layer 1">
    <g>
      <path class="cls-1" d="m28.86,32.27c-.89-.03-1.6.17-2.29-.56-3.69-3.87-7.44-7.68-11.18-11.52-.77-.79-1.54-1.6-2.32-2.39-.36-.35-.37-.65-.03-1.04,3-3.51,5.98-7.03,8.97-10.55,1.55-1.83,3.15-3.61,4.63-5.49.62-.79,1.29-.79,2.2-.68-4.87,5.73-9.69,11.39-14.55,17.1,4.85,5.04,9.66,10.02,14.57,15.12"/>
      <path class="cls-1" d="m1.57,55.2c-.16.1-.51.1-.67,0-.3-.22-.17-.56.35-.98.52.45.64.78.32.99"/>
      <path class="cls-1" d="m3.38,55.05c.01.09-.27.31-.41.3-.17-.01-.47-.23-.46-.31.04-.29.2-.56.32-.85h.26c.1.29.24.57.28.86"/>
      <path class="cls-1" d="m16.33,44.54c0,2.79,0,5.57,0,8.35,0,.07,0,.14-.01.25H7.68c0-1.25,0-2.47,0-3.69,0-.56-.15-1.05-.57-1.43-.53-.48-1.14-.61-1.8-.35-.64.26-1.01.77-1.07,1.45-.06.72,0,1.46-.07,2.18-.13,1.37-1.51,2.23-2.77,1.75-.81-.31-1.27-.93-1.36-1.79-.05-.51-.04-1.03,0-1.54.07-1.07,1.13-1.96,2.2-1.73-.22.13-.33.23-.47.26-.93.26-1.39.87-1.4,1.85,0,.32,0,.64,0,.96.02.99.77,1.75,1.74,1.75.95,0,1.7-.77,1.72-1.77,0-.55-.01-1.1,0-1.65.05-1.3.97-2.25,2.14-2.22,1.2.03,2.05.97,2.06,2.28,0,1.1,0,2.19,0,3.32h7.96v-.55c0-2.5,0-5,0-7.5,0-.14-.02-.29,0-.42l.17-.21.16.23v.21Z"/>
      <path class="cls-1" d="m21.13,55.2c-.24.25-.52.26-.72,0-.37-.48.06-.71.35-1,.55.45.64.72.37,1.01"/>
      <path class="cls-1" d="m22.84,55.2c-.23.23-.51.27-.73,0-.38-.49.07-.7.35-1.01.53.41.65.74.38,1.01"/>
      <path class="cls-1" d="m37.29,44.41v8.46c0,.07-.01.14-.03.27h-20.24v-8.49c0-.11-.02-.22.01-.32l.18-.2.15.17c.02.14.01.28.01.42,0,2.45,0,4.9,0,7.34v.71h8.46v-2.87c0-.14-.02-.29,0-.42.02-.1.1-.19.15-.28.07.1.19.2.19.3.01.98,0,1.95,0,2.93,0,.1.02.2.03.33.16.02.29.05.43.05,2.13,0,4.26,0,6.4,0,.76,0,1.24-.36,1.43-1,.26-.88.06-1.89-.53-2.23-.29-.17-.66-.26-.99-.26-1.57-.03-3.14-.01-4.71-.01-.16-1.82-.14-2.83.86-3.23-.57.88-.71,1.82-.51,2.89.39,0,.79,0,1.19,0,1.12,0,2.24-.01,3.35,0,1.05.02,1.71.72,1.73,1.78,0,.71.07,1.43-.62,2.03h2.69v-.57c0-2.55,0-5.11,0-7.66,0-.12-.02-.25,0-.37l.17-.21.15.23v.21Z"/>
      <path class="cls-1" d="m38.19,52.75c-.06.14-.13.27-.19.41-.05-.13-.15-.26-.15-.4-.01-.8,0-1.6,0-2.39v-1.86h0c0-1.37,0-2.73,0-4.1,0-.15.1-.29.16-.44.06.14.17.28.17.42.01,2.77,0,5.53,0,8.3v.05Z"/>
      <path class="cls-1" d="m38.16,40.37v.48l-.15.05c-.39,0-.77,0-1.15,0-12.11,0-24.23,0-36.34,0-.34,0-.62,0-.45-.54h38.1Z"/>
      <rect class="cls-1" x="7.99" y=".22" width="1.19" height="32.03"/>
      <path class="cls-1" d="m29.97,18.97c-.61.64-1.39.71-2,.17-.66-.58-.79-1.4-.28-2.02.36-.45.78-.84,1.19-1.28.43.44.79.8,1.14,1.18.53.59.51,1.38-.04,1.95"/>
    </g>
  </g>
</svg>