<?xml version="1.0" encoding="UTF-8"?>
<svg id="Layer_2" data-name="Layer 2" xmlns="http://www.w3.org/2000/svg" viewBox="0 0 494.06 321.08">
  <defs>
    <style>
      .cls-1 {
        stroke-width: 0px;
      }
    </style>
  </defs>
  <g id="Layer_1-2" data-name="Layer 1">
    <g>
      <g>
        <path class="cls-1" d="m0,278.35c0-13.27,2.45-26.13,7.36-38.58,4.91-12.45,11.86-23.5,20.85-33.19,6.78-7.19,13.42-10.79,19.91-10.79,3.59,0,6.64,1.39,9.13,4.15,3.04,3.32,4.01,7.26,2.9,11.82-1.11,4.56-4.43,11.97-9.96,22.19-5.65,9.68-10.17,19.02-13.56,28-3.39,8.99-5.51,16.94-6.35,23.85-.56,5.26-.28,8.85.84,10.79,1.11,1.94,3.2,2.9,6.27,2.9,2.5,0,5.99-1.31,10.45-3.94,4.46-2.63,9.48-6.29,15.06-10.99,5.57-4.7,11.49-10.16,17.74-16.39,6.25-6.22,12.42-13.07,18.51-20.53,4.7-6.08,8.5-10.3,11.41-12.65,2.9-2.35,5.46-3.53,7.67-3.53,1.1,0,1.93.14,2.49.41,2.21.83,2.76,3.05,1.66,6.64-1.11,3.6-3.39,8.09-6.84,13.48-3.46,5.39-8.02,11.55-13.69,18.46-5.67,6.92-12.24,13.97-19.7,21.16-19.8,19.63-36.95,29.45-51.44,29.45-6,0-10.97-1.24-14.92-3.73-3.95-2.49-7.08-5.74-9.4-9.75-2.32-4.01-3.96-8.57-4.93-13.69-.97-5.11-1.45-10.3-1.45-15.56Z"/>
        <path class="cls-1" d="m129.01,319.84c-14.66-2.22-25.17-11.76-31.53-28.62-.83-1.93-1.45-3.73-1.87-5.39-.41-1.66-.76-3.59-1.04-5.81-.28-2.21-.41-5.04-.41-8.5v-13.07c0-6.91.14-13.13.41-18.67.27-5.53.89-11.06,1.87-16.59.97-5.53,2.21-11.2,3.73-17.01,1.52-5.81,3.53-12.45,6.02-19.91,5.81-17.69,13.9-36.02,24.27-54.97,10.37-18.94,21.71-36.78,34.02-53.51,12.3-16.73,24.95-31.53,37.96-44.39,13-12.86,25.03-22.05,36.09-27.59,7.47-3.87,13.41-5.81,17.84-5.81,3.04,0,5.81.56,8.3,1.66,7.47,3.05,11.2,8.99,11.2,17.84s-3.39,19.91-10.16,33.19c-6.78,13.27-16.66,28.21-29.66,44.8-13,16.59-28.9,34.29-47.71,53.1-4.15,3.88-8.23,7.75-12.24,11.61-4.01,3.88-7.67,7.4-10.99,10.58-3.32,3.18-6.29,5.88-8.92,8.09-2.63,2.22-4.5,3.73-5.6,4.56-3.88,2.49-6.5,4.63-7.88,6.43-1.39,1.8-2.77,4.5-4.15,8.09-3.32,8.85-6.16,18.87-8.5,30.07-2.35,11.2-3.81,21.23-4.36,30.07-.56,10.51-.49,18.32.21,23.44.69,5.12,2.14,9.06,4.36,11.82,1.66,1.94,3.18,3.11,4.56,3.53,1.38.41,3.87.62,7.47.62,17.14-.55,40.65-15.9,70.52-46.05,7.19-7.47,12.3-12.45,15.35-14.93,3.04-2.49,5.25-3.59,6.64-3.32,2.49.28,3.87,1.94,4.15,4.98,0,1.39-.35,2.98-1.04,4.77-.69,1.8-1.94,3.94-3.73,6.43-1.8,2.49-4.36,5.6-7.67,9.33-3.32,3.73-7.61,8.23-12.86,13.48-13.83,14.66-27.66,25.99-41.48,34.02-13.83,8.02-26.13,12.03-36.92,12.03-2.77,0-4.84-.14-6.22-.42Zm48.54-177.96c7.19-7.19,13.27-13.41,18.25-18.67,4.98-5.25,9.47-10.16,13.48-14.73,4.01-4.56,7.74-9.13,11.2-13.69,3.45-4.56,7.12-9.47,10.99-14.73,9.68-13.27,17.14-25.03,22.4-35.26,5.25-10.23,7.88-17.84,7.88-22.82,0-2.76-1.24-4.15-3.73-4.15-4.43,0-11.2,4.15-20.33,12.44-4.98,4.71-10.58,10.86-16.8,18.46-6.22,7.61-12.52,16.11-18.87,25.51-6.37,9.4-12.65,19.29-18.87,29.66-6.22,10.37-11.97,20.68-17.22,30.91-10.51,21.02-15.08,31.53-13.69,31.53.27,0,2.9-2.35,7.88-7.05,4.98-4.7,10.79-10.51,17.42-17.42Z"/>
        <path class="cls-1" d="m218.2,278.35c0-13.27,2.45-26.13,7.36-38.58s11.86-23.5,20.85-33.19c6.78-7.19,13.42-10.79,19.91-10.79,3.59,0,6.64,1.39,9.13,4.15,3.04,3.32,4.01,7.26,2.9,11.82-1.11,4.56-4.43,11.97-9.96,22.19-5.65,9.68-10.17,19.02-13.56,28-3.39,8.99-5.51,16.94-6.35,23.85-.56,5.26-.28,8.85.84,10.79,1.11,1.94,3.2,2.9,6.27,2.9,2.5,0,5.99-1.31,10.45-3.94,4.46-2.63,9.48-6.29,15.06-10.99,5.57-4.7,11.49-10.16,17.74-16.39,6.25-6.22,12.42-13.07,18.51-20.53,4.7-6.08,8.5-10.3,11.41-12.65,2.9-2.35,5.46-3.53,7.67-3.53,1.1,0,1.93.14,2.49.41,2.21.83,2.76,3.05,1.66,6.64-1.11,3.6-3.39,8.09-6.84,13.48-3.46,5.39-8.02,11.55-13.69,18.46-5.67,6.92-12.24,13.97-19.7,21.16-19.8,19.63-36.95,29.45-51.44,29.45-6,0-10.97-1.24-14.92-3.73-3.95-2.49-7.08-5.74-9.4-9.75-2.32-4.01-3.96-8.57-4.93-13.69-.97-5.11-1.45-10.3-1.45-15.56Z"/>
        <path class="cls-1" d="m347.21,319.84c-14.66-2.22-25.17-11.76-31.53-28.62-.83-1.93-1.45-3.73-1.87-5.39-.42-1.66-.76-3.59-1.04-5.81-.28-2.21-.42-5.04-.42-8.5v-13.07c0-6.91.14-13.13.42-18.67.27-5.53.89-11.06,1.87-16.59.97-5.53,2.21-11.2,3.73-17.01,1.52-5.81,3.53-12.45,6.01-19.91,5.81-17.69,13.9-36.02,24.27-54.97,10.37-18.94,21.71-36.78,34.02-53.51,12.3-16.73,24.96-31.53,37.96-44.39,13-12.86,25.03-22.05,36.09-27.59,7.47-3.87,13.41-5.81,17.84-5.81,3.04,0,5.81.56,8.3,1.66,7.47,3.05,11.2,8.99,11.2,17.84s-3.39,19.91-10.16,33.19c-6.78,13.27-16.66,28.21-29.66,44.8-13,16.59-28.9,34.29-47.71,53.1-4.15,3.88-8.23,7.75-12.24,11.61-4.01,3.88-7.67,7.4-10.99,10.58-3.32,3.18-6.29,5.88-8.92,8.09-2.63,2.22-4.5,3.73-5.6,4.56-3.88,2.49-6.5,4.63-7.88,6.43-1.39,1.8-2.77,4.5-4.15,8.09-3.32,8.85-6.16,18.87-8.5,30.07-2.35,11.2-3.8,21.23-4.36,30.07-.56,10.51-.49,18.32.21,23.44.69,5.12,2.14,9.06,4.36,11.82,1.66,1.94,3.18,3.11,4.56,3.53,1.38.41,3.87.62,7.47.62,17.14-.55,40.65-15.9,70.52-46.05,7.19-7.47,12.3-12.45,15.35-14.93,3.04-2.49,5.25-3.59,6.64-3.32,2.49.28,3.87,1.94,4.15,4.98,0,1.39-.35,2.98-1.04,4.77-.69,1.8-1.94,3.94-3.73,6.43-1.8,2.49-4.36,5.6-7.67,9.33-3.32,3.73-7.61,8.23-12.86,13.48-13.83,14.66-27.66,25.99-41.48,34.02-13.83,8.02-26.14,12.03-36.92,12.03-2.77,0-4.84-.14-6.22-.42Zm48.54-177.96c7.19-7.19,13.27-13.41,18.25-18.67,4.98-5.25,9.47-10.16,13.48-14.73,4.01-4.56,7.74-9.13,11.2-13.69,3.45-4.56,7.12-9.47,10.99-14.73,9.68-13.27,17.14-25.03,22.4-35.26,5.25-10.23,7.88-17.84,7.88-22.82,0-2.76-1.24-4.15-3.73-4.15-4.43,0-11.2,4.15-20.33,12.44-4.98,4.71-10.58,10.86-16.8,18.46-6.22,7.61-12.52,16.11-18.87,25.51-6.37,9.4-12.65,19.29-18.88,29.66-6.22,10.37-11.97,20.68-17.22,30.91-10.51,21.02-15.08,31.53-13.69,31.53.27,0,2.9-2.35,7.88-7.05,4.98-4.7,10.79-10.51,17.42-17.42Z"/>
      </g>
      <circle class="cls-1" cx="281.88" cy="162.28" r="18.82"/>
      <circle class="cls-1" cx="67.71" cy="168.69" r="18.82"/>
    </g>
  </g>
</svg>